<svg width="225" height="220" viewBox="0 0 225 220" fill="none" xmlns="http://www.w3.org/2000/svg">
<path d="M223 110C223 170.751 173.751 220 113 220C52.2487 220 3 170.751 3 110C3 49.2487 52.2487 0 113 0C173.751 0 223 49.2487 223 110ZM28.3 110C28.3 156.779 66.2215 194.7 113 194.7C159.779 194.7 197.7 156.779 197.7 110C197.7 63.2215 159.779 25.3 113 25.3C66.2215 25.3 28.3 63.2215 28.3 110Z" fill="#D9D9D9" fill-opacity="0.5"/>
<path d="M107.989 16V5.5H109.219L116.164 14.125H115.519V5.5H117.019V16H115.789L108.844 7.375H109.489V16H107.989Z" fill="#FF0000"/>
<path d="M112.477 214.12C111.677 214.12 110.912 214 110.182 213.76C109.452 213.51 108.877 213.19 108.457 212.8L109.012 211.63C109.412 211.98 109.922 212.27 110.542 212.5C111.162 212.73 111.807 212.845 112.477 212.845C113.087 212.845 113.582 212.775 113.962 212.635C114.342 212.495 114.622 212.305 114.802 212.065C114.982 211.815 115.072 211.535 115.072 211.225C115.072 210.865 114.952 210.575 114.712 210.355C114.482 210.135 114.177 209.96 113.797 209.83C113.427 209.69 113.017 209.57 112.567 209.47C112.117 209.37 111.662 209.255 111.202 209.125C110.752 208.985 110.337 208.81 109.957 208.6C109.587 208.39 109.287 208.11 109.057 207.76C108.827 207.4 108.712 206.94 108.712 206.38C108.712 205.84 108.852 205.345 109.132 204.895C109.422 204.435 109.862 204.07 110.452 203.8C111.052 203.52 111.812 203.38 112.732 203.38C113.342 203.38 113.947 203.46 114.547 203.62C115.147 203.78 115.667 204.01 116.107 204.31L115.612 205.51C115.162 205.21 114.687 204.995 114.187 204.865C113.687 204.725 113.202 204.655 112.732 204.655C112.142 204.655 111.657 204.73 111.277 204.88C110.897 205.03 110.617 205.23 110.437 205.48C110.267 205.73 110.182 206.01 110.182 206.32C110.182 206.69 110.297 206.985 110.527 207.205C110.767 207.425 111.072 207.6 111.442 207.73C111.822 207.86 112.237 207.98 112.687 208.09C113.137 208.19 113.587 208.305 114.037 208.435C114.497 208.565 114.912 208.735 115.282 208.945C115.662 209.155 115.967 209.435 116.197 209.785C116.427 210.135 116.542 210.585 116.542 211.135C116.542 211.665 116.397 212.16 116.107 212.62C115.817 213.07 115.367 213.435 114.757 213.715C114.157 213.985 113.397 214.12 112.477 214.12Z" fill="black"/>
<path d="M209.416 109.03H214.816V110.305H209.416V109.03ZM209.551 113.695H215.671V115H208.051V104.5H215.461V105.805H209.551V113.695Z" fill="black"/>
<path d="M176.871 48V39.6H177.855L183.411 46.5H182.895V39.6H184.095V48H183.111L177.555 41.1H178.071V48H176.871ZM187.702 43.224H192.022V44.244H187.702V43.224ZM187.81 46.956H192.706V48H186.61V39.6H192.538V40.644H187.81V46.956Z" fill="black"/>
<path d="M183.962 180.096C183.322 180.096 182.71 180 182.126 179.808C181.542 179.608 181.082 179.352 180.746 179.04L181.19 178.104C181.51 178.384 181.918 178.616 182.414 178.8C182.91 178.984 183.426 179.076 183.962 179.076C184.45 179.076 184.846 179.02 185.15 178.908C185.454 178.796 185.678 178.644 185.822 178.452C185.966 178.252 186.038 178.028 186.038 177.78C186.038 177.492 185.942 177.26 185.75 177.084C185.566 176.908 185.322 176.768 185.018 176.664C184.722 176.552 184.394 176.456 184.034 176.376C183.674 176.296 183.31 176.204 182.942 176.1C182.582 175.988 182.25 175.848 181.946 175.68C181.65 175.512 181.41 175.288 181.226 175.008C181.042 174.72 180.95 174.352 180.95 173.904C180.95 173.472 181.062 173.076 181.286 172.716C181.518 172.348 181.87 172.056 182.342 171.84C182.822 171.616 183.43 171.504 184.166 171.504C184.654 171.504 185.138 171.568 185.618 171.696C186.098 171.824 186.514 172.008 186.866 172.248L186.47 173.208C186.11 172.968 185.73 172.796 185.33 172.692C184.93 172.58 184.542 172.524 184.166 172.524C183.694 172.524 183.306 172.584 183.002 172.704C182.698 172.824 182.474 172.984 182.33 173.184C182.194 173.384 182.126 173.608 182.126 173.856C182.126 174.152 182.218 174.388 182.402 174.564C182.594 174.74 182.838 174.88 183.134 174.984C183.438 175.088 183.77 175.184 184.13 175.272C184.49 175.352 184.85 175.444 185.21 175.548C185.578 175.652 185.91 175.788 186.206 175.956C186.51 176.124 186.754 176.348 186.938 176.628C187.122 176.908 187.214 177.268 187.214 177.708C187.214 178.132 187.098 178.528 186.866 178.896C186.634 179.256 186.274 179.548 185.786 179.772C185.306 179.988 184.698 180.096 183.962 180.096ZM190.059 175.224H194.379V176.244H190.059V175.224ZM190.167 178.956H195.063V180H188.967V171.6H194.895V172.644H190.167V178.956Z" fill="black"/>
<path d="M36.2256 180.096C35.5856 180.096 34.9736 180 34.3896 179.808C33.8056 179.608 33.3456 179.352 33.0096 179.04L33.4536 178.104C33.7736 178.384 34.1816 178.616 34.6776 178.8C35.1736 178.984 35.6896 179.076 36.2256 179.076C36.7136 179.076 37.1096 179.02 37.4136 178.908C37.7176 178.796 37.9416 178.644 38.0856 178.452C38.2296 178.252 38.3016 178.028 38.3016 177.78C38.3016 177.492 38.2056 177.26 38.0136 177.084C37.8296 176.908 37.5856 176.768 37.2816 176.664C36.9856 176.552 36.6576 176.456 36.2976 176.376C35.9376 176.296 35.5736 176.204 35.2056 176.1C34.8456 175.988 34.5136 175.848 34.2096 175.68C33.9136 175.512 33.6736 175.288 33.4896 175.008C33.3056 174.72 33.2136 174.352 33.2136 173.904C33.2136 173.472 33.3256 173.076 33.5496 172.716C33.7816 172.348 34.1336 172.056 34.6056 171.84C35.0856 171.616 35.6936 171.504 36.4296 171.504C36.9176 171.504 37.4016 171.568 37.8816 171.696C38.3616 171.824 38.7776 172.008 39.1296 172.248L38.7336 173.208C38.3736 172.968 37.9936 172.796 37.5936 172.692C37.1936 172.58 36.8056 172.524 36.4296 172.524C35.9576 172.524 35.5696 172.584 35.2656 172.704C34.9616 172.824 34.7376 172.984 34.5936 173.184C34.4576 173.384 34.3896 173.608 34.3896 173.856C34.3896 174.152 34.4816 174.388 34.6656 174.564C34.8576 174.74 35.1016 174.88 35.3976 174.984C35.7016 175.088 36.0336 175.184 36.3936 175.272C36.7536 175.352 37.1136 175.444 37.4736 175.548C37.8416 175.652 38.1736 175.788 38.4696 175.956C38.7736 176.124 39.0176 176.348 39.2016 176.628C39.3856 176.908 39.4776 177.268 39.4776 177.708C39.4776 178.132 39.3616 178.528 39.1296 178.896C38.8976 179.256 38.5376 179.548 38.0496 179.772C37.5696 179.988 36.9616 180.096 36.2256 180.096ZM43.1627 180L40.3547 171.6H41.5907L44.1707 179.352H43.5467L46.2227 171.6H47.3267L49.9427 179.352H49.3427L51.9587 171.6H53.0987L50.2907 180H49.0307L46.5827 172.812H46.9067L44.4467 180H43.1627Z" fill="black"/>
<path d="M32.176 48V39.6H33.16L38.716 46.5H38.2V39.6H39.4V48H38.416L32.86 41.1H33.376V48H32.176ZM43.7643 48L40.9563 39.6H42.1923L44.7723 47.352H44.1483L46.8243 39.6H47.9283L50.5443 47.352H49.9443L52.5603 39.6H53.7003L50.8923 48H49.6323L47.1843 40.812H47.5083L45.0483 48H43.7643Z" fill="black"/>
<path d="M9.04518 115L5.53518 104.5H7.08018L10.3052 114.19H9.52518L12.8702 104.5H14.2502L17.5202 114.19H16.7702L20.0402 104.5H21.4652L17.9552 115H16.3802L13.3202 106.015H13.7252L10.6502 115H9.04518Z" fill="black"/>
</svg>
