<svg width="110" height="102" viewBox="0 0 110 102" fill="none" xmlns="http://www.w3.org/2000/svg">
<mask id="path-1-inside-1_6_265" fill="white">
<path d="M36.3493 10.5925C39.0362 9.21047 41.8051 8.15547 44.6105 7.41253C47.9852 6.51883 50.1562 10.5745 48.6492 13.7235C44.1832 23.0554 43.9797 34.2934 49.0767 44.203C56.0601 57.7796 70.8575 64.7119 85.1511 62.3347C88.5975 61.7615 91.8952 64.9731 90.1011 67.9711C86.317 74.294 80.7779 79.6715 73.7427 83.2902C53.6678 93.6161 29.023 85.7135 18.697 65.6388C8.371 45.5638 16.2743 20.9185 36.3493 10.5925Z"/>
</mask>
<path d="M36.3493 10.5925C39.0362 9.21047 41.8051 8.15547 44.6105 7.41253C47.9852 6.51883 50.1562 10.5745 48.6492 13.7235C44.1832 23.0554 43.9797 34.2934 49.0767 44.203C56.0601 57.7796 70.8575 64.7119 85.1511 62.3347C88.5975 61.7615 91.8952 64.9731 90.1011 67.9711C86.317 74.294 80.7779 79.6715 73.7427 83.2902C53.6678 93.6161 29.023 85.7135 18.697 65.6388C8.371 45.5638 16.2743 20.9185 36.3493 10.5925Z" fill="url(#paint0_radial_6_265)"/>
<path d="M36.3493 10.5925L35.4345 8.81401L35.4345 8.81402L36.3493 10.5925ZM49.0767 44.203L47.2982 45.1178L47.2982 45.1178L49.0767 44.203ZM73.7427 83.2902L74.6575 85.0687L74.6576 85.0687L73.7427 83.2902ZM18.697 65.6388L16.9184 66.5536L16.9184 66.5536L18.697 65.6388ZM85.1511 62.3347L85.4792 64.3076L85.1511 62.3347ZM90.1011 67.9711L88.3849 66.944L90.1011 67.9711ZM36.3493 10.5925L37.2641 12.3711C39.8218 11.0554 42.4555 10.0522 45.1225 9.34589L44.6105 7.41253L44.0985 5.47918C41.1546 6.25879 38.2506 7.3655 35.4345 8.81401L36.3493 10.5925ZM48.6492 13.7235L46.8452 12.8601C42.1208 22.7318 41.903 34.6285 47.2982 45.1178L49.0767 44.203L50.8552 43.2882C46.0564 33.9583 46.2455 23.379 50.4533 14.5868L48.6492 13.7235ZM49.0767 44.203L47.2982 45.1178C54.6908 59.4899 70.3532 66.8233 85.4792 64.3076L85.1511 62.3347L84.823 60.3618C71.3618 62.6006 57.4295 56.0694 50.8552 43.2882L49.0767 44.203ZM90.1011 67.9711L88.3849 66.944C84.787 72.956 79.5214 78.0687 72.8279 81.5117L73.7427 83.2902L74.6576 85.0687C82.0343 81.2743 87.847 75.632 91.8172 68.9981L90.1011 67.9711ZM73.7427 83.2902L72.8279 81.5117C53.7352 91.3324 30.2962 83.8164 20.4755 64.7239L18.697 65.6388L16.9184 66.5536C27.7498 87.6106 53.6005 95.8998 74.6575 85.0687L73.7427 83.2902ZM18.697 65.6388L20.4755 64.7239C10.6547 45.6312 18.1713 22.1918 37.2641 12.3711L36.3493 10.5925L35.4345 8.81402C14.3772 19.6452 6.08724 45.4963 16.9184 66.5536L18.697 65.6388ZM85.1511 62.3347L85.4792 64.3076C86.5173 64.135 87.5379 64.544 88.1283 65.1774C88.6655 65.7536 88.7443 66.3434 88.3849 66.944L90.1011 67.9711L91.8172 68.9981C93.2519 66.6008 92.5791 64.0858 91.0543 62.45C89.5828 60.8714 87.2313 59.9613 84.823 60.3618L85.1511 62.3347ZM44.6105 7.41253L45.1225 9.34589C45.7975 9.16713 46.3409 9.40552 46.7448 10.0797C47.1888 10.8211 47.2985 11.9128 46.8452 12.8601L48.6492 13.7235L50.4533 14.5868C51.5069 12.3852 51.2846 9.87457 50.1762 8.02424C49.0277 6.10682 46.7982 4.76424 44.0985 5.47918L44.6105 7.41253Z" fill="url(#paint1_linear_6_265)" mask="url(#path-1-inside-1_6_265)"/>
<path d="M73.1795 36.3006C73.7434 34.388 76.4524 34.388 77.0162 36.3006L77.6588 38.4802C77.8508 39.1315 78.3603 39.6409 79.0116 39.833L81.1912 40.4755C83.1037 41.0394 83.1037 43.7484 81.1912 44.3123L79.0116 44.9548C78.3603 45.1469 77.8508 45.6563 77.6588 46.3076L77.0162 48.4872C76.4524 50.3998 73.7434 50.3998 73.1795 48.4872L72.537 46.3076C72.3449 45.6563 71.8355 45.1469 71.1841 44.9548L69.0046 44.3123C67.092 43.7484 67.092 41.0394 69.0046 40.4755L71.1841 39.833C71.8355 39.6409 72.3449 39.1315 72.537 38.4802L73.1795 36.3006Z" fill="url(#paint2_linear_6_265)"/>
<path d="M61.1695 11.6293C61.7218 9.75603 64.3751 9.75603 64.9274 11.6293V11.6293C65.1155 12.2673 65.6144 12.7662 66.2524 12.9543V12.9543C68.1257 13.5066 68.1257 16.1599 66.2524 16.7122V16.7122C65.6144 16.9003 65.1155 17.3992 64.9274 18.0372V18.0372C64.3751 19.9105 61.7218 19.9105 61.1695 18.0372V18.0372C60.9814 17.3992 60.4825 16.9003 59.8445 16.7122V16.7122C57.9712 16.1599 57.9712 13.5066 59.8445 12.9543V12.9543C60.4825 12.7662 60.9814 12.2673 61.1695 11.6293V11.6293Z" fill="url(#paint3_linear_6_265)"/>
<path d="M90.6522 5.92722C91.1172 4.34989 93.3514 4.34989 93.8164 5.92722V5.92722C93.9748 6.4644 94.3949 6.88453 94.9321 7.0429V7.0429C96.5094 7.50792 96.5094 9.74208 94.9321 10.2071V10.2071C94.3949 10.3655 93.9748 10.7856 93.8164 11.3228V11.3228C93.3514 12.9001 91.1172 12.9001 90.6522 11.3228V11.3228C90.4938 10.7856 90.0737 10.3655 89.5365 10.2071V10.2071C87.9592 9.74208 87.9592 7.50792 89.5365 7.0429V7.0429C90.0737 6.88453 90.4938 6.4644 90.6522 5.92722V5.92722Z" fill="url(#paint4_linear_6_265)"/>
<path d="M100.354 27.2578C100.819 25.6805 103.053 25.6805 103.518 27.2578V27.2578C103.676 27.795 104.096 28.2152 104.634 28.3735V28.3735C106.211 28.8385 106.211 31.0727 104.634 31.5377V31.5377C104.096 31.6961 103.676 32.1162 103.518 32.6534V32.6534C103.053 34.2307 100.819 34.2307 100.354 32.6534V32.6534C100.195 32.1162 99.7752 31.6961 99.238 31.5377V31.5377C97.6607 31.0727 97.6607 28.8385 99.238 28.3735V28.3735C99.7752 28.2152 100.195 27.795 100.354 27.2578V27.2578Z" fill="url(#paint5_linear_6_265)"/>
<defs>
<radialGradient id="paint0_radial_6_265" cx="0" cy="0" r="1" gradientUnits="userSpaceOnUse" gradientTransform="translate(46.2045 52.299) rotate(62.7801) scale(40.8755 30.9215)">
<stop offset="0.0001" stop-color="white"/>
<stop offset="0.50005" stop-color="#F3F4F6"/>
<stop offset="1" stop-color="#DADDE3"/>
</radialGradient>
<linearGradient id="paint1_linear_6_265" x1="30.7545" y1="-23.5998" x2="52.9997" y2="71.8036" gradientUnits="userSpaceOnUse">
<stop stop-color="white"/>
<stop offset="1" stop-color="white" stop-opacity="0"/>
</linearGradient>
<linearGradient id="paint2_linear_6_265" x1="75.0979" y1="29.7936" x2="75.0979" y2="54.9942" gradientUnits="userSpaceOnUse">
<stop stop-color="#FFE600"/>
<stop offset="1" stop-color="#FF7A00"/>
</linearGradient>
<linearGradient id="paint3_linear_6_265" x1="63.0485" y1="5.25598" x2="63.0485" y2="24.4105" gradientUnits="userSpaceOnUse">
<stop stop-color="#FFE600"/>
<stop offset="1" stop-color="#FF7A00"/>
</linearGradient>
<linearGradient id="paint4_linear_6_265" x1="92.2343" y1="0.560791" x2="92.2343" y2="16.6892" gradientUnits="userSpaceOnUse">
<stop stop-color="#FFE600"/>
<stop offset="1" stop-color="#FF7A00"/>
</linearGradient>
<linearGradient id="paint5_linear_6_265" x1="101.936" y1="21.8914" x2="101.936" y2="38.0198" gradientUnits="userSpaceOnUse">
<stop stop-color="#FFE600"/>
<stop offset="1" stop-color="#FF7A00"/>
</linearGradient>
</defs>
</svg>
