<svg width="310" height="310" viewBox="0 0 310 310" fill="none" xmlns="http://www.w3.org/2000/svg">
<g filter="url(#filter0_f_6_144)">
<ellipse cx="155" cy="155" rx="55" ry="55" fill="#FFC701" fill-opacity="0.35"/>
</g>
<path d="M155 104.606C183.828 104.607 207.197 127.976 207.197 156.804C207.197 185.631 183.828 209 155 209C126.173 209 102.803 185.631 102.803 156.804C102.803 127.976 126.173 104.606 155 104.606Z" fill="url(#paint0_linear_6_144)" stroke="url(#paint1_linear_6_144)" stroke-width="2"/>
<mask id="mask0_6_144" style="mask-type:alpha" maskUnits="userSpaceOnUse" x="101" y="133" width="108" height="78">
<path d="M208.197 156.803C208.197 186.183 184.38 210 155 210C125.62 210 101.803 186.183 101.803 156.803C101.803 127.424 121.563 134.262 150.943 134.262C180.322 134.262 208.197 127.424 208.197 156.803Z" fill="url(#paint2_linear_6_144)"/>
</mask>
<g mask="url(#mask0_6_144)">
<g filter="url(#filter1_f_6_144)">
<path d="M196.926 215.415C197.077 215.413 197.227 215.41 197.378 215.41C218.79 215.41 236.148 232.768 236.148 254.18C236.148 275.593 218.79 292.951 197.378 292.951C197.227 292.951 197.077 292.947 196.926 292.945V292.951H60.779L60.7819 292.946C60.6308 292.948 60.4794 292.952 60.3278 292.952C38.9156 292.952 21.5575 275.594 21.5573 254.181C21.5573 232.769 38.9155 215.411 60.3278 215.411C78.7851 215.411 94.2278 228.308 98.1393 245.583L111.271 228.934L152.296 215.41H196.926V215.415Z" fill="#E18700"/>
</g>
</g>
<defs>
<filter id="filter0_f_6_144" x="0" y="0" width="310" height="310" filterUnits="userSpaceOnUse" color-interpolation-filters="sRGB">
<feFlood flood-opacity="0" result="BackgroundImageFix"/>
<feBlend mode="normal" in="SourceGraphic" in2="BackgroundImageFix" result="shape"/>
<feGaussianBlur stdDeviation="50" result="effect1_foregroundBlur_6_144"/>
</filter>
<filter id="filter1_f_6_144" x="7.55731" y="201.41" width="242.591" height="105.542" filterUnits="userSpaceOnUse" color-interpolation-filters="sRGB">
<feFlood flood-opacity="0" result="BackgroundImageFix"/>
<feBlend mode="normal" in="SourceGraphic" in2="BackgroundImageFix" result="shape"/>
<feGaussianBlur stdDeviation="7" result="effect1_foregroundBlur_6_144"/>
</filter>
<linearGradient id="paint0_linear_6_144" x1="155" y1="103.606" x2="155" y2="210" gradientUnits="userSpaceOnUse">
<stop stop-color="#FFE600"/>
<stop offset="1" stop-color="#FF7A00"/>
</linearGradient>
<linearGradient id="paint1_linear_6_144" x1="155" y1="103.606" x2="155" y2="210" gradientUnits="userSpaceOnUse">
<stop stop-color="white"/>
<stop offset="1" stop-color="white" stop-opacity="0"/>
</linearGradient>
<linearGradient id="paint2_linear_6_144" x1="155" y1="103.607" x2="155" y2="210" gradientUnits="userSpaceOnUse">
<stop stop-color="#FFD600"/>
<stop offset="1" stop-color="#FF7A00"/>
</linearGradient>
</defs>
</svg>
