<svg width="219" height="213" viewBox="0 0 219 213" fill="none" xmlns="http://www.w3.org/2000/svg">
<foreignObject x="0" y="0" width="219" height="212.999"><div xmlns="http://www.w3.org/1999/xhtml" style="backdrop-filter:blur(7px);clip-path:url(#bgblur_0_6_261_clip_path);height:100%;width:100%"></div></foreignObject><g filter="url(#filter0_dd_6_261)" data-figma-bg-blur-radius="14">
<mask id="path-1-inside-1_6_261" fill="white">
<path d="M126 38C156.376 38 181 62.6236 181 92.999C181 123.374 156.376 147.999 126 147.999C95.6243 147.999 71 123.374 71 92.999C71.0001 62.6237 95.6244 38.0001 126 38Z"/>
</mask>
<path d="M126 38C156.376 38 181 62.6236 181 92.999C181 123.374 156.376 147.999 126 147.999C95.6243 147.999 71 123.374 71 92.999C71.0001 62.6237 95.6244 38.0001 126 38Z" fill="url(#paint0_radial_6_261)"/>
<path d="M126 38V36H126L126 38ZM181 92.999H183V92.999L181 92.999ZM126 147.999L126 149.999H126V147.999ZM71 92.999L69 92.999V92.999H71ZM126 38V40C155.271 40 179 63.7283 179 92.999L181 92.999L183 92.999C183 61.519 157.48 36 126 36V38ZM181 92.999H179C179 122.27 155.271 145.999 126 145.999V147.999V149.999C157.48 149.999 183 124.479 183 92.999H181ZM126 147.999L126 145.999C96.7289 145.999 73 122.27 73 92.999H71H69C69 124.479 94.5198 149.999 126 149.999L126 147.999ZM71 92.999L73 92.999C73.0001 63.7283 96.7289 40.0001 126 40L126 38L126 36C94.5198 36.0001 69.0001 61.5191 69 92.999L71 92.999Z" fill="url(#paint1_linear_6_261)" mask="url(#path-1-inside-1_6_261)"/>
</g>
<defs>
<filter id="filter0_dd_6_261" x="0" y="0" width="219" height="212.999" filterUnits="userSpaceOnUse" color-interpolation-filters="sRGB">
<feFlood flood-opacity="0" result="BackgroundImageFix"/>
<feColorMatrix in="SourceAlpha" type="matrix" values="0 0 0 0 0 0 0 0 0 0 0 0 0 0 0 0 0 0 127 0" result="hardAlpha"/>
<feOffset dx="-21" dy="15"/>
<feGaussianBlur stdDeviation="25"/>
<feComposite in2="hardAlpha" operator="out"/>
<feColorMatrix type="matrix" values="0 0 0 0 0.113438 0 0 0 0 0.148981 0 0 0 0 0.275 0 0 0 0.25 0"/>
<feBlend mode="normal" in2="BackgroundImageFix" result="effect1_dropShadow_6_261"/>
<feColorMatrix in="SourceAlpha" type="matrix" values="0 0 0 0 0 0 0 0 0 0 0 0 0 0 0 0 0 0 127 0" result="hardAlpha"/>
<feOffset/>
<feGaussianBlur stdDeviation="19"/>
<feComposite in2="hardAlpha" operator="out"/>
<feColorMatrix type="matrix" values="0 0 0 0 0.980392 0 0 0 0 0.980392 0 0 0 0 0.980392 0 0 0 0.4 0"/>
<feBlend mode="normal" in2="effect1_dropShadow_6_261" result="effect2_dropShadow_6_261"/>
<feBlend mode="normal" in="SourceGraphic" in2="effect2_dropShadow_6_261" result="shape"/>
</filter>
<clipPath id="bgblur_0_6_261_clip_path" transform="translate(0 0)"><path d="M126 38C156.376 38 181 62.6236 181 92.999C181 123.374 156.376 147.999 126 147.999C95.6243 147.999 71 123.374 71 92.999C71.0001 62.6237 95.6244 38.0001 126 38Z"/>
</clipPath><radialGradient id="paint0_radial_6_261" cx="0" cy="0" r="1" gradientUnits="userSpaceOnUse" gradientTransform="translate(126 92.9995) rotate(90) scale(54.9995 55)">
<stop stop-color="white"/>
<stop offset="0.5" stop-color="#F3F4F6"/>
<stop offset="1" stop-color="#DADDE3"/>
</radialGradient>
<linearGradient id="paint1_linear_6_261" x1="159.539" y1="-6.35543" x2="133.806" y2="124.488" gradientUnits="userSpaceOnUse">
<stop stop-color="white"/>
<stop offset="1" stop-color="white" stop-opacity="0"/>
</linearGradient>
</defs>
</svg>
