<svg width="108" height="92" viewBox="0 0 108 92" fill="none" xmlns="http://www.w3.org/2000/svg">
<ellipse cx="32.8" cy="32.8" rx="32.8" ry="32.8" fill="url(#paint0_linear_217_5)"/>
<path d="M57.856 25C72.948 25 85.183 37.2343 85.184 52.326C85.184 53.59 85.096 54.834 84.93 56.053H89.53V56.055C89.599 56.054 89.669 56.053 89.738 56.053C99.571 56.053 107.542 64.024 107.542 73.856C107.542 83.689 99.571 91.66 89.738 91.66C89.669 91.66 89.599 91.658 89.53 91.657V91.66H27.0107L27.0117 91.657C26.9425 91.658 26.8731 91.66 26.8037 91.66C16.971 91.66 9 83.689 9 73.856C9.0002 64.024 16.9711 56.053 26.8037 56.053C28.195 56.053 29.5492 56.213 30.8486 56.515C30.6387 55.149 30.5303 53.75 30.5303 52.326C30.5305 37.2344 42.765 25.0002 57.856 25Z" fill="url(#paint1_linear_217_5)"/>
<defs>
<linearGradient id="paint0_linear_217_5" x1="32.8" y1="0" x2="32.8" y2="65.6" gradientUnits="userSpaceOnUse">
<stop stop-color="#FFE600"/>
<stop offset="1" stop-color="#FF7A00"/>
</linearGradient>
<linearGradient id="paint1_linear_217_5" x1="62.854" y1="27.0052" x2="62.854" y2="99.192" gradientUnits="userSpaceOnUse">
<stop stop-color="#AEAEAE"/>
<stop offset="1" stop-color="white" stop-opacity="0.5"/>
</linearGradient>
</defs>
</svg>
