<svg width="124" height="109" viewBox="0 0 124 109" fill="none" xmlns="http://www.w3.org/2000/svg">
<mask id="path-1-inside-1_217_5" fill="white">
<path d="M70.074 9.68535C72.3402 8.51974 74.6658 7.59716 77.0201 6.90775C80.4026 5.91726 82.6281 10.0171 81.1536 13.2183C77.2547 21.6834 77.1124 31.6805 81.6394 40.4815C87.9117 52.6756 101.264 58.913 114.383 56.9476C117.863 56.4263 121.153 59.7011 119.251 62.661C115.683 68.2117 110.622 72.9478 104.29 76.2051C85.4715 85.8846 62.5566 78.8412 53.1081 60.4723C43.6596 42.1033 51.2557 19.3649 70.074 9.68535Z"/>
</mask>
<path d="M70.074 9.68535C72.3402 8.51974 74.6658 7.59716 77.0201 6.90775C80.4026 5.91726 82.6281 10.0171 81.1536 13.2183C77.2547 21.6834 77.1124 31.6805 81.6394 40.4815C87.9117 52.6756 101.264 58.913 114.383 56.9476C117.863 56.4263 121.153 59.7011 119.251 62.661C115.683 68.2117 110.622 72.9478 104.29 76.2051C85.4715 85.8846 62.5566 78.8412 53.1081 60.4723C43.6596 42.1033 51.2557 19.3649 70.074 9.68535Z" fill="url(#paint0_radial_217_5)"/>
<path d="M70.074 9.68535L69.1592 7.90683L69.1592 7.90684L70.074 9.68535ZM81.6394 40.4815L79.8609 41.3963V41.3963L81.6394 40.4815ZM104.29 76.2051L105.205 77.9836L105.205 77.9836L104.29 76.2051ZM53.1081 60.4723L51.3296 61.3871L51.3296 61.3871L53.1081 60.4723ZM119.251 62.6611L117.568 61.5795L119.251 62.6611ZM77.0201 6.90775L77.5822 8.82715L77.0201 6.90775ZM70.074 9.68535L70.9888 11.4639C73.1415 10.3566 75.349 9.48109 77.5822 8.82715L77.0201 6.90775L76.4581 4.98835C73.9826 5.71324 71.5388 6.68287 69.1592 7.90683L70.074 9.68535ZM81.1536 13.2183L79.3371 12.3816C75.1965 21.3712 75.0358 32.0158 79.8609 41.3963L81.6394 40.4815L83.4179 39.5667C79.189 31.3452 79.3128 21.9956 82.9702 14.055L81.1536 13.2183ZM81.6394 40.4815L79.8609 41.3963C86.5489 54.3987 100.764 61.0101 114.679 58.9255L114.383 56.9476L114.087 54.9697C101.764 56.8158 89.2745 50.9525 83.4179 39.5667L81.6394 40.4815ZM119.251 62.6611L117.568 61.5795C114.186 66.8407 109.388 71.3336 103.375 74.4266L104.29 76.2051L105.205 77.9836C111.856 74.5621 117.179 69.5827 120.933 63.7425L119.251 62.6611ZM104.29 76.2051L103.375 74.4266C85.4981 83.6219 63.8092 76.9038 54.8866 59.5575L53.1081 60.4723L51.3296 61.3871C61.3041 80.7786 85.4449 88.1474 105.205 77.9836L104.29 76.2051ZM53.1081 60.4723L54.8866 59.5575C45.9641 42.211 53.112 20.6592 70.9888 11.4639L70.074 9.68535L69.1592 7.90684C49.3994 18.0707 41.3551 41.9956 51.3296 61.3871L53.1081 60.4723ZM114.383 56.9476L114.679 58.9255C115.737 58.767 116.77 59.1988 117.354 59.843C117.882 60.4241 117.943 60.9963 117.568 61.5795L119.251 62.6611L120.933 63.7425C122.461 61.3659 121.828 58.8207 120.316 57.1547C118.861 55.5519 116.508 54.6068 114.087 54.9697L114.383 56.9476ZM77.0201 6.90775L77.5822 8.82715C78.2472 8.63241 78.7857 8.853 79.2015 9.53369C79.6609 10.2859 79.7858 11.4074 79.3371 12.3816L81.1536 13.2183L82.9702 14.055C83.996 11.828 83.7453 9.29896 82.615 7.44857C81.441 5.52666 79.1755 4.1926 76.4581 4.98835L77.0201 6.90775Z" fill="url(#paint1_linear_217_5)" mask="url(#path-1-inside-1_217_5)"/>
<path d="M48.856 42C63.948 42 76.183 54.2343 76.184 69.326C76.184 70.59 76.096 71.834 75.93 73.053H80.53V73.055C80.599 73.054 80.669 73.053 80.738 73.053C90.571 73.053 98.542 81.024 98.542 90.856C98.542 100.689 90.571 108.66 80.738 108.66C80.669 108.66 80.599 108.658 80.53 108.657V108.66H18.0107L18.0117 108.657C17.9425 108.658 17.8731 108.66 17.8037 108.66C7.971 108.66 0 100.689 0 90.856C0.0002 81.024 7.9711 73.053 17.8037 73.053C19.195 73.053 20.5492 73.213 21.8486 73.515C21.6387 72.149 21.5303 70.75 21.5303 69.326C21.5305 54.2344 33.765 42.0002 48.856 42Z" fill="url(#paint2_linear_217_5)"/>
<defs>
<radialGradient id="paint0_radial_217_5" cx="0" cy="0" r="1" gradientUnits="userSpaceOnUse" gradientTransform="translate(78.6599 48.0697) rotate(62.7801) scale(37.4019 28.7283)">
<stop offset="0.0001" stop-color="white"/>
<stop offset="0.50005" stop-color="#F3F4F6"/>
<stop offset="1" stop-color="#DADDE3"/>
</radialGradient>
<linearGradient id="paint1_linear_217_5" x1="64.785" y1="-21.5139" x2="85.4702" y2="65.7864" gradientUnits="userSpaceOnUse">
<stop stop-color="white"/>
<stop offset="1" stop-color="white" stop-opacity="0"/>
</linearGradient>
<linearGradient id="paint2_linear_217_5" x1="53.854" y1="44.0052" x2="53.854" y2="116.192" gradientUnits="userSpaceOnUse">
<stop stop-color="#AEAEAE"/>
<stop offset="1" stop-color="white" stop-opacity="0.5"/>
</linearGradient>
</defs>
</svg>
