<svg width="108" height="92" viewBox="0 0 108 92" fill="none" xmlns="http://www.w3.org/2000/svg">
<mask id="path-1-inside-1_217_5" fill="white">
<path d="M32.7998 0C50.9147 0 65.5996 14.6848 65.5996 32.7998C65.5995 50.9147 50.9147 65.5996 32.7998 65.5996C14.685 65.5995 8.49463e-05 50.9147 0 32.7998C0 14.6849 14.685 8.04096e-05 32.7998 0Z"/>
</mask>
<path d="M32.7998 0C50.9147 0 65.5996 14.6848 65.5996 32.7998C65.5995 50.9147 50.9147 65.5996 32.7998 65.5996C14.685 65.5995 8.49463e-05 50.9147 0 32.7998C0 14.6849 14.685 8.04096e-05 32.7998 0Z" fill="url(#paint0_radial_217_5)"/>
<path d="M32.7998 0V-2H32.7998L32.7998 0ZM65.5996 32.7998L67.5996 32.7998V32.7998H65.5996ZM32.7998 65.5996L32.7998 67.5996H32.7998V65.5996ZM0 32.7998H-2V32.7998L0 32.7998ZM32.7998 0V2C49.8102 2 63.5996 15.7894 63.5996 32.7998H65.5996H67.5996C67.5996 13.5802 52.0193 -2 32.7998 -2V0ZM65.5996 32.7998L63.5996 32.7998C63.5995 49.8102 49.8101 63.5996 32.7998 63.5996V65.5996V67.5996C52.0192 67.5996 67.5995 52.0193 67.5996 32.7998L65.5996 32.7998ZM32.7998 65.5996L32.7998 63.5996C15.7896 63.5995 2.00008 49.8101 2 32.7998L0 32.7998L-2 32.7998C-1.99991 52.0192 13.5804 67.5995 32.7998 67.5996L32.7998 65.5996ZM0 32.7998H2C2 15.7894 15.7895 2.00008 32.7998 2L32.7998 0L32.7998 -2C13.5804 -1.99991 -2 13.5803 -2 32.7998H0Z" fill="url(#paint1_linear_217_5)" mask="url(#path-1-inside-1_217_5)"/>
<path d="M57.856 25C72.948 25 85.183 37.2343 85.184 52.326C85.184 53.59 85.096 54.834 84.93 56.053H89.53V56.055C89.599 56.054 89.669 56.053 89.738 56.053C99.571 56.053 107.542 64.024 107.542 73.856C107.542 83.689 99.571 91.66 89.738 91.66C89.669 91.66 89.599 91.658 89.53 91.657V91.66H27.0107L27.0117 91.657C26.9425 91.658 26.8731 91.66 26.8037 91.66C16.971 91.66 9 83.689 9 73.856C9.0002 64.024 16.9711 56.053 26.8037 56.053C28.195 56.053 29.5492 56.213 30.8486 56.515C30.6387 55.149 30.5303 53.75 30.5303 52.326C30.5305 37.2344 42.765 25.0002 57.856 25Z" fill="url(#paint2_linear_217_5)"/>
<defs>
<radialGradient id="paint0_radial_217_5" cx="0" cy="0" r="1" gradientUnits="userSpaceOnUse" gradientTransform="translate(32.7998 32.7998) rotate(90) scale(32.7998)">
<stop stop-color="white"/>
<stop offset="0.5" stop-color="#F3F4F6"/>
<stop offset="1" stop-color="#DADDE3"/>
</radialGradient>
<linearGradient id="paint1_linear_217_5" x1="52.8009" y1="-26.452" x2="37.4548" y2="51.5781" gradientUnits="userSpaceOnUse">
<stop stop-color="white"/>
<stop offset="1" stop-color="white" stop-opacity="0"/>
</linearGradient>
<linearGradient id="paint2_linear_217_5" x1="62.854" y1="27.0052" x2="62.854" y2="99.192" gradientUnits="userSpaceOnUse">
<stop stop-color="#AEAEAE"/>
<stop offset="1" stop-color="white" stop-opacity="0.5"/>
</linearGradient>
</defs>
</svg>
