<svg width="25" height="25" viewBox="0 0 25 25" fill="none" xmlns="http://www.w3.org/2000/svg">
<path d="M12.5 2.08325C6.85421 2.08325 2.08337 6.85409 2.08337 12.4999C2.08337 18.1458 6.85421 22.9166 12.5 22.9166C18.1459 22.9166 22.9167 18.1458 22.9167 12.4999C22.9167 6.85409 18.1459 2.08325 12.5 2.08325ZM12.5 20.8333C7.97921 20.8333 4.16671 17.0208 4.16671 12.4999C4.16671 7.97909 7.97921 4.16659 12.5 4.16659C17.0209 4.16659 20.8334 7.97909 20.8334 12.4999C20.8334 17.0208 17.0209 20.8333 12.5 20.8333Z" fill="#FAFAFA"/>
<path d="M12.5 9.37492C13.5312 9.37492 14.4271 9.64575 14.8854 10.1145L16.3542 8.64575C15.1875 7.47909 13.4271 7.302 12.4896 7.302C9.61458 7.302 7.28125 9.63534 7.28125 12.5103C7.28125 15.3853 9.61458 17.7187 12.4896 17.7187C13.4271 17.7187 15.1771 17.5416 16.3542 16.3749L14.8854 14.8958C14.4271 15.3541 13.5312 15.6353 12.5 15.6353C10.8021 15.6353 9.375 14.2083 9.375 12.5103C9.375 10.8124 10.8021 9.38534 12.5 9.38534V9.37492Z" fill="#FAFAFA"/>
</svg>
