<svg width="25" height="25" viewBox="0 0 25 25" fill="none" xmlns="http://www.w3.org/2000/svg">
<path d="M7.01798 10.8941C9.38495 6.06187 10.5684 3.64575 12.5 3.64575C14.4316 3.64575 15.615 6.06186 17.982 10.8941L19.5939 14.1847C21.4117 17.8958 22.3205 19.7513 21.6598 20.6435C21.4821 20.8834 21.2479 21.0812 20.9756 21.2217C19.9628 21.744 18.1035 20.6917 14.385 18.587C13.5602 18.1201 13.1478 17.8867 12.6968 17.8449C12.5659 17.8328 12.4341 17.8328 12.3032 17.8449C11.8522 17.8867 11.4398 18.1201 10.615 18.587C6.89645 20.6917 5.0372 21.744 4.02435 21.2217C3.75204 21.0812 3.51791 20.8834 3.34025 20.6435C2.67944 19.7513 3.58835 17.8958 5.40615 14.1847L7.01798 10.8941Z" fill="#D9D9D9"/>
</svg>
