<svg width="35" height="35" viewBox="0 0 35 35" fill="none" xmlns="http://www.w3.org/2000/svg">
<path d="M17.5 13.125C16.3397 13.125 15.2269 13.5859 14.4064 14.4064C13.5859 15.2269 13.125 16.3397 13.125 17.5C13.125 18.6603 13.5859 19.7731 14.4064 20.5936C15.2269 21.4141 16.3397 21.875 17.5 21.875C18.6603 21.875 19.7731 21.4141 20.5936 20.5936C21.4141 19.7731 21.875 18.6603 21.875 17.5C21.875 16.3397 21.4141 15.2269 20.5936 14.4064C19.7731 13.5859 18.6603 13.125 17.5 13.125Z" fill="#FAFAFA" fill-opacity="0.980392"/>
<path d="M17.5001 27.7082C28.6271 27.7082 31.9813 18.0541 32.0105 17.9666C32.1126 17.6603 32.1126 17.3395 32.0105 17.0478C31.9813 16.9457 28.6271 7.30615 17.5001 7.30615C6.37298 7.30615 3.01882 16.9457 2.98965 17.0332C2.88757 17.3395 2.88757 17.6603 2.98965 17.952C3.01882 18.0541 6.37298 27.6937 17.5001 27.6937V27.7082ZM17.5001 10.2082C25.3021 10.2082 28.3209 15.8228 29.0646 17.4999C28.3355 19.1916 25.3021 24.7916 17.5001 24.7916C9.69798 24.7916 6.67923 19.1916 5.93548 17.4999C6.66465 15.8082 9.69798 10.2082 17.5001 10.2082Z" fill="#FAFAFA" fill-opacity="0.980392"/>
</svg>
