<svg width="35" height="35" viewBox="0 0 35 35" fill="none" xmlns="http://www.w3.org/2000/svg">
<path d="M14.5834 29.9944C9.58342 31.6821 5.41675 29.9944 2.91675 24.7917" stroke="#FAFAFA" stroke-width="2" stroke-linecap="round" stroke-linejoin="round"/>
<path d="M14.5834 32.0834V27.3553C14.5834 26.4828 14.8516 25.7245 15.284 25.0395C15.5806 24.5695 15.3775 23.9027 14.8417 23.7555C10.4037 22.5354 7.29175 20.5738 7.29175 14.0672C7.29175 12.3757 7.84599 10.7853 8.82024 9.40108C9.0627 9.05659 9.18392 8.88436 9.21307 8.72835C9.24221 8.57235 9.19155 8.36875 9.09019 7.96159C8.67772 6.30434 8.70445 4.54452 9.32353 2.95791C9.32353 2.95791 10.6028 2.54111 13.5144 4.36004C14.1792 4.77535 14.5116 4.983 14.8044 5.02945C15.097 5.07589 15.4885 4.9786 16.2711 4.78401C17.3416 4.51792 18.4445 4.37508 19.6876 4.37508C20.9307 4.37508 22.0336 4.51792 23.104 4.78401C23.8867 4.9786 24.2781 5.07589 24.5708 5.02945C24.8636 4.983 25.196 4.77535 25.8607 4.36004C28.7724 2.54111 30.0517 2.95791 30.0517 2.95791C30.6707 4.54452 30.6974 6.30434 30.285 7.96159C30.1836 8.36875 30.1329 8.57235 30.1621 8.72835C30.1912 8.88435 30.3124 9.05661 30.5549 9.40108C31.5291 10.7853 32.0834 12.3757 32.0834 14.0672C32.0834 20.5738 28.9715 22.5354 24.5335 23.7555C23.9977 23.9027 23.7945 24.5695 24.0912 25.0395C24.5236 25.7245 24.7917 26.4828 24.7917 27.3553V32.0834" stroke="#FAFAFA" stroke-width="2" stroke-linecap="round" stroke-linejoin="round"/>
</svg>
