<svg width="35" height="35" viewBox="0 0 35 35" fill="none" xmlns="http://www.w3.org/2000/svg">
<path d="M3.64575 17.4999C3.64575 10.969 3.64575 7.70355 5.67464 5.67464C7.70355 3.64575 10.969 3.64575 17.4999 3.64575C24.0308 3.64575 27.2963 3.64575 29.3253 5.67464C31.3541 7.70355 31.3541 10.969 31.3541 17.4999C31.3541 24.0308 31.3541 27.2963 29.3253 29.3253C27.2963 31.3541 24.0308 31.3541 17.4999 31.3541C10.969 31.3541 7.70355 31.3541 5.67464 29.3253C3.64575 27.2963 3.64575 24.0308 3.64575 17.4999Z" stroke="#FAFAFA" stroke-width="2" stroke-linejoin="round"/>
<path d="M24.0625 17.5C24.0625 21.1244 21.1244 24.0625 17.5 24.0625C13.8756 24.0625 10.9375 21.1244 10.9375 17.5C10.9375 13.8756 13.8756 10.9375 17.5 10.9375C21.1244 10.9375 24.0625 13.8756 24.0625 17.5Z" stroke="#FAFAFA" stroke-width="2" stroke-linejoin="round"/>
<path d="M25.5322 9.47925H25.519" stroke="#FAFAFA" stroke-width="2" stroke-linejoin="round"/>
</svg>
