<svg width="35" height="35" viewBox="0 0 35 35" fill="none" xmlns="http://www.w3.org/2000/svg">
<path d="M6.56258 13.8542H5.83341C4.45848 13.8542 3.77103 13.8542 3.34388 14.2814C2.91675 14.7085 2.91675 15.396 2.91675 16.7709V29.1667C2.91675 30.5417 2.91675 31.2291 3.34388 31.6563C3.77103 32.0834 4.45848 32.0834 5.83341 32.0834H6.56258C7.93751 32.0834 8.62497 32.0834 9.05212 31.6563C9.47925 31.2291 9.47925 30.5417 9.47925 29.1667V16.7709C9.47925 15.396 9.47925 14.7085 9.05212 14.2814C8.62497 13.8542 7.93751 13.8542 6.56258 13.8542Z" stroke="#FAFAFA" stroke-width="2"/>
<path d="M9.47925 6.198C9.47925 8.01018 8.01018 9.47925 6.198 9.47925C4.38581 9.47925 2.91675 8.01018 2.91675 6.198C2.91675 4.38581 4.38581 2.91675 6.198 2.91675C8.01018 2.91675 9.47925 4.38581 9.47925 6.198Z" stroke="#FAFAFA" stroke-width="2"/>
<path d="M17.9755 13.8542H16.7709C15.396 13.8542 14.7085 13.8542 14.2814 14.2814C13.8542 14.7085 13.8542 15.396 13.8542 16.7709V29.1667C13.8542 30.5417 13.8542 31.2291 14.2814 31.6563C14.7085 32.0834 15.396 32.0834 16.7709 32.0834H17.5001C18.875 32.0834 19.5625 32.0834 19.9896 31.6563C20.4167 31.2291 20.4167 30.5417 20.4167 29.1667L20.4169 24.0627C20.4169 21.6466 21.1869 19.6877 23.4616 19.6877C24.5988 19.6877 25.5209 20.6671 25.5209 21.8752V28.4377C25.5209 29.8126 25.5209 30.5001 25.9481 30.9272C26.3751 31.3544 27.0627 31.3544 28.4376 31.3544H29.1649C30.5395 31.3544 31.2268 31.3544 31.6539 30.9274C32.0811 30.5004 32.0812 29.8131 32.0815 28.4385L32.0836 20.417C32.0836 16.7928 28.6365 13.8546 25.2246 13.8546C23.2822 13.8546 21.5494 14.8067 20.4169 16.2955C20.4167 15.3766 20.4167 14.9172 20.2172 14.5761C20.0908 14.3601 19.9109 14.1802 19.6949 14.0539C19.3538 13.8542 18.8944 13.8542 17.9755 13.8542Z" stroke="#FAFAFA" stroke-width="2"/>
</svg>
