<svg width="40" height="40" viewBox="0 0 40 40" fill="none" xmlns="http://www.w3.org/2000/svg">
<path d="M26.6666 16.6667C26.6666 12.9833 23.6833 10 19.9999 10C16.3166 10 13.3333 12.9833 13.3333 16.6667C13.3333 20.35 16.3166 23.3333 19.9999 23.3333C23.6833 23.3333 26.6666 20.35 26.6666 16.6667ZM16.6666 16.6667C16.6666 14.8333 18.1666 13.3333 19.9999 13.3333C21.8333 13.3333 23.3333 14.8333 23.3333 16.6667C23.3333 18.5 21.8333 20 19.9999 20C18.1666 20 16.6666 18.5 16.6666 16.6667Z" fill="#FAFAFA"/>
<path d="M19.0333 36.35C19.3167 36.55 19.6667 36.6667 20 36.6667C20.3333 36.6667 20.6833 36.5667 20.9667 36.35C21.4667 35.9833 33.3833 27.4 33.3333 16.65C33.3333 9.3 27.35 3.31667 20 3.31667C12.65 3.31667 6.66666 9.3 6.66666 16.65C6.61666 27.3833 18.5333 35.9833 19.0333 36.35ZM20 6.66667C25.5167 6.66667 30 11.15 30 16.6667C30.0333 24.0667 22.6833 30.7167 20 32.9C17.3167 30.7167 9.96666 24.0833 9.99999 16.6667C9.99999 11.15 14.4833 6.66667 20 6.66667Z" fill="#FAFAFA"/>
</svg>
