<svg width="40" height="40" viewBox="0 0 40 40" fill="none" xmlns="http://www.w3.org/2000/svg">
<path d="M20.3333 36.6667C27.8833 36.6667 34.4167 31.8167 36.6 24.6001C36.688 24.3106 36.6956 24.0027 36.6222 23.7092C36.5487 23.4157 36.3969 23.1477 36.183 22.9338C35.9691 22.7198 35.701 22.568 35.4076 22.4946C35.1141 22.4211 34.8062 22.4288 34.5167 22.5167C33.2167 22.9001 31.8833 23.1001 30.55 23.1001C23.0167 23.1001 16.8833 16.9667 16.8833 9.43341C16.8833 8.10008 17.0833 6.76674 17.4667 5.46674C17.65 4.88341 17.4833 4.23341 17.05 3.80008C16.6167 3.36674 15.9833 3.20008 15.3833 3.38341C11.8894 4.43848 8.82934 6.59315 6.65827 9.52696C4.48719 12.4608 3.32107 16.017 3.33335 19.6667C3.33335 29.0334 10.95 36.6667 20.3333 36.6667ZM13.6333 7.75008C13.5833 8.31674 13.55 8.88341 13.55 9.45008C13.55 18.8167 21.1667 26.4501 30.55 26.4501C31.1167 26.4501 31.6833 26.4167 32.25 26.3667C29.8833 30.6334 25.3833 33.3334 20.3333 33.3334C12.8 33.3334 6.66668 27.2001 6.66668 19.6667C6.65707 17.2391 7.29824 14.8533 8.52346 12.7575C9.74868 10.6617 11.5132 8.9326 13.6333 7.75008Z" fill="#FAFAFA"/>
</svg>
