<svg width="230" height="215" viewBox="0 0 230 215" fill="none" xmlns="http://www.w3.org/2000/svg">
<foreignObject x="40.1296" y="0" width="151.069" height="148.152"><div xmlns="http://www.w3.org/1999/xhtml" style="backdrop-filter:blur(7px);clip-path:url(#bgblur_0_6_221_clip_path);height:100%;width:100%"></div></foreignObject><g filter="url(#filter0_dd_6_221)" data-figma-bg-blur-radius="14">
<mask id="path-1-inside-1_6_221" fill="white">
<path d="M123.866 38.8173C124.221 38.6349 124.578 38.4624 124.937 38.2998C128.118 36.8599 130.46 40.8944 129.6 44.2777C128.459 48.7646 128.888 53.6701 131.172 58.1111C134.547 64.6721 141.101 68.5299 147.985 68.7719C151.476 68.8946 154.712 72.2699 152.444 74.9275C150.519 77.1829 148.132 79.1087 145.332 80.549C133.808 86.4765 119.661 81.9401 113.733 70.4166C107.805 58.8927 112.342 44.7448 123.866 38.8173Z"/>
</mask>
<path d="M123.866 38.8173C124.221 38.6349 124.578 38.4624 124.937 38.2998C128.118 36.8599 130.46 40.8944 129.6 44.2777C128.459 48.7646 128.888 53.6701 131.172 58.1111C134.547 64.6721 141.101 68.5299 147.985 68.7719C151.476 68.8946 154.712 72.2699 152.444 74.9275C150.519 77.1829 148.132 79.1087 145.332 80.549C133.808 86.4765 119.661 81.9401 113.733 70.4166C107.805 58.8927 112.342 44.7448 123.866 38.8173Z" fill="url(#paint0_radial_6_221)"/>
<path d="M123.866 38.8173L122.952 37.0387L122.951 37.0388L123.866 38.8173ZM131.172 58.1111L129.394 59.0259L129.394 59.0259L131.172 58.1111ZM145.332 80.549L146.247 82.3275L146.247 82.3275L145.332 80.549ZM113.733 70.4166L111.954 71.3314L111.954 71.3314L113.733 70.4166ZM147.985 68.7719L147.914 70.7706L147.985 68.7719ZM152.444 74.9275L150.922 73.6292L152.444 74.9275ZM123.866 38.8173L124.781 40.5958C125.106 40.4287 125.433 40.2707 125.762 40.1217L124.937 38.2998L124.112 36.4778C123.723 36.6542 123.336 36.8411 122.952 37.0387L123.866 38.8173ZM129.6 44.2777L127.662 43.7847C126.405 48.7264 126.878 54.1344 129.394 59.0259L131.172 58.1111L132.951 57.1963C130.898 53.2058 130.512 48.8028 131.538 44.7707L129.6 44.2777ZM131.172 58.1111L129.394 59.0259C133.113 66.2566 140.336 70.5043 147.914 70.7706L147.985 68.7719L148.055 66.7731C141.865 66.5556 135.981 63.0876 132.951 57.1963L131.172 58.1111ZM152.444 74.9275L150.922 73.6292C149.164 75.6901 146.981 77.4513 144.417 78.7705L145.332 80.549L146.247 82.3275C149.282 80.766 151.874 78.6758 153.965 76.2258L152.444 74.9275ZM145.332 80.549L144.417 78.7705C133.875 84.1927 120.934 80.043 115.511 69.5017L113.733 70.4166L111.954 71.3314C118.387 83.8373 133.741 88.7602 146.247 82.3275L145.332 80.549ZM113.733 70.4166L115.511 69.5017C110.089 58.9601 114.239 46.0181 124.781 40.5958L123.866 38.8173L122.951 37.0388C110.445 43.4715 105.522 58.8252 111.954 71.3314L113.733 70.4166ZM147.985 68.7719L147.914 70.7706C149.093 70.8121 150.228 71.4248 150.818 72.1554C151.099 72.5043 151.188 72.7912 151.198 72.9741C151.206 73.1171 151.179 73.3287 150.922 73.6292L152.444 74.9275L153.965 76.2258C154.842 75.1975 155.261 73.9905 155.192 72.7494C155.124 71.5482 154.61 70.4852 153.93 69.6428C152.596 67.9907 150.368 66.8544 148.055 66.7731L147.985 68.7719ZM124.937 38.2998L125.762 40.1217C126.122 39.9587 126.333 39.9913 126.468 40.0384C126.64 40.0986 126.89 40.2617 127.145 40.6266C127.68 41.3912 127.951 42.6451 127.662 43.7847L129.6 44.2777L131.538 44.7707C132.109 42.527 131.639 40.072 130.423 38.3335C129.802 37.4469 128.924 36.6599 127.789 36.2628C126.617 35.8527 125.342 35.921 124.112 36.4778L124.937 38.2998Z" fill="url(#paint1_linear_6_221)" mask="url(#path-1-inside-1_6_221)"/>
</g>
<foreignObject x="0" y="21.8927" width="155" height="137.206"><div xmlns="http://www.w3.org/1999/xhtml" style="backdrop-filter:blur(7px);clip-path:url(#bgblur_1_6_221_clip_path);height:100%;width:100%"></div></foreignObject><g filter="url(#filter1_d_6_221)" data-figma-bg-blur-radius="14">
<mask id="path-3-inside-2_6_221" fill="white">
<path d="M98.2686 56.8927C106.692 56.8927 113.521 63.7212 113.521 72.1447C113.521 72.8502 113.472 73.5446 113.379 74.2247H115.947V74.2267C115.986 74.2262 116.025 74.2247 116.063 74.2247C121.551 74.225 126 78.6735 126 84.1613C126 89.6491 121.551 94.0985 116.063 94.0988C116.025 94.0988 115.986 94.0963 115.947 94.0958V94.0988H81.0527L81.0547 94.0948C81.0155 94.0953 80.9758 94.0988 80.9365 94.0988C75.4487 94.0985 71 89.6491 71 84.1613C71.0002 78.6735 75.4488 74.225 80.9365 74.2247C81.7136 74.2247 82.4696 74.3168 83.1953 74.4855C83.0778 73.7224 83.0166 72.9406 83.0166 72.1447C83.0167 63.7213 89.8453 56.8929 98.2686 56.8927Z"/>
</mask>
<path d="M98.2686 56.8927C106.692 56.8927 113.521 63.7212 113.521 72.1447C113.521 72.8502 113.472 73.5446 113.379 74.2247H115.947V74.2267C115.986 74.2262 116.025 74.2247 116.063 74.2247C121.551 74.225 126 78.6735 126 84.1613C126 89.6491 121.551 94.0985 116.063 94.0988C116.025 94.0988 115.986 94.0963 115.947 94.0958V94.0988H81.0527L81.0547 94.0948C81.0155 94.0953 80.9758 94.0988 80.9365 94.0988C75.4487 94.0985 71 89.6491 71 84.1613C71.0002 78.6735 75.4488 74.225 80.9365 74.2247C81.7136 74.2247 82.4696 74.3168 83.1953 74.4855C83.0778 73.7224 83.0166 72.9406 83.0166 72.1447C83.0167 63.7213 89.8453 56.8929 98.2686 56.8927Z" fill="url(#paint2_linear_6_221)" shape-rendering="crispEdges"/>
<path d="M98.2686 56.8927V54.8927H98.2685L98.2686 56.8927ZM113.521 72.1447H115.521V72.1446L113.521 72.1447ZM113.379 74.2247L111.397 73.9545C111.319 74.5268 111.492 75.1048 111.872 75.5399C112.252 75.975 112.801 76.2247 113.379 76.2247V74.2247ZM115.947 74.2247H117.947C117.947 73.1202 117.052 72.2247 115.947 72.2247V74.2247ZM115.947 74.2267H113.947C113.947 74.7611 114.161 75.2732 114.541 75.6489C114.921 76.0247 115.436 76.2327 115.97 76.2266L115.947 74.2267ZM116.063 74.2247L116.064 72.2247H116.063V74.2247ZM126 84.1613H128V84.1612L126 84.1613ZM116.063 94.0988V96.0988H116.064L116.063 94.0988ZM115.947 94.0958L115.97 92.096C115.436 92.0899 114.921 92.2979 114.541 92.6736C114.161 93.0493 113.947 93.5614 113.947 94.0958H115.947ZM115.947 94.0988V96.0988C117.052 96.0988 117.947 95.2033 117.947 94.0988H115.947ZM81.0527 94.0988L79.2639 93.2043C78.9539 93.8243 78.987 94.5606 79.3514 95.1502C79.7158 95.7398 80.3596 96.0988 81.0527 96.0988V94.0988ZM81.0547 94.0948L82.8435 94.9893C83.1554 94.3656 83.1199 93.6245 82.7499 93.0335C82.3798 92.4425 81.7287 92.0869 81.0315 92.095L81.0547 94.0948ZM80.9365 94.0988L80.9364 96.0988H80.9365V94.0988ZM71 84.1613L69 84.1612V84.1613H71ZM80.9365 74.2247V72.2247H80.9364L80.9365 74.2247ZM83.1953 74.4855L82.7424 76.4335C83.3891 76.5839 84.0682 76.4035 84.5551 75.9521C85.0419 75.5007 85.2731 74.8372 85.172 74.181L83.1953 74.4855ZM83.0166 72.1447L81.0166 72.1446V72.1447H83.0166ZM98.2686 56.8927V58.8927C105.588 58.8927 111.521 64.8259 111.521 72.1447L113.521 72.1447L115.521 72.1446C115.521 62.6165 107.796 54.8927 98.2686 54.8927V56.8927ZM113.521 72.1447H111.521C111.521 72.756 111.478 73.36 111.397 73.9545L113.379 74.2247L115.361 74.495C115.465 73.7292 115.521 72.9445 115.521 72.1447H113.521ZM113.379 74.2247V76.2247H115.947V74.2247V72.2247H113.379V74.2247ZM115.947 74.2247H113.947V74.2267H115.947H117.947V74.2247H115.947ZM115.947 74.2267L115.97 76.2266C115.989 76.2263 116.005 76.226 116.018 76.2258C116.029 76.2255 116.044 76.2252 116.05 76.225C116.068 76.2246 116.068 76.2247 116.063 76.2247V74.2247V72.2247C116.02 72.2247 115.982 72.2256 115.961 72.226C115.933 72.2267 115.93 72.2268 115.924 72.2268L115.947 74.2267ZM116.063 74.2247L116.063 76.2247C120.447 76.2249 124 79.7781 124 84.1613L126 84.1613L128 84.1612C128 77.5689 122.656 72.225 116.064 72.2247L116.063 74.2247ZM126 84.1613H124C124 88.5447 120.447 92.0986 116.063 92.0988L116.063 94.0988L116.064 96.0988C122.656 96.0985 128 90.7535 128 84.1613H126ZM116.063 94.0988V92.0988C116.075 92.0988 116.082 92.0989 116.084 92.099C116.085 92.099 116.084 92.099 116.075 92.0987C116.069 92.0985 116.053 92.0979 116.037 92.0974C116.02 92.0969 115.997 92.0963 115.97 92.096L115.947 94.0958L115.924 96.0957C115.917 96.0956 115.913 96.0955 115.915 96.0955C115.919 96.0957 115.922 96.0958 115.936 96.0962C115.955 96.0969 116.005 96.0988 116.063 96.0988V94.0988ZM115.947 94.0958H113.947V94.0988H115.947H117.947V94.0958H115.947ZM115.947 94.0988V92.0988H81.0527V94.0988V96.0988H115.947V94.0988ZM81.0527 94.0988L82.8416 94.9932L82.8435 94.9893L81.0547 94.0948L79.2658 93.2004L79.2639 93.2043L81.0527 94.0988ZM81.0547 94.0948L81.0315 92.095C80.9969 92.0954 80.9673 92.0964 80.9465 92.0972C80.9275 92.0979 80.9081 92.0989 80.9025 92.0991C80.8933 92.0996 80.8947 92.0995 80.899 92.0993C80.9041 92.0992 80.9176 92.0988 80.9365 92.0988V94.0988V96.0988C80.9751 96.0988 81.0083 96.0979 81.0331 96.0971C81.0571 96.0963 81.0783 96.0953 81.0888 96.0948C81.0957 96.0945 81.0979 96.0944 81.1014 96.0942C81.1041 96.0941 81.1046 96.0941 81.1039 96.0941C81.1028 96.0941 81.0929 96.0945 81.0779 96.0947L81.0547 94.0948ZM80.9365 94.0988L80.9366 92.0988C76.5534 92.0986 73 88.5447 73 84.1613H71H69C69 90.7535 74.3439 96.0985 80.9364 96.0988L80.9365 94.0988ZM71 84.1613L73 84.1613C73.0001 79.7781 76.5534 76.2249 80.9366 76.2247L80.9365 74.2247L80.9364 72.2247C74.3442 72.225 69.0002 77.5689 69 84.1612L71 84.1613ZM80.9365 74.2247V76.2247C81.5551 76.2247 82.1592 76.2979 82.7424 76.4335L83.1953 74.4855L83.6482 72.5374C82.78 72.3356 81.8721 72.2247 80.9365 72.2247V74.2247ZM83.1953 74.4855L85.172 74.181C85.0699 73.518 85.0166 72.8379 85.0166 72.1447H83.0166H81.0166C81.0166 73.0432 81.0857 73.9268 81.2186 74.7899L83.1953 74.4855ZM83.0166 72.1447L85.0166 72.1447C85.0167 64.8259 90.9498 58.8929 98.2686 58.8927L98.2686 56.8927L98.2685 54.8927C88.7407 54.8929 81.0167 62.6167 81.0166 72.1446L83.0166 72.1447Z" fill="url(#paint3_linear_6_221)" mask="url(#path-3-inside-2_6_221)"/>
</g>
<foreignObject x="12.7906" y="33.0845" width="176.104" height="151.482"><div xmlns="http://www.w3.org/1999/xhtml" style="backdrop-filter:blur(7px);clip-path:url(#bgblur_2_6_221_clip_path);height:100%;width:100%"></div></foreignObject><g filter="url(#filter2_d_6_221)" data-figma-bg-blur-radius="14">
<mask id="path-5-inside-3_6_221" fill="white">
<path d="M121.523 68.0845C133.179 68.0845 142.627 77.5333 142.628 89.189C142.628 90.1652 142.561 91.126 142.432 92.067H145.985V92.0689C146.038 92.0683 146.092 92.067 146.145 92.067C153.739 92.067 159.895 98.2231 159.895 105.817C159.895 113.411 153.739 119.567 146.145 119.567C146.092 119.567 146.038 119.566 145.985 119.565V119.567H97.7008L97.7018 119.565C97.6481 119.566 97.5944 119.567 97.5406 119.567C89.9467 119.567 83.7906 113.411 83.7906 105.817C83.7907 98.2231 89.9468 92.067 97.5406 92.067C98.6152 92.067 99.661 92.1902 100.665 92.4234C100.503 91.369 100.419 90.2888 100.419 89.189C100.419 77.5334 109.867 68.0846 121.523 68.0845Z"/>
</mask>
<path d="M121.523 68.0845C133.179 68.0845 142.627 77.5333 142.628 89.189C142.628 90.1652 142.561 91.126 142.432 92.067H145.985V92.0689C146.038 92.0683 146.092 92.067 146.145 92.067C153.739 92.067 159.895 98.2231 159.895 105.817C159.895 113.411 153.739 119.567 146.145 119.567C146.092 119.567 146.038 119.566 145.985 119.565V119.567H97.7008L97.7018 119.565C97.6481 119.566 97.5944 119.567 97.5406 119.567C89.9467 119.567 83.7906 113.411 83.7906 105.817C83.7907 98.2231 89.9468 92.067 97.5406 92.067C98.6152 92.067 99.661 92.1902 100.665 92.4234C100.503 91.369 100.419 90.2888 100.419 89.189C100.419 77.5334 109.867 68.0846 121.523 68.0845Z" fill="url(#paint4_linear_6_221)" shape-rendering="crispEdges"/>
<path d="M121.523 68.0845V66.0845H121.523L121.523 68.0845ZM142.628 89.189H144.628V89.189L142.628 89.189ZM142.432 92.067L140.451 91.7968C140.373 92.369 140.546 92.9471 140.926 93.3822C141.305 93.8173 141.855 94.067 142.432 94.067V92.067ZM145.985 92.067H147.985C147.985 90.9624 147.09 90.067 145.985 90.067V92.067ZM145.985 92.0689H143.985C143.985 92.6033 144.199 93.1155 144.579 93.4912C144.959 93.8669 145.473 94.0749 146.008 94.0688L145.985 92.0689ZM146.145 92.067V90.067H146.145L146.145 92.067ZM159.895 105.817H161.895V105.817L159.895 105.817ZM146.145 119.567L146.145 121.567H146.145V119.567ZM145.985 119.565L146.008 117.565C145.473 117.559 144.959 117.767 144.579 118.143C144.199 118.518 143.985 119.031 143.985 119.565H145.985ZM145.985 119.567V121.567C147.09 121.567 147.985 120.672 147.985 119.567H145.985ZM97.7008 119.567L95.912 118.673C95.602 119.293 95.6351 120.029 95.9995 120.618C96.3639 121.208 97.0077 121.567 97.7008 121.567V119.567ZM97.7018 119.565L99.4906 120.459C99.8025 119.836 99.767 119.095 99.397 118.504C99.0271 117.913 98.376 117.557 97.6788 117.565L97.7018 119.565ZM97.5406 119.567L97.5406 121.567H97.5406V119.567ZM83.7906 105.817L81.7906 105.817V105.817H83.7906ZM97.5406 92.067V90.067H97.5406L97.5406 92.067ZM100.665 92.4234L100.212 94.3715C100.859 94.5217 101.538 94.3414 102.024 93.8901C102.511 93.4388 102.742 92.7755 102.641 92.1194L100.665 92.4234ZM100.419 89.189L98.4186 89.189V89.189H100.419ZM121.523 68.0845V70.0845C132.074 70.0845 140.627 78.6379 140.628 89.189L142.628 89.189L144.628 89.189C144.627 76.4288 134.283 66.0845 121.523 66.0845V68.0845ZM142.628 89.189H140.628C140.628 90.0736 140.567 90.9441 140.451 91.7968L142.432 92.067L144.414 92.3372C144.554 91.3079 144.628 90.2569 144.628 89.189H142.628ZM142.432 92.067V94.067H145.985V92.067V90.067H142.432V92.067ZM145.985 92.067H143.985V92.0689H145.985H147.985V92.067H145.985ZM145.985 92.0689L146.008 94.0688C146.102 94.0677 146.103 94.067 146.145 94.067L146.145 92.067L146.145 90.067C146.08 90.067 145.975 90.0689 145.962 90.069L145.985 92.0689ZM146.145 92.067V94.067C152.634 94.067 157.895 99.3277 157.895 105.817L159.895 105.817L161.895 105.817C161.895 97.1185 154.844 90.067 146.145 90.067V92.067ZM159.895 105.817H157.895C157.895 112.306 152.634 117.567 146.145 117.567V119.567V121.567C154.844 121.567 161.895 114.515 161.895 105.817H159.895ZM146.145 119.567L146.145 117.567C146.103 117.567 146.102 117.566 146.008 117.565L145.985 119.565L145.962 121.565C145.975 121.565 146.08 121.567 146.145 121.567L146.145 119.567ZM145.985 119.565H143.985V119.567H145.985H147.985V119.565H145.985ZM145.985 119.567V117.567H97.7008V119.567V121.567H145.985V119.567ZM97.7008 119.567L99.4897 120.461L99.4906 120.459L97.7018 119.565L95.9129 118.671L95.912 118.673L97.7008 119.567ZM97.7018 119.565L97.6788 117.565C97.586 117.566 97.5825 117.567 97.5406 117.567V119.567V121.567C97.6063 121.567 97.7103 121.565 97.7247 121.565L97.7018 119.565ZM97.5406 119.567L97.5407 117.567C91.0513 117.567 85.7906 112.306 85.7906 105.817H83.7906H81.7906C81.7906 114.515 88.8422 121.567 97.5406 121.567L97.5406 119.567ZM83.7906 105.817L85.7906 105.817C85.7907 99.3277 91.0514 94.067 97.5407 94.067L97.5406 92.067L97.5406 90.067C88.8422 90.067 81.7907 97.1186 81.7906 105.817L83.7906 105.817ZM97.5406 92.067V94.067C98.4618 94.067 99.3558 94.1726 100.212 94.3715L100.665 92.4234L101.117 90.4753C99.9663 90.2079 98.7687 90.067 97.5406 90.067V92.067ZM100.665 92.4234L102.641 92.1194C102.495 91.1655 102.419 90.1869 102.419 89.189H100.419H98.4186C98.4186 90.3907 98.5103 91.5726 98.6879 92.7274L100.665 92.4234ZM100.419 89.189L102.419 89.189C102.419 78.6379 110.972 70.0846 121.523 70.0845L121.523 68.0845L121.523 66.0845C108.763 66.0846 98.4187 76.4288 98.4186 89.189L100.419 89.189Z" fill="url(#paint5_linear_6_221)" mask="url(#path-5-inside-3_6_221)"/>
</g>
<foreignObject x="65.6424" y="35.2241" width="164.295" height="178.402"><div xmlns="http://www.w3.org/1999/xhtml" style="backdrop-filter:blur(7px);clip-path:url(#bgblur_3_6_221_clip_path);height:100%;width:100%"></div></foreignObject><g filter="url(#filter3_dd_6_221)" data-figma-bg-blur-radius="14">
<path d="M136.89 122.524L150.693 97.2651C151.043 96.6233 151.716 96.2241 152.448 96.2241H164.424C165.927 96.2241 166.893 97.8205 166.196 99.1521L158.711 113.441C158.013 114.773 158.979 116.369 160.483 116.369H166.934C168.663 116.369 169.577 118.415 168.424 119.703L143.154 147.946C141.68 149.594 139.016 147.984 139.79 145.913L146.415 128.183C146.904 126.876 145.937 125.483 144.542 125.483H138.645C137.126 125.483 136.162 123.857 136.89 122.524Z" fill="url(#paint6_linear_6_221)"/>
<path d="M152.448 97.2241H164.425C165.176 97.2244 165.659 98.0223 165.31 98.688L157.825 112.977C156.779 114.974 158.227 117.369 160.482 117.37H166.933C167.798 117.37 168.256 118.392 167.679 119.037L142.409 147.28C141.672 148.104 140.34 147.298 140.727 146.262L147.352 128.533C148.085 126.572 146.635 124.483 144.542 124.483H138.645C137.886 124.483 137.403 123.67 137.767 123.003L151.57 97.7446C151.724 97.4638 152 97.2755 152.312 97.2329L152.448 97.2241Z" stroke="url(#paint7_linear_6_221)" stroke-width="2"/>
</g>
<foreignObject x="54.9999" y="33.0845" width="155" height="137.206"><div xmlns="http://www.w3.org/1999/xhtml" style="backdrop-filter:blur(7px);clip-path:url(#bgblur_4_6_221_clip_path);height:100%;width:100%"></div></foreignObject><g filter="url(#filter4_d_6_221)" data-figma-bg-blur-radius="14">
<mask id="path-9-inside-4_6_221" fill="white">
<path d="M153.268 68.0845C161.692 68.0845 168.52 74.913 168.52 83.3365C168.52 84.0421 168.472 84.7364 168.379 85.4166H170.947V85.4185C170.986 85.4181 171.025 85.4166 171.063 85.4166C176.551 85.4168 181 89.8654 181 95.3531C181 100.841 176.551 105.29 171.063 105.291C171.025 105.291 170.986 105.288 170.947 105.288V105.291H136.053L136.055 105.287C136.015 105.287 135.976 105.291 135.936 105.291C130.449 105.29 126 100.841 126 95.3531C126 89.8654 130.449 85.4168 135.936 85.4166C136.714 85.4166 137.47 85.5086 138.195 85.6773C138.078 84.9143 138.017 84.1324 138.017 83.3365C138.017 74.9131 144.845 68.0847 153.268 68.0845Z"/>
</mask>
<path d="M153.268 68.0845C161.692 68.0845 168.52 74.913 168.52 83.3365C168.52 84.0421 168.472 84.7364 168.379 85.4166H170.947V85.4185C170.986 85.4181 171.025 85.4166 171.063 85.4166C176.551 85.4168 181 89.8654 181 95.3531C181 100.841 176.551 105.29 171.063 105.291C171.025 105.291 170.986 105.288 170.947 105.288V105.291H136.053L136.055 105.287C136.015 105.287 135.976 105.291 135.936 105.291C130.449 105.29 126 100.841 126 95.3531C126 89.8654 130.449 85.4168 135.936 85.4166C136.714 85.4166 137.47 85.5086 138.195 85.6773C138.078 84.9143 138.017 84.1324 138.017 83.3365C138.017 74.9131 144.845 68.0847 153.268 68.0845Z" fill="url(#paint8_linear_6_221)" shape-rendering="crispEdges"/>
<path d="M153.268 68.0845V66.0845H153.268L153.268 68.0845ZM168.52 83.3365H170.52V83.3365L168.52 83.3365ZM168.379 85.4166L166.397 85.1463C166.319 85.7186 166.492 86.2967 166.872 86.7318C167.252 87.1669 167.801 87.4166 168.379 87.4166V85.4166ZM170.947 85.4166H172.947C172.947 84.312 172.052 83.4166 170.947 83.4166V85.4166ZM170.947 85.4185H168.947C168.947 85.9529 169.161 86.4651 169.541 86.8408C169.921 87.2165 170.436 87.4245 170.97 87.4184L170.947 85.4185ZM171.063 85.4166L171.064 83.4166H171.063V85.4166ZM181 95.3531H183V95.353L181 95.3531ZM171.063 105.291V107.291H171.064L171.063 105.291ZM170.947 105.288L170.97 103.288C170.436 103.282 169.921 103.49 169.541 103.865C169.161 104.241 168.947 104.753 168.947 105.288H170.947ZM170.947 105.291V107.291C172.052 107.291 172.947 106.395 172.947 105.291H170.947ZM136.053 105.291L134.264 104.396C133.954 105.016 133.987 105.752 134.351 106.342C134.716 106.932 135.36 107.291 136.053 107.291V105.291ZM136.055 105.287L137.843 106.181C138.155 105.557 138.12 104.816 137.75 104.225C137.38 103.634 136.729 103.279 136.031 103.287L136.055 105.287ZM135.936 105.291L135.936 107.291H135.936V105.291ZM126 95.3531L124 95.353V95.3531H126ZM135.936 85.4166V83.4166H135.936L135.936 85.4166ZM138.195 85.6773L137.742 87.6254C138.389 87.7757 139.068 87.5953 139.555 87.144C140.042 86.6926 140.273 86.029 140.172 85.3729L138.195 85.6773ZM138.017 83.3365L136.017 83.3365V83.3365H138.017ZM153.268 68.0845V70.0845C160.587 70.0845 166.52 76.0176 166.52 83.3365L168.52 83.3365L170.52 83.3365C170.52 73.8085 162.797 66.0845 153.268 66.0845V68.0845ZM168.52 83.3365H166.52C166.52 83.9496 166.478 84.5537 166.397 85.1463L168.379 85.4166L170.361 85.6868C170.465 84.9192 170.52 84.1345 170.52 83.3365H168.52ZM168.379 85.4166V87.4166H170.947V85.4166V83.4166H168.379V85.4166ZM170.947 85.4166H168.947V85.4185H170.947H172.947V85.4166H170.947ZM170.947 85.4185L170.97 87.4184C170.989 87.4182 171.005 87.4179 171.018 87.4176C171.029 87.4174 171.044 87.417 171.05 87.4169C171.068 87.4165 171.068 87.4166 171.063 87.4166V85.4166V83.4166C171.02 83.4166 170.982 83.4174 170.961 83.4179C170.933 83.4185 170.93 83.4186 170.924 83.4186L170.947 85.4185ZM171.063 85.4166L171.063 87.4166C175.447 87.4168 179 90.97 179 95.3532L181 95.3531L183 95.353C183 88.7608 177.656 83.4169 171.064 83.4166L171.063 85.4166ZM181 95.3531H179C179 99.7366 175.446 103.29 171.063 103.291L171.063 105.291L171.064 107.291C177.656 107.29 183 101.945 183 95.3531H181ZM171.063 105.291V103.291C171.075 103.291 171.082 103.291 171.084 103.291C171.085 103.291 171.084 103.291 171.075 103.291C171.069 103.29 171.053 103.29 171.037 103.289C171.02 103.289 170.997 103.288 170.97 103.288L170.947 105.288L170.924 107.288C170.917 107.287 170.913 107.287 170.915 107.287C170.919 107.287 170.922 107.288 170.935 107.288C170.955 107.289 171.005 107.291 171.063 107.291V105.291ZM170.947 105.288H168.947V105.291H170.947H172.947V105.288H170.947ZM170.947 105.291V103.291H136.053V105.291V107.291H170.947V105.291ZM136.053 105.291L137.842 106.185L137.843 106.181L136.055 105.287L134.266 104.392L134.264 104.396L136.053 105.291ZM136.055 105.287L136.031 103.287C135.997 103.287 135.967 103.288 135.946 103.289C135.927 103.29 135.908 103.291 135.902 103.291C135.893 103.291 135.895 103.291 135.899 103.291C135.904 103.291 135.918 103.291 135.936 103.291V105.291V107.291C135.975 107.291 136.008 107.29 136.033 107.289C136.057 107.288 136.078 107.287 136.089 107.287C136.096 107.286 136.098 107.286 136.101 107.286C136.104 107.286 136.105 107.286 136.104 107.286C136.103 107.286 136.093 107.286 136.078 107.287L136.055 105.287ZM135.936 105.291L135.937 103.291C131.553 103.29 128 99.7366 128 95.3531H126H124C124 101.945 129.344 107.29 135.936 107.291L135.936 105.291ZM126 95.3531L128 95.3532C128 90.97 131.553 87.4167 135.937 87.4166L135.936 85.4166L135.936 83.4166C129.344 83.4168 124 88.7608 124 95.353L126 95.3531ZM135.936 85.4166V87.4166C136.555 87.4166 137.159 87.4898 137.742 87.6254L138.195 85.6773L138.648 83.7293C137.78 83.5274 136.872 83.4166 135.936 83.4166V85.4166ZM138.195 85.6773L140.172 85.3729C140.07 84.7098 140.017 84.0298 140.017 83.3365H138.017H136.017C136.017 84.2351 136.086 85.1187 136.219 85.9818L138.195 85.6773ZM138.017 83.3365L140.017 83.3365C140.017 76.0177 145.95 70.0847 153.269 70.0845L153.268 68.0845L153.268 66.0845C143.741 66.0847 136.017 73.8085 136.017 83.3365L138.017 83.3365Z" fill="url(#paint9_linear_6_221)" mask="url(#path-9-inside-4_6_221)"/>
</g>
<g filter="url(#filter5_dd_6_221)">
<path d="M86.5472 124.546C86.9384 124.044 87.7426 124.288 87.788 124.923L88.1628 130.178C88.2985 132.079 86.4856 133.526 84.6621 132.971C82.8385 132.417 82.1377 130.205 83.3091 128.701L86.5472 124.546Z" fill="url(#paint10_linear_6_221)" stroke="url(#paint11_linear_6_221)" stroke-width="3"/>
<path d="M104.936 124.546C105.327 124.044 106.132 124.288 106.177 124.923L106.552 130.178C106.687 132.079 104.875 133.526 103.051 132.971C101.227 132.417 100.527 130.205 101.698 128.701L104.936 124.546Z" fill="url(#paint12_linear_6_221)" stroke="url(#paint13_linear_6_221)" stroke-width="3"/>
<path d="M123.325 124.546C123.716 124.044 124.521 124.288 124.566 124.923L124.941 130.178C125.076 132.079 123.264 133.526 121.44 132.971C119.616 132.417 118.916 130.205 120.087 128.701L123.325 124.546Z" fill="url(#paint14_linear_6_221)" stroke="url(#paint15_linear_6_221)" stroke-width="3"/>
</g>
<g filter="url(#filter6_dd_6_221)">
<path d="M93.5821 139.102C93.9733 138.6 94.7776 138.844 94.8229 139.479L95.1977 144.734C95.3334 146.635 93.5205 148.082 91.697 147.527C89.8734 146.972 89.1726 144.761 90.344 143.257L93.5821 139.102Z" fill="url(#paint16_linear_6_221)" stroke="url(#paint17_linear_6_221)" stroke-width="3"/>
<path d="M112.129 139.102C112.52 138.6 113.324 138.844 113.369 139.479L113.744 144.734C113.88 146.635 112.067 148.082 110.243 147.527C108.42 146.972 107.719 144.761 108.89 143.257L112.129 139.102Z" fill="url(#paint18_linear_6_221)" stroke="url(#paint19_linear_6_221)" stroke-width="3"/>
</g>
<defs>
<filter id="filter0_dd_6_221" x="40.1296" y="0" width="151.069" height="148.152" filterUnits="userSpaceOnUse" color-interpolation-filters="sRGB">
<feFlood flood-opacity="0" result="BackgroundImageFix"/>
<feColorMatrix in="SourceAlpha" type="matrix" values="0 0 0 0 0 0 0 0 0 0 0 0 0 0 0 0 0 0 127 0" result="hardAlpha"/>
<feOffset dx="-21" dy="15"/>
<feGaussianBlur stdDeviation="25"/>
<feComposite in2="hardAlpha" operator="out"/>
<feColorMatrix type="matrix" values="0 0 0 0 0.113438 0 0 0 0 0.148981 0 0 0 0 0.275 0 0 0 0.25 0"/>
<feBlend mode="normal" in2="BackgroundImageFix" result="effect1_dropShadow_6_221"/>
<feColorMatrix in="SourceAlpha" type="matrix" values="0 0 0 0 0 0 0 0 0 0 0 0 0 0 0 0 0 0 127 0" result="hardAlpha"/>
<feOffset/>
<feGaussianBlur stdDeviation="19"/>
<feComposite in2="hardAlpha" operator="out"/>
<feColorMatrix type="matrix" values="0 0 0 0 0.980392 0 0 0 0 0.980392 0 0 0 0 0.980392 0 0 0 0.4 0"/>
<feBlend mode="normal" in2="effect1_dropShadow_6_221" result="effect2_dropShadow_6_221"/>
<feBlend mode="normal" in="SourceGraphic" in2="effect2_dropShadow_6_221" result="shape"/>
</filter>
<clipPath id="bgblur_0_6_221_clip_path" transform="translate(-40.1296 0)"><path d="M123.866 38.8173C124.221 38.6349 124.578 38.4624 124.937 38.2998C128.118 36.8599 130.46 40.8944 129.6 44.2777C128.459 48.7646 128.888 53.6701 131.172 58.1111C134.547 64.6721 141.101 68.5299 147.985 68.7719C151.476 68.8946 154.712 72.2699 152.444 74.9275C150.519 77.1829 148.132 79.1087 145.332 80.549C133.808 86.4765 119.661 81.9401 113.733 70.4166C107.805 58.8927 112.342 44.7448 123.866 38.8173Z"/>
</clipPath><filter id="filter1_d_6_221" x="0" y="21.8927" width="155" height="137.206" filterUnits="userSpaceOnUse" color-interpolation-filters="sRGB">
<feFlood flood-opacity="0" result="BackgroundImageFix"/>
<feColorMatrix in="SourceAlpha" type="matrix" values="0 0 0 0 0 0 0 0 0 0 0 0 0 0 0 0 0 0 127 0" result="hardAlpha"/>
<feOffset dx="-21" dy="15"/>
<feGaussianBlur stdDeviation="25"/>
<feComposite in2="hardAlpha" operator="out"/>
<feColorMatrix type="matrix" values="0 0 0 0 0.113438 0 0 0 0 0.148981 0 0 0 0 0.275 0 0 0 0.25 0"/>
<feBlend mode="normal" in2="BackgroundImageFix" result="effect1_dropShadow_6_221"/>
<feBlend mode="normal" in="SourceGraphic" in2="effect1_dropShadow_6_221" result="shape"/>
</filter>
<clipPath id="bgblur_1_6_221_clip_path" transform="translate(0 -21.8927)"><path d="M98.2686 56.8927C106.692 56.8927 113.521 63.7212 113.521 72.1447C113.521 72.8502 113.472 73.5446 113.379 74.2247H115.947V74.2267C115.986 74.2262 116.025 74.2247 116.063 74.2247C121.551 74.225 126 78.6735 126 84.1613C126 89.6491 121.551 94.0985 116.063 94.0988C116.025 94.0988 115.986 94.0963 115.947 94.0958V94.0988H81.0527L81.0547 94.0948C81.0155 94.0953 80.9758 94.0988 80.9365 94.0988C75.4487 94.0985 71 89.6491 71 84.1613C71.0002 78.6735 75.4488 74.225 80.9365 74.2247C81.7136 74.2247 82.4696 74.3168 83.1953 74.4855C83.0778 73.7224 83.0166 72.9406 83.0166 72.1447C83.0167 63.7213 89.8453 56.8929 98.2686 56.8927Z"/>
</clipPath><filter id="filter2_d_6_221" x="12.7906" y="33.0845" width="176.104" height="151.482" filterUnits="userSpaceOnUse" color-interpolation-filters="sRGB">
<feFlood flood-opacity="0" result="BackgroundImageFix"/>
<feColorMatrix in="SourceAlpha" type="matrix" values="0 0 0 0 0 0 0 0 0 0 0 0 0 0 0 0 0 0 127 0" result="hardAlpha"/>
<feOffset dx="-21" dy="15"/>
<feGaussianBlur stdDeviation="25"/>
<feComposite in2="hardAlpha" operator="out"/>
<feColorMatrix type="matrix" values="0 0 0 0 0.113725 0 0 0 0 0.14902 0 0 0 0 0.27451 0 0 0 0.25 0"/>
<feBlend mode="normal" in2="BackgroundImageFix" result="effect1_dropShadow_6_221"/>
<feBlend mode="normal" in="SourceGraphic" in2="effect1_dropShadow_6_221" result="shape"/>
</filter>
<clipPath id="bgblur_2_6_221_clip_path" transform="translate(-12.7906 -33.0845)"><path d="M121.523 68.0845C133.179 68.0845 142.627 77.5333 142.628 89.189C142.628 90.1652 142.561 91.126 142.432 92.067H145.985V92.0689C146.038 92.0683 146.092 92.067 146.145 92.067C153.739 92.067 159.895 98.2231 159.895 105.817C159.895 113.411 153.739 119.567 146.145 119.567C146.092 119.567 146.038 119.566 145.985 119.565V119.567H97.7008L97.7018 119.565C97.6481 119.566 97.5944 119.567 97.5406 119.567C89.9467 119.567 83.7906 113.411 83.7906 105.817C83.7907 98.2231 89.9468 92.067 97.5406 92.067C98.6152 92.067 99.661 92.1902 100.665 92.4234C100.503 91.369 100.419 90.2888 100.419 89.189C100.419 77.5334 109.867 68.0846 121.523 68.0845Z"/>
</clipPath><filter id="filter3_dd_6_221" x="65.6424" y="35.2241" width="164.295" height="178.402" filterUnits="userSpaceOnUse" color-interpolation-filters="sRGB">
<feFlood flood-opacity="0" result="BackgroundImageFix"/>
<feColorMatrix in="SourceAlpha" type="matrix" values="0 0 0 0 0 0 0 0 0 0 0 0 0 0 0 0 0 0 127 0" result="hardAlpha"/>
<feOffset dx="-21" dy="15"/>
<feGaussianBlur stdDeviation="25"/>
<feComposite in2="hardAlpha" operator="out"/>
<feColorMatrix type="matrix" values="0 0 0 0 0.113438 0 0 0 0 0.148981 0 0 0 0 0.275 0 0 0 0.25 0"/>
<feBlend mode="normal" in2="BackgroundImageFix" result="effect1_dropShadow_6_221"/>
<feColorMatrix in="SourceAlpha" type="matrix" values="0 0 0 0 0 0 0 0 0 0 0 0 0 0 0 0 0 0 127 0" result="hardAlpha"/>
<feOffset/>
<feGaussianBlur stdDeviation="30.5"/>
<feComposite in2="hardAlpha" operator="out"/>
<feColorMatrix type="matrix" values="0 0 0 0 1 0 0 0 0 0.721569 0 0 0 0 0.00392157 0 0 0 0.49 0"/>
<feBlend mode="normal" in2="effect1_dropShadow_6_221" result="effect2_dropShadow_6_221"/>
<feBlend mode="normal" in="SourceGraphic" in2="effect2_dropShadow_6_221" result="shape"/>
</filter>
<clipPath id="bgblur_3_6_221_clip_path" transform="translate(-65.6424 -35.2241)"><path d="M136.89 122.524L150.693 97.2651C151.043 96.6233 151.716 96.2241 152.448 96.2241H164.424C165.927 96.2241 166.893 97.8205 166.196 99.1521L158.711 113.441C158.013 114.773 158.979 116.369 160.483 116.369H166.934C168.663 116.369 169.577 118.415 168.424 119.703L143.154 147.946C141.68 149.594 139.016 147.984 139.79 145.913L146.415 128.183C146.904 126.876 145.937 125.483 144.542 125.483H138.645C137.126 125.483 136.162 123.857 136.89 122.524Z"/>
</clipPath><filter id="filter4_d_6_221" x="54.9999" y="33.0845" width="155" height="137.206" filterUnits="userSpaceOnUse" color-interpolation-filters="sRGB">
<feFlood flood-opacity="0" result="BackgroundImageFix"/>
<feColorMatrix in="SourceAlpha" type="matrix" values="0 0 0 0 0 0 0 0 0 0 0 0 0 0 0 0 0 0 127 0" result="hardAlpha"/>
<feOffset dx="-21" dy="15"/>
<feGaussianBlur stdDeviation="25"/>
<feComposite in2="hardAlpha" operator="out"/>
<feColorMatrix type="matrix" values="0 0 0 0 0.113438 0 0 0 0 0.148981 0 0 0 0 0.275 0 0 0 0.25 0"/>
<feBlend mode="normal" in2="BackgroundImageFix" result="effect1_dropShadow_6_221"/>
<feBlend mode="normal" in="SourceGraphic" in2="effect1_dropShadow_6_221" result="shape"/>
</filter>
<clipPath id="bgblur_4_6_221_clip_path" transform="translate(-54.9999 -33.0845)"><path d="M153.268 68.0845C161.692 68.0845 168.52 74.913 168.52 83.3365C168.52 84.0421 168.472 84.7364 168.379 85.4166H170.947V85.4185C170.986 85.4181 171.025 85.4166 171.063 85.4166C176.551 85.4168 181 89.8654 181 95.3531C181 100.841 176.551 105.29 171.063 105.291C171.025 105.291 170.986 105.288 170.947 105.288V105.291H136.053L136.055 105.287C136.015 105.287 135.976 105.291 135.936 105.291C130.449 105.29 126 100.841 126 95.3531C126 89.8654 130.449 85.4168 135.936 85.4166C136.714 85.4166 137.47 85.5086 138.195 85.6773C138.078 84.9143 138.017 84.1324 138.017 83.3365C138.017 74.9131 144.845 68.0847 153.268 68.0845Z"/>
</clipPath><filter id="filter5_dd_6_221" x="10.2332" y="74.7747" width="157.215" height="124.817" filterUnits="userSpaceOnUse" color-interpolation-filters="sRGB">
<feFlood flood-opacity="0" result="BackgroundImageFix"/>
<feColorMatrix in="SourceAlpha" type="matrix" values="0 0 0 0 0 0 0 0 0 0 0 0 0 0 0 0 0 0 127 0" result="hardAlpha"/>
<feOffset dx="-21" dy="15"/>
<feGaussianBlur stdDeviation="25"/>
<feComposite in2="hardAlpha" operator="out"/>
<feColorMatrix type="matrix" values="0 0 0 0 0.113438 0 0 0 0 0.148981 0 0 0 0 0.275 0 0 0 0.25 0"/>
<feBlend mode="normal" in2="BackgroundImageFix" result="effect1_dropShadow_6_221"/>
<feColorMatrix in="SourceAlpha" type="matrix" values="0 0 0 0 0 0 0 0 0 0 0 0 0 0 0 0 0 0 127 0" result="hardAlpha"/>
<feOffset dy="-7"/>
<feGaussianBlur stdDeviation="20.5"/>
<feComposite in2="hardAlpha" operator="out"/>
<feColorMatrix type="matrix" values="0 0 0 0 0.1375 0 0 0 0 0.74125 0 0 0 0 1 0 0 0 0.3 0"/>
<feBlend mode="normal" in2="effect1_dropShadow_6_221" result="effect2_dropShadow_6_221"/>
<feBlend mode="normal" in="SourceGraphic" in2="effect2_dropShadow_6_221" result="shape"/>
</filter>
<filter id="filter6_dd_6_221" x="17.2681" y="89.3307" width="138.983" height="124.817" filterUnits="userSpaceOnUse" color-interpolation-filters="sRGB">
<feFlood flood-opacity="0" result="BackgroundImageFix"/>
<feColorMatrix in="SourceAlpha" type="matrix" values="0 0 0 0 0 0 0 0 0 0 0 0 0 0 0 0 0 0 127 0" result="hardAlpha"/>
<feOffset dx="-21" dy="15"/>
<feGaussianBlur stdDeviation="25"/>
<feComposite in2="hardAlpha" operator="out"/>
<feColorMatrix type="matrix" values="0 0 0 0 0.113438 0 0 0 0 0.148981 0 0 0 0 0.275 0 0 0 0.25 0"/>
<feBlend mode="normal" in2="BackgroundImageFix" result="effect1_dropShadow_6_221"/>
<feColorMatrix in="SourceAlpha" type="matrix" values="0 0 0 0 0 0 0 0 0 0 0 0 0 0 0 0 0 0 127 0" result="hardAlpha"/>
<feOffset dy="-7"/>
<feGaussianBlur stdDeviation="20.5"/>
<feComposite in2="hardAlpha" operator="out"/>
<feColorMatrix type="matrix" values="0 0 0 0 0.1375 0 0 0 0 0.74125 0 0 0 0 1 0 0 0 0.3 0"/>
<feBlend mode="normal" in2="effect1_dropShadow_6_221" result="effect2_dropShadow_6_221"/>
<feBlend mode="normal" in="SourceGraphic" in2="effect2_dropShadow_6_221" result="shape"/>
</filter>
<radialGradient id="paint0_radial_6_221" cx="0" cy="0" r="1" gradientUnits="userSpaceOnUse" gradientTransform="translate(128.451 63.3106) rotate(62.7801) scale(23.4644 16.5297)">
<stop offset="0.0001" stop-color="white"/>
<stop offset="0.50005" stop-color="#F3F4F6"/>
<stop offset="1" stop-color="#DADDE3"/>
</radialGradient>
<linearGradient id="paint1_linear_6_221" x1="118.845" y1="20.1201" x2="130.609" y2="74.8514" gradientUnits="userSpaceOnUse">
<stop stop-color="white"/>
<stop offset="1" stop-color="white" stop-opacity="0"/>
</linearGradient>
<linearGradient id="paint2_linear_6_221" x1="101.058" y1="58.0119" x2="101.058" y2="98.3028" gradientUnits="userSpaceOnUse">
<stop stop-color="white"/>
<stop offset="1" stop-color="white" stop-opacity="0"/>
</linearGradient>
<linearGradient id="paint3_linear_6_221" x1="98.5" y1="56.8927" x2="98.5" y2="94.0988" gradientUnits="userSpaceOnUse">
<stop stop-color="white"/>
<stop offset="1" stop-color="white" stop-opacity="0"/>
</linearGradient>
<linearGradient id="paint4_linear_6_221" x1="121.843" y1="51.6166" x2="121.843" y2="126.762" gradientUnits="userSpaceOnUse">
<stop stop-color="white"/>
<stop offset="1" stop-color="white" stop-opacity="0"/>
</linearGradient>
<linearGradient id="paint5_linear_6_221" x1="121.843" y1="68.0845" x2="121.843" y2="119.567" gradientUnits="userSpaceOnUse">
<stop stop-color="white"/>
<stop offset="1" stop-color="white" stop-opacity="0"/>
</linearGradient>
<linearGradient id="paint6_linear_6_221" x1="156.857" y1="99.7416" x2="148.863" y2="134.436" gradientUnits="userSpaceOnUse">
<stop stop-color="#FF4D00"/>
<stop offset="1" stop-color="#FFB800"/>
</linearGradient>
<linearGradient id="paint7_linear_6_221" x1="146.145" y1="133.957" x2="160.695" y2="102.779" gradientUnits="userSpaceOnUse">
<stop stop-color="white"/>
<stop offset="1" stop-color="white" stop-opacity="0"/>
</linearGradient>
<linearGradient id="paint8_linear_6_221" x1="156.058" y1="69.2037" x2="156.058" y2="109.495" gradientUnits="userSpaceOnUse">
<stop stop-color="white"/>
<stop offset="1" stop-color="white" stop-opacity="0"/>
</linearGradient>
<linearGradient id="paint9_linear_6_221" x1="153.5" y1="68.0845" x2="153.5" y2="105.291" gradientUnits="userSpaceOnUse">
<stop stop-color="white"/>
<stop offset="1" stop-color="white" stop-opacity="0"/>
</linearGradient>
<linearGradient id="paint10_linear_6_221" x1="88.8766" y1="119.115" x2="84.2253" y2="134.406" gradientUnits="userSpaceOnUse">
<stop stop-color="#138EFF"/>
<stop offset="1" stop-color="#00E0FF"/>
</linearGradient>
<linearGradient id="paint11_linear_6_221" x1="88.8766" y1="119.115" x2="84.2253" y2="134.406" gradientUnits="userSpaceOnUse">
<stop stop-color="white"/>
<stop offset="1" stop-color="white" stop-opacity="0"/>
</linearGradient>
<linearGradient id="paint12_linear_6_221" x1="107.266" y1="119.115" x2="102.614" y2="134.406" gradientUnits="userSpaceOnUse">
<stop stop-color="#138EFF"/>
<stop offset="1" stop-color="#00E0FF"/>
</linearGradient>
<linearGradient id="paint13_linear_6_221" x1="107.266" y1="119.115" x2="102.614" y2="134.406" gradientUnits="userSpaceOnUse">
<stop stop-color="white"/>
<stop offset="1" stop-color="white" stop-opacity="0"/>
</linearGradient>
<linearGradient id="paint14_linear_6_221" x1="125.655" y1="119.115" x2="121.003" y2="134.406" gradientUnits="userSpaceOnUse">
<stop stop-color="#138EFF"/>
<stop offset="1" stop-color="#00E0FF"/>
</linearGradient>
<linearGradient id="paint15_linear_6_221" x1="125.655" y1="119.115" x2="121.003" y2="134.406" gradientUnits="userSpaceOnUse">
<stop stop-color="white"/>
<stop offset="1" stop-color="white" stop-opacity="0"/>
</linearGradient>
<linearGradient id="paint16_linear_6_221" x1="95.9116" y1="133.671" x2="91.2603" y2="148.962" gradientUnits="userSpaceOnUse">
<stop stop-color="#138EFF"/>
<stop offset="1" stop-color="#00E0FF"/>
</linearGradient>
<linearGradient id="paint17_linear_6_221" x1="95.9116" y1="133.671" x2="91.2603" y2="148.962" gradientUnits="userSpaceOnUse">
<stop stop-color="white"/>
<stop offset="1" stop-color="white" stop-opacity="0"/>
</linearGradient>
<linearGradient id="paint18_linear_6_221" x1="114.458" y1="133.671" x2="109.807" y2="148.962" gradientUnits="userSpaceOnUse">
<stop stop-color="#138EFF"/>
<stop offset="1" stop-color="#00E0FF"/>
</linearGradient>
<linearGradient id="paint19_linear_6_221" x1="114.458" y1="133.671" x2="109.807" y2="148.962" gradientUnits="userSpaceOnUse">
<stop stop-color="white"/>
<stop offset="1" stop-color="white" stop-opacity="0"/>
</linearGradient>
</defs>
</svg>
