<svg width="132" height="153" viewBox="0 0 132 153" fill="none" xmlns="http://www.w3.org/2000/svg">
<mask id="path-1-inside-1_220_29" fill="white">
<path d="M78.074 9.68537C80.3402 8.51976 82.6658 7.59718 85.0201 6.90776C88.4026 5.91728 90.6281 10.0171 89.1536 13.2183C85.2547 21.6834 85.1124 31.6805 89.6394 40.4815C95.9117 52.6756 109.264 58.913 122.383 56.9476C125.863 56.4263 129.153 59.7012 127.251 62.6611C123.683 68.2117 118.622 72.9479 112.29 76.2051C93.4715 85.8847 70.5566 78.8412 61.1081 60.4723C51.6596 42.1033 59.2557 19.3649 78.074 9.68537Z"/>
</mask>
<path d="M78.074 9.68537C80.3402 8.51976 82.6658 7.59718 85.0201 6.90776C88.4026 5.91728 90.6281 10.0171 89.1536 13.2183C85.2547 21.6834 85.1124 31.6805 89.6394 40.4815C95.9117 52.6756 109.264 58.913 122.383 56.9476C125.863 56.4263 129.153 59.7012 127.251 62.6611C123.683 68.2117 118.622 72.9479 112.29 76.2051C93.4715 85.8847 70.5566 78.8412 61.1081 60.4723C51.6596 42.1033 59.2557 19.3649 78.074 9.68537Z" fill="url(#paint0_radial_220_29)"/>
<path d="M78.074 9.68537L77.1592 7.90684L77.1592 7.90686L78.074 9.68537ZM89.6394 40.4815L87.8609 41.3963V41.3963L89.6394 40.4815ZM112.29 76.2051L113.205 77.9836L113.205 77.9836L112.29 76.2051ZM61.1081 60.4723L59.3296 61.3871L59.3296 61.3871L61.1081 60.4723ZM78.074 9.68537L78.9888 11.4639C81.1415 10.3566 83.349 9.4811 85.5822 8.82716L85.0201 6.90776L84.4581 4.98836C81.9826 5.71325 79.5388 6.68289 77.1592 7.90684L78.074 9.68537ZM89.1536 13.2183L87.3371 12.3816C83.1965 21.3712 83.0358 32.0158 87.8609 41.3963L89.6394 40.4815L91.4179 39.5667C87.189 31.3452 87.3128 21.9956 90.9702 14.055L89.1536 13.2183ZM89.6394 40.4815L87.8609 41.3963C94.5489 54.3987 108.764 61.0101 122.679 58.9255L122.383 56.9476L122.087 54.9697C109.764 56.8158 97.2745 50.9526 91.4179 39.5667L89.6394 40.4815ZM127.251 62.6611L125.568 61.5796C122.186 66.8407 117.388 71.3336 111.375 74.4266L112.29 76.2051L113.205 77.9836C119.856 74.5622 125.179 69.5827 128.933 63.7426L127.251 62.6611ZM112.29 76.2051L111.375 74.4266C93.4981 83.6219 71.8092 76.9038 62.8866 59.5575L61.1081 60.4723L59.3296 61.3871C69.3041 80.7786 93.4449 88.1474 113.205 77.9836L112.29 76.2051ZM61.1081 60.4723L62.8866 59.5575C53.9641 42.211 61.112 20.6592 78.9888 11.4639L78.074 9.68537L77.1592 7.90686C57.3994 18.0707 49.3551 41.9956 59.3296 61.3871L61.1081 60.4723ZM122.383 56.9476L122.679 58.9255C123.737 58.767 124.77 59.1988 125.354 59.8431C125.882 60.4241 125.943 60.9963 125.568 61.5796L127.251 62.6611L128.933 63.7426C130.461 61.3659 129.828 58.8207 128.316 57.1547C126.861 55.5519 124.508 54.6069 122.087 54.9697L122.383 56.9476ZM85.0201 6.90776L85.5822 8.82716C86.2472 8.63242 86.7857 8.85302 87.2015 9.53371C87.6609 10.2859 87.7858 11.4074 87.3371 12.3816L89.1536 13.2183L90.9702 14.055C91.996 11.828 91.7453 9.29897 90.615 7.44859C89.441 5.52668 87.1755 4.19262 84.4581 4.98836L85.0201 6.90776Z" fill="url(#paint1_linear_220_29)" mask="url(#path-1-inside-1_220_29)"/>
<path d="M93.2783 86H107.422C108.173 86.0003 108.656 86.7982 108.308 87.4639L99.4336 104.404C98.3877 106.402 99.837 108.796 102.092 108.796H110.415C111.279 108.796 111.736 109.819 111.16 110.463L81.2412 143.902C80.5041 144.726 79.1721 143.921 79.5586 142.886L87.6777 121.158C88.4101 119.198 86.9602 117.108 84.8672 117.108H77.3721C76.6127 117.108 76.13 116.295 76.4941 115.629L92.4004 86.5205C92.5757 86.1996 92.9127 86 93.2783 86Z" fill="url(#paint2_linear_220_29)" stroke="url(#paint3_linear_220_29)" stroke-width="2"/>
<path d="M93.7052 43C104.426 43 113.117 51.6907 113.118 62.4112C113.118 63.3091 113.055 64.1928 112.937 65.0587H116.205V65.0601C116.254 65.0594 116.304 65.0587 116.353 65.0587C123.338 65.0587 129 70.721 129 77.7052C129 84.6901 123.338 90.3524 116.353 90.3524C116.304 90.3524 116.254 90.351 116.205 90.3503V90.3524H71.794L71.7947 90.3503C71.7456 90.351 71.6963 90.3524 71.647 90.3524C64.6623 90.3524 59 84.6901 59 77.7052C59.0001 70.721 64.6623 65.0587 71.647 65.0587C72.6353 65.0587 73.5973 65.1724 74.5203 65.3869C74.3712 64.4166 74.2942 63.4228 74.2942 62.4112C74.2943 51.6908 82.9852 43.0001 93.7052 43Z" fill="url(#paint4_linear_220_29)"/>
<path d="M48.856 43C63.948 43 76.183 55.2343 76.184 70.326C76.184 71.59 76.096 72.834 75.93 74.053H80.53V74.055C80.599 74.054 80.669 74.053 80.738 74.053C90.571 74.053 98.542 82.024 98.542 91.856C98.542 101.689 90.571 109.66 80.738 109.66C80.669 109.66 80.599 109.658 80.53 109.657V109.66H18.0107L18.0117 109.657C17.9425 109.658 17.8731 109.66 17.8037 109.66C7.971 109.66 0 101.689 0 91.856C0.0002 82.024 7.9711 74.053 17.8037 74.053C19.195 74.053 20.5492 74.213 21.8486 74.515C21.6387 73.149 21.5303 71.75 21.5303 70.326C21.5305 55.2344 33.765 43.0002 48.856 43Z" fill="url(#paint5_linear_220_29)"/>
<path d="M20.7198 112.737C21.5551 111.665 23.2724 112.188 23.3695 113.543L23.7941 119.49C23.9826 122.129 21.4655 124.137 18.9339 123.367C16.4025 122.597 15.4298 119.527 17.056 117.44L20.7198 112.737Z" fill="url(#paint6_linear_220_29)" stroke="url(#paint7_linear_220_29)" stroke-width="2"/>
<path d="M41.5284 112.737C42.3636 111.665 44.0809 112.188 44.178 113.543L44.6026 119.49C44.7911 122.129 42.274 124.137 39.7424 123.367C37.2111 122.597 36.2383 119.527 37.8645 117.44L41.5284 112.737Z" fill="url(#paint8_linear_220_29)" stroke="url(#paint9_linear_220_29)" stroke-width="2"/>
<path d="M62.3369 112.737C63.1722 111.665 64.8895 112.188 64.9866 113.543L65.4112 119.49C65.5996 122.129 63.0826 124.137 60.5509 123.367C58.0196 122.597 57.0469 119.527 58.673 117.44L62.3369 112.737Z" fill="url(#paint10_linear_220_29)" stroke="url(#paint11_linear_220_29)" stroke-width="2"/>
<path d="M26.2103 129.208C27.0455 128.136 28.7628 128.659 28.8599 130.014L29.2845 135.961C29.473 138.6 26.9559 140.608 24.4243 139.838C21.8929 139.068 20.9202 135.998 22.5464 133.911L26.2103 129.208Z" fill="url(#paint12_linear_220_29)" stroke="url(#paint13_linear_220_29)" stroke-width="2"/>
<path d="M43.791 129.208C44.6263 128.136 46.3436 128.659 46.4407 130.014L46.8653 135.961C47.0538 138.6 44.5367 140.608 42.005 139.838C39.4737 139.068 38.501 135.998 40.1271 133.911L43.791 129.208Z" fill="url(#paint14_linear_220_29)" stroke="url(#paint15_linear_220_29)" stroke-width="2"/>
<defs>
<radialGradient id="paint0_radial_220_29" cx="0" cy="0" r="1" gradientUnits="userSpaceOnUse" gradientTransform="translate(86.6599 48.0697) rotate(62.7801) scale(37.4019 28.7283)">
<stop offset="0.0001" stop-color="white"/>
<stop offset="0.50005" stop-color="#F3F4F6"/>
<stop offset="1" stop-color="#DADDE3"/>
</radialGradient>
<linearGradient id="paint1_linear_220_29" x1="72.785" y1="-21.5139" x2="93.4702" y2="65.7864" gradientUnits="userSpaceOnUse">
<stop stop-color="white"/>
<stop offset="1" stop-color="white" stop-opacity="0"/>
</linearGradient>
<linearGradient id="paint2_linear_220_29" x1="98.4243" y1="88.9803" x2="89.3782" y2="128.24" gradientUnits="userSpaceOnUse">
<stop stop-color="#FF4D00"/>
<stop offset="1" stop-color="#FFB800"/>
</linearGradient>
<linearGradient id="paint3_linear_220_29" x1="86.3026" y1="127.697" x2="102.766" y2="92.4178" gradientUnits="userSpaceOnUse">
<stop stop-color="white"/>
<stop offset="1" stop-color="white" stop-opacity="0"/>
</linearGradient>
<linearGradient id="paint4_linear_220_29" x1="97.2556" y1="44.4244" x2="97.2556" y2="95.7028" gradientUnits="userSpaceOnUse">
<stop stop-color="#AEAEAE"/>
<stop offset="1" stop-color="white" stop-opacity="0.5"/>
</linearGradient>
<linearGradient id="paint5_linear_220_29" x1="53.854" y1="45.0052" x2="53.854" y2="117.192" gradientUnits="userSpaceOnUse">
<stop stop-color="#AEAEAE"/>
<stop offset="1" stop-color="white" stop-opacity="0.5"/>
</linearGradient>
<linearGradient id="paint6_linear_220_29" x1="23.9065" y1="107.021" x2="18.6432" y2="124.324" gradientUnits="userSpaceOnUse">
<stop stop-color="#138EFF"/>
<stop offset="1" stop-color="#00E0FF"/>
</linearGradient>
<linearGradient id="paint7_linear_220_29" x1="23.9065" y1="107.021" x2="18.6432" y2="124.324" gradientUnits="userSpaceOnUse">
<stop stop-color="white"/>
<stop offset="1" stop-color="white" stop-opacity="0"/>
</linearGradient>
<linearGradient id="paint8_linear_220_29" x1="44.715" y1="107.021" x2="39.4517" y2="124.324" gradientUnits="userSpaceOnUse">
<stop stop-color="#138EFF"/>
<stop offset="1" stop-color="#00E0FF"/>
</linearGradient>
<linearGradient id="paint9_linear_220_29" x1="44.715" y1="107.021" x2="39.4517" y2="124.324" gradientUnits="userSpaceOnUse">
<stop stop-color="white"/>
<stop offset="1" stop-color="white" stop-opacity="0"/>
</linearGradient>
<linearGradient id="paint10_linear_220_29" x1="65.5235" y1="107.021" x2="60.2602" y2="124.324" gradientUnits="userSpaceOnUse">
<stop stop-color="#138EFF"/>
<stop offset="1" stop-color="#00E0FF"/>
</linearGradient>
<linearGradient id="paint11_linear_220_29" x1="65.5235" y1="107.021" x2="60.2602" y2="124.324" gradientUnits="userSpaceOnUse">
<stop stop-color="white"/>
<stop offset="1" stop-color="white" stop-opacity="0"/>
</linearGradient>
<linearGradient id="paint12_linear_220_29" x1="29.3969" y1="123.492" x2="24.1336" y2="140.795" gradientUnits="userSpaceOnUse">
<stop stop-color="#138EFF"/>
<stop offset="1" stop-color="#00E0FF"/>
</linearGradient>
<linearGradient id="paint13_linear_220_29" x1="29.3969" y1="123.492" x2="24.1336" y2="140.795" gradientUnits="userSpaceOnUse">
<stop stop-color="white"/>
<stop offset="1" stop-color="white" stop-opacity="0"/>
</linearGradient>
<linearGradient id="paint14_linear_220_29" x1="46.9777" y1="123.492" x2="41.7143" y2="140.795" gradientUnits="userSpaceOnUse">
<stop stop-color="#138EFF"/>
<stop offset="1" stop-color="#00E0FF"/>
</linearGradient>
<linearGradient id="paint15_linear_220_29" x1="46.9777" y1="123.492" x2="41.7143" y2="140.795" gradientUnits="userSpaceOnUse">
<stop stop-color="white"/>
<stop offset="1" stop-color="white" stop-opacity="0"/>
</linearGradient>
</defs>
</svg>
