<svg width="134" height="140" viewBox="0 0 134 140" fill="none" xmlns="http://www.w3.org/2000/svg">
<mask id="path-1-inside-1_220_29" fill="white">
<path d="M80.074 9.68537C82.3402 8.51976 84.6658 7.59718 87.0201 6.90776C90.4026 5.91728 92.6281 10.0171 91.1536 13.2183C87.2547 21.6834 87.1124 31.6805 91.6394 40.4815C97.9117 52.6756 111.264 58.913 124.383 56.9476C127.863 56.4263 131.153 59.7012 129.251 62.6611C125.683 68.2117 120.622 72.9479 114.29 76.2051C95.4715 85.8847 72.5566 78.8412 63.1081 60.4723C53.6596 42.1033 61.2557 19.3649 80.074 9.68537Z"/>
</mask>
<path d="M80.074 9.68537C82.3402 8.51976 84.6658 7.59718 87.0201 6.90776C90.4026 5.91728 92.6281 10.0171 91.1536 13.2183C87.2547 21.6834 87.1124 31.6805 91.6394 40.4815C97.9117 52.6756 111.264 58.913 124.383 56.9476C127.863 56.4263 131.153 59.7012 129.251 62.6611C125.683 68.2117 120.622 72.9479 114.29 76.2051C95.4715 85.8847 72.5566 78.8412 63.1081 60.4723C53.6596 42.1033 61.2557 19.3649 80.074 9.68537Z" fill="url(#paint0_radial_220_29)"/>
<path d="M80.074 9.68537L79.1592 7.90684L79.1592 7.90686L80.074 9.68537ZM91.6394 40.4815L89.8609 41.3963V41.3963L91.6394 40.4815ZM114.29 76.2051L115.205 77.9836L115.205 77.9836L114.29 76.2051ZM63.1081 60.4723L61.3296 61.3871L61.3296 61.3871L63.1081 60.4723ZM80.074 9.68537L80.9888 11.4639C83.1415 10.3566 85.349 9.4811 87.5822 8.82716L87.0201 6.90776L86.4581 4.98836C83.9826 5.71325 81.5388 6.68289 79.1592 7.90684L80.074 9.68537ZM91.1536 13.2183L89.3371 12.3816C85.1965 21.3712 85.0358 32.0158 89.8609 41.3963L91.6394 40.4815L93.4179 39.5667C89.189 31.3452 89.3128 21.9956 92.9702 14.055L91.1536 13.2183ZM91.6394 40.4815L89.8609 41.3963C96.5489 54.3987 110.764 61.0101 124.679 58.9255L124.383 56.9476L124.087 54.9697C111.764 56.8158 99.2745 50.9526 93.4179 39.5667L91.6394 40.4815ZM129.251 62.6611L127.568 61.5796C124.186 66.8407 119.388 71.3336 113.375 74.4266L114.29 76.2051L115.205 77.9836C121.856 74.5622 127.179 69.5827 130.933 63.7426L129.251 62.6611ZM114.29 76.2051L113.375 74.4266C95.4981 83.6219 73.8092 76.9038 64.8866 59.5575L63.1081 60.4723L61.3296 61.3871C71.3041 80.7786 95.4449 88.1474 115.205 77.9836L114.29 76.2051ZM63.1081 60.4723L64.8866 59.5575C55.9641 42.211 63.112 20.6592 80.9888 11.4639L80.074 9.68537L79.1592 7.90686C59.3994 18.0707 51.3551 41.9956 61.3296 61.3871L63.1081 60.4723ZM124.383 56.9476L124.679 58.9255C125.737 58.767 126.77 59.1988 127.354 59.8431C127.882 60.4241 127.943 60.9963 127.568 61.5796L129.251 62.6611L130.933 63.7426C132.461 61.3659 131.828 58.8207 130.316 57.1547C128.861 55.5519 126.508 54.6069 124.087 54.9697L124.383 56.9476ZM87.0201 6.90776L87.5822 8.82716C88.2472 8.63242 88.7857 8.85302 89.2015 9.53371C89.6609 10.2859 89.7858 11.4074 89.3371 12.3816L91.1536 13.2183L92.9702 14.055C93.996 11.828 93.7453 9.29897 92.615 7.44859C91.441 5.52668 89.1755 4.19262 86.4581 4.98836L87.0201 6.90776Z" fill="url(#paint1_linear_220_29)" mask="url(#path-1-inside-1_220_29)"/>
<path d="M93.7052 45C104.426 45 113.117 53.6907 113.118 64.4112C113.118 65.3091 113.055 66.1928 112.937 67.0587H116.205V67.0601C116.254 67.0594 116.304 67.0587 116.353 67.0587C123.338 67.0587 129 72.721 129 79.7052C129 86.6901 123.338 92.3524 116.353 92.3524C116.304 92.3524 116.254 92.351 116.205 92.3503V92.3524H71.794L71.7947 92.3503C71.7456 92.351 71.6963 92.3524 71.647 92.3524C64.6623 92.3524 59 86.6901 59 79.7052C59.0001 72.721 64.6623 67.0587 71.647 67.0587C72.6353 67.0587 73.5973 67.1724 74.5203 67.3869C74.3712 66.4166 74.2942 65.4228 74.2942 64.4112C74.2943 53.6908 82.9852 45.0001 93.7052 45Z" fill="url(#paint2_linear_220_29)"/>
<path d="M48.856 45C63.948 45 76.183 57.2343 76.184 72.326C76.184 73.59 76.096 74.834 75.93 76.053H80.53V76.055C80.599 76.054 80.669 76.053 80.738 76.053C90.571 76.053 98.542 84.024 98.542 93.856C98.542 103.689 90.571 111.66 80.738 111.66C80.669 111.66 80.599 111.658 80.53 111.657V111.66H18.0107L18.0117 111.657C17.9425 111.658 17.8731 111.66 17.8037 111.66C7.971 111.66 0 103.689 0 93.856C0.0002 84.024 7.9711 76.053 17.8037 76.053C19.195 76.053 20.5492 76.213 21.8486 76.515C21.6387 75.149 21.5303 73.75 21.5303 72.326C21.5305 57.2344 33.765 45.0002 48.856 45Z" fill="url(#paint3_linear_220_29)"/>
<path d="M28.1141 110.045C28.6678 109.334 29.8064 109.681 29.8705 110.579L30.2952 116.526C30.4584 118.815 28.2752 120.557 26.0793 119.889C23.8837 119.221 23.04 116.558 24.4502 114.748L28.1141 110.045Z" fill="url(#paint4_linear_220_29)" stroke="url(#paint5_linear_220_29)" stroke-width="3"/>
<path d="M48.9227 110.045C49.4764 109.334 50.615 109.681 50.6791 110.579L51.1038 116.526C51.267 118.815 49.0838 120.557 46.8879 119.889C44.6923 119.221 43.8486 116.558 45.2588 114.748L48.9227 110.045Z" fill="url(#paint6_linear_220_29)" stroke="url(#paint7_linear_220_29)" stroke-width="3"/>
<path d="M69.7311 110.045C70.2848 109.334 71.4234 109.681 71.4876 110.579L71.9122 116.526C72.0754 118.815 69.8923 120.557 67.6963 119.889C65.5007 119.221 64.657 116.558 66.0672 114.748L69.7311 110.045Z" fill="url(#paint8_linear_220_29)" stroke="url(#paint9_linear_220_29)" stroke-width="3"/>
<path d="M33.6045 126.516C34.1582 125.805 35.2968 126.152 35.361 127.05L35.7856 132.997C35.9489 135.286 33.7657 137.028 31.5697 136.36C29.3741 135.692 28.5304 133.029 29.9406 131.219L33.6045 126.516Z" fill="url(#paint10_linear_220_29)" stroke="url(#paint11_linear_220_29)" stroke-width="3"/>
<path d="M51.1852 126.516C51.739 125.805 52.8775 126.152 52.9417 127.05L53.3663 132.997C53.5296 135.286 51.3464 137.028 49.1505 136.36C46.9549 135.692 46.1112 133.029 47.5214 131.219L51.1852 126.516Z" fill="url(#paint12_linear_220_29)" stroke="url(#paint13_linear_220_29)" stroke-width="3"/>
<defs>
<radialGradient id="paint0_radial_220_29" cx="0" cy="0" r="1" gradientUnits="userSpaceOnUse" gradientTransform="translate(88.6599 48.0697) rotate(62.7801) scale(37.4019 28.7283)">
<stop offset="0.0001" stop-color="white"/>
<stop offset="0.50005" stop-color="#F3F4F6"/>
<stop offset="1" stop-color="#DADDE3"/>
</radialGradient>
<linearGradient id="paint1_linear_220_29" x1="74.785" y1="-21.5139" x2="95.4702" y2="65.7864" gradientUnits="userSpaceOnUse">
<stop stop-color="white"/>
<stop offset="1" stop-color="white" stop-opacity="0"/>
</linearGradient>
<linearGradient id="paint2_linear_220_29" x1="97.2556" y1="46.4244" x2="97.2556" y2="97.7028" gradientUnits="userSpaceOnUse">
<stop stop-color="#AEAEAE"/>
<stop offset="1" stop-color="white" stop-opacity="0.5"/>
</linearGradient>
<linearGradient id="paint3_linear_220_29" x1="53.854" y1="47.0052" x2="53.854" y2="119.192" gradientUnits="userSpaceOnUse">
<stop stop-color="#AEAEAE"/>
<stop offset="1" stop-color="white" stop-opacity="0.5"/>
</linearGradient>
<linearGradient id="paint4_linear_220_29" x1="30.9064" y1="104.021" x2="25.6431" y2="121.324" gradientUnits="userSpaceOnUse">
<stop stop-color="#138EFF"/>
<stop offset="1" stop-color="#00E0FF"/>
</linearGradient>
<linearGradient id="paint5_linear_220_29" x1="30.9064" y1="104.021" x2="25.6431" y2="121.324" gradientUnits="userSpaceOnUse">
<stop stop-color="white"/>
<stop offset="1" stop-color="white" stop-opacity="0"/>
</linearGradient>
<linearGradient id="paint6_linear_220_29" x1="51.715" y1="104.021" x2="46.4517" y2="121.324" gradientUnits="userSpaceOnUse">
<stop stop-color="#138EFF"/>
<stop offset="1" stop-color="#00E0FF"/>
</linearGradient>
<linearGradient id="paint7_linear_220_29" x1="51.715" y1="104.021" x2="46.4517" y2="121.324" gradientUnits="userSpaceOnUse">
<stop stop-color="white"/>
<stop offset="1" stop-color="white" stop-opacity="0"/>
</linearGradient>
<linearGradient id="paint8_linear_220_29" x1="72.5234" y1="104.021" x2="67.2601" y2="121.324" gradientUnits="userSpaceOnUse">
<stop stop-color="#138EFF"/>
<stop offset="1" stop-color="#00E0FF"/>
</linearGradient>
<linearGradient id="paint9_linear_220_29" x1="72.5234" y1="104.021" x2="67.2601" y2="121.324" gradientUnits="userSpaceOnUse">
<stop stop-color="white"/>
<stop offset="1" stop-color="white" stop-opacity="0"/>
</linearGradient>
<linearGradient id="paint10_linear_220_29" x1="36.3968" y1="120.492" x2="31.1335" y2="137.795" gradientUnits="userSpaceOnUse">
<stop stop-color="#138EFF"/>
<stop offset="1" stop-color="#00E0FF"/>
</linearGradient>
<linearGradient id="paint11_linear_220_29" x1="36.3968" y1="120.492" x2="31.1335" y2="137.795" gradientUnits="userSpaceOnUse">
<stop stop-color="white"/>
<stop offset="1" stop-color="white" stop-opacity="0"/>
</linearGradient>
<linearGradient id="paint12_linear_220_29" x1="53.9776" y1="120.492" x2="48.7143" y2="137.795" gradientUnits="userSpaceOnUse">
<stop stop-color="#138EFF"/>
<stop offset="1" stop-color="#00E0FF"/>
</linearGradient>
<linearGradient id="paint13_linear_220_29" x1="53.9776" y1="120.492" x2="48.7143" y2="137.795" gradientUnits="userSpaceOnUse">
<stop stop-color="white"/>
<stop offset="1" stop-color="white" stop-opacity="0"/>
</linearGradient>
</defs>
</svg>
