<svg width="129" height="95" viewBox="0 0 129 95" fill="none" xmlns="http://www.w3.org/2000/svg">
<path d="M93.7052 0C104.426 0 113.117 8.69072 113.118 19.4112C113.118 20.3091 113.055 21.1928 112.937 22.0587H116.205V22.0601C116.254 22.0594 116.304 22.0587 116.353 22.0587C123.338 22.0587 129 27.721 129 34.7052C129 41.6901 123.338 47.3524 116.353 47.3524C116.304 47.3524 116.254 47.351 116.205 47.3503V47.3524H71.794L71.7947 47.3503C71.7456 47.351 71.6963 47.3524 71.647 47.3524C64.6623 47.3524 59 41.6901 59 34.7052C59.0001 27.721 64.6623 22.0587 71.647 22.0587C72.6353 22.0587 73.5973 22.1724 74.5203 22.3869C74.3712 21.4166 74.2942 20.4228 74.2942 19.4112C74.2943 8.69079 82.9852 0.000142071 93.7052 0Z" fill="url(#paint0_linear_220_29)"/>
<path d="M48.856 0C63.948 0 76.183 12.2343 76.184 27.326C76.184 28.59 76.096 29.834 75.93 31.053H80.53V31.055C80.599 31.054 80.669 31.053 80.738 31.053C90.571 31.053 98.542 39.024 98.542 48.856C98.542 58.689 90.571 66.66 80.738 66.66C80.669 66.66 80.599 66.658 80.53 66.657V66.66H18.0107L18.0117 66.657C17.9425 66.658 17.8731 66.66 17.8037 66.66C7.971 66.66 0 58.689 0 48.856C0.0002 39.024 7.9711 31.053 17.8037 31.053C19.195 31.053 20.5492 31.213 21.8486 31.515C21.6387 30.149 21.5303 28.75 21.5303 27.326C21.5305 12.2344 33.765 0.0002 48.856 0Z" fill="url(#paint1_linear_220_29)"/>
<path d="M28.1141 65.045C28.6678 64.3343 29.8064 64.6806 29.8705 65.5793L30.2952 71.5257C30.4584 73.8151 28.2752 75.5567 26.0793 74.8887C23.8837 74.2206 23.04 71.5584 24.4502 69.7478L28.1141 65.045Z" fill="url(#paint2_linear_220_29)" stroke="url(#paint3_linear_220_29)" stroke-width="3"/>
<path d="M48.9227 65.045C49.4764 64.3343 50.615 64.6806 50.6791 65.5793L51.1038 71.5257C51.267 73.8151 49.0838 75.5567 46.8879 74.8887C44.6923 74.2206 43.8486 71.5584 45.2588 69.7478L48.9227 65.045Z" fill="url(#paint4_linear_220_29)" stroke="url(#paint5_linear_220_29)" stroke-width="3"/>
<path d="M69.7311 65.045C70.2848 64.3343 71.4234 64.6806 71.4876 65.5793L71.9122 71.5257C72.0754 73.8151 69.8923 75.5567 67.6963 74.8887C65.5007 74.2206 64.657 71.5584 66.0672 69.7478L69.7311 65.045Z" fill="url(#paint6_linear_220_29)" stroke="url(#paint7_linear_220_29)" stroke-width="3"/>
<path d="M33.6045 81.5161C34.1582 80.8054 35.2968 81.1517 35.361 82.0504L35.7856 87.9968C35.9489 90.2862 33.7657 92.0277 31.5697 91.3598C29.3741 90.6917 28.5304 88.0294 29.9406 86.2188L33.6045 81.5161Z" fill="url(#paint8_linear_220_29)" stroke="url(#paint9_linear_220_29)" stroke-width="3"/>
<path d="M51.1852 81.5161C51.739 80.8054 52.8775 81.1517 52.9417 82.0504L53.3663 87.9968C53.5296 90.2862 51.3464 92.0277 49.1505 91.3598C46.9549 90.6917 46.1112 88.0294 47.5214 86.2188L51.1852 81.5161Z" fill="url(#paint10_linear_220_29)" stroke="url(#paint11_linear_220_29)" stroke-width="3"/>
<defs>
<linearGradient id="paint0_linear_220_29" x1="97.2556" y1="1.42441" x2="97.2556" y2="52.7028" gradientUnits="userSpaceOnUse">
<stop stop-color="#AEAEAE"/>
<stop offset="1" stop-color="white" stop-opacity="0.5"/>
</linearGradient>
<linearGradient id="paint1_linear_220_29" x1="53.854" y1="2.0052" x2="53.854" y2="74.192" gradientUnits="userSpaceOnUse">
<stop stop-color="#AEAEAE"/>
<stop offset="1" stop-color="white" stop-opacity="0.5"/>
</linearGradient>
<linearGradient id="paint2_linear_220_29" x1="30.9064" y1="59.0207" x2="25.6431" y2="76.3239" gradientUnits="userSpaceOnUse">
<stop stop-color="#138EFF"/>
<stop offset="1" stop-color="#00E0FF"/>
</linearGradient>
<linearGradient id="paint3_linear_220_29" x1="30.9064" y1="59.0207" x2="25.6431" y2="76.3239" gradientUnits="userSpaceOnUse">
<stop stop-color="white"/>
<stop offset="1" stop-color="white" stop-opacity="0"/>
</linearGradient>
<linearGradient id="paint4_linear_220_29" x1="51.715" y1="59.0207" x2="46.4517" y2="76.3239" gradientUnits="userSpaceOnUse">
<stop stop-color="#138EFF"/>
<stop offset="1" stop-color="#00E0FF"/>
</linearGradient>
<linearGradient id="paint5_linear_220_29" x1="51.715" y1="59.0207" x2="46.4517" y2="76.3239" gradientUnits="userSpaceOnUse">
<stop stop-color="white"/>
<stop offset="1" stop-color="white" stop-opacity="0"/>
</linearGradient>
<linearGradient id="paint6_linear_220_29" x1="72.5234" y1="59.0207" x2="67.2601" y2="76.3239" gradientUnits="userSpaceOnUse">
<stop stop-color="#138EFF"/>
<stop offset="1" stop-color="#00E0FF"/>
</linearGradient>
<linearGradient id="paint7_linear_220_29" x1="72.5234" y1="59.0207" x2="67.2601" y2="76.3239" gradientUnits="userSpaceOnUse">
<stop stop-color="white"/>
<stop offset="1" stop-color="white" stop-opacity="0"/>
</linearGradient>
<linearGradient id="paint8_linear_220_29" x1="36.3968" y1="75.4918" x2="31.1335" y2="92.7949" gradientUnits="userSpaceOnUse">
<stop stop-color="#138EFF"/>
<stop offset="1" stop-color="#00E0FF"/>
</linearGradient>
<linearGradient id="paint9_linear_220_29" x1="36.3968" y1="75.4918" x2="31.1335" y2="92.7949" gradientUnits="userSpaceOnUse">
<stop stop-color="white"/>
<stop offset="1" stop-color="white" stop-opacity="0"/>
</linearGradient>
<linearGradient id="paint10_linear_220_29" x1="53.9776" y1="75.4918" x2="48.7143" y2="92.7949" gradientUnits="userSpaceOnUse">
<stop stop-color="#138EFF"/>
<stop offset="1" stop-color="#00E0FF"/>
</linearGradient>
<linearGradient id="paint11_linear_220_29" x1="53.9776" y1="75.4918" x2="48.7143" y2="92.7949" gradientUnits="userSpaceOnUse">
<stop stop-color="white"/>
<stop offset="1" stop-color="white" stop-opacity="0"/>
</linearGradient>
</defs>
</svg>
