<svg width="129" height="110" viewBox="0 0 129 110" fill="none" xmlns="http://www.w3.org/2000/svg">
<path d="M93.2783 43H107.422C108.173 43.0003 108.656 43.7982 108.308 44.4639L99.4336 61.4043C98.3877 63.4017 99.837 65.7959 102.092 65.7959H110.415C111.279 65.796 111.736 66.8187 111.16 67.4629L81.2412 100.902C80.5041 101.726 79.1721 100.921 79.5586 99.8857L87.6777 78.1582C88.4101 76.1976 86.9602 74.1084 84.8672 74.1084H77.3721C76.6127 74.1084 76.13 73.2953 76.4941 72.6289L92.4004 43.5205C92.5757 43.1996 92.9127 43 93.2783 43Z" fill="url(#paint0_linear_220_29)" stroke="url(#paint1_linear_220_29)" stroke-width="2"/>
<path d="M93.7052 0C104.426 0 113.117 8.69072 113.118 19.4112C113.118 20.3091 113.055 21.1928 112.937 22.0587H116.205V22.0601C116.254 22.0594 116.304 22.0587 116.353 22.0587C123.338 22.0587 129 27.721 129 34.7052C129 41.6901 123.338 47.3524 116.353 47.3524C116.304 47.3524 116.254 47.351 116.205 47.3503V47.3524H71.794L71.7947 47.3503C71.7456 47.351 71.6963 47.3524 71.647 47.3524C64.6623 47.3524 59 41.6901 59 34.7052C59.0001 27.721 64.6623 22.0587 71.647 22.0587C72.6353 22.0587 73.5973 22.1724 74.5203 22.3869C74.3712 21.4166 74.2942 20.4228 74.2942 19.4112C74.2943 8.69079 82.9852 0.000142071 93.7052 0Z" fill="url(#paint2_linear_220_29)"/>
<path d="M48.856 0C63.948 0 76.183 12.2343 76.184 27.326C76.184 28.59 76.096 29.834 75.93 31.053H80.53V31.055C80.599 31.054 80.669 31.053 80.738 31.053C90.571 31.053 98.542 39.024 98.542 48.856C98.542 58.689 90.571 66.66 80.738 66.66C80.669 66.66 80.599 66.658 80.53 66.657V66.66H18.0107L18.0117 66.657C17.9425 66.658 17.8731 66.66 17.8037 66.66C7.971 66.66 0 58.689 0 48.856C0.0002 39.024 7.9711 31.053 17.8037 31.053C19.195 31.053 20.5492 31.213 21.8486 31.515C21.6387 30.149 21.5303 28.75 21.5303 27.326C21.5305 12.2344 33.765 0.0002 48.856 0Z" fill="url(#paint3_linear_220_29)"/>
<path d="M20.7198 69.7373C21.5551 68.6653 23.2724 69.1879 23.3695 70.5433L23.7941 76.4896C23.9826 79.1291 21.4655 81.1371 18.9339 80.3671C16.4025 79.5968 15.4298 76.5273 17.056 74.44L20.7198 69.7373Z" fill="url(#paint4_linear_220_29)" stroke="url(#paint5_linear_220_29)" stroke-width="2"/>
<path d="M41.5284 69.7373C42.3636 68.6653 44.0809 69.1879 44.178 70.5433L44.6026 76.4896C44.7911 79.1291 42.274 81.1371 39.7424 80.3671C37.2111 79.5968 36.2383 76.5273 37.8645 74.44L41.5284 69.7373Z" fill="url(#paint6_linear_220_29)" stroke="url(#paint7_linear_220_29)" stroke-width="2"/>
<path d="M62.3369 69.7373C63.1722 68.6653 64.8895 69.1879 64.9866 70.5433L65.4112 76.4896C65.5996 79.1291 63.0826 81.1371 60.5509 80.3671C58.0196 79.5968 57.0469 76.5273 58.673 74.44L62.3369 69.7373Z" fill="url(#paint8_linear_220_29)" stroke="url(#paint9_linear_220_29)" stroke-width="2"/>
<path d="M26.2103 86.2084C27.0455 85.1365 28.7628 85.659 28.8599 87.0144L29.2845 92.9608C29.473 95.6002 26.9559 97.6083 24.4243 96.8382C21.8929 96.068 20.9202 92.9984 22.5464 90.9111L26.2103 86.2084Z" fill="url(#paint10_linear_220_29)" stroke="url(#paint11_linear_220_29)" stroke-width="2"/>
<path d="M43.791 86.2084C44.6263 85.1365 46.3436 85.659 46.4407 87.0144L46.8653 92.9608C47.0538 95.6002 44.5367 97.6083 42.005 96.8382C39.4737 96.068 38.501 92.9984 40.1271 90.9111L43.791 86.2084Z" fill="url(#paint12_linear_220_29)" stroke="url(#paint13_linear_220_29)" stroke-width="2"/>
<defs>
<linearGradient id="paint0_linear_220_29" x1="98.4243" y1="45.9803" x2="89.3782" y2="85.2401" gradientUnits="userSpaceOnUse">
<stop stop-color="#FF4D00"/>
<stop offset="1" stop-color="#FFB800"/>
</linearGradient>
<linearGradient id="paint1_linear_220_29" x1="86.3026" y1="84.6974" x2="102.766" y2="49.4178" gradientUnits="userSpaceOnUse">
<stop stop-color="white"/>
<stop offset="1" stop-color="white" stop-opacity="0"/>
</linearGradient>
<linearGradient id="paint2_linear_220_29" x1="97.2556" y1="1.42441" x2="97.2556" y2="52.7028" gradientUnits="userSpaceOnUse">
<stop stop-color="#AEAEAE"/>
<stop offset="1" stop-color="white" stop-opacity="0.5"/>
</linearGradient>
<linearGradient id="paint3_linear_220_29" x1="53.854" y1="2.0052" x2="53.854" y2="74.192" gradientUnits="userSpaceOnUse">
<stop stop-color="#AEAEAE"/>
<stop offset="1" stop-color="white" stop-opacity="0.5"/>
</linearGradient>
<linearGradient id="paint4_linear_220_29" x1="23.9065" y1="64.0207" x2="18.6432" y2="81.3239" gradientUnits="userSpaceOnUse">
<stop stop-color="#138EFF"/>
<stop offset="1" stop-color="#00E0FF"/>
</linearGradient>
<linearGradient id="paint5_linear_220_29" x1="23.9065" y1="64.0207" x2="18.6432" y2="81.3239" gradientUnits="userSpaceOnUse">
<stop stop-color="white"/>
<stop offset="1" stop-color="white" stop-opacity="0"/>
</linearGradient>
<linearGradient id="paint6_linear_220_29" x1="44.715" y1="64.0207" x2="39.4517" y2="81.3239" gradientUnits="userSpaceOnUse">
<stop stop-color="#138EFF"/>
<stop offset="1" stop-color="#00E0FF"/>
</linearGradient>
<linearGradient id="paint7_linear_220_29" x1="44.715" y1="64.0207" x2="39.4517" y2="81.3239" gradientUnits="userSpaceOnUse">
<stop stop-color="white"/>
<stop offset="1" stop-color="white" stop-opacity="0"/>
</linearGradient>
<linearGradient id="paint8_linear_220_29" x1="65.5235" y1="64.0207" x2="60.2602" y2="81.3239" gradientUnits="userSpaceOnUse">
<stop stop-color="#138EFF"/>
<stop offset="1" stop-color="#00E0FF"/>
</linearGradient>
<linearGradient id="paint9_linear_220_29" x1="65.5235" y1="64.0207" x2="60.2602" y2="81.3239" gradientUnits="userSpaceOnUse">
<stop stop-color="white"/>
<stop offset="1" stop-color="white" stop-opacity="0"/>
</linearGradient>
<linearGradient id="paint10_linear_220_29" x1="29.3969" y1="80.4919" x2="24.1336" y2="97.7951" gradientUnits="userSpaceOnUse">
<stop stop-color="#138EFF"/>
<stop offset="1" stop-color="#00E0FF"/>
</linearGradient>
<linearGradient id="paint11_linear_220_29" x1="29.3969" y1="80.4919" x2="24.1336" y2="97.7951" gradientUnits="userSpaceOnUse">
<stop stop-color="white"/>
<stop offset="1" stop-color="white" stop-opacity="0"/>
</linearGradient>
<linearGradient id="paint12_linear_220_29" x1="46.9777" y1="80.4919" x2="41.7143" y2="97.7951" gradientUnits="userSpaceOnUse">
<stop stop-color="#138EFF"/>
<stop offset="1" stop-color="#00E0FF"/>
</linearGradient>
<linearGradient id="paint13_linear_220_29" x1="46.9777" y1="80.4919" x2="41.7143" y2="97.7951" gradientUnits="userSpaceOnUse">
<stop stop-color="white"/>
<stop offset="1" stop-color="white" stop-opacity="0"/>
</linearGradient>
</defs>
</svg>
