<svg width="50" height="50" viewBox="0 0 50 50" fill="none" xmlns="http://www.w3.org/2000/svg">
<path d="M37.5001 20.8333C37.5001 11.6458 30.0209 4.16667 20.8334 4.16667C11.6459 4.16667 4.16675 11.6458 4.16675 20.8333C4.16675 30.0208 11.6459 37.5 20.8334 37.5C24.6876 37.5 28.2084 36.1875 31.0417 33.9792L41.6667 44.6042L44.6042 41.6667L33.9792 31.0417C36.2532 28.1239 37.4919 24.5326 37.5001 20.8333ZM8.33341 20.8333C8.33341 13.9375 13.9376 8.33334 20.8334 8.33334C27.7292 8.33334 33.3334 13.9375 33.3334 20.8333C33.3334 27.7292 27.7292 33.3333 20.8334 33.3333C13.9376 33.3333 8.33341 27.7292 8.33341 20.8333Z" fill="#FAFAFA"/>
</svg>
