<svg width="129" height="110" viewBox="0 0 129 110" fill="none" xmlns="http://www.w3.org/2000/svg">
<path d="M93.7052 0C104.426 0 113.117 8.69072 113.118 19.4112C113.118 20.3091 113.055 21.1928 112.937 22.0587H116.205V22.0601C116.254 22.0594 116.304 22.0587 116.353 22.0587C123.338 22.0587 129 27.721 129 34.7052C129 41.6901 123.338 47.3524 116.353 47.3524C116.304 47.3524 116.254 47.351 116.205 47.3503V47.3524H71.794L71.7947 47.3503C71.7456 47.351 71.6963 47.3524 71.647 47.3524C64.6623 47.3524 59 41.6901 59 34.7052C59.0001 27.721 64.6623 22.0587 71.647 22.0587C72.6353 22.0587 73.5973 22.1724 74.5203 22.3869C74.3712 21.4166 74.2942 20.4228 74.2942 19.4112C74.2943 8.69079 82.9852 0.000142071 93.7052 0Z" fill="url(#paint0_linear_220_29)"/>
<path d="M48.856 0C63.948 0 76.183 12.2343 76.184 27.326C76.184 28.59 76.096 29.834 75.93 31.053H80.53V31.055C80.599 31.054 80.669 31.053 80.738 31.053C90.571 31.053 98.542 39.024 98.542 48.856C98.542 58.689 90.571 66.66 80.738 66.66C80.669 66.66 80.599 66.658 80.53 66.657V66.66H18.0107L18.0117 66.657C17.9425 66.658 17.8731 66.66 17.8037 66.66C7.971 66.66 0 58.689 0 48.856C0.0002 39.024 7.9711 31.053 17.8037 31.053C19.195 31.053 20.5492 31.213 21.8486 31.515C21.6387 30.149 21.5303 28.75 21.5303 27.326C21.5305 12.2344 33.765 0.0002 48.856 0Z" fill="url(#paint1_linear_220_29)"/>
<path d="M27.2344 69.25C27.4162 69.3345 27.5462 69.4546 27.625 69.6407C27.6486 69.7963 27.6486 69.9507 27.6488 70.1079C27.6494 70.1526 27.6501 70.1974 27.6507 70.2435C27.6526 70.386 27.6535 70.5284 27.6543 70.6709C27.6554 70.7677 27.6565 70.8645 27.6578 70.9613C27.6607 71.1982 27.6627 71.435 27.664 71.6719C27.6998 71.6445 27.6998 71.6445 27.7362 71.6165C28.1153 71.3258 28.4949 71.0361 28.8823 70.7564C28.912 70.7349 28.9416 70.7135 28.9722 70.6914C29.2334 70.5038 29.4063 70.4695 29.7344 70.5C29.9252 70.5886 30.0364 70.6998 30.125 70.8907C30.1534 71.1018 30.1644 71.2827 30.0653 71.4754C29.9435 71.6247 29.8074 71.7325 29.6538 71.8477C29.6228 71.8714 29.5918 71.895 29.5598 71.9194C29.3123 72.1077 29.062 72.2923 28.8108 72.4757C28.638 72.6021 28.4668 72.7303 28.297 72.8609C28.2594 72.8897 28.2219 72.9186 28.1832 72.9483C28.11 73.0048 28.0369 73.0613 27.9639 73.1181C27.931 73.1435 27.898 73.1689 27.8641 73.195C27.8348 73.2177 27.8056 73.2404 27.7755 73.2638C27.7031 73.3125 27.7031 73.3125 27.625 73.3125C27.6379 74.4727 27.6508 75.6328 27.664 76.8282C28.025 76.609 28.3859 76.3899 28.7578 76.1641C28.9513 76.0488 29.1449 75.9335 29.339 75.8191C29.4162 75.7734 29.4933 75.7274 29.5703 75.6813C29.7859 75.5523 30.001 75.4239 30.2229 75.3061C30.2675 75.2814 30.2675 75.2814 30.313 75.2563C30.3637 75.2284 30.4151 75.2017 30.4673 75.177C30.5454 75.1372 30.5454 75.1372 30.6328 75.0313C30.6603 74.9258 30.6603 74.9258 30.6747 74.8046C30.681 74.759 30.6872 74.7134 30.6936 74.6664C30.7213 74.4377 30.7444 74.2087 30.7657 73.9793C30.773 73.9033 30.7804 73.8272 30.7878 73.7511C30.8057 73.5662 30.8234 73.3812 30.8406 73.1962C30.855 73.0413 30.8702 72.8866 30.8853 72.7318C30.8896 72.6844 30.8939 72.637 30.8983 72.5881C30.9554 72.0152 30.9554 72.0152 31.1821 71.8135C31.3494 71.6822 31.5168 71.6522 31.7265 71.6719C31.9371 71.734 32.0739 71.839 32.1953 72.0235C32.3782 72.3893 32.2007 73.0734 32.1562 73.4663C32.1487 73.5352 32.1411 73.604 32.1336 73.6729C32.1155 73.8392 32.0969 74.0056 32.0781 74.1719C32.249 74.0705 32.4198 73.9691 32.5907 73.8677C32.6487 73.8333 32.7066 73.7989 32.7646 73.7645C32.8209 73.7311 32.8772 73.6977 32.9335 73.6642C32.9886 73.6315 33.0438 73.5988 33.099 73.5661C33.2817 73.4576 33.4636 73.348 33.6447 73.2369C33.8019 73.1487 33.9319 73.1417 34.1094 73.1563C34.3153 73.227 34.4588 73.3217 34.5781 73.5078C34.6449 73.7082 34.6424 73.9009 34.5757 74.1011C34.3553 74.421 33.9918 74.5913 33.6626 74.7798C33.5868 74.8235 33.511 74.8673 33.4353 74.9112C33.3666 74.9509 33.2977 74.9905 33.2289 75.03C33.0774 75.1179 32.9293 75.2111 32.7812 75.3047C32.822 75.3216 32.8627 75.3386 32.9047 75.356C33.0574 75.4195 33.2101 75.483 33.3627 75.5465C33.4285 75.5738 33.4943 75.6012 33.5601 75.6285C33.6553 75.668 33.7504 75.7076 33.8455 75.7472C33.8745 75.7592 33.9034 75.7712 33.9332 75.7836C34.0181 75.819 34.1028 75.8547 34.1875 75.8907C34.219 75.904 34.2505 75.9173 34.2829 75.931C34.3141 75.9445 34.3453 75.9579 34.3775 75.9718C34.4057 75.9839 34.4339 75.996 34.463 76.0085C34.6113 76.0834 34.7031 76.1886 34.7856 76.3301C34.8431 76.56 34.8493 76.7511 34.727 76.96C34.6005 77.1377 34.4911 77.2023 34.2778 77.253C33.962 77.2825 33.6398 77.1143 33.355 76.9936C33.305 76.9727 33.305 76.9727 33.254 76.9514C33.1484 76.9072 33.0429 76.8628 32.9375 76.8184C32.6977 76.7177 32.4579 76.6173 32.2175 76.5181C32.1503 76.4903 32.0831 76.4624 32.0159 76.4344C31.9196 76.3944 31.8231 76.3551 31.7265 76.3161C31.6834 76.298 31.6834 76.298 31.6395 76.2795C31.4829 76.2172 31.3787 76.1818 31.2187 76.2422C31.1314 76.2875 31.0485 76.334 30.9647 76.385C30.9402 76.3997 30.9156 76.4143 30.8904 76.4293C30.8101 76.4774 30.73 76.5258 30.6499 76.5742C30.594 76.6078 30.538 76.6413 30.4821 76.6748C30.3107 76.7776 30.1397 76.881 29.9687 76.9844C29.9162 77.0161 29.8637 77.0478 29.8112 77.0795C29.5805 77.2189 29.3501 77.3586 29.1199 77.4988C29.08 77.5231 29.0401 77.5474 28.999 77.5724C28.9103 77.6268 28.8219 77.6816 28.7337 77.7369C28.7105 77.7514 28.6872 77.7659 28.6633 77.7809C28.5982 77.8216 28.5332 77.8625 28.4683 77.9033C28.3672 77.961 28.3672 77.961 28.289 77.961C28.289 77.9867 28.289 78.0125 28.289 78.0391C28.316 78.049 28.343 78.0588 28.3708 78.069C28.5 78.1239 28.6183 78.1918 28.7384 78.2639C28.7629 78.2784 28.7874 78.293 28.8127 78.308C28.8929 78.3558 28.9731 78.4037 29.0532 78.4517C29.1091 78.485 29.165 78.5183 29.2209 78.5517C29.6358 78.7992 30.0491 79.0491 30.4614 79.3009C30.5434 79.351 30.6256 79.4008 30.7079 79.4505C30.7909 79.5008 30.8732 79.5522 30.955 79.6044C31.0163 79.6426 31.0163 79.6426 31.079 79.6815C31.1152 79.7046 31.1515 79.7277 31.1889 79.7515C31.3846 79.8338 31.5355 79.7586 31.7236 79.6854C31.7995 79.6543 31.8752 79.6229 31.9508 79.5914C31.9915 79.5746 32.0322 79.5579 32.0741 79.5407C32.2041 79.4871 32.334 79.4333 32.4638 79.3794C33.4506 78.9714 33.4506 78.9714 33.8066 78.8345C33.8534 78.8165 33.9003 78.7984 33.9485 78.7798C34.1833 78.7073 34.3372 78.7382 34.5512 78.8472C34.6988 78.9741 34.7964 79.0736 34.8288 79.2715C34.8403 79.4953 34.8086 79.6556 34.6904 79.8456C34.4957 80.0277 34.2053 80.1147 33.9607 80.2124C33.9136 80.2314 33.9136 80.2314 33.8654 80.2509C33.7661 80.2909 33.6667 80.3308 33.5674 80.3706C33.4672 80.4109 33.367 80.4513 33.2668 80.4917C33.2047 80.5167 33.1426 80.5416 33.0805 80.5665C32.9291 80.6269 32.9291 80.6269 32.7812 80.6953C32.817 80.7164 32.8529 80.7374 32.8898 80.7591C33.0246 80.8384 33.1592 80.9179 33.2938 80.9974C33.3518 81.0316 33.4097 81.0657 33.4677 81.0998C34.5143 81.7148 34.5143 81.7148 34.6172 82.0235C34.6473 82.2787 34.6148 82.4419 34.4609 82.6485C34.2924 82.7792 34.1391 82.8636 33.9212 82.8595C33.5298 82.7875 33.1403 82.4778 32.8032 82.27C32.7543 82.2401 32.7054 82.2102 32.6565 82.1802C32.5671 82.1256 32.4778 82.0708 32.3886 82.0159C32.2854 81.9527 32.1819 81.8902 32.0781 81.8282C32.0828 81.87 32.0876 81.9119 32.0924 81.9551C32.1102 82.1134 32.1276 82.2718 32.1449 82.4302C32.1523 82.4982 32.1599 82.5662 32.1676 82.6341C32.3044 83.8447 32.3044 83.8447 32.0781 84.1328C31.8971 84.2886 31.7271 84.3376 31.4922 84.3282C31.2988 84.2757 31.1572 84.1894 31.0355 84.0311C30.9723 83.9155 30.9587 83.819 30.9422 83.6884C30.936 83.6397 30.9298 83.591 30.9234 83.5409C30.8967 83.307 30.8724 83.073 30.8501 82.8386C30.8426 82.7622 30.8351 82.6858 30.8276 82.6094C30.8093 82.4237 30.7913 82.2381 30.7736 82.0524C30.7635 81.9471 30.7533 81.8418 30.7429 81.7366C30.7331 81.6381 30.7236 81.5396 30.7144 81.441C30.7078 81.3745 30.7078 81.3745 30.701 81.3066C30.6954 81.2482 30.6954 81.2482 30.6896 81.1886C30.6626 81.0324 30.628 80.9541 30.4982 80.8616C30.4581 80.8388 30.4181 80.816 30.3767 80.7925C30.3437 80.7735 30.3437 80.7735 30.3099 80.754C30.2621 80.7265 30.2142 80.6992 30.1662 80.6721C30.0371 80.599 29.9088 80.5246 29.7803 80.4504C29.7538 80.4352 29.7273 80.4199 29.7 80.4042C29.4265 80.2466 29.1566 80.0834 28.8872 79.919C28.8245 79.8808 28.8245 79.8808 28.7605 79.8418C28.6293 79.7618 28.4982 79.6817 28.3672 79.6016C28.1351 79.4598 27.9031 79.318 27.664 79.1719C27.6511 80.3321 27.6383 81.4922 27.625 82.6875C27.6765 82.7133 27.7281 82.7391 27.7812 82.7657C27.8316 82.7996 27.8811 82.8348 27.93 82.8709C27.9731 82.9027 27.9731 82.9027 28.0172 82.9352C28.0635 82.9697 28.0635 82.9697 28.1108 83.0049C28.1433 83.029 28.1758 83.053 28.2093 83.0778C28.4894 83.2859 28.7674 83.4968 29.0443 83.7092C29.2047 83.8321 29.3655 83.9541 29.529 84.073C29.5576 84.094 29.5862 84.1149 29.6157 84.1365C29.6684 84.1749 29.7213 84.2131 29.7745 84.2508C29.9599 84.3864 30.1039 84.5217 30.1457 84.7578C30.1432 84.9966 30.1412 85.1623 29.9687 85.3438C29.7913 85.5123 29.6279 85.5202 29.3942 85.5284C29.0613 85.4549 28.7735 85.1624 28.5088 84.958C28.2303 84.7436 27.9492 84.5336 27.664 84.3282C27.6639 84.3531 27.6638 84.378 27.6636 84.4037C27.662 84.6635 27.6593 84.9233 27.6559 85.1831C27.6548 85.28 27.654 85.377 27.6535 85.4739C27.6526 85.6133 27.6508 85.7527 27.6488 85.8922C27.6487 85.9354 27.6487 85.9786 27.6486 86.0232C27.6441 86.2645 27.6305 86.4104 27.4687 86.5938C27.3195 86.7355 27.1999 86.7621 27 86.7696C26.8001 86.7621 26.6804 86.7355 26.5312 86.5938C26.3403 86.3774 26.3515 86.1723 26.3512 85.8922C26.3505 85.8474 26.3499 85.8027 26.3492 85.7566C26.3473 85.6141 26.3465 85.4716 26.3457 85.3291C26.3446 85.2323 26.3434 85.1355 26.3422 85.0388C26.3393 84.8019 26.3373 84.565 26.3359 84.3282C26.3121 84.3464 26.2883 84.3647 26.2637 84.3835C25.8846 84.6743 25.505 84.964 25.1177 85.2437C25.088 85.2651 25.0583 85.2865 25.0278 85.3086C24.7665 85.4963 24.5936 85.5305 24.2656 85.5C24.0748 85.4114 23.9636 85.3002 23.875 85.1094C23.8465 84.8982 23.8355 84.7173 23.9346 84.5247C24.0565 84.3753 24.1925 84.2675 24.3462 84.1524C24.3772 84.1287 24.4082 84.105 24.4401 84.0806C24.6877 83.8924 24.938 83.7078 25.1891 83.5244C25.362 83.3979 25.5332 83.2697 25.703 83.1392C25.7405 83.1103 25.7781 83.0815 25.8168 83.0517C25.89 82.9953 25.9631 82.9387 26.0361 82.8819C26.069 82.8566 26.1019 82.8312 26.1359 82.805C26.1651 82.7823 26.1943 82.7596 26.2245 82.7362C26.2969 82.6875 26.2969 82.6875 26.375 82.6875C26.3621 81.5274 26.3492 80.3672 26.3359 79.1719C25.975 79.391 25.614 79.6102 25.2422 79.836C25.0486 79.9513 24.8551 80.0665 24.661 80.1809C24.5837 80.2266 24.5066 80.2726 24.4296 80.3188C24.2141 80.4477 23.999 80.5762 23.777 80.694C23.7473 80.7104 23.7176 80.7269 23.687 80.7438C23.6363 80.7717 23.5849 80.7983 23.5326 80.823C23.4545 80.8628 23.4545 80.8628 23.3672 80.9688C23.3396 81.0742 23.3396 81.0742 23.3253 81.1955C23.319 81.2411 23.3127 81.2867 23.3063 81.3337C23.2787 81.5624 23.2556 81.7913 23.2343 82.0207C23.2269 82.0968 23.2195 82.1729 23.2122 82.2489C23.1942 82.4339 23.1766 82.6189 23.1593 82.8039C23.1449 82.9587 23.1298 83.1135 23.1146 83.2683C23.1104 83.3157 23.1061 83.3631 23.1017 83.4119C23.0671 83.7591 23.0229 84.0161 22.7422 84.25C22.5812 84.3414 22.4157 84.3506 22.2344 84.3282C22.0127 84.2499 21.8708 84.1089 21.7656 83.8985C21.7379 83.4408 21.7923 82.9877 21.8437 82.5337C21.8513 82.4649 21.8588 82.396 21.8663 82.3272C21.8845 82.1608 21.9031 81.9945 21.9219 81.8282C21.751 81.9295 21.5801 82.031 21.4093 82.1324C21.3513 82.1668 21.2933 82.2012 21.2354 82.2356C21.1791 82.269 21.1228 82.3024 21.0665 82.3358C21.0113 82.3685 20.9562 82.4013 20.901 82.434C20.7183 82.5424 20.5364 82.6521 20.3553 82.7632C20.1981 82.8513 20.068 82.8583 19.8906 82.8438C19.6846 82.7731 19.5412 82.6784 19.4219 82.4922C19.3551 82.2919 19.3575 82.0992 19.4243 81.899C19.6447 81.5791 20.0082 81.4087 20.3374 81.2202C20.4375 81.1625 20.5375 81.1046 20.6375 81.0467C20.6612 81.0331 20.6849 81.0194 20.7094 81.0053C20.8817 80.9057 21.051 80.8024 21.2187 80.6953C21.1786 80.6788 21.1384 80.6623 21.0971 80.6453C20.9459 80.583 20.7947 80.5205 20.6437 80.4579C20.5787 80.431 20.5137 80.4042 20.4487 80.3774C19.3566 79.928 19.3566 79.928 19.2363 79.7261C19.1611 79.5237 19.1389 79.3251 19.2247 79.1234C19.3162 78.9654 19.4043 78.85 19.5781 78.7813C19.9596 78.6908 20.2964 78.8587 20.645 79.0065C20.6783 79.0204 20.7117 79.0343 20.746 79.0487C20.8516 79.0928 20.957 79.1372 21.0625 79.1817C21.3022 79.2824 21.5421 79.3827 21.7824 79.482C21.8497 79.5098 21.9169 79.5377 21.9841 79.5657C22.0803 79.6057 22.1768 79.6449 22.2734 79.684C22.3021 79.696 22.3309 79.7081 22.3605 79.7205C22.517 79.7828 22.6212 79.8183 22.7812 79.7578C22.8686 79.7125 22.9515 79.6661 23.0353 79.615C23.0598 79.6004 23.0843 79.5858 23.1096 79.5707C23.1899 79.5227 23.27 79.4743 23.3501 79.4258C23.406 79.3923 23.4619 79.3587 23.5179 79.3252C23.6893 79.2224 23.8603 79.1191 24.0312 79.0157C24.0837 78.9839 24.1362 78.9522 24.1887 78.9205C24.4194 78.7812 24.6499 78.6415 24.8801 78.5013C24.92 78.477 24.9599 78.4527 25.001 78.4277C25.0897 78.3732 25.1781 78.3185 25.2662 78.2631C25.2895 78.2486 25.3127 78.2341 25.3367 78.2191C25.4018 78.1785 25.4667 78.1376 25.5317 78.0967C25.6328 78.0391 25.6328 78.0391 25.7109 78.0391C25.7109 78.0133 25.7109 77.9875 25.7109 77.961C25.6839 77.9511 25.6569 77.9412 25.6291 77.9311C25.4999 77.8762 25.3816 77.8083 25.2615 77.7362C25.237 77.7216 25.2125 77.7071 25.1873 77.6921C25.107 77.6443 25.0269 77.5963 24.9468 77.5484C24.8908 77.515 24.8349 77.4817 24.779 77.4484C24.3642 77.2009 23.9508 76.9509 23.5386 76.6991C23.4565 76.6491 23.3743 76.5992 23.292 76.5496C23.2091 76.4992 23.1268 76.4478 23.045 76.3956C23.0041 76.3702 22.9631 76.3447 22.921 76.3185C22.8847 76.2954 22.8484 76.2723 22.811 76.2485C22.5844 76.1533 22.3766 76.2734 22.1624 76.3607C22.1232 76.377 22.084 76.3933 22.0436 76.4101C22.0026 76.4269 21.9615 76.4437 21.9192 76.461C21.7882 76.5148 21.6573 76.5689 21.5263 76.6231C21.4392 76.6589 21.352 76.6947 21.2648 76.7305C21.1031 76.7969 20.9414 76.8635 20.7799 76.9302C20.7248 76.9529 20.7248 76.9529 20.6686 76.9761C20.5882 77.0095 20.508 77.0433 20.4279 77.0774C20.3865 77.0949 20.345 77.1125 20.3023 77.1306C20.2462 77.1546 20.2462 77.1546 20.1889 77.1791C19.9466 77.2725 19.7452 77.2769 19.5 77.1797C19.3353 77.0749 19.2534 76.973 19.1875 76.7891C19.1567 76.5868 19.1684 76.3825 19.2745 76.2038C19.5614 75.8773 20.192 75.7217 20.5888 75.5611C20.6503 75.536 20.7118 75.5109 20.7733 75.4858C20.9217 75.4252 21.0702 75.3649 21.2187 75.3047C21.1829 75.2837 21.1471 75.2626 21.1102 75.2409C20.9754 75.1617 20.8407 75.0822 20.7061 75.0026C20.6482 74.9685 20.5902 74.9343 20.5323 74.9003C19.4857 74.2852 19.4857 74.2852 19.3828 73.9766C19.3526 73.7213 19.3851 73.5582 19.539 73.3516C19.7076 73.2209 19.8608 73.1364 20.0788 73.1406C20.4702 73.2126 20.8597 73.5223 21.1968 73.73C21.2456 73.76 21.2946 73.7899 21.3435 73.8198C21.4328 73.8745 21.5221 73.9293 21.6114 73.9842C21.7145 74.0474 21.818 74.1099 21.9219 74.1719C21.9171 74.13 21.9124 74.0881 21.9075 74.0449C21.8897 73.8866 21.8723 73.7283 21.8551 73.5699C21.8476 73.5019 21.8401 73.4339 21.8324 73.3659C21.6966 72.1648 21.6966 72.1648 21.8828 71.9063C22.0317 71.7527 22.1628 71.678 22.3784 71.6597C22.6145 71.6636 22.7871 71.7559 22.9521 71.9209C23.1187 72.2926 23.1116 72.759 23.1499 73.1615C23.1574 73.2379 23.1649 73.3143 23.1724 73.3907C23.1906 73.5763 23.2086 73.762 23.2264 73.9477C23.2364 74.053 23.2467 74.1582 23.2571 74.2635C23.2668 74.362 23.2763 74.4605 23.2855 74.559C23.29 74.6034 23.2944 74.6478 23.299 74.6935C23.3027 74.7324 23.3065 74.7714 23.3103 74.8115C23.3374 74.9676 23.372 75.0459 23.5017 75.1385C23.5418 75.1613 23.5819 75.1841 23.6232 75.2075C23.6453 75.2202 23.6673 75.2329 23.6901 75.246C23.7379 75.2735 23.7858 75.3008 23.8337 75.328C23.9629 75.401 24.0912 75.4754 24.2197 75.5496C24.2594 75.5725 24.2594 75.5725 24.3 75.5958C24.5734 75.7534 24.8433 75.9167 25.1128 76.0811C25.1755 76.1193 25.1755 76.1193 25.2395 76.1582C25.3706 76.2382 25.5017 76.3183 25.6328 76.3985C25.8648 76.5403 26.0969 76.6821 26.3359 76.8282C26.3553 75.0879 26.3553 75.0879 26.375 73.3125C26.3234 73.2867 26.2719 73.261 26.2187 73.2344C26.1684 73.2004 26.1188 73.1652 26.07 73.1291C26.0412 73.1079 26.0124 73.0867 25.9828 73.0649C25.9519 73.0419 25.921 73.0188 25.8891 72.9951C25.8566 72.9711 25.8241 72.947 25.7907 72.9222C25.5105 72.7142 25.2326 72.5032 24.9557 72.2909C24.7953 72.1679 24.6344 72.0459 24.471 71.927C24.4424 71.9061 24.4138 71.8851 24.3843 71.8636C24.3316 71.8251 24.2786 71.787 24.2254 71.7492C24.0401 71.6136 23.896 71.4784 23.8542 71.2422C23.8567 71.0035 23.8588 70.8378 24.0312 70.6563C24.2087 70.4877 24.372 70.4798 24.6057 70.4716C24.9387 70.5451 25.2265 70.8377 25.4912 71.042C25.7697 71.2565 26.0507 71.4665 26.3359 71.6719C26.3361 71.647 26.3362 71.622 26.3363 71.5964C26.338 71.3365 26.3407 71.0767 26.344 70.8169C26.3451 70.72 26.346 70.6231 26.3465 70.5262C26.3473 70.3867 26.3492 70.2473 26.3512 70.1079C26.3512 70.0647 26.3513 70.0214 26.3513 69.9769C26.3559 69.7356 26.3694 69.5897 26.5312 69.4063C26.7371 69.2107 26.9651 69.2138 27.2344 69.25Z" fill="#4294FF"/>
<path d="M35.2344 91.25C35.4162 91.3345 35.5462 91.4546 35.625 91.6407C35.6486 91.7963 35.6486 91.9507 35.6488 92.1079C35.6494 92.1526 35.6501 92.1974 35.6507 92.2435C35.6526 92.386 35.6535 92.5284 35.6543 92.6709C35.6554 92.7677 35.6565 92.8645 35.6578 92.9613C35.6607 93.1982 35.6627 93.435 35.664 93.6719C35.6998 93.6445 35.6998 93.6445 35.7362 93.6165C36.1153 93.3258 36.4949 93.0361 36.8823 92.7564C36.912 92.7349 36.9416 92.7135 36.9722 92.6914C37.2334 92.5038 37.4063 92.4695 37.7344 92.5C37.9252 92.5886 38.0364 92.6998 38.125 92.8907C38.1534 93.1018 38.1644 93.2827 38.0653 93.4754C37.9435 93.6247 37.8074 93.7325 37.6538 93.8477C37.6228 93.8714 37.5918 93.895 37.5598 93.9194C37.3123 94.1077 37.062 94.2923 36.8108 94.4757C36.638 94.6021 36.4668 94.7303 36.297 94.8609C36.2594 94.8897 36.2219 94.9186 36.1832 94.9483C36.11 95.0048 36.0369 95.0613 35.9639 95.1181C35.931 95.1435 35.898 95.1689 35.8641 95.195C35.8348 95.2177 35.8056 95.2404 35.7755 95.2638C35.7031 95.3125 35.7031 95.3125 35.625 95.3125C35.6379 96.4727 35.6508 97.6328 35.664 98.8282C36.025 98.609 36.3859 98.3899 36.7578 98.1641C36.9513 98.0488 37.1449 97.9335 37.339 97.8191C37.4162 97.7734 37.4933 97.7274 37.5703 97.6813C37.7859 97.5523 38.001 97.4239 38.2229 97.3061C38.2675 97.2814 38.2675 97.2814 38.313 97.2563C38.3637 97.2284 38.4151 97.2017 38.4673 97.177C38.5454 97.1372 38.5454 97.1372 38.6328 97.0313C38.6603 96.9258 38.6603 96.9258 38.6747 96.8046C38.681 96.759 38.6872 96.7134 38.6936 96.6664C38.7213 96.4377 38.7444 96.2087 38.7657 95.9793C38.773 95.9033 38.7804 95.8272 38.7878 95.7511C38.8057 95.5662 38.8234 95.3812 38.8406 95.1962C38.855 95.0413 38.8702 94.8866 38.8853 94.7318C38.8896 94.6844 38.8939 94.637 38.8983 94.5881C38.9554 94.0152 38.9554 94.0152 39.1821 93.8135C39.3494 93.6822 39.5168 93.6522 39.7265 93.6719C39.9371 93.734 40.0739 93.839 40.1953 94.0235C40.3782 94.3893 40.2007 95.0734 40.1562 95.4663C40.1487 95.5352 40.1411 95.604 40.1336 95.6729C40.1155 95.8392 40.0969 96.0056 40.0781 96.1719C40.249 96.0705 40.4198 95.9691 40.5907 95.8677C40.6487 95.8333 40.7066 95.7989 40.7646 95.7645C40.8209 95.7311 40.8772 95.6977 40.9335 95.6642C40.9886 95.6315 41.0438 95.5988 41.099 95.5661C41.2817 95.4576 41.4636 95.348 41.6447 95.2369C41.8019 95.1487 41.9319 95.1417 42.1094 95.1563C42.3153 95.227 42.4588 95.3217 42.5781 95.5078C42.6449 95.7082 42.6424 95.9009 42.5757 96.1011C42.3553 96.421 41.9918 96.5913 41.6626 96.7798C41.5868 96.8235 41.511 96.8673 41.4353 96.9112C41.3666 96.9509 41.2977 96.9905 41.2289 97.03C41.0774 97.1179 40.9293 97.2111 40.7812 97.3047C40.822 97.3216 40.8627 97.3386 40.9047 97.356C41.0574 97.4195 41.2101 97.483 41.3627 97.5465C41.4285 97.5738 41.4943 97.6012 41.5601 97.6285C41.6553 97.668 41.7504 97.7076 41.8455 97.7472C41.8745 97.7592 41.9034 97.7712 41.9332 97.7836C42.0181 97.819 42.1028 97.8547 42.1875 97.8907C42.219 97.904 42.2505 97.9173 42.2829 97.931C42.3141 97.9445 42.3453 97.9579 42.3775 97.9718C42.4057 97.9839 42.4339 97.996 42.463 98.0085C42.6113 98.0834 42.7031 98.1886 42.7856 98.3301C42.8431 98.56 42.8493 98.7511 42.727 98.96C42.6005 99.1377 42.4911 99.2023 42.2778 99.253C41.962 99.2825 41.6398 99.1143 41.355 98.9936C41.305 98.9727 41.305 98.9727 41.254 98.9514C41.1484 98.9072 41.0429 98.8628 40.9375 98.8184C40.6977 98.7177 40.4579 98.6173 40.2175 98.5181C40.1503 98.4903 40.0831 98.4624 40.0159 98.4344C39.9196 98.3944 39.8231 98.3551 39.7265 98.3161C39.6834 98.298 39.6834 98.298 39.6395 98.2795C39.4829 98.2172 39.3787 98.1818 39.2187 98.2422C39.1314 98.2875 39.0485 98.334 38.9647 98.385C38.9402 98.3997 38.9156 98.4143 38.8904 98.4293C38.8101 98.4774 38.73 98.5258 38.6499 98.5742C38.594 98.6078 38.538 98.6413 38.4821 98.6748C38.3107 98.7776 38.1397 98.881 37.9687 98.9844C37.9162 99.0161 37.8637 99.0478 37.8112 99.0795C37.5805 99.2189 37.3501 99.3586 37.1199 99.4988C37.08 99.5231 37.0401 99.5474 36.999 99.5724C36.9103 99.6268 36.8219 99.6816 36.7337 99.7369C36.7105 99.7514 36.6872 99.7659 36.6633 99.7809C36.5982 99.8216 36.5332 99.8625 36.4683 99.9033C36.3672 99.961 36.3672 99.961 36.289 99.961C36.289 99.9867 36.289 100.013 36.289 100.039C36.316 100.049 36.343 100.059 36.3708 100.069C36.5 100.124 36.6183 100.192 36.7384 100.264C36.7629 100.278 36.7874 100.293 36.8127 100.308C36.8929 100.356 36.9731 100.404 37.0532 100.452C37.1091 100.485 37.165 100.518 37.2209 100.552C37.6358 100.799 38.0491 101.049 38.4614 101.301C38.5434 101.351 38.6256 101.401 38.7079 101.45C38.7909 101.501 38.8732 101.552 38.955 101.604C39.0163 101.643 39.0163 101.643 39.079 101.682C39.1152 101.705 39.1515 101.728 39.1889 101.752C39.3846 101.834 39.5355 101.759 39.7236 101.685C39.7995 101.654 39.8752 101.623 39.9508 101.591C39.9915 101.575 40.0322 101.558 40.0741 101.541C40.2041 101.487 40.334 101.433 40.4638 101.379C41.4506 100.971 41.4506 100.971 41.8066 100.835C41.8534 100.816 41.9003 100.798 41.9485 100.78C42.1833 100.707 42.3372 100.738 42.5512 100.847C42.6988 100.974 42.7964 101.074 42.8288 101.272C42.8403 101.495 42.8086 101.656 42.6904 101.846C42.4957 102.028 42.2053 102.115 41.9607 102.212C41.9136 102.231 41.9136 102.231 41.8654 102.251C41.7661 102.291 41.6667 102.331 41.5674 102.371C41.4672 102.411 41.367 102.451 41.2668 102.492C41.2047 102.517 41.1426 102.542 41.0805 102.567C40.9291 102.627 40.9291 102.627 40.7812 102.695C40.817 102.716 40.8529 102.737 40.8898 102.759C41.0246 102.838 41.1592 102.918 41.2938 102.997C41.3518 103.032 41.4097 103.066 41.4677 103.1C42.5143 103.715 42.5143 103.715 42.6172 104.023C42.6473 104.279 42.6148 104.442 42.4609 104.648C42.2924 104.779 42.1391 104.864 41.9212 104.859C41.5298 104.787 41.1403 104.478 40.8032 104.27C40.7543 104.24 40.7054 104.21 40.6565 104.18C40.5671 104.126 40.4778 104.071 40.3886 104.016C40.2854 103.953 40.1819 103.89 40.0781 103.828C40.0828 103.87 40.0876 103.912 40.0924 103.955C40.1102 104.113 40.1276 104.272 40.1449 104.43C40.1523 104.498 40.1599 104.566 40.1676 104.634C40.3044 105.845 40.3044 105.845 40.0781 106.133C39.8971 106.289 39.7271 106.338 39.4922 106.328C39.2988 106.276 39.1572 106.189 39.0355 106.031C38.9723 105.916 38.9587 105.819 38.9422 105.688C38.936 105.64 38.9298 105.591 38.9234 105.541C38.8967 105.307 38.8724 105.073 38.8501 104.839C38.8426 104.762 38.8351 104.686 38.8276 104.609C38.8093 104.424 38.7913 104.238 38.7736 104.052C38.7635 103.947 38.7533 103.842 38.7429 103.737C38.7331 103.638 38.7236 103.54 38.7144 103.441C38.7078 103.374 38.7078 103.374 38.701 103.307C38.6954 103.248 38.6954 103.248 38.6896 103.189C38.6626 103.032 38.628 102.954 38.4982 102.862C38.4581 102.839 38.4181 102.816 38.3767 102.793C38.3437 102.773 38.3437 102.773 38.3099 102.754C38.2621 102.727 38.2142 102.699 38.1662 102.672C38.0371 102.599 37.9088 102.525 37.7803 102.45C37.7538 102.435 37.7273 102.42 37.7 102.404C37.4265 102.247 37.1566 102.083 36.8872 101.919C36.8245 101.881 36.8245 101.881 36.7605 101.842C36.6293 101.762 36.4982 101.682 36.3672 101.602C36.1351 101.46 35.9031 101.318 35.664 101.172C35.6511 102.332 35.6383 103.492 35.625 104.688C35.6765 104.713 35.7281 104.739 35.7812 104.766C35.8316 104.8 35.8811 104.835 35.93 104.871C35.9731 104.903 35.9731 104.903 36.0172 104.935C36.0635 104.97 36.0635 104.97 36.1108 105.005C36.1433 105.029 36.1758 105.053 36.2093 105.078C36.4894 105.286 36.7674 105.497 37.0443 105.709C37.2047 105.832 37.3655 105.954 37.529 106.073C37.5576 106.094 37.5862 106.115 37.6157 106.136C37.6684 106.175 37.7213 106.213 37.7745 106.251C37.9599 106.386 38.1039 106.522 38.1457 106.758C38.1432 106.997 38.1412 107.162 37.9687 107.344C37.7913 107.512 37.6279 107.52 37.3942 107.528C37.0613 107.455 36.7735 107.162 36.5088 106.958C36.2303 106.744 35.9492 106.534 35.664 106.328C35.6639 106.353 35.6638 106.378 35.6636 106.404C35.662 106.664 35.6593 106.923 35.6559 107.183C35.6548 107.28 35.654 107.377 35.6535 107.474C35.6526 107.613 35.6508 107.753 35.6488 107.892C35.6487 107.935 35.6487 107.979 35.6486 108.023C35.6441 108.264 35.6305 108.41 35.4687 108.594C35.3195 108.736 35.1999 108.762 35 108.77C34.8001 108.762 34.6804 108.736 34.5312 108.594C34.3403 108.377 34.3515 108.172 34.3512 107.892C34.3505 107.847 34.3499 107.803 34.3492 107.757C34.3473 107.614 34.3465 107.472 34.3457 107.329C34.3446 107.232 34.3434 107.136 34.3422 107.039C34.3393 106.802 34.3373 106.565 34.3359 106.328C34.3121 106.346 34.2883 106.365 34.2637 106.384C33.8846 106.674 33.505 106.964 33.1177 107.244C33.088 107.265 33.0583 107.287 33.0278 107.309C32.7665 107.496 32.5936 107.531 32.2656 107.5C32.0748 107.411 31.9636 107.3 31.875 107.109C31.8465 106.898 31.8355 106.717 31.9346 106.525C32.0565 106.375 32.1925 106.268 32.3462 106.152C32.3772 106.129 32.4082 106.105 32.4401 106.081C32.6877 105.892 32.938 105.708 33.1891 105.524C33.362 105.398 33.5332 105.27 33.703 105.139C33.7405 105.11 33.7781 105.081 33.8168 105.052C33.89 104.995 33.9631 104.939 34.0361 104.882C34.069 104.857 34.1019 104.831 34.1359 104.805C34.1651 104.782 34.1943 104.76 34.2245 104.736C34.2969 104.688 34.2969 104.688 34.375 104.688C34.3621 103.527 34.3492 102.367 34.3359 101.172C33.975 101.391 33.614 101.61 33.2422 101.836C33.0486 101.951 32.8551 102.067 32.661 102.181C32.5837 102.227 32.5066 102.273 32.4296 102.319C32.2141 102.448 31.999 102.576 31.777 102.694C31.7473 102.71 31.7176 102.727 31.687 102.744C31.6363 102.772 31.5849 102.798 31.5326 102.823C31.4545 102.863 31.4545 102.863 31.3672 102.969C31.3396 103.074 31.3396 103.074 31.3253 103.195C31.319 103.241 31.3127 103.287 31.3063 103.334C31.2787 103.562 31.2556 103.791 31.2343 104.021C31.2269 104.097 31.2195 104.173 31.2122 104.249C31.1942 104.434 31.1766 104.619 31.1593 104.804C31.1449 104.959 31.1298 105.113 31.1146 105.268C31.1104 105.316 31.1061 105.363 31.1017 105.412C31.0671 105.759 31.0229 106.016 30.7422 106.25C30.5812 106.341 30.4157 106.351 30.2344 106.328C30.0127 106.25 29.8708 106.109 29.7656 105.898C29.7379 105.441 29.7923 104.988 29.8437 104.534C29.8513 104.465 29.8588 104.396 29.8663 104.327C29.8845 104.161 29.9031 103.994 29.9219 103.828C29.751 103.93 29.5801 104.031 29.4093 104.132C29.3513 104.167 29.2933 104.201 29.2354 104.236C29.1791 104.269 29.1228 104.302 29.0665 104.336C29.0113 104.369 28.9562 104.401 28.901 104.434C28.7183 104.542 28.5364 104.652 28.3553 104.763C28.1981 104.851 28.068 104.858 27.8906 104.844C27.6846 104.773 27.5412 104.678 27.4219 104.492C27.3551 104.292 27.3575 104.099 27.4243 103.899C27.6447 103.579 28.0082 103.409 28.3374 103.22C28.4375 103.163 28.5375 103.105 28.6375 103.047C28.6612 103.033 28.6849 103.019 28.7094 103.005C28.8817 102.906 29.051 102.802 29.2187 102.695C29.1786 102.679 29.1384 102.662 29.0971 102.645C28.9459 102.583 28.7947 102.52 28.6437 102.458C28.5787 102.431 28.5137 102.404 28.4487 102.377C27.3566 101.928 27.3566 101.928 27.2363 101.726C27.1611 101.524 27.1389 101.325 27.2247 101.123C27.3162 100.965 27.4043 100.85 27.5781 100.781C27.9596 100.691 28.2964 100.859 28.645 101.006C28.6783 101.02 28.7117 101.034 28.746 101.049C28.8516 101.093 28.957 101.137 29.0625 101.182C29.3022 101.282 29.5421 101.383 29.7824 101.482C29.8497 101.51 29.9169 101.538 29.9841 101.566C30.0803 101.606 30.1768 101.645 30.2734 101.684C30.3021 101.696 30.3309 101.708 30.3605 101.721C30.517 101.783 30.6212 101.818 30.7812 101.758C30.8686 101.713 30.9515 101.666 31.0353 101.615C31.0598 101.6 31.0843 101.586 31.1096 101.571C31.1899 101.523 31.27 101.474 31.3501 101.426C31.406 101.392 31.4619 101.359 31.5179 101.325C31.6893 101.222 31.8603 101.119 32.0312 101.016C32.0837 100.984 32.1362 100.952 32.1887 100.921C32.4194 100.781 32.6499 100.641 32.8801 100.501C32.92 100.477 32.9599 100.453 33.001 100.428C33.0897 100.373 33.1781 100.318 33.2662 100.263C33.2895 100.249 33.3127 100.234 33.3367 100.219C33.4018 100.178 33.4667 100.138 33.5317 100.097C33.6328 100.039 33.6328 100.039 33.7109 100.039C33.7109 100.013 33.7109 99.9875 33.7109 99.961C33.6839 99.9511 33.6569 99.9412 33.6291 99.9311C33.4999 99.8762 33.3816 99.8083 33.2615 99.7362C33.237 99.7216 33.2125 99.7071 33.1873 99.6921C33.107 99.6443 33.0269 99.5963 32.9468 99.5484C32.8908 99.515 32.8349 99.4817 32.779 99.4484C32.3642 99.2009 31.9508 98.9509 31.5386 98.6991C31.4565 98.6491 31.3743 98.5992 31.292 98.5496C31.2091 98.4992 31.1268 98.4478 31.045 98.3956C31.0041 98.3702 30.9631 98.3447 30.921 98.3185C30.8847 98.2954 30.8484 98.2723 30.811 98.2485C30.5844 98.1533 30.3766 98.2734 30.1624 98.3607C30.1232 98.377 30.084 98.3933 30.0436 98.4101C30.0026 98.4269 29.9615 98.4437 29.9192 98.461C29.7882 98.5148 29.6573 98.5689 29.5263 98.6231C29.4392 98.6589 29.352 98.6947 29.2648 98.7305C29.1031 98.7969 28.9414 98.8635 28.7799 98.9302C28.7248 98.9529 28.7248 98.9529 28.6686 98.9761C28.5882 99.0095 28.508 99.0433 28.4279 99.0774C28.3865 99.0949 28.345 99.1125 28.3023 99.1306C28.2462 99.1546 28.2462 99.1546 28.1889 99.1791C27.9466 99.2725 27.7452 99.2769 27.5 99.1797C27.3353 99.0749 27.2534 98.973 27.1875 98.7891C27.1567 98.5868 27.1684 98.3825 27.2745 98.2038C27.5614 97.8773 28.192 97.7217 28.5888 97.5611C28.6503 97.536 28.7118 97.5109 28.7733 97.4858C28.9217 97.4252 29.0702 97.3649 29.2187 97.3047C29.1829 97.2837 29.1471 97.2626 29.1102 97.2409C28.9754 97.1617 28.8407 97.0822 28.7061 97.0026C28.6482 96.9685 28.5902 96.9343 28.5323 96.9003C27.4857 96.2852 27.4857 96.2852 27.3828 95.9766C27.3526 95.7213 27.3851 95.5582 27.539 95.3516C27.7076 95.2209 27.8608 95.1364 28.0788 95.1406C28.4702 95.2126 28.8597 95.5223 29.1968 95.73C29.2456 95.76 29.2946 95.7899 29.3435 95.8198C29.4328 95.8745 29.5221 95.9293 29.6114 95.9842C29.7145 96.0474 29.818 96.1099 29.9219 96.1719C29.9171 96.13 29.9124 96.0881 29.9075 96.0449C29.8897 95.8866 29.8723 95.7283 29.8551 95.5699C29.8476 95.5019 29.8401 95.4339 29.8324 95.3659C29.6966 94.1648 29.6966 94.1648 29.8828 93.9063C30.0317 93.7527 30.1628 93.678 30.3784 93.6597C30.6145 93.6636 30.7871 93.7559 30.9521 93.9209C31.1187 94.2926 31.1116 94.759 31.1499 95.1615C31.1574 95.2379 31.1649 95.3143 31.1724 95.3907C31.1906 95.5763 31.2086 95.762 31.2264 95.9477C31.2364 96.053 31.2467 96.1582 31.2571 96.2635C31.2668 96.362 31.2763 96.4605 31.2855 96.559C31.29 96.6034 31.2944 96.6478 31.299 96.6935C31.3027 96.7324 31.3065 96.7714 31.3103 96.8115C31.3374 96.9676 31.372 97.0459 31.5017 97.1385C31.5418 97.1613 31.5819 97.1841 31.6232 97.2075C31.6453 97.2202 31.6673 97.2329 31.6901 97.246C31.7379 97.2735 31.7858 97.3008 31.8337 97.328C31.9629 97.401 32.0912 97.4754 32.2197 97.5496C32.2594 97.5725 32.2594 97.5725 32.3 97.5958C32.5734 97.7534 32.8433 97.9167 33.1128 98.0811C33.1755 98.1193 33.1755 98.1193 33.2395 98.1582C33.3706 98.2382 33.5017 98.3183 33.6328 98.3985C33.8648 98.5403 34.0969 98.6821 34.3359 98.8282C34.3553 97.0879 34.3553 97.0879 34.375 95.3125C34.3234 95.2867 34.2719 95.261 34.2187 95.2344C34.1684 95.2004 34.1188 95.1652 34.07 95.1291C34.0412 95.1079 34.0124 95.0867 33.9828 95.0649C33.9519 95.0419 33.921 95.0188 33.8891 94.9951C33.8566 94.9711 33.8241 94.947 33.7907 94.9222C33.5105 94.7142 33.2326 94.5032 32.9557 94.2909C32.7953 94.1679 32.6344 94.0459 32.471 93.927C32.4424 93.9061 32.4138 93.8851 32.3843 93.8636C32.3316 93.8251 32.2786 93.787 32.2254 93.7492C32.0401 93.6136 31.896 93.4784 31.8542 93.2422C31.8567 93.0035 31.8588 92.8378 32.0312 92.6563C32.2087 92.4877 32.372 92.4798 32.6057 92.4716C32.9387 92.5451 33.2265 92.8377 33.4912 93.042C33.7697 93.2565 34.0507 93.4665 34.3359 93.6719C34.3361 93.647 34.3362 93.622 34.3363 93.5964C34.338 93.3365 34.3407 93.0767 34.344 92.8169C34.3451 92.72 34.346 92.6231 34.3465 92.5262C34.3473 92.3867 34.3492 92.2473 34.3512 92.1079C34.3512 92.0647 34.3513 92.0214 34.3513 91.9769C34.3559 91.7356 34.3694 91.5897 34.5312 91.4063C34.7371 91.2107 34.9651 91.2138 35.2344 91.25Z" fill="#4294FF"/>
<path d="M59.2344 91.25C59.4162 91.3345 59.5462 91.4546 59.625 91.6407C59.6486 91.7963 59.6486 91.9507 59.6488 92.1079C59.6494 92.1526 59.6501 92.1974 59.6507 92.2435C59.6526 92.386 59.6535 92.5284 59.6543 92.6709C59.6554 92.7677 59.6565 92.8645 59.6578 92.9613C59.6607 93.1982 59.6627 93.435 59.664 93.6719C59.6998 93.6445 59.6998 93.6445 59.7362 93.6165C60.1153 93.3258 60.4949 93.0361 60.8823 92.7564C60.912 92.7349 60.9416 92.7135 60.9722 92.6914C61.2334 92.5038 61.4063 92.4695 61.7344 92.5C61.9252 92.5886 62.0364 92.6998 62.125 92.8907C62.1534 93.1018 62.1644 93.2827 62.0653 93.4754C61.9435 93.6247 61.8074 93.7325 61.6538 93.8477C61.6228 93.8714 61.5918 93.895 61.5598 93.9194C61.3123 94.1077 61.062 94.2923 60.8108 94.4757C60.638 94.6021 60.4668 94.7303 60.297 94.8609C60.2594 94.8897 60.2219 94.9186 60.1832 94.9483C60.11 95.0048 60.0369 95.0613 59.9639 95.1181C59.931 95.1435 59.898 95.1689 59.8641 95.195C59.8348 95.2177 59.8056 95.2404 59.7755 95.2638C59.7031 95.3125 59.7031 95.3125 59.625 95.3125C59.6379 96.4727 59.6508 97.6328 59.664 98.8282C60.025 98.609 60.3859 98.3899 60.7578 98.1641C60.9513 98.0488 61.1449 97.9335 61.339 97.8191C61.4162 97.7734 61.4933 97.7274 61.5703 97.6813C61.7859 97.5523 62.001 97.4239 62.2229 97.3061C62.2675 97.2814 62.2675 97.2814 62.313 97.2563C62.3637 97.2284 62.4151 97.2017 62.4673 97.177C62.5454 97.1372 62.5454 97.1372 62.6328 97.0313C62.6603 96.9258 62.6603 96.9258 62.6747 96.8046C62.681 96.759 62.6872 96.7134 62.6936 96.6664C62.7213 96.4377 62.7444 96.2087 62.7657 95.9793C62.773 95.9033 62.7804 95.8272 62.7878 95.7511C62.8057 95.5662 62.8234 95.3812 62.8406 95.1962C62.855 95.0413 62.8702 94.8866 62.8853 94.7318C62.8896 94.6844 62.8939 94.637 62.8983 94.5881C62.9554 94.0152 62.9554 94.0152 63.1821 93.8135C63.3494 93.6822 63.5168 93.6522 63.7265 93.6719C63.9371 93.734 64.0739 93.839 64.1953 94.0235C64.3782 94.3893 64.2007 95.0734 64.1562 95.4663C64.1487 95.5352 64.1411 95.604 64.1336 95.6729C64.1155 95.8392 64.0969 96.0056 64.0781 96.1719C64.249 96.0705 64.4198 95.9691 64.5907 95.8677C64.6487 95.8333 64.7066 95.7989 64.7646 95.7645C64.8209 95.7311 64.8772 95.6977 64.9335 95.6642C64.9886 95.6315 65.0438 95.5988 65.099 95.5661C65.2817 95.4576 65.4636 95.348 65.6447 95.2369C65.8019 95.1487 65.9319 95.1417 66.1094 95.1563C66.3153 95.227 66.4588 95.3217 66.5781 95.5078C66.6449 95.7082 66.6424 95.9009 66.5757 96.1011C66.3553 96.421 65.9918 96.5913 65.6626 96.7798C65.5868 96.8235 65.511 96.8673 65.4353 96.9112C65.3666 96.9509 65.2977 96.9905 65.2289 97.03C65.0774 97.1179 64.9293 97.2111 64.7812 97.3047C64.822 97.3216 64.8627 97.3386 64.9047 97.356C65.0574 97.4195 65.2101 97.483 65.3627 97.5465C65.4285 97.5738 65.4943 97.6012 65.5601 97.6285C65.6553 97.668 65.7504 97.7076 65.8455 97.7472C65.8745 97.7592 65.9034 97.7712 65.9332 97.7836C66.0181 97.819 66.1028 97.8547 66.1875 97.8907C66.219 97.904 66.2505 97.9173 66.2829 97.931C66.3141 97.9445 66.3453 97.9579 66.3775 97.9718C66.4057 97.9839 66.4339 97.996 66.463 98.0085C66.6113 98.0834 66.7031 98.1886 66.7856 98.3301C66.8431 98.56 66.8493 98.7511 66.727 98.96C66.6005 99.1377 66.4911 99.2023 66.2778 99.253C65.962 99.2825 65.6398 99.1143 65.355 98.9936C65.305 98.9727 65.305 98.9727 65.254 98.9514C65.1484 98.9072 65.0429 98.8628 64.9375 98.8184C64.6977 98.7177 64.4579 98.6173 64.2175 98.5181C64.1503 98.4903 64.0831 98.4624 64.0159 98.4344C63.9196 98.3944 63.8231 98.3551 63.7265 98.3161C63.6834 98.298 63.6834 98.298 63.6395 98.2795C63.4829 98.2172 63.3787 98.1818 63.2187 98.2422C63.1314 98.2875 63.0485 98.334 62.9647 98.385C62.9402 98.3997 62.9156 98.4143 62.8904 98.4293C62.8101 98.4774 62.73 98.5258 62.6499 98.5742C62.594 98.6078 62.538 98.6413 62.4821 98.6748C62.3107 98.7776 62.1397 98.881 61.9687 98.9844C61.9162 99.0161 61.8637 99.0478 61.8112 99.0795C61.5805 99.2189 61.3501 99.3586 61.1199 99.4988C61.08 99.5231 61.0401 99.5474 60.999 99.5724C60.9103 99.6268 60.8219 99.6816 60.7337 99.7369C60.7105 99.7514 60.6872 99.7659 60.6633 99.7809C60.5982 99.8216 60.5332 99.8625 60.4683 99.9033C60.3672 99.961 60.3672 99.961 60.289 99.961C60.289 99.9867 60.289 100.013 60.289 100.039C60.316 100.049 60.343 100.059 60.3708 100.069C60.5 100.124 60.6183 100.192 60.7384 100.264C60.7629 100.278 60.7874 100.293 60.8127 100.308C60.8929 100.356 60.9731 100.404 61.0532 100.452C61.1091 100.485 61.165 100.518 61.2209 100.552C61.6358 100.799 62.0491 101.049 62.4614 101.301C62.5434 101.351 62.6256 101.401 62.7079 101.45C62.7909 101.501 62.8732 101.552 62.955 101.604C63.0163 101.643 63.0163 101.643 63.079 101.682C63.1152 101.705 63.1515 101.728 63.1889 101.752C63.3846 101.834 63.5355 101.759 63.7236 101.685C63.7995 101.654 63.8752 101.623 63.9508 101.591C63.9915 101.575 64.0322 101.558 64.0741 101.541C64.2041 101.487 64.334 101.433 64.4638 101.379C65.4506 100.971 65.4506 100.971 65.8066 100.835C65.8534 100.816 65.9003 100.798 65.9485 100.78C66.1833 100.707 66.3372 100.738 66.5512 100.847C66.6988 100.974 66.7964 101.074 66.8288 101.272C66.8403 101.495 66.8086 101.656 66.6904 101.846C66.4957 102.028 66.2053 102.115 65.9607 102.212C65.9136 102.231 65.9136 102.231 65.8654 102.251C65.7661 102.291 65.6667 102.331 65.5674 102.371C65.4672 102.411 65.367 102.451 65.2668 102.492C65.2047 102.517 65.1426 102.542 65.0805 102.567C64.9291 102.627 64.9291 102.627 64.7812 102.695C64.817 102.716 64.8529 102.737 64.8898 102.759C65.0246 102.838 65.1592 102.918 65.2938 102.997C65.3518 103.032 65.4097 103.066 65.4677 103.1C66.5143 103.715 66.5143 103.715 66.6172 104.023C66.6473 104.279 66.6148 104.442 66.4609 104.648C66.2924 104.779 66.1391 104.864 65.9212 104.859C65.5298 104.787 65.1403 104.478 64.8032 104.27C64.7543 104.24 64.7054 104.21 64.6565 104.18C64.5671 104.126 64.4778 104.071 64.3886 104.016C64.2854 103.953 64.1819 103.89 64.0781 103.828C64.0828 103.87 64.0876 103.912 64.0924 103.955C64.1102 104.113 64.1276 104.272 64.1449 104.43C64.1523 104.498 64.1599 104.566 64.1676 104.634C64.3044 105.845 64.3044 105.845 64.0781 106.133C63.8971 106.289 63.7271 106.338 63.4922 106.328C63.2988 106.276 63.1572 106.189 63.0355 106.031C62.9723 105.916 62.9587 105.819 62.9422 105.688C62.936 105.64 62.9298 105.591 62.9234 105.541C62.8967 105.307 62.8724 105.073 62.8501 104.839C62.8426 104.762 62.8351 104.686 62.8276 104.609C62.8093 104.424 62.7913 104.238 62.7736 104.052C62.7635 103.947 62.7533 103.842 62.7429 103.737C62.7331 103.638 62.7236 103.54 62.7144 103.441C62.7078 103.374 62.7078 103.374 62.701 103.307C62.6954 103.248 62.6954 103.248 62.6896 103.189C62.6626 103.032 62.628 102.954 62.4982 102.862C62.4581 102.839 62.4181 102.816 62.3767 102.793C62.3437 102.773 62.3437 102.773 62.3099 102.754C62.2621 102.727 62.2142 102.699 62.1662 102.672C62.0371 102.599 61.9088 102.525 61.7803 102.45C61.7538 102.435 61.7273 102.42 61.7 102.404C61.4265 102.247 61.1566 102.083 60.8872 101.919C60.8245 101.881 60.8245 101.881 60.7605 101.842C60.6293 101.762 60.4982 101.682 60.3672 101.602C60.1351 101.46 59.9031 101.318 59.664 101.172C59.6511 102.332 59.6383 103.492 59.625 104.688C59.6765 104.713 59.7281 104.739 59.7812 104.766C59.8316 104.8 59.8811 104.835 59.93 104.871C59.9731 104.903 59.9731 104.903 60.0172 104.935C60.0635 104.97 60.0635 104.97 60.1108 105.005C60.1433 105.029 60.1758 105.053 60.2093 105.078C60.4894 105.286 60.7674 105.497 61.0443 105.709C61.2047 105.832 61.3655 105.954 61.529 106.073C61.5576 106.094 61.5862 106.115 61.6157 106.136C61.6684 106.175 61.7213 106.213 61.7745 106.251C61.9599 106.386 62.1039 106.522 62.1457 106.758C62.1432 106.997 62.1412 107.162 61.9687 107.344C61.7913 107.512 61.6279 107.52 61.3942 107.528C61.0613 107.455 60.7735 107.162 60.5088 106.958C60.2303 106.744 59.9492 106.534 59.664 106.328C59.6639 106.353 59.6638 106.378 59.6636 106.404C59.662 106.664 59.6593 106.923 59.6559 107.183C59.6548 107.28 59.654 107.377 59.6535 107.474C59.6526 107.613 59.6508 107.753 59.6488 107.892C59.6487 107.935 59.6487 107.979 59.6486 108.023C59.6441 108.264 59.6305 108.41 59.4687 108.594C59.3195 108.736 59.1999 108.762 59 108.77C58.8001 108.762 58.6804 108.736 58.5312 108.594C58.3403 108.377 58.3515 108.172 58.3512 107.892C58.3505 107.847 58.3499 107.803 58.3492 107.757C58.3473 107.614 58.3465 107.472 58.3457 107.329C58.3446 107.232 58.3434 107.136 58.3422 107.039C58.3393 106.802 58.3373 106.565 58.3359 106.328C58.3121 106.346 58.2883 106.365 58.2637 106.384C57.8846 106.674 57.505 106.964 57.1177 107.244C57.088 107.265 57.0583 107.287 57.0278 107.309C56.7665 107.496 56.5936 107.531 56.2656 107.5C56.0748 107.411 55.9636 107.3 55.875 107.109C55.8465 106.898 55.8355 106.717 55.9346 106.525C56.0565 106.375 56.1925 106.268 56.3462 106.152C56.3772 106.129 56.4082 106.105 56.4401 106.081C56.6877 105.892 56.938 105.708 57.1891 105.524C57.362 105.398 57.5332 105.27 57.703 105.139C57.7405 105.11 57.7781 105.081 57.8168 105.052C57.89 104.995 57.9631 104.939 58.0361 104.882C58.069 104.857 58.1019 104.831 58.1359 104.805C58.1651 104.782 58.1943 104.76 58.2245 104.736C58.2969 104.688 58.2969 104.688 58.375 104.688C58.3621 103.527 58.3492 102.367 58.3359 101.172C57.975 101.391 57.614 101.61 57.2422 101.836C57.0486 101.951 56.8551 102.067 56.661 102.181C56.5837 102.227 56.5066 102.273 56.4296 102.319C56.2141 102.448 55.999 102.576 55.777 102.694C55.7473 102.71 55.7176 102.727 55.687 102.744C55.6363 102.772 55.5849 102.798 55.5326 102.823C55.4545 102.863 55.4545 102.863 55.3672 102.969C55.3396 103.074 55.3396 103.074 55.3253 103.195C55.319 103.241 55.3127 103.287 55.3063 103.334C55.2787 103.562 55.2556 103.791 55.2343 104.021C55.2269 104.097 55.2195 104.173 55.2122 104.249C55.1942 104.434 55.1766 104.619 55.1593 104.804C55.1449 104.959 55.1298 105.113 55.1146 105.268C55.1104 105.316 55.1061 105.363 55.1017 105.412C55.0671 105.759 55.0229 106.016 54.7422 106.25C54.5812 106.341 54.4157 106.351 54.2344 106.328C54.0127 106.25 53.8708 106.109 53.7656 105.898C53.7379 105.441 53.7923 104.988 53.8437 104.534C53.8513 104.465 53.8588 104.396 53.8663 104.327C53.8845 104.161 53.9031 103.994 53.9219 103.828C53.751 103.93 53.5801 104.031 53.4093 104.132C53.3513 104.167 53.2933 104.201 53.2354 104.236C53.1791 104.269 53.1228 104.302 53.0665 104.336C53.0113 104.369 52.9562 104.401 52.901 104.434C52.7183 104.542 52.5364 104.652 52.3553 104.763C52.1981 104.851 52.068 104.858 51.8906 104.844C51.6846 104.773 51.5412 104.678 51.4219 104.492C51.3551 104.292 51.3575 104.099 51.4243 103.899C51.6447 103.579 52.0082 103.409 52.3374 103.22C52.4375 103.163 52.5375 103.105 52.6375 103.047C52.6612 103.033 52.6849 103.019 52.7094 103.005C52.8817 102.906 53.051 102.802 53.2187 102.695C53.1786 102.679 53.1384 102.662 53.0971 102.645C52.9459 102.583 52.7947 102.52 52.6437 102.458C52.5787 102.431 52.5137 102.404 52.4487 102.377C51.3566 101.928 51.3566 101.928 51.2363 101.726C51.1611 101.524 51.1389 101.325 51.2247 101.123C51.3162 100.965 51.4043 100.85 51.5781 100.781C51.9596 100.691 52.2964 100.859 52.645 101.006C52.6783 101.02 52.7117 101.034 52.746 101.049C52.8516 101.093 52.957 101.137 53.0625 101.182C53.3022 101.282 53.5421 101.383 53.7824 101.482C53.8497 101.51 53.9169 101.538 53.9841 101.566C54.0803 101.606 54.1768 101.645 54.2734 101.684C54.3021 101.696 54.3309 101.708 54.3605 101.721C54.517 101.783 54.6212 101.818 54.7812 101.758C54.8686 101.713 54.9515 101.666 55.0353 101.615C55.0598 101.6 55.0843 101.586 55.1096 101.571C55.1899 101.523 55.27 101.474 55.3501 101.426C55.406 101.392 55.4619 101.359 55.5179 101.325C55.6893 101.222 55.8603 101.119 56.0312 101.016C56.0837 100.984 56.1362 100.952 56.1887 100.921C56.4194 100.781 56.6499 100.641 56.8801 100.501C56.92 100.477 56.9599 100.453 57.001 100.428C57.0897 100.373 57.1781 100.318 57.2662 100.263C57.2895 100.249 57.3127 100.234 57.3367 100.219C57.4018 100.178 57.4667 100.138 57.5317 100.097C57.6328 100.039 57.6328 100.039 57.7109 100.039C57.7109 100.013 57.7109 99.9875 57.7109 99.961C57.6839 99.9511 57.6569 99.9412 57.6291 99.9311C57.4999 99.8762 57.3816 99.8083 57.2615 99.7362C57.237 99.7216 57.2125 99.7071 57.1873 99.6921C57.107 99.6443 57.0269 99.5963 56.9468 99.5484C56.8908 99.515 56.8349 99.4817 56.779 99.4484C56.3642 99.2009 55.9508 98.9509 55.5386 98.6991C55.4565 98.6491 55.3743 98.5992 55.292 98.5496C55.2091 98.4992 55.1268 98.4478 55.045 98.3956C55.0041 98.3702 54.9631 98.3447 54.921 98.3185C54.8847 98.2954 54.8484 98.2723 54.811 98.2485C54.5844 98.1533 54.3766 98.2734 54.1624 98.3607C54.1232 98.377 54.084 98.3933 54.0436 98.4101C54.0026 98.4269 53.9615 98.4437 53.9192 98.461C53.7882 98.5148 53.6573 98.5689 53.5263 98.6231C53.4392 98.6589 53.352 98.6947 53.2648 98.7305C53.1031 98.7969 52.9414 98.8635 52.7799 98.9302C52.7248 98.9529 52.7248 98.9529 52.6686 98.9761C52.5882 99.0095 52.508 99.0433 52.4279 99.0774C52.3865 99.0949 52.345 99.1125 52.3023 99.1306C52.2462 99.1546 52.2462 99.1546 52.1889 99.1791C51.9466 99.2725 51.7452 99.2769 51.5 99.1797C51.3353 99.0749 51.2534 98.973 51.1875 98.7891C51.1567 98.5868 51.1684 98.3825 51.2745 98.2038C51.5614 97.8773 52.192 97.7217 52.5888 97.5611C52.6503 97.536 52.7118 97.5109 52.7733 97.4858C52.9217 97.4252 53.0702 97.3649 53.2187 97.3047C53.1829 97.2837 53.1471 97.2626 53.1102 97.2409C52.9754 97.1617 52.8407 97.0822 52.7061 97.0026C52.6482 96.9685 52.5902 96.9343 52.5323 96.9003C51.4857 96.2852 51.4857 96.2852 51.3828 95.9766C51.3526 95.7213 51.3851 95.5582 51.539 95.3516C51.7076 95.2209 51.8608 95.1364 52.0788 95.1406C52.4702 95.2126 52.8597 95.5223 53.1968 95.73C53.2456 95.76 53.2946 95.7899 53.3435 95.8198C53.4328 95.8745 53.5221 95.9293 53.6114 95.9842C53.7145 96.0474 53.818 96.1099 53.9219 96.1719C53.9171 96.13 53.9124 96.0881 53.9075 96.0449C53.8897 95.8866 53.8723 95.7283 53.8551 95.5699C53.8476 95.5019 53.8401 95.4339 53.8324 95.3659C53.6966 94.1648 53.6966 94.1648 53.8828 93.9063C54.0317 93.7527 54.1628 93.678 54.3784 93.6597C54.6145 93.6636 54.7871 93.7559 54.9521 93.9209C55.1187 94.2926 55.1116 94.759 55.1499 95.1615C55.1574 95.2379 55.1649 95.3143 55.1724 95.3907C55.1906 95.5763 55.2086 95.762 55.2264 95.9477C55.2364 96.053 55.2467 96.1582 55.2571 96.2635C55.2668 96.362 55.2763 96.4605 55.2855 96.559C55.29 96.6034 55.2944 96.6478 55.299 96.6935C55.3027 96.7324 55.3065 96.7714 55.3103 96.8115C55.3374 96.9676 55.372 97.0459 55.5017 97.1385C55.5418 97.1613 55.5819 97.1841 55.6232 97.2075C55.6453 97.2202 55.6673 97.2329 55.6901 97.246C55.7379 97.2735 55.7858 97.3008 55.8337 97.328C55.9629 97.401 56.0912 97.4754 56.2197 97.5496C56.2594 97.5725 56.2594 97.5725 56.3 97.5958C56.5734 97.7534 56.8433 97.9167 57.1128 98.0811C57.1755 98.1193 57.1755 98.1193 57.2395 98.1582C57.3706 98.2382 57.5017 98.3183 57.6328 98.3985C57.8648 98.5403 58.0969 98.6821 58.3359 98.8282C58.3553 97.0879 58.3553 97.0879 58.375 95.3125C58.3234 95.2867 58.2719 95.261 58.2187 95.2344C58.1684 95.2004 58.1188 95.1652 58.07 95.1291C58.0412 95.1079 58.0124 95.0867 57.9828 95.0649C57.9519 95.0419 57.921 95.0188 57.8891 94.9951C57.8566 94.9711 57.8241 94.947 57.7907 94.9222C57.5105 94.7142 57.2326 94.5032 56.9557 94.2909C56.7953 94.1679 56.6344 94.0459 56.471 93.927C56.4424 93.9061 56.4138 93.8851 56.3843 93.8636C56.3316 93.8251 56.2786 93.787 56.2254 93.7492C56.0401 93.6136 55.896 93.4784 55.8542 93.2422C55.8567 93.0035 55.8588 92.8378 56.0312 92.6563C56.2087 92.4877 56.372 92.4798 56.6057 92.4716C56.9387 92.5451 57.2265 92.8377 57.4912 93.042C57.7697 93.2565 58.0507 93.4665 58.3359 93.6719C58.3361 93.647 58.3362 93.622 58.3363 93.5964C58.338 93.3365 58.3407 93.0767 58.344 92.8169C58.3451 92.72 58.346 92.6231 58.3465 92.5262C58.3473 92.3867 58.3492 92.2473 58.3512 92.1079C58.3512 92.0647 58.3513 92.0214 58.3513 91.9769C58.3559 91.7356 58.3694 91.5897 58.5312 91.4063C58.7371 91.2107 58.9651 91.2138 59.2344 91.25Z" fill="#4294FF"/>
<path d="M49.2344 69.25C49.4162 69.3345 49.5462 69.4546 49.625 69.6407C49.6486 69.7963 49.6486 69.9507 49.6488 70.1079C49.6494 70.1526 49.6501 70.1974 49.6507 70.2435C49.6526 70.386 49.6535 70.5284 49.6543 70.6709C49.6554 70.7677 49.6565 70.8645 49.6578 70.9613C49.6607 71.1982 49.6627 71.435 49.664 71.6719C49.6998 71.6445 49.6998 71.6445 49.7362 71.6165C50.1153 71.3258 50.4949 71.0361 50.8823 70.7564C50.912 70.7349 50.9416 70.7135 50.9722 70.6914C51.2334 70.5038 51.4063 70.4695 51.7344 70.5C51.9252 70.5886 52.0364 70.6998 52.125 70.8907C52.1534 71.1018 52.1644 71.2827 52.0653 71.4754C51.9435 71.6247 51.8074 71.7325 51.6538 71.8477C51.6228 71.8714 51.5918 71.895 51.5598 71.9194C51.3123 72.1077 51.062 72.2923 50.8108 72.4757C50.638 72.6021 50.4668 72.7303 50.297 72.8609C50.2594 72.8897 50.2219 72.9186 50.1832 72.9483C50.11 73.0048 50.0369 73.0613 49.9639 73.1181C49.931 73.1435 49.898 73.1689 49.8641 73.195C49.8348 73.2177 49.8056 73.2404 49.7755 73.2638C49.7031 73.3125 49.7031 73.3125 49.625 73.3125C49.6379 74.4727 49.6508 75.6328 49.664 76.8282C50.025 76.609 50.3859 76.3899 50.7578 76.1641C50.9513 76.0488 51.1449 75.9335 51.339 75.8191C51.4162 75.7734 51.4933 75.7274 51.5703 75.6813C51.7859 75.5523 52.001 75.4239 52.2229 75.3061C52.2675 75.2814 52.2675 75.2814 52.313 75.2563C52.3637 75.2284 52.4151 75.2017 52.4673 75.177C52.5454 75.1372 52.5454 75.1372 52.6328 75.0313C52.6603 74.9258 52.6603 74.9258 52.6747 74.8046C52.681 74.759 52.6872 74.7134 52.6936 74.6664C52.7213 74.4377 52.7444 74.2087 52.7657 73.9793C52.773 73.9033 52.7804 73.8272 52.7878 73.7511C52.8057 73.5662 52.8234 73.3812 52.8406 73.1962C52.855 73.0413 52.8702 72.8866 52.8853 72.7318C52.8896 72.6844 52.8939 72.637 52.8983 72.5881C52.9554 72.0152 52.9554 72.0152 53.1821 71.8135C53.3494 71.6822 53.5168 71.6522 53.7265 71.6719C53.9371 71.734 54.0739 71.839 54.1953 72.0235C54.3782 72.3893 54.2007 73.0734 54.1562 73.4663C54.1487 73.5352 54.1411 73.604 54.1336 73.6729C54.1155 73.8392 54.0969 74.0056 54.0781 74.1719C54.249 74.0705 54.4198 73.9691 54.5907 73.8677C54.6487 73.8333 54.7066 73.7989 54.7646 73.7645C54.8209 73.7311 54.8772 73.6977 54.9335 73.6642C54.9886 73.6315 55.0438 73.5988 55.099 73.5661C55.2817 73.4576 55.4636 73.348 55.6447 73.2369C55.8019 73.1487 55.9319 73.1417 56.1094 73.1563C56.3153 73.227 56.4588 73.3217 56.5781 73.5078C56.6449 73.7082 56.6424 73.9009 56.5757 74.1011C56.3553 74.421 55.9918 74.5913 55.6626 74.7798C55.5868 74.8235 55.511 74.8673 55.4353 74.9112C55.3666 74.9509 55.2977 74.9905 55.2289 75.03C55.0774 75.1179 54.9293 75.2111 54.7812 75.3047C54.822 75.3216 54.8627 75.3386 54.9047 75.356C55.0574 75.4195 55.2101 75.483 55.3627 75.5465C55.4285 75.5738 55.4943 75.6012 55.5601 75.6285C55.6553 75.668 55.7504 75.7076 55.8455 75.7472C55.8745 75.7592 55.9034 75.7712 55.9332 75.7836C56.0181 75.819 56.1028 75.8547 56.1875 75.8907C56.219 75.904 56.2505 75.9173 56.2829 75.931C56.3141 75.9445 56.3453 75.9579 56.3775 75.9718C56.4057 75.9839 56.4339 75.996 56.463 76.0085C56.6113 76.0834 56.7031 76.1886 56.7856 76.3301C56.8431 76.56 56.8493 76.7511 56.727 76.96C56.6005 77.1377 56.4911 77.2023 56.2778 77.253C55.962 77.2825 55.6398 77.1143 55.355 76.9936C55.305 76.9727 55.305 76.9727 55.254 76.9514C55.1484 76.9072 55.0429 76.8628 54.9375 76.8184C54.6977 76.7177 54.4579 76.6173 54.2175 76.5181C54.1503 76.4903 54.0831 76.4624 54.0159 76.4344C53.9196 76.3944 53.8231 76.3551 53.7265 76.3161C53.6834 76.298 53.6834 76.298 53.6395 76.2795C53.4829 76.2172 53.3787 76.1818 53.2187 76.2422C53.1314 76.2875 53.0485 76.334 52.9647 76.385C52.9402 76.3997 52.9156 76.4143 52.8904 76.4293C52.8101 76.4774 52.73 76.5258 52.6499 76.5742C52.594 76.6078 52.538 76.6413 52.4821 76.6748C52.3107 76.7776 52.1397 76.881 51.9687 76.9844C51.9162 77.0161 51.8637 77.0478 51.8112 77.0795C51.5805 77.2189 51.3501 77.3586 51.1199 77.4988C51.08 77.5231 51.0401 77.5474 50.999 77.5724C50.9103 77.6268 50.8219 77.6816 50.7337 77.7369C50.7105 77.7514 50.6872 77.7659 50.6633 77.7809C50.5982 77.8216 50.5332 77.8625 50.4683 77.9033C50.3672 77.961 50.3672 77.961 50.289 77.961C50.289 77.9867 50.289 78.0125 50.289 78.0391C50.316 78.049 50.343 78.0588 50.3708 78.069C50.5 78.1239 50.6183 78.1918 50.7384 78.2639C50.7629 78.2784 50.7874 78.293 50.8127 78.308C50.8929 78.3558 50.9731 78.4037 51.0532 78.4517C51.1091 78.485 51.165 78.5183 51.2209 78.5517C51.6358 78.7992 52.0491 79.0491 52.4614 79.3009C52.5434 79.351 52.6256 79.4008 52.7079 79.4505C52.7909 79.5008 52.8732 79.5522 52.955 79.6044C53.0163 79.6426 53.0163 79.6426 53.079 79.6815C53.1152 79.7046 53.1515 79.7277 53.1889 79.7515C53.3846 79.8338 53.5355 79.7586 53.7236 79.6854C53.7995 79.6543 53.8752 79.6229 53.9508 79.5914C53.9915 79.5746 54.0322 79.5579 54.0741 79.5407C54.2041 79.4871 54.334 79.4333 54.4638 79.3794C55.4506 78.9714 55.4506 78.9714 55.8066 78.8345C55.8534 78.8165 55.9003 78.7984 55.9485 78.7798C56.1833 78.7073 56.3372 78.7382 56.5512 78.8472C56.6988 78.9741 56.7964 79.0736 56.8288 79.2715C56.8403 79.4953 56.8086 79.6556 56.6904 79.8456C56.4957 80.0277 56.2053 80.1147 55.9607 80.2124C55.9136 80.2314 55.9136 80.2314 55.8654 80.2509C55.7661 80.2909 55.6667 80.3308 55.5674 80.3706C55.4672 80.4109 55.367 80.4513 55.2668 80.4917C55.2047 80.5167 55.1426 80.5416 55.0805 80.5665C54.9291 80.6269 54.9291 80.6269 54.7812 80.6953C54.817 80.7164 54.8529 80.7374 54.8898 80.7591C55.0246 80.8384 55.1592 80.9179 55.2938 80.9974C55.3518 81.0316 55.4097 81.0657 55.4677 81.0998C56.5143 81.7148 56.5143 81.7148 56.6172 82.0235C56.6473 82.2787 56.6148 82.4419 56.4609 82.6485C56.2924 82.7792 56.1391 82.8636 55.9212 82.8595C55.5298 82.7875 55.1403 82.4778 54.8032 82.27C54.7543 82.2401 54.7054 82.2102 54.6565 82.1802C54.5671 82.1256 54.4778 82.0708 54.3886 82.0159C54.2854 81.9527 54.1819 81.8902 54.0781 81.8282C54.0828 81.87 54.0876 81.9119 54.0924 81.9551C54.1102 82.1134 54.1276 82.2718 54.1449 82.4302C54.1523 82.4982 54.1599 82.5662 54.1676 82.6341C54.3044 83.8447 54.3044 83.8447 54.0781 84.1328C53.8971 84.2886 53.7271 84.3376 53.4922 84.3282C53.2988 84.2757 53.1572 84.1894 53.0355 84.0311C52.9723 83.9155 52.9587 83.819 52.9422 83.6884C52.936 83.6397 52.9298 83.591 52.9234 83.5409C52.8967 83.307 52.8724 83.073 52.8501 82.8386C52.8426 82.7622 52.8351 82.6858 52.8276 82.6094C52.8093 82.4237 52.7913 82.2381 52.7736 82.0524C52.7635 81.9471 52.7533 81.8418 52.7429 81.7366C52.7331 81.6381 52.7236 81.5396 52.7144 81.441C52.7078 81.3745 52.7078 81.3745 52.701 81.3066C52.6954 81.2482 52.6954 81.2482 52.6896 81.1886C52.6626 81.0324 52.628 80.9541 52.4982 80.8616C52.4581 80.8388 52.4181 80.816 52.3767 80.7925C52.3437 80.7735 52.3437 80.7735 52.3099 80.754C52.2621 80.7265 52.2142 80.6992 52.1662 80.6721C52.0371 80.599 51.9088 80.5246 51.7803 80.4504C51.7538 80.4352 51.7273 80.4199 51.7 80.4042C51.4265 80.2466 51.1566 80.0834 50.8872 79.919C50.8245 79.8808 50.8245 79.8808 50.7605 79.8418C50.6293 79.7618 50.4982 79.6817 50.3672 79.6016C50.1351 79.4598 49.9031 79.318 49.664 79.1719C49.6511 80.3321 49.6383 81.4922 49.625 82.6875C49.6765 82.7133 49.7281 82.7391 49.7812 82.7657C49.8316 82.7996 49.8811 82.8348 49.93 82.8709C49.9731 82.9027 49.9731 82.9027 50.0172 82.9352C50.0635 82.9697 50.0635 82.9697 50.1108 83.0049C50.1433 83.029 50.1758 83.053 50.2093 83.0778C50.4894 83.2859 50.7674 83.4968 51.0443 83.7092C51.2047 83.8321 51.3655 83.9541 51.529 84.073C51.5576 84.094 51.5862 84.1149 51.6157 84.1365C51.6684 84.1749 51.7213 84.2131 51.7745 84.2508C51.9599 84.3864 52.1039 84.5217 52.1457 84.7578C52.1432 84.9966 52.1412 85.1623 51.9687 85.3438C51.7913 85.5123 51.6279 85.5202 51.3942 85.5284C51.0613 85.4549 50.7735 85.1624 50.5088 84.958C50.2303 84.7436 49.9492 84.5336 49.664 84.3282C49.6639 84.3531 49.6638 84.378 49.6636 84.4037C49.662 84.6635 49.6593 84.9233 49.6559 85.1831C49.6548 85.28 49.654 85.377 49.6535 85.4739C49.6526 85.6133 49.6508 85.7527 49.6488 85.8922C49.6487 85.9354 49.6487 85.9786 49.6486 86.0232C49.6441 86.2645 49.6305 86.4104 49.4687 86.5938C49.3195 86.7355 49.1999 86.7621 49 86.7696C48.8001 86.7621 48.6804 86.7355 48.5312 86.5938C48.3403 86.3774 48.3515 86.1723 48.3512 85.8922C48.3505 85.8474 48.3499 85.8027 48.3492 85.7566C48.3473 85.6141 48.3465 85.4716 48.3457 85.3291C48.3446 85.2323 48.3434 85.1355 48.3422 85.0388C48.3393 84.8019 48.3373 84.565 48.3359 84.3282C48.3121 84.3464 48.2883 84.3647 48.2637 84.3835C47.8846 84.6743 47.505 84.964 47.1177 85.2437C47.088 85.2651 47.0583 85.2865 47.0278 85.3086C46.7665 85.4963 46.5936 85.5305 46.2656 85.5C46.0748 85.4114 45.9636 85.3002 45.875 85.1094C45.8465 84.8982 45.8355 84.7173 45.9346 84.5247C46.0565 84.3753 46.1925 84.2675 46.3462 84.1524C46.3772 84.1287 46.4082 84.105 46.4401 84.0806C46.6877 83.8924 46.938 83.7078 47.1891 83.5244C47.362 83.3979 47.5332 83.2697 47.703 83.1392C47.7405 83.1103 47.7781 83.0815 47.8168 83.0517C47.89 82.9953 47.9631 82.9387 48.0361 82.8819C48.069 82.8566 48.1019 82.8312 48.1359 82.805C48.1651 82.7823 48.1943 82.7596 48.2245 82.7362C48.2969 82.6875 48.2969 82.6875 48.375 82.6875C48.3621 81.5274 48.3492 80.3672 48.3359 79.1719C47.975 79.391 47.614 79.6102 47.2422 79.836C47.0486 79.9513 46.8551 80.0665 46.661 80.1809C46.5837 80.2266 46.5066 80.2726 46.4296 80.3188C46.2141 80.4477 45.999 80.5762 45.777 80.694C45.7473 80.7104 45.7176 80.7269 45.687 80.7438C45.6363 80.7717 45.5849 80.7983 45.5326 80.823C45.4545 80.8628 45.4545 80.8628 45.3672 80.9688C45.3396 81.0742 45.3396 81.0742 45.3253 81.1955C45.319 81.2411 45.3127 81.2867 45.3063 81.3337C45.2787 81.5624 45.2556 81.7913 45.2343 82.0207C45.2269 82.0968 45.2195 82.1729 45.2122 82.2489C45.1942 82.4339 45.1766 82.6189 45.1593 82.8039C45.1449 82.9587 45.1298 83.1135 45.1146 83.2683C45.1104 83.3157 45.1061 83.3631 45.1017 83.4119C45.0671 83.7591 45.0229 84.0161 44.7422 84.25C44.5812 84.3414 44.4157 84.3506 44.2344 84.3282C44.0127 84.2499 43.8708 84.1089 43.7656 83.8985C43.7379 83.4408 43.7923 82.9877 43.8437 82.5337C43.8513 82.4649 43.8588 82.396 43.8663 82.3272C43.8845 82.1608 43.9031 81.9945 43.9219 81.8282C43.751 81.9295 43.5801 82.031 43.4093 82.1324C43.3513 82.1668 43.2933 82.2012 43.2354 82.2356C43.1791 82.269 43.1228 82.3024 43.0665 82.3358C43.0113 82.3685 42.9562 82.4013 42.901 82.434C42.7183 82.5424 42.5364 82.6521 42.3553 82.7632C42.1981 82.8513 42.068 82.8583 41.8906 82.8438C41.6846 82.7731 41.5412 82.6784 41.4219 82.4922C41.3551 82.2919 41.3575 82.0992 41.4243 81.899C41.6447 81.5791 42.0082 81.4087 42.3374 81.2202C42.4375 81.1625 42.5375 81.1046 42.6375 81.0467C42.6612 81.0331 42.6849 81.0194 42.7094 81.0053C42.8817 80.9057 43.051 80.8024 43.2187 80.6953C43.1786 80.6788 43.1384 80.6623 43.0971 80.6453C42.9459 80.583 42.7947 80.5205 42.6437 80.4579C42.5787 80.431 42.5137 80.4042 42.4487 80.3774C41.3566 79.928 41.3566 79.928 41.2363 79.7261C41.1611 79.5237 41.1389 79.3251 41.2247 79.1234C41.3162 78.9654 41.4043 78.85 41.5781 78.7813C41.9596 78.6908 42.2964 78.8587 42.645 79.0065C42.6783 79.0204 42.7117 79.0343 42.746 79.0487C42.8516 79.0928 42.957 79.1372 43.0625 79.1817C43.3022 79.2824 43.5421 79.3827 43.7824 79.482C43.8497 79.5098 43.9169 79.5377 43.9841 79.5657C44.0803 79.6057 44.1768 79.6449 44.2734 79.684C44.3021 79.696 44.3309 79.7081 44.3605 79.7205C44.517 79.7828 44.6212 79.8183 44.7812 79.7578C44.8686 79.7125 44.9515 79.6661 45.0353 79.615C45.0598 79.6004 45.0843 79.5858 45.1096 79.5707C45.1899 79.5227 45.27 79.4743 45.3501 79.4258C45.406 79.3923 45.4619 79.3587 45.5179 79.3252C45.6893 79.2224 45.8603 79.1191 46.0312 79.0157C46.0837 78.9839 46.1362 78.9522 46.1887 78.9205C46.4194 78.7812 46.6499 78.6415 46.8801 78.5013C46.92 78.477 46.9599 78.4527 47.001 78.4277C47.0897 78.3732 47.1781 78.3185 47.2662 78.2631C47.2895 78.2486 47.3127 78.2341 47.3367 78.2191C47.4018 78.1785 47.4667 78.1376 47.5317 78.0967C47.6328 78.0391 47.6328 78.0391 47.7109 78.0391C47.7109 78.0133 47.7109 77.9875 47.7109 77.961C47.6839 77.9511 47.6569 77.9412 47.6291 77.9311C47.4999 77.8762 47.3816 77.8083 47.2615 77.7362C47.237 77.7216 47.2125 77.7071 47.1873 77.6921C47.107 77.6443 47.0269 77.5963 46.9468 77.5484C46.8908 77.515 46.8349 77.4817 46.779 77.4484C46.3642 77.2009 45.9508 76.9509 45.5386 76.6991C45.4565 76.6491 45.3743 76.5992 45.292 76.5496C45.2091 76.4992 45.1268 76.4478 45.045 76.3956C45.0041 76.3702 44.9631 76.3447 44.921 76.3185C44.8847 76.2954 44.8484 76.2723 44.811 76.2485C44.5844 76.1533 44.3766 76.2734 44.1624 76.3607C44.1232 76.377 44.084 76.3933 44.0436 76.4101C44.0026 76.4269 43.9615 76.4437 43.9192 76.461C43.7882 76.5148 43.6573 76.5689 43.5263 76.6231C43.4392 76.6589 43.352 76.6947 43.2648 76.7305C43.1031 76.7969 42.9414 76.8635 42.7799 76.9302C42.7248 76.9529 42.7248 76.9529 42.6686 76.9761C42.5882 77.0095 42.508 77.0433 42.4279 77.0774C42.3865 77.0949 42.345 77.1125 42.3023 77.1306C42.2462 77.1546 42.2462 77.1546 42.1889 77.1791C41.9466 77.2725 41.7452 77.2769 41.5 77.1797C41.3353 77.0749 41.2534 76.973 41.1875 76.7891C41.1567 76.5868 41.1684 76.3825 41.2745 76.2038C41.5614 75.8773 42.192 75.7217 42.5888 75.5611C42.6503 75.536 42.7118 75.5109 42.7733 75.4858C42.9217 75.4252 43.0702 75.3649 43.2187 75.3047C43.1829 75.2837 43.1471 75.2626 43.1102 75.2409C42.9754 75.1617 42.8407 75.0822 42.7061 75.0026C42.6482 74.9685 42.5902 74.9343 42.5323 74.9003C41.4857 74.2852 41.4857 74.2852 41.3828 73.9766C41.3526 73.7213 41.3851 73.5582 41.539 73.3516C41.7076 73.2209 41.8608 73.1364 42.0788 73.1406C42.4702 73.2126 42.8597 73.5223 43.1968 73.73C43.2456 73.76 43.2946 73.7899 43.3435 73.8198C43.4328 73.8745 43.5221 73.9293 43.6114 73.9842C43.7145 74.0474 43.818 74.1099 43.9219 74.1719C43.9171 74.13 43.9124 74.0881 43.9075 74.0449C43.8897 73.8866 43.8723 73.7283 43.8551 73.5699C43.8476 73.5019 43.8401 73.4339 43.8324 73.3659C43.6966 72.1648 43.6966 72.1648 43.8828 71.9063C44.0317 71.7527 44.1628 71.678 44.3784 71.6597C44.6145 71.6636 44.7871 71.7559 44.9521 71.9209C45.1187 72.2926 45.1116 72.759 45.1499 73.1615C45.1574 73.2379 45.1649 73.3143 45.1724 73.3907C45.1906 73.5763 45.2086 73.762 45.2264 73.9477C45.2364 74.053 45.2467 74.1582 45.2571 74.2635C45.2668 74.362 45.2763 74.4605 45.2855 74.559C45.29 74.6034 45.2944 74.6478 45.299 74.6935C45.3027 74.7324 45.3065 74.7714 45.3103 74.8115C45.3374 74.9676 45.372 75.0459 45.5017 75.1385C45.5418 75.1613 45.5819 75.1841 45.6232 75.2075C45.6453 75.2202 45.6673 75.2329 45.6901 75.246C45.7379 75.2735 45.7858 75.3008 45.8337 75.328C45.9629 75.401 46.0912 75.4754 46.2197 75.5496C46.2594 75.5725 46.2594 75.5725 46.3 75.5958C46.5734 75.7534 46.8433 75.9167 47.1128 76.0811C47.1755 76.1193 47.1755 76.1193 47.2395 76.1582C47.3706 76.2382 47.5017 76.3183 47.6328 76.3985C47.8648 76.5403 48.0969 76.6821 48.3359 76.8282C48.3553 75.0879 48.3553 75.0879 48.375 73.3125C48.3234 73.2867 48.2719 73.261 48.2187 73.2344C48.1684 73.2004 48.1188 73.1652 48.07 73.1291C48.0412 73.1079 48.0124 73.0867 47.9828 73.0649C47.9519 73.0419 47.921 73.0188 47.8891 72.9951C47.8566 72.9711 47.8241 72.947 47.7907 72.9222C47.5105 72.7142 47.2326 72.5032 46.9557 72.2909C46.7953 72.1679 46.6344 72.0459 46.471 71.927C46.4424 71.9061 46.4138 71.8851 46.3843 71.8636C46.3316 71.8251 46.2786 71.787 46.2254 71.7492C46.0401 71.6136 45.896 71.4784 45.8542 71.2422C45.8567 71.0035 45.8588 70.8378 46.0312 70.6563C46.2087 70.4877 46.372 70.4798 46.6057 70.4716C46.9387 70.5451 47.2265 70.8377 47.4912 71.042C47.7697 71.2565 48.0507 71.4665 48.3359 71.6719C48.3361 71.647 48.3362 71.622 48.3363 71.5964C48.338 71.3365 48.3407 71.0767 48.344 70.8169C48.3451 70.72 48.346 70.6231 48.3465 70.5262C48.3473 70.3867 48.3492 70.2473 48.3512 70.1079C48.3512 70.0647 48.3513 70.0214 48.3513 69.9769C48.3559 69.7356 48.3694 69.5897 48.5312 69.4063C48.7371 69.2107 48.9651 69.2138 49.2344 69.25Z" fill="#4294FF"/>
<path d="M71.2344 69.25C71.4162 69.3345 71.5462 69.4546 71.625 69.6407C71.6486 69.7963 71.6486 69.9507 71.6488 70.1079C71.6494 70.1526 71.6501 70.1974 71.6507 70.2435C71.6526 70.386 71.6535 70.5284 71.6543 70.6709C71.6554 70.7677 71.6565 70.8645 71.6578 70.9613C71.6607 71.1982 71.6627 71.435 71.664 71.6719C71.6998 71.6445 71.6998 71.6445 71.7362 71.6165C72.1153 71.3258 72.4949 71.0361 72.8823 70.7564C72.912 70.7349 72.9416 70.7135 72.9722 70.6914C73.2334 70.5038 73.4063 70.4695 73.7344 70.5C73.9252 70.5886 74.0364 70.6998 74.125 70.8907C74.1534 71.1018 74.1644 71.2827 74.0653 71.4754C73.9435 71.6247 73.8074 71.7325 73.6538 71.8477C73.6228 71.8714 73.5918 71.895 73.5598 71.9194C73.3123 72.1077 73.062 72.2923 72.8108 72.4757C72.638 72.6021 72.4668 72.7303 72.297 72.8609C72.2594 72.8897 72.2219 72.9186 72.1832 72.9483C72.11 73.0048 72.0369 73.0613 71.9639 73.1181C71.931 73.1435 71.898 73.1689 71.8641 73.195C71.8348 73.2177 71.8056 73.2404 71.7755 73.2638C71.7031 73.3125 71.7031 73.3125 71.625 73.3125C71.6379 74.4727 71.6508 75.6328 71.664 76.8282C72.025 76.609 72.3859 76.3899 72.7578 76.1641C72.9513 76.0488 73.1449 75.9335 73.339 75.8191C73.4162 75.7734 73.4933 75.7274 73.5703 75.6813C73.7859 75.5523 74.001 75.4239 74.2229 75.3061C74.2675 75.2814 74.2675 75.2814 74.313 75.2563C74.3637 75.2284 74.4151 75.2017 74.4673 75.177C74.5454 75.1372 74.5454 75.1372 74.6328 75.0313C74.6603 74.9258 74.6603 74.9258 74.6747 74.8046C74.681 74.759 74.6872 74.7134 74.6936 74.6664C74.7213 74.4377 74.7444 74.2087 74.7657 73.9793C74.773 73.9033 74.7804 73.8272 74.7878 73.7511C74.8057 73.5662 74.8234 73.3812 74.8406 73.1962C74.855 73.0413 74.8702 72.8866 74.8853 72.7318C74.8896 72.6844 74.8939 72.637 74.8983 72.5881C74.9554 72.0152 74.9554 72.0152 75.1821 71.8135C75.3494 71.6822 75.5168 71.6522 75.7265 71.6719C75.9371 71.734 76.0739 71.839 76.1953 72.0235C76.3782 72.3893 76.2007 73.0734 76.1562 73.4663C76.1487 73.5352 76.1411 73.604 76.1336 73.6729C76.1155 73.8392 76.0969 74.0056 76.0781 74.1719C76.249 74.0705 76.4198 73.9691 76.5907 73.8677C76.6487 73.8333 76.7066 73.7989 76.7646 73.7645C76.8209 73.7311 76.8772 73.6977 76.9335 73.6642C76.9886 73.6315 77.0438 73.5988 77.099 73.5661C77.2817 73.4576 77.4636 73.348 77.6447 73.2369C77.8019 73.1487 77.9319 73.1417 78.1094 73.1563C78.3153 73.227 78.4588 73.3217 78.5781 73.5078C78.6449 73.7082 78.6424 73.9009 78.5757 74.1011C78.3553 74.421 77.9918 74.5913 77.6626 74.7798C77.5868 74.8235 77.511 74.8673 77.4353 74.9112C77.3666 74.9509 77.2977 74.9905 77.2289 75.03C77.0774 75.1179 76.9293 75.2111 76.7812 75.3047C76.822 75.3216 76.8627 75.3386 76.9047 75.356C77.0574 75.4195 77.2101 75.483 77.3627 75.5465C77.4285 75.5738 77.4943 75.6012 77.5601 75.6285C77.6553 75.668 77.7504 75.7076 77.8455 75.7472C77.8745 75.7592 77.9034 75.7712 77.9332 75.7836C78.0181 75.819 78.1028 75.8547 78.1875 75.8907C78.219 75.904 78.2505 75.9173 78.2829 75.931C78.3141 75.9445 78.3453 75.9579 78.3775 75.9718C78.4057 75.9839 78.4339 75.996 78.463 76.0085C78.6113 76.0834 78.7031 76.1886 78.7856 76.3301C78.8431 76.56 78.8493 76.7511 78.727 76.96C78.6005 77.1377 78.4911 77.2023 78.2778 77.253C77.962 77.2825 77.6398 77.1143 77.355 76.9936C77.305 76.9727 77.305 76.9727 77.254 76.9514C77.1484 76.9072 77.0429 76.8628 76.9375 76.8184C76.6977 76.7177 76.4579 76.6173 76.2175 76.5181C76.1503 76.4903 76.0831 76.4624 76.0159 76.4344C75.9196 76.3944 75.8231 76.3551 75.7265 76.3161C75.6834 76.298 75.6834 76.298 75.6395 76.2795C75.4829 76.2172 75.3787 76.1818 75.2187 76.2422C75.1314 76.2875 75.0485 76.334 74.9647 76.385C74.9402 76.3997 74.9156 76.4143 74.8904 76.4293C74.8101 76.4774 74.73 76.5258 74.6499 76.5742C74.594 76.6078 74.538 76.6413 74.4821 76.6748C74.3107 76.7776 74.1397 76.881 73.9687 76.9844C73.9162 77.0161 73.8637 77.0478 73.8112 77.0795C73.5805 77.2189 73.3501 77.3586 73.1199 77.4988C73.08 77.5231 73.0401 77.5474 72.999 77.5724C72.9103 77.6268 72.8219 77.6816 72.7337 77.7369C72.7105 77.7514 72.6872 77.7659 72.6633 77.7809C72.5982 77.8216 72.5332 77.8625 72.4683 77.9033C72.3672 77.961 72.3672 77.961 72.289 77.961C72.289 77.9867 72.289 78.0125 72.289 78.0391C72.316 78.049 72.343 78.0588 72.3708 78.069C72.5 78.1239 72.6183 78.1918 72.7384 78.2639C72.7629 78.2784 72.7874 78.293 72.8127 78.308C72.8929 78.3558 72.9731 78.4037 73.0532 78.4517C73.1091 78.485 73.165 78.5183 73.2209 78.5517C73.6358 78.7992 74.0491 79.0491 74.4614 79.3009C74.5434 79.351 74.6256 79.4008 74.7079 79.4505C74.7909 79.5008 74.8732 79.5522 74.955 79.6044C75.0163 79.6426 75.0163 79.6426 75.079 79.6815C75.1152 79.7046 75.1515 79.7277 75.1889 79.7515C75.3846 79.8338 75.5355 79.7586 75.7236 79.6854C75.7995 79.6543 75.8752 79.6229 75.9508 79.5914C75.9915 79.5746 76.0322 79.5579 76.0741 79.5407C76.2041 79.4871 76.334 79.4333 76.4638 79.3794C77.4506 78.9714 77.4506 78.9714 77.8066 78.8345C77.8534 78.8165 77.9003 78.7984 77.9485 78.7798C78.1833 78.7073 78.3372 78.7382 78.5512 78.8472C78.6988 78.9741 78.7964 79.0736 78.8288 79.2715C78.8403 79.4953 78.8086 79.6556 78.6904 79.8456C78.4957 80.0277 78.2053 80.1147 77.9607 80.2124C77.9136 80.2314 77.9136 80.2314 77.8654 80.2509C77.7661 80.2909 77.6667 80.3308 77.5674 80.3706C77.4672 80.4109 77.367 80.4513 77.2668 80.4917C77.2047 80.5167 77.1426 80.5416 77.0805 80.5665C76.9291 80.6269 76.9291 80.6269 76.7812 80.6953C76.817 80.7164 76.8529 80.7374 76.8898 80.7591C77.0246 80.8384 77.1592 80.9179 77.2938 80.9974C77.3518 81.0316 77.4097 81.0657 77.4677 81.0998C78.5143 81.7148 78.5143 81.7148 78.6172 82.0235C78.6473 82.2787 78.6148 82.4419 78.4609 82.6485C78.2924 82.7792 78.1391 82.8636 77.9212 82.8595C77.5298 82.7875 77.1403 82.4778 76.8032 82.27C76.7543 82.2401 76.7054 82.2102 76.6565 82.1802C76.5671 82.1256 76.4778 82.0708 76.3886 82.0159C76.2854 81.9527 76.1819 81.8902 76.0781 81.8282C76.0828 81.87 76.0876 81.9119 76.0924 81.9551C76.1102 82.1134 76.1276 82.2718 76.1449 82.4302C76.1523 82.4982 76.1599 82.5662 76.1676 82.6341C76.3044 83.8447 76.3044 83.8447 76.0781 84.1328C75.8971 84.2886 75.7271 84.3376 75.4922 84.3282C75.2988 84.2757 75.1572 84.1894 75.0355 84.0311C74.9723 83.9155 74.9587 83.819 74.9422 83.6884C74.936 83.6397 74.9298 83.591 74.9234 83.5409C74.8967 83.307 74.8724 83.073 74.8501 82.8386C74.8426 82.7622 74.8351 82.6858 74.8276 82.6094C74.8093 82.4237 74.7913 82.2381 74.7736 82.0524C74.7635 81.9471 74.7533 81.8418 74.7429 81.7366C74.7331 81.6381 74.7236 81.5396 74.7144 81.441C74.7078 81.3745 74.7078 81.3745 74.701 81.3066C74.6954 81.2482 74.6954 81.2482 74.6896 81.1886C74.6626 81.0324 74.628 80.9541 74.4982 80.8616C74.4581 80.8388 74.4181 80.816 74.3767 80.7925C74.3437 80.7735 74.3437 80.7735 74.3099 80.754C74.2621 80.7265 74.2142 80.6992 74.1662 80.6721C74.0371 80.599 73.9088 80.5246 73.7803 80.4504C73.7538 80.4352 73.7273 80.4199 73.7 80.4042C73.4265 80.2466 73.1566 80.0834 72.8872 79.919C72.8245 79.8808 72.8245 79.8808 72.7605 79.8418C72.6293 79.7618 72.4982 79.6817 72.3672 79.6016C72.1351 79.4598 71.9031 79.318 71.664 79.1719C71.6511 80.3321 71.6383 81.4922 71.625 82.6875C71.6765 82.7133 71.7281 82.7391 71.7812 82.7657C71.8316 82.7996 71.8811 82.8348 71.93 82.8709C71.9731 82.9027 71.9731 82.9027 72.0172 82.9352C72.0635 82.9697 72.0635 82.9697 72.1108 83.0049C72.1433 83.029 72.1758 83.053 72.2093 83.0778C72.4894 83.2859 72.7674 83.4968 73.0443 83.7092C73.2047 83.8321 73.3655 83.9541 73.529 84.073C73.5576 84.094 73.5862 84.1149 73.6157 84.1365C73.6684 84.1749 73.7213 84.2131 73.7745 84.2508C73.9599 84.3864 74.1039 84.5217 74.1457 84.7578C74.1432 84.9966 74.1412 85.1623 73.9687 85.3438C73.7913 85.5123 73.6279 85.5202 73.3942 85.5284C73.0613 85.4549 72.7735 85.1624 72.5088 84.958C72.2303 84.7436 71.9492 84.5336 71.664 84.3282C71.6639 84.3531 71.6638 84.378 71.6636 84.4037C71.662 84.6635 71.6593 84.9233 71.6559 85.1831C71.6548 85.28 71.654 85.377 71.6535 85.4739C71.6526 85.6133 71.6508 85.7527 71.6488 85.8922C71.6487 85.9354 71.6487 85.9786 71.6486 86.0232C71.6441 86.2645 71.6305 86.4104 71.4687 86.5938C71.3195 86.7355 71.1999 86.7621 71 86.7696C70.8001 86.7621 70.6804 86.7355 70.5312 86.5938C70.3403 86.3774 70.3515 86.1723 70.3512 85.8922C70.3505 85.8474 70.3499 85.8027 70.3492 85.7566C70.3473 85.6141 70.3465 85.4716 70.3457 85.3291C70.3446 85.2323 70.3434 85.1355 70.3422 85.0388C70.3393 84.8019 70.3373 84.565 70.3359 84.3282C70.3121 84.3464 70.2883 84.3647 70.2637 84.3835C69.8846 84.6743 69.505 84.964 69.1177 85.2437C69.088 85.2651 69.0583 85.2865 69.0278 85.3086C68.7665 85.4963 68.5936 85.5305 68.2656 85.5C68.0748 85.4114 67.9636 85.3002 67.875 85.1094C67.8465 84.8982 67.8355 84.7173 67.9346 84.5247C68.0565 84.3753 68.1925 84.2675 68.3462 84.1524C68.3772 84.1287 68.4082 84.105 68.4401 84.0806C68.6877 83.8924 68.938 83.7078 69.1891 83.5244C69.362 83.3979 69.5332 83.2697 69.703 83.1392C69.7405 83.1103 69.7781 83.0815 69.8168 83.0517C69.89 82.9953 69.9631 82.9387 70.0361 82.8819C70.069 82.8566 70.1019 82.8312 70.1359 82.805C70.1651 82.7823 70.1943 82.7596 70.2245 82.7362C70.2969 82.6875 70.2969 82.6875 70.375 82.6875C70.3621 81.5274 70.3492 80.3672 70.3359 79.1719C69.975 79.391 69.614 79.6102 69.2422 79.836C69.0486 79.9513 68.8551 80.0665 68.661 80.1809C68.5837 80.2266 68.5066 80.2726 68.4296 80.3188C68.2141 80.4477 67.999 80.5762 67.777 80.694C67.7473 80.7104 67.7176 80.7269 67.687 80.7438C67.6363 80.7717 67.5849 80.7983 67.5326 80.823C67.4545 80.8628 67.4545 80.8628 67.3672 80.9688C67.3396 81.0742 67.3396 81.0742 67.3253 81.1955C67.319 81.2411 67.3127 81.2867 67.3063 81.3337C67.2787 81.5624 67.2556 81.7913 67.2343 82.0207C67.2269 82.0968 67.2195 82.1729 67.2122 82.2489C67.1942 82.4339 67.1766 82.6189 67.1593 82.8039C67.1449 82.9587 67.1298 83.1135 67.1146 83.2683C67.1104 83.3157 67.1061 83.3631 67.1017 83.4119C67.0671 83.7591 67.0229 84.0161 66.7422 84.25C66.5812 84.3414 66.4157 84.3506 66.2344 84.3282C66.0127 84.2499 65.8708 84.1089 65.7656 83.8985C65.7379 83.4408 65.7923 82.9877 65.8437 82.5337C65.8513 82.4649 65.8588 82.396 65.8663 82.3272C65.8845 82.1608 65.9031 81.9945 65.9219 81.8282C65.751 81.9295 65.5801 82.031 65.4093 82.1324C65.3513 82.1668 65.2933 82.2012 65.2354 82.2356C65.1791 82.269 65.1228 82.3024 65.0665 82.3358C65.0113 82.3685 64.9562 82.4013 64.901 82.434C64.7183 82.5424 64.5364 82.6521 64.3553 82.7632C64.1981 82.8513 64.068 82.8583 63.8906 82.8438C63.6846 82.7731 63.5412 82.6784 63.4219 82.4922C63.3551 82.2919 63.3575 82.0992 63.4243 81.899C63.6447 81.5791 64.0082 81.4087 64.3374 81.2202C64.4375 81.1625 64.5375 81.1046 64.6375 81.0467C64.6612 81.0331 64.6849 81.0194 64.7094 81.0053C64.8817 80.9057 65.051 80.8024 65.2187 80.6953C65.1786 80.6788 65.1384 80.6623 65.0971 80.6453C64.9459 80.583 64.7947 80.5205 64.6437 80.4579C64.5787 80.431 64.5137 80.4042 64.4487 80.3774C63.3566 79.928 63.3566 79.928 63.2363 79.7261C63.1611 79.5237 63.1389 79.3251 63.2247 79.1234C63.3162 78.9654 63.4043 78.85 63.5781 78.7813C63.9596 78.6908 64.2964 78.8587 64.645 79.0065C64.6783 79.0204 64.7117 79.0343 64.746 79.0487C64.8516 79.0928 64.957 79.1372 65.0625 79.1817C65.3022 79.2824 65.5421 79.3827 65.7824 79.482C65.8497 79.5098 65.9169 79.5377 65.9841 79.5657C66.0803 79.6057 66.1768 79.6449 66.2734 79.684C66.3021 79.696 66.3309 79.7081 66.3605 79.7205C66.517 79.7828 66.6212 79.8183 66.7812 79.7578C66.8686 79.7125 66.9515 79.6661 67.0353 79.615C67.0598 79.6004 67.0843 79.5858 67.1096 79.5707C67.1899 79.5227 67.27 79.4743 67.3501 79.4258C67.406 79.3923 67.4619 79.3587 67.5179 79.3252C67.6893 79.2224 67.8603 79.1191 68.0312 79.0157C68.0837 78.9839 68.1362 78.9522 68.1887 78.9205C68.4194 78.7812 68.6499 78.6415 68.8801 78.5013C68.92 78.477 68.9599 78.4527 69.001 78.4277C69.0897 78.3732 69.1781 78.3185 69.2662 78.2631C69.2895 78.2486 69.3127 78.2341 69.3367 78.2191C69.4018 78.1785 69.4667 78.1376 69.5317 78.0967C69.6328 78.0391 69.6328 78.0391 69.7109 78.0391C69.7109 78.0133 69.7109 77.9875 69.7109 77.961C69.6839 77.9511 69.6569 77.9412 69.6291 77.9311C69.4999 77.8762 69.3816 77.8083 69.2615 77.7362C69.237 77.7216 69.2125 77.7071 69.1873 77.6921C69.107 77.6443 69.0269 77.5963 68.9468 77.5484C68.8908 77.515 68.8349 77.4817 68.779 77.4484C68.3642 77.2009 67.9508 76.9509 67.5386 76.6991C67.4565 76.6491 67.3743 76.5992 67.292 76.5496C67.2091 76.4992 67.1268 76.4478 67.045 76.3956C67.0041 76.3702 66.9631 76.3447 66.921 76.3185C66.8847 76.2954 66.8484 76.2723 66.811 76.2485C66.5844 76.1533 66.3766 76.2734 66.1624 76.3607C66.1232 76.377 66.084 76.3933 66.0436 76.4101C66.0026 76.4269 65.9615 76.4437 65.9192 76.461C65.7882 76.5148 65.6573 76.5689 65.5263 76.6231C65.4392 76.6589 65.352 76.6947 65.2648 76.7305C65.1031 76.7969 64.9414 76.8635 64.7799 76.9302C64.7248 76.9529 64.7248 76.9529 64.6686 76.9761C64.5882 77.0095 64.508 77.0433 64.4279 77.0774C64.3865 77.0949 64.345 77.1125 64.3023 77.1306C64.2462 77.1546 64.2462 77.1546 64.1889 77.1791C63.9466 77.2725 63.7452 77.2769 63.5 77.1797C63.3353 77.0749 63.2534 76.973 63.1875 76.7891C63.1567 76.5868 63.1684 76.3825 63.2745 76.2038C63.5614 75.8773 64.192 75.7217 64.5888 75.5611C64.6503 75.536 64.7118 75.5109 64.7733 75.4858C64.9217 75.4252 65.0702 75.3649 65.2187 75.3047C65.1829 75.2837 65.1471 75.2626 65.1102 75.2409C64.9754 75.1617 64.8407 75.0822 64.7061 75.0026C64.6482 74.9685 64.5902 74.9343 64.5323 74.9003C63.4857 74.2852 63.4857 74.2852 63.3828 73.9766C63.3526 73.7213 63.3851 73.5582 63.539 73.3516C63.7076 73.2209 63.8608 73.1364 64.0788 73.1406C64.4702 73.2126 64.8597 73.5223 65.1968 73.73C65.2456 73.76 65.2946 73.7899 65.3435 73.8198C65.4328 73.8745 65.5221 73.9293 65.6114 73.9842C65.7145 74.0474 65.818 74.1099 65.9219 74.1719C65.9171 74.13 65.9124 74.0881 65.9075 74.0449C65.8897 73.8866 65.8723 73.7283 65.8551 73.5699C65.8476 73.5019 65.8401 73.4339 65.8324 73.3659C65.6966 72.1648 65.6966 72.1648 65.8828 71.9063C66.0317 71.7527 66.1628 71.678 66.3784 71.6597C66.6145 71.6636 66.7871 71.7559 66.9521 71.9209C67.1187 72.2926 67.1116 72.759 67.1499 73.1615C67.1574 73.2379 67.1649 73.3143 67.1724 73.3907C67.1906 73.5763 67.2086 73.762 67.2264 73.9477C67.2364 74.053 67.2467 74.1582 67.2571 74.2635C67.2668 74.362 67.2763 74.4605 67.2855 74.559C67.29 74.6034 67.2944 74.6478 67.299 74.6935C67.3027 74.7324 67.3065 74.7714 67.3103 74.8115C67.3374 74.9676 67.372 75.0459 67.5017 75.1385C67.5418 75.1613 67.5819 75.1841 67.6232 75.2075C67.6453 75.2202 67.6673 75.2329 67.6901 75.246C67.7379 75.2735 67.7858 75.3008 67.8337 75.328C67.9629 75.401 68.0912 75.4754 68.2197 75.5496C68.2594 75.5725 68.2594 75.5725 68.3 75.5958C68.5734 75.7534 68.8433 75.9167 69.1128 76.0811C69.1755 76.1193 69.1755 76.1193 69.2395 76.1582C69.3706 76.2382 69.5017 76.3183 69.6328 76.3985C69.8648 76.5403 70.0969 76.6821 70.3359 76.8282C70.3553 75.0879 70.3553 75.0879 70.375 73.3125C70.3234 73.2867 70.2719 73.261 70.2187 73.2344C70.1684 73.2004 70.1188 73.1652 70.07 73.1291C70.0412 73.1079 70.0124 73.0867 69.9828 73.0649C69.9519 73.0419 69.921 73.0188 69.8891 72.9951C69.8566 72.9711 69.8241 72.947 69.7907 72.9222C69.5105 72.7142 69.2326 72.5032 68.9557 72.2909C68.7953 72.1679 68.6344 72.0459 68.471 71.927C68.4424 71.9061 68.4138 71.8851 68.3843 71.8636C68.3316 71.8251 68.2786 71.787 68.2254 71.7492C68.0401 71.6136 67.896 71.4784 67.8542 71.2422C67.8567 71.0035 67.8588 70.8378 68.0312 70.6563C68.2087 70.4877 68.372 70.4798 68.6057 70.4716C68.9387 70.5451 69.2265 70.8377 69.4912 71.042C69.7697 71.2565 70.0507 71.4665 70.3359 71.6719C70.3361 71.647 70.3362 71.622 70.3363 71.5964C70.338 71.3365 70.3407 71.0767 70.344 70.8169C70.3451 70.72 70.346 70.6231 70.3465 70.5262C70.3473 70.3867 70.3492 70.2473 70.3512 70.1079C70.3512 70.0647 70.3513 70.0214 70.3513 69.9769C70.3559 69.7356 70.3694 69.5897 70.5312 69.4063C70.7371 69.2107 70.9651 69.2138 71.2344 69.25Z" fill="#4294FF"/>
<defs>
<linearGradient id="paint0_linear_220_29" x1="97.2556" y1="1.42441" x2="97.2556" y2="52.7028" gradientUnits="userSpaceOnUse">
<stop stop-color="#AEAEAE"/>
<stop offset="1" stop-color="white" stop-opacity="0.5"/>
</linearGradient>
<linearGradient id="paint1_linear_220_29" x1="53.854" y1="2.0052" x2="53.854" y2="74.192" gradientUnits="userSpaceOnUse">
<stop stop-color="#AEAEAE"/>
<stop offset="1" stop-color="white" stop-opacity="0.5"/>
</linearGradient>
</defs>
</svg>
