<svg width="129" height="154" viewBox="0 0 129 154" fill="none" xmlns="http://www.w3.org/2000/svg">
<mask id="path-1-inside-1_220_29" fill="white">
<path d="M74.074 9.68537C76.3402 8.51976 78.6658 7.59718 81.0201 6.90776C84.4026 5.91728 86.6281 10.0171 85.1536 13.2183C81.2547 21.6834 81.1124 31.6805 85.6394 40.4815C91.9117 52.6756 105.264 58.913 118.383 56.9476C121.863 56.4263 125.153 59.7012 123.251 62.6611C119.683 68.2117 114.622 72.9479 108.29 76.2051C89.4715 85.8847 66.5566 78.8412 57.1081 60.4723C47.6596 42.1033 55.2557 19.3649 74.074 9.68537Z"/>
</mask>
<path d="M74.074 9.68537C76.3402 8.51976 78.6658 7.59718 81.0201 6.90776C84.4026 5.91728 86.6281 10.0171 85.1536 13.2183C81.2547 21.6834 81.1124 31.6805 85.6394 40.4815C91.9117 52.6756 105.264 58.913 118.383 56.9476C121.863 56.4263 125.153 59.7012 123.251 62.6611C119.683 68.2117 114.622 72.9479 108.29 76.2051C89.4715 85.8847 66.5566 78.8412 57.1081 60.4723C47.6596 42.1033 55.2557 19.3649 74.074 9.68537Z" fill="url(#paint0_radial_220_29)"/>
<path d="M74.074 9.68537L73.1592 7.90684L73.1592 7.90686L74.074 9.68537ZM85.6394 40.4815L83.8609 41.3963V41.3963L85.6394 40.4815ZM108.29 76.2051L109.205 77.9836L109.205 77.9836L108.29 76.2051ZM57.1081 60.4723L55.3296 61.3871L55.3296 61.3871L57.1081 60.4723ZM74.074 9.68537L74.9888 11.4639C77.1415 10.3566 79.349 9.4811 81.5822 8.82716L81.0201 6.90776L80.4581 4.98836C77.9826 5.71325 75.5388 6.68289 73.1592 7.90684L74.074 9.68537ZM85.1536 13.2183L83.3371 12.3816C79.1965 21.3712 79.0358 32.0158 83.8609 41.3963L85.6394 40.4815L87.4179 39.5667C83.189 31.3452 83.3128 21.9956 86.9702 14.055L85.1536 13.2183ZM85.6394 40.4815L83.8609 41.3963C90.5489 54.3987 104.764 61.0101 118.679 58.9255L118.383 56.9476L118.087 54.9697C105.764 56.8158 93.2745 50.9526 87.4179 39.5667L85.6394 40.4815ZM123.251 62.6611L121.568 61.5796C118.186 66.8407 113.388 71.3336 107.375 74.4266L108.29 76.2051L109.205 77.9836C115.856 74.5622 121.179 69.5827 124.933 63.7426L123.251 62.6611ZM108.29 76.2051L107.375 74.4266C89.4981 83.6219 67.8092 76.9038 58.8866 59.5575L57.1081 60.4723L55.3296 61.3871C65.3041 80.7786 89.4449 88.1474 109.205 77.9836L108.29 76.2051ZM57.1081 60.4723L58.8866 59.5575C49.9641 42.211 57.112 20.6592 74.9888 11.4639L74.074 9.68537L73.1592 7.90686C53.3994 18.0707 45.3551 41.9956 55.3296 61.3871L57.1081 60.4723ZM118.383 56.9476L118.679 58.9255C119.737 58.767 120.77 59.1988 121.354 59.8431C121.882 60.4241 121.943 60.9963 121.568 61.5796L123.251 62.6611L124.933 63.7426C126.461 61.3659 125.828 58.8207 124.316 57.1547C122.861 55.5519 120.508 54.6069 118.087 54.9697L118.383 56.9476ZM81.0201 6.90776L81.5822 8.82716C82.2472 8.63242 82.7857 8.85302 83.2015 9.53371C83.6609 10.2859 83.7858 11.4074 83.3371 12.3816L85.1536 13.2183L86.9702 14.055C87.996 11.828 87.7453 9.29897 86.615 7.44859C85.441 5.52668 83.1755 4.19262 80.4581 4.98836L81.0201 6.90776Z" fill="url(#paint1_linear_220_29)" mask="url(#path-1-inside-1_220_29)"/>
<path d="M93.7052 44C104.426 44 113.117 52.6907 113.118 63.4112C113.118 64.3091 113.055 65.1928 112.937 66.0587H116.205V66.0601C116.254 66.0594 116.304 66.0587 116.353 66.0587C123.338 66.0587 129 71.7209 129 78.7052C129 85.6901 123.338 91.3524 116.353 91.3524C116.304 91.3524 116.254 91.3509 116.205 91.3502V91.3524H71.794L71.7947 91.3502C71.7456 91.3509 71.6963 91.3524 71.647 91.3524C64.6623 91.3524 59 85.6901 59 78.7052C59.0001 71.7209 64.6623 66.0587 71.647 66.0587C72.6353 66.0587 73.5973 66.1723 74.5203 66.3869C74.3712 65.4165 74.2942 64.4227 74.2942 63.4112C74.2943 52.6908 82.9852 44.0001 93.7052 44Z" fill="url(#paint2_linear_220_29)"/>
<path d="M48.856 44C63.948 44 76.183 56.2343 76.184 71.326C76.184 72.59 76.096 73.834 75.93 75.053H80.53V75.055C80.599 75.054 80.669 75.053 80.738 75.053C90.571 75.053 98.542 83.024 98.542 92.856C98.542 102.689 90.571 110.66 80.738 110.66C80.669 110.66 80.599 110.658 80.53 110.657V110.66H18.0107L18.0117 110.657C17.9425 110.658 17.8731 110.66 17.8037 110.66C7.971 110.66 0 102.689 0 92.856C0.0002 83.024 7.9711 75.053 17.8037 75.053C19.195 75.053 20.5492 75.213 21.8486 75.515C21.6387 74.149 21.5303 72.75 21.5303 71.326C21.5305 56.2344 33.765 44.0002 48.856 44Z" fill="url(#paint3_linear_220_29)"/>
<path d="M27.2344 113.25C27.4162 113.334 27.5462 113.455 27.625 113.641C27.6486 113.796 27.6486 113.951 27.6488 114.108C27.6494 114.153 27.6501 114.197 27.6507 114.243C27.6526 114.386 27.6535 114.528 27.6543 114.671C27.6554 114.768 27.6565 114.864 27.6578 114.961C27.6607 115.198 27.6627 115.435 27.664 115.672C27.6998 115.644 27.6998 115.644 27.7362 115.616C28.1153 115.326 28.4949 115.036 28.8823 114.756C28.912 114.735 28.9416 114.713 28.9722 114.691C29.2334 114.504 29.4063 114.47 29.7344 114.5C29.9252 114.589 30.0364 114.7 30.125 114.891C30.1534 115.102 30.1644 115.283 30.0653 115.475C29.9435 115.625 29.8074 115.732 29.6538 115.848C29.6228 115.871 29.5918 115.895 29.5598 115.919C29.3123 116.108 29.062 116.292 28.8108 116.476C28.638 116.602 28.4668 116.73 28.297 116.861C28.2594 116.89 28.2219 116.919 28.1832 116.948C28.11 117.005 28.0369 117.061 27.9639 117.118C27.931 117.143 27.898 117.169 27.8641 117.195C27.8348 117.218 27.8056 117.24 27.7755 117.264C27.7031 117.312 27.7031 117.312 27.625 117.312C27.6379 118.473 27.6508 119.633 27.664 120.828C28.025 120.609 28.3859 120.39 28.7578 120.164C28.9513 120.049 29.1449 119.934 29.339 119.819C29.4162 119.773 29.4933 119.727 29.5703 119.681C29.7859 119.552 30.001 119.424 30.2229 119.306C30.2675 119.281 30.2675 119.281 30.313 119.256C30.3637 119.228 30.4151 119.202 30.4673 119.177C30.5454 119.137 30.5454 119.137 30.6328 119.031C30.6603 118.926 30.6603 118.926 30.6747 118.805C30.681 118.759 30.6872 118.713 30.6936 118.666C30.7213 118.438 30.7444 118.209 30.7657 117.979C30.773 117.903 30.7804 117.827 30.7878 117.751C30.8057 117.566 30.8234 117.381 30.8406 117.196C30.855 117.041 30.8702 116.887 30.8853 116.732C30.8896 116.684 30.8939 116.637 30.8983 116.588C30.9554 116.015 30.9554 116.015 31.1821 115.813C31.3494 115.682 31.5168 115.652 31.7265 115.672C31.9371 115.734 32.0739 115.839 32.1953 116.023C32.3782 116.389 32.2007 117.073 32.1562 117.466C32.1487 117.535 32.1411 117.604 32.1336 117.673C32.1155 117.839 32.0969 118.006 32.0781 118.172C32.249 118.07 32.4198 117.969 32.5907 117.868C32.6487 117.833 32.7066 117.799 32.7646 117.764C32.8209 117.731 32.8772 117.698 32.9335 117.664C32.9886 117.631 33.0438 117.599 33.099 117.566C33.2817 117.458 33.4636 117.348 33.6447 117.237C33.8019 117.149 33.9319 117.142 34.1094 117.156C34.3153 117.227 34.4588 117.322 34.5781 117.508C34.6449 117.708 34.6424 117.901 34.5757 118.101C34.3553 118.421 33.9918 118.591 33.6626 118.78C33.5868 118.823 33.511 118.867 33.4353 118.911C33.3666 118.951 33.2977 118.99 33.2289 119.03C33.0774 119.118 32.9293 119.211 32.7812 119.305C32.822 119.322 32.8627 119.339 32.9047 119.356C33.0574 119.419 33.2101 119.483 33.3627 119.546C33.4285 119.574 33.4943 119.601 33.5601 119.628C33.6553 119.668 33.7504 119.708 33.8455 119.747C33.8745 119.759 33.9034 119.771 33.9332 119.784C34.0181 119.819 34.1028 119.855 34.1875 119.891C34.219 119.904 34.2505 119.917 34.2829 119.931C34.3141 119.944 34.3453 119.958 34.3775 119.972C34.4057 119.984 34.4339 119.996 34.463 120.008C34.6113 120.083 34.7031 120.189 34.7856 120.33C34.8431 120.56 34.8493 120.751 34.727 120.96C34.6005 121.138 34.4911 121.202 34.2778 121.253C33.962 121.282 33.6398 121.114 33.355 120.994C33.305 120.973 33.305 120.973 33.254 120.951C33.1484 120.907 33.0429 120.863 32.9375 120.818C32.6977 120.718 32.4579 120.617 32.2175 120.518C32.1503 120.49 32.0831 120.462 32.0159 120.434C31.9196 120.394 31.8231 120.355 31.7265 120.316C31.6834 120.298 31.6834 120.298 31.6395 120.28C31.4829 120.217 31.3787 120.182 31.2187 120.242C31.1314 120.288 31.0485 120.334 30.9647 120.385C30.9402 120.4 30.9156 120.414 30.8904 120.429C30.8101 120.477 30.73 120.526 30.6499 120.574C30.594 120.608 30.538 120.641 30.4821 120.675C30.3107 120.778 30.1397 120.881 29.9687 120.984C29.9162 121.016 29.8637 121.048 29.8112 121.079C29.5805 121.219 29.3501 121.359 29.1199 121.499C29.08 121.523 29.0401 121.547 28.999 121.572C28.9103 121.627 28.8219 121.682 28.7337 121.737C28.7105 121.751 28.6872 121.766 28.6633 121.781C28.5982 121.822 28.5332 121.862 28.4683 121.903C28.3672 121.961 28.3672 121.961 28.289 121.961C28.289 121.987 28.289 122.012 28.289 122.039C28.316 122.049 28.343 122.059 28.3708 122.069C28.5 122.124 28.6183 122.192 28.7384 122.264C28.7629 122.278 28.7874 122.293 28.8127 122.308C28.8929 122.356 28.9731 122.404 29.0532 122.452C29.1091 122.485 29.165 122.518 29.2209 122.552C29.6358 122.799 30.0491 123.049 30.4614 123.301C30.5434 123.351 30.6256 123.401 30.7079 123.45C30.7909 123.501 30.8732 123.552 30.955 123.604C31.0163 123.643 31.0163 123.643 31.079 123.682C31.1152 123.705 31.1515 123.728 31.1889 123.752C31.3846 123.834 31.5355 123.759 31.7236 123.685C31.7995 123.654 31.8752 123.623 31.9508 123.591C31.9915 123.575 32.0322 123.558 32.0741 123.541C32.2041 123.487 32.334 123.433 32.4638 123.379C33.4506 122.971 33.4506 122.971 33.8066 122.834C33.8534 122.816 33.9003 122.798 33.9485 122.78C34.1833 122.707 34.3372 122.738 34.5512 122.847C34.6988 122.974 34.7964 123.074 34.8288 123.272C34.8403 123.495 34.8086 123.656 34.6904 123.846C34.4957 124.028 34.2053 124.115 33.9607 124.212C33.9136 124.231 33.9136 124.231 33.8654 124.251C33.7661 124.291 33.6667 124.331 33.5674 124.371C33.4672 124.411 33.367 124.451 33.2668 124.492C33.2047 124.517 33.1426 124.542 33.0805 124.566C32.9291 124.627 32.9291 124.627 32.7812 124.695C32.817 124.716 32.8529 124.737 32.8898 124.759C33.0246 124.838 33.1592 124.918 33.2938 124.997C33.3518 125.032 33.4097 125.066 33.4677 125.1C34.5143 125.715 34.5143 125.715 34.6172 126.023C34.6473 126.279 34.6148 126.442 34.4609 126.648C34.2924 126.779 34.1391 126.864 33.9212 126.859C33.5298 126.787 33.1403 126.478 32.8032 126.27C32.7543 126.24 32.7054 126.21 32.6565 126.18C32.5671 126.126 32.4778 126.071 32.3886 126.016C32.2854 125.953 32.1819 125.89 32.0781 125.828C32.0828 125.87 32.0876 125.912 32.0924 125.955C32.1102 126.113 32.1276 126.272 32.1449 126.43C32.1523 126.498 32.1599 126.566 32.1676 126.634C32.3044 127.845 32.3044 127.845 32.0781 128.133C31.8971 128.289 31.7271 128.338 31.4922 128.328C31.2988 128.276 31.1572 128.189 31.0355 128.031C30.9723 127.915 30.9587 127.819 30.9422 127.688C30.936 127.64 30.9298 127.591 30.9234 127.541C30.8967 127.307 30.8724 127.073 30.8501 126.839C30.8426 126.762 30.8351 126.686 30.8276 126.609C30.8093 126.424 30.7913 126.238 30.7736 126.052C30.7635 125.947 30.7533 125.842 30.7429 125.737C30.7331 125.638 30.7236 125.54 30.7144 125.441C30.7078 125.374 30.7078 125.374 30.701 125.307C30.6954 125.248 30.6954 125.248 30.6896 125.189C30.6626 125.032 30.628 124.954 30.4982 124.862C30.4581 124.839 30.4181 124.816 30.3767 124.793C30.3437 124.773 30.3437 124.773 30.3099 124.754C30.2621 124.726 30.2142 124.699 30.1662 124.672C30.0371 124.599 29.9088 124.525 29.7803 124.45C29.7538 124.435 29.7273 124.42 29.7 124.404C29.4265 124.247 29.1566 124.083 28.8872 123.919C28.8245 123.881 28.8245 123.881 28.7605 123.842C28.6293 123.762 28.4982 123.682 28.3672 123.602C28.1351 123.46 27.9031 123.318 27.664 123.172C27.6511 124.332 27.6383 125.492 27.625 126.687C27.6765 126.713 27.7281 126.739 27.7812 126.766C27.8316 126.8 27.8811 126.835 27.93 126.871C27.9731 126.903 27.9731 126.903 28.0172 126.935C28.0635 126.97 28.0635 126.97 28.1108 127.005C28.1433 127.029 28.1758 127.053 28.2093 127.078C28.4894 127.286 28.7674 127.497 29.0443 127.709C29.2047 127.832 29.3655 127.954 29.529 128.073C29.5576 128.094 29.5862 128.115 29.6157 128.136C29.6684 128.175 29.7213 128.213 29.7745 128.251C29.9599 128.386 30.1039 128.522 30.1457 128.758C30.1432 128.997 30.1412 129.162 29.9687 129.344C29.7913 129.512 29.6279 129.52 29.3942 129.528C29.0613 129.455 28.7735 129.162 28.5088 128.958C28.2303 128.744 27.9492 128.534 27.664 128.328C27.6639 128.353 27.6638 128.378 27.6636 128.404C27.662 128.663 27.6593 128.923 27.6559 129.183C27.6548 129.28 27.654 129.377 27.6535 129.474C27.6526 129.613 27.6508 129.753 27.6488 129.892C27.6487 129.935 27.6487 129.979 27.6486 130.023C27.6441 130.264 27.6305 130.41 27.4687 130.594C27.3195 130.735 27.1999 130.762 27 130.77C26.8001 130.762 26.6804 130.735 26.5312 130.594C26.3403 130.377 26.3515 130.172 26.3512 129.892C26.3505 129.847 26.3499 129.803 26.3492 129.757C26.3473 129.614 26.3465 129.472 26.3457 129.329C26.3446 129.232 26.3434 129.136 26.3422 129.039C26.3393 128.802 26.3373 128.565 26.3359 128.328C26.3121 128.346 26.2883 128.365 26.2637 128.384C25.8846 128.674 25.505 128.964 25.1177 129.244C25.088 129.265 25.0583 129.287 25.0278 129.309C24.7665 129.496 24.5936 129.53 24.2656 129.5C24.0748 129.411 23.9636 129.3 23.875 129.109C23.8465 128.898 23.8355 128.717 23.9346 128.525C24.0565 128.375 24.1925 128.267 24.3462 128.152C24.3772 128.129 24.4082 128.105 24.4401 128.081C24.6877 127.892 24.938 127.708 25.1891 127.524C25.362 127.398 25.5332 127.27 25.703 127.139C25.7405 127.11 25.7781 127.081 25.8168 127.052C25.89 126.995 25.9631 126.939 26.0361 126.882C26.069 126.857 26.1019 126.831 26.1359 126.805C26.1651 126.782 26.1943 126.76 26.2245 126.736C26.2969 126.687 26.2969 126.687 26.375 126.687C26.3621 125.527 26.3492 124.367 26.3359 123.172C25.975 123.391 25.614 123.61 25.2422 123.836C25.0486 123.951 24.8551 124.066 24.661 124.181C24.5837 124.227 24.5066 124.273 24.4296 124.319C24.2141 124.448 23.999 124.576 23.777 124.694C23.7473 124.71 23.7176 124.727 23.687 124.744C23.6363 124.772 23.5849 124.798 23.5326 124.823C23.4545 124.863 23.4545 124.863 23.3672 124.969C23.3396 125.074 23.3396 125.074 23.3253 125.195C23.319 125.241 23.3127 125.287 23.3063 125.334C23.2787 125.562 23.2556 125.791 23.2343 126.021C23.2269 126.097 23.2195 126.173 23.2122 126.249C23.1942 126.434 23.1766 126.619 23.1593 126.804C23.1449 126.959 23.1298 127.113 23.1146 127.268C23.1104 127.316 23.1061 127.363 23.1017 127.412C23.0671 127.759 23.0229 128.016 22.7422 128.25C22.5812 128.341 22.4157 128.351 22.2344 128.328C22.0127 128.25 21.8708 128.109 21.7656 127.898C21.7379 127.441 21.7923 126.988 21.8437 126.534C21.8513 126.465 21.8588 126.396 21.8663 126.327C21.8845 126.161 21.9031 125.994 21.9219 125.828C21.751 125.93 21.5801 126.031 21.4093 126.132C21.3513 126.167 21.2933 126.201 21.2354 126.236C21.1791 126.269 21.1228 126.302 21.0665 126.336C21.0113 126.369 20.9562 126.401 20.901 126.434C20.7183 126.542 20.5364 126.652 20.3553 126.763C20.1981 126.851 20.068 126.858 19.8906 126.844C19.6846 126.773 19.5412 126.678 19.4219 126.492C19.3551 126.292 19.3575 126.099 19.4243 125.899C19.6447 125.579 20.0082 125.409 20.3374 125.22C20.4375 125.162 20.5375 125.105 20.6375 125.047C20.6612 125.033 20.6849 125.019 20.7094 125.005C20.8817 124.906 21.051 124.802 21.2187 124.695C21.1786 124.679 21.1384 124.662 21.0971 124.645C20.9459 124.583 20.7947 124.52 20.6437 124.458C20.5787 124.431 20.5137 124.404 20.4487 124.377C19.3566 123.928 19.3566 123.928 19.2363 123.726C19.1611 123.524 19.1389 123.325 19.2247 123.123C19.3162 122.965 19.4043 122.85 19.5781 122.781C19.9596 122.691 20.2964 122.859 20.645 123.006C20.6783 123.02 20.7117 123.034 20.746 123.049C20.8516 123.093 20.957 123.137 21.0625 123.182C21.3022 123.282 21.5421 123.383 21.7824 123.482C21.8497 123.51 21.9169 123.538 21.9841 123.566C22.0803 123.606 22.1768 123.645 22.2734 123.684C22.3021 123.696 22.3309 123.708 22.3605 123.72C22.517 123.783 22.6212 123.818 22.7812 123.758C22.8686 123.712 22.9515 123.666 23.0353 123.615C23.0598 123.6 23.0843 123.586 23.1096 123.571C23.1899 123.523 23.27 123.474 23.3501 123.426C23.406 123.392 23.4619 123.359 23.5179 123.325C23.6893 123.222 23.8603 123.119 24.0312 123.016C24.0837 122.984 24.1362 122.952 24.1887 122.921C24.4194 122.781 24.6499 122.641 24.8801 122.501C24.92 122.477 24.9599 122.453 25.001 122.428C25.0897 122.373 25.1781 122.318 25.2662 122.263C25.2895 122.249 25.3127 122.234 25.3367 122.219C25.4018 122.178 25.4667 122.138 25.5317 122.097C25.6328 122.039 25.6328 122.039 25.7109 122.039C25.7109 122.013 25.7109 121.987 25.7109 121.961C25.6839 121.951 25.6569 121.941 25.6291 121.931C25.4999 121.876 25.3816 121.808 25.2615 121.736C25.237 121.722 25.2125 121.707 25.1873 121.692C25.107 121.644 25.0269 121.596 24.9468 121.548C24.8908 121.515 24.8349 121.482 24.779 121.448C24.3642 121.201 23.9508 120.951 23.5386 120.699C23.4565 120.649 23.3743 120.599 23.292 120.55C23.2091 120.499 23.1268 120.448 23.045 120.396C23.0041 120.37 22.9631 120.345 22.921 120.318C22.8847 120.295 22.8484 120.272 22.811 120.248C22.5844 120.153 22.3766 120.273 22.1624 120.361C22.1232 120.377 22.084 120.393 22.0436 120.41C22.0026 120.427 21.9615 120.444 21.9192 120.461C21.7882 120.515 21.6573 120.569 21.5263 120.623C21.4392 120.659 21.352 120.695 21.2648 120.73C21.1031 120.797 20.9414 120.863 20.7799 120.93C20.7248 120.953 20.7248 120.953 20.6686 120.976C20.5882 121.009 20.508 121.043 20.4279 121.077C20.3865 121.095 20.345 121.112 20.3023 121.131C20.2462 121.155 20.2462 121.155 20.1889 121.179C19.9466 121.272 19.7452 121.277 19.5 121.18C19.3353 121.075 19.2534 120.973 19.1875 120.789C19.1567 120.587 19.1684 120.382 19.2745 120.204C19.5614 119.877 20.192 119.722 20.5888 119.561C20.6503 119.536 20.7118 119.511 20.7733 119.486C20.9217 119.425 21.0702 119.365 21.2187 119.305C21.1829 119.284 21.1471 119.263 21.1102 119.241C20.9754 119.162 20.8407 119.082 20.7061 119.003C20.6482 118.968 20.5902 118.934 20.5323 118.9C19.4857 118.285 19.4857 118.285 19.3828 117.977C19.3526 117.721 19.3851 117.558 19.539 117.352C19.7076 117.221 19.8608 117.136 20.0788 117.141C20.4702 117.213 20.8597 117.522 21.1968 117.73C21.2456 117.76 21.2946 117.79 21.3435 117.82C21.4328 117.874 21.5221 117.929 21.6114 117.984C21.7145 118.047 21.818 118.11 21.9219 118.172C21.9171 118.13 21.9124 118.088 21.9075 118.045C21.8897 117.887 21.8723 117.728 21.8551 117.57C21.8476 117.502 21.8401 117.434 21.8324 117.366C21.6966 116.165 21.6966 116.165 21.8828 115.906C22.0317 115.753 22.1628 115.678 22.3784 115.66C22.6145 115.664 22.7871 115.756 22.9521 115.921C23.1187 116.293 23.1116 116.759 23.1499 117.161C23.1574 117.238 23.1649 117.314 23.1724 117.391C23.1906 117.576 23.2086 117.762 23.2264 117.948C23.2364 118.053 23.2467 118.158 23.2571 118.263C23.2668 118.362 23.2763 118.46 23.2855 118.559C23.29 118.603 23.2944 118.648 23.299 118.693C23.3027 118.732 23.3065 118.771 23.3103 118.811C23.3374 118.968 23.372 119.046 23.5017 119.138C23.5418 119.161 23.5819 119.184 23.6232 119.207C23.6453 119.22 23.6673 119.233 23.6901 119.246C23.7379 119.273 23.7858 119.301 23.8337 119.328C23.9629 119.401 24.0912 119.475 24.2197 119.55C24.2594 119.572 24.2594 119.572 24.3 119.596C24.5734 119.753 24.8433 119.917 25.1128 120.081C25.1755 120.119 25.1755 120.119 25.2395 120.158C25.3706 120.238 25.5017 120.318 25.6328 120.398C25.8648 120.54 26.0969 120.682 26.3359 120.828C26.3553 119.088 26.3553 119.088 26.375 117.312C26.3234 117.287 26.2719 117.261 26.2187 117.234C26.1684 117.2 26.1188 117.165 26.07 117.129C26.0412 117.108 26.0124 117.087 25.9828 117.065C25.9519 117.042 25.921 117.019 25.8891 116.995C25.8566 116.971 25.8241 116.947 25.7907 116.922C25.5105 116.714 25.2326 116.503 24.9557 116.291C24.7953 116.168 24.6344 116.046 24.471 115.927C24.4424 115.906 24.4138 115.885 24.3843 115.864C24.3316 115.825 24.2786 115.787 24.2254 115.749C24.0401 115.614 23.896 115.478 23.8542 115.242C23.8567 115.003 23.8588 114.838 24.0312 114.656C24.2087 114.488 24.372 114.48 24.6057 114.472C24.9387 114.545 25.2265 114.838 25.4912 115.042C25.7697 115.256 26.0507 115.466 26.3359 115.672C26.3361 115.647 26.3362 115.622 26.3363 115.596C26.338 115.337 26.3407 115.077 26.344 114.817C26.3451 114.72 26.346 114.623 26.3465 114.526C26.3473 114.387 26.3492 114.247 26.3512 114.108C26.3512 114.065 26.3513 114.021 26.3513 113.977C26.3559 113.736 26.3694 113.59 26.5312 113.406C26.7371 113.211 26.9651 113.214 27.2344 113.25Z" fill="#4294FF"/>
<path d="M35.2344 135.25C35.4162 135.334 35.5462 135.455 35.625 135.641C35.6486 135.796 35.6486 135.951 35.6488 136.108C35.6494 136.153 35.6501 136.197 35.6507 136.243C35.6526 136.386 35.6535 136.528 35.6543 136.671C35.6554 136.768 35.6565 136.864 35.6578 136.961C35.6607 137.198 35.6627 137.435 35.664 137.672C35.6998 137.644 35.6998 137.644 35.7362 137.616C36.1153 137.326 36.4949 137.036 36.8823 136.756C36.912 136.735 36.9416 136.713 36.9722 136.691C37.2334 136.504 37.4063 136.47 37.7344 136.5C37.9252 136.589 38.0364 136.7 38.125 136.891C38.1534 137.102 38.1644 137.283 38.0653 137.475C37.9435 137.625 37.8074 137.732 37.6538 137.848C37.6228 137.871 37.5918 137.895 37.5598 137.919C37.3123 138.108 37.062 138.292 36.8108 138.476C36.638 138.602 36.4668 138.73 36.297 138.861C36.2594 138.89 36.2219 138.919 36.1832 138.948C36.11 139.005 36.0369 139.061 35.9639 139.118C35.931 139.143 35.898 139.169 35.8641 139.195C35.8348 139.218 35.8056 139.24 35.7755 139.264C35.7031 139.312 35.7031 139.312 35.625 139.312C35.6379 140.473 35.6508 141.633 35.664 142.828C36.025 142.609 36.3859 142.39 36.7578 142.164C36.9513 142.049 37.1449 141.934 37.339 141.819C37.4162 141.773 37.4933 141.727 37.5703 141.681C37.7859 141.552 38.001 141.424 38.2229 141.306C38.2675 141.281 38.2675 141.281 38.313 141.256C38.3637 141.228 38.4151 141.202 38.4673 141.177C38.5454 141.137 38.5454 141.137 38.6328 141.031C38.6603 140.926 38.6603 140.926 38.6747 140.805C38.681 140.759 38.6872 140.713 38.6936 140.666C38.7213 140.438 38.7444 140.209 38.7657 139.979C38.773 139.903 38.7804 139.827 38.7878 139.751C38.8057 139.566 38.8234 139.381 38.8406 139.196C38.855 139.041 38.8702 138.887 38.8853 138.732C38.8896 138.684 38.8939 138.637 38.8983 138.588C38.9554 138.015 38.9554 138.015 39.1821 137.813C39.3494 137.682 39.5168 137.652 39.7265 137.672C39.9371 137.734 40.0739 137.839 40.1953 138.023C40.3782 138.389 40.2007 139.073 40.1562 139.466C40.1487 139.535 40.1411 139.604 40.1336 139.673C40.1155 139.839 40.0969 140.006 40.0781 140.172C40.249 140.07 40.4198 139.969 40.5907 139.868C40.6487 139.833 40.7066 139.799 40.7646 139.764C40.8209 139.731 40.8772 139.698 40.9335 139.664C40.9886 139.631 41.0438 139.599 41.099 139.566C41.2817 139.458 41.4636 139.348 41.6447 139.237C41.8019 139.149 41.9319 139.142 42.1094 139.156C42.3153 139.227 42.4588 139.322 42.5781 139.508C42.6449 139.708 42.6424 139.901 42.5757 140.101C42.3553 140.421 41.9918 140.591 41.6626 140.78C41.5868 140.823 41.511 140.867 41.4353 140.911C41.3666 140.951 41.2977 140.99 41.2289 141.03C41.0774 141.118 40.9293 141.211 40.7812 141.305C40.822 141.322 40.8627 141.339 40.9047 141.356C41.0574 141.419 41.2101 141.483 41.3627 141.546C41.4285 141.574 41.4943 141.601 41.5601 141.628C41.6553 141.668 41.7504 141.708 41.8455 141.747C41.8745 141.759 41.9034 141.771 41.9332 141.784C42.0181 141.819 42.1028 141.855 42.1875 141.891C42.219 141.904 42.2505 141.917 42.2829 141.931C42.3141 141.944 42.3453 141.958 42.3775 141.972C42.4057 141.984 42.4339 141.996 42.463 142.008C42.6113 142.083 42.7031 142.189 42.7856 142.33C42.8431 142.56 42.8493 142.751 42.727 142.96C42.6005 143.138 42.4911 143.202 42.2778 143.253C41.962 143.282 41.6398 143.114 41.355 142.994C41.305 142.973 41.305 142.973 41.254 142.951C41.1484 142.907 41.0429 142.863 40.9375 142.818C40.6977 142.718 40.4579 142.617 40.2175 142.518C40.1503 142.49 40.0831 142.462 40.0159 142.434C39.9196 142.394 39.8231 142.355 39.7265 142.316C39.6834 142.298 39.6834 142.298 39.6395 142.28C39.4829 142.217 39.3787 142.182 39.2187 142.242C39.1314 142.288 39.0485 142.334 38.9647 142.385C38.9402 142.4 38.9156 142.414 38.8904 142.429C38.8101 142.477 38.73 142.526 38.6499 142.574C38.594 142.608 38.538 142.641 38.4821 142.675C38.3107 142.778 38.1397 142.881 37.9687 142.984C37.9162 143.016 37.8637 143.048 37.8112 143.079C37.5805 143.219 37.3501 143.359 37.1199 143.499C37.08 143.523 37.0401 143.547 36.999 143.572C36.9103 143.627 36.8219 143.682 36.7337 143.737C36.7105 143.751 36.6872 143.766 36.6633 143.781C36.5982 143.822 36.5332 143.862 36.4683 143.903C36.3672 143.961 36.3672 143.961 36.289 143.961C36.289 143.987 36.289 144.012 36.289 144.039C36.316 144.049 36.343 144.059 36.3708 144.069C36.5 144.124 36.6183 144.192 36.7384 144.264C36.7629 144.278 36.7874 144.293 36.8127 144.308C36.8929 144.356 36.9731 144.404 37.0532 144.452C37.1091 144.485 37.165 144.518 37.2209 144.552C37.6358 144.799 38.0491 145.049 38.4614 145.301C38.5434 145.351 38.6256 145.401 38.7079 145.45C38.7909 145.501 38.8732 145.552 38.955 145.604C39.0163 145.643 39.0163 145.643 39.079 145.682C39.1152 145.705 39.1515 145.728 39.1889 145.752C39.3846 145.834 39.5355 145.759 39.7236 145.685C39.7995 145.654 39.8752 145.623 39.9508 145.591C39.9915 145.575 40.0322 145.558 40.0741 145.541C40.2041 145.487 40.334 145.433 40.4638 145.379C41.4506 144.971 41.4506 144.971 41.8066 144.834C41.8534 144.816 41.9003 144.798 41.9485 144.78C42.1833 144.707 42.3372 144.738 42.5512 144.847C42.6988 144.974 42.7964 145.074 42.8288 145.272C42.8403 145.495 42.8086 145.656 42.6904 145.846C42.4957 146.028 42.2053 146.115 41.9607 146.212C41.9136 146.231 41.9136 146.231 41.8654 146.251C41.7661 146.291 41.6667 146.331 41.5674 146.371C41.4672 146.411 41.367 146.451 41.2668 146.492C41.2047 146.517 41.1426 146.542 41.0805 146.566C40.9291 146.627 40.9291 146.627 40.7812 146.695C40.817 146.716 40.8529 146.737 40.8898 146.759C41.0246 146.838 41.1592 146.918 41.2938 146.997C41.3518 147.032 41.4097 147.066 41.4677 147.1C42.5143 147.715 42.5143 147.715 42.6172 148.023C42.6473 148.279 42.6148 148.442 42.4609 148.648C42.2924 148.779 42.1391 148.864 41.9212 148.859C41.5298 148.787 41.1403 148.478 40.8032 148.27C40.7543 148.24 40.7054 148.21 40.6565 148.18C40.5671 148.126 40.4778 148.071 40.3886 148.016C40.2854 147.953 40.1819 147.89 40.0781 147.828C40.0828 147.87 40.0876 147.912 40.0924 147.955C40.1102 148.113 40.1276 148.272 40.1449 148.43C40.1523 148.498 40.1599 148.566 40.1676 148.634C40.3044 149.845 40.3044 149.845 40.0781 150.133C39.8971 150.289 39.7271 150.338 39.4922 150.328C39.2988 150.276 39.1572 150.189 39.0355 150.031C38.9723 149.915 38.9587 149.819 38.9422 149.688C38.936 149.64 38.9298 149.591 38.9234 149.541C38.8967 149.307 38.8724 149.073 38.8501 148.839C38.8426 148.762 38.8351 148.686 38.8276 148.609C38.8093 148.424 38.7913 148.238 38.7736 148.052C38.7635 147.947 38.7533 147.842 38.7429 147.737C38.7331 147.638 38.7236 147.54 38.7144 147.441C38.7078 147.374 38.7078 147.374 38.701 147.307C38.6954 147.248 38.6954 147.248 38.6896 147.189C38.6626 147.032 38.628 146.954 38.4982 146.862C38.4581 146.839 38.4181 146.816 38.3767 146.793C38.3437 146.773 38.3437 146.773 38.3099 146.754C38.2621 146.726 38.2142 146.699 38.1662 146.672C38.0371 146.599 37.9088 146.525 37.7803 146.45C37.7538 146.435 37.7273 146.42 37.7 146.404C37.4265 146.247 37.1566 146.083 36.8872 145.919C36.8245 145.881 36.8245 145.881 36.7605 145.842C36.6293 145.762 36.4982 145.682 36.3672 145.602C36.1351 145.46 35.9031 145.318 35.664 145.172C35.6511 146.332 35.6383 147.492 35.625 148.687C35.6765 148.713 35.7281 148.739 35.7812 148.766C35.8316 148.8 35.8811 148.835 35.93 148.871C35.9731 148.903 35.9731 148.903 36.0172 148.935C36.0635 148.97 36.0635 148.97 36.1108 149.005C36.1433 149.029 36.1758 149.053 36.2093 149.078C36.4894 149.286 36.7674 149.497 37.0443 149.709C37.2047 149.832 37.3655 149.954 37.529 150.073C37.5576 150.094 37.5862 150.115 37.6157 150.136C37.6684 150.175 37.7213 150.213 37.7745 150.251C37.9599 150.386 38.1039 150.522 38.1457 150.758C38.1432 150.997 38.1412 151.162 37.9687 151.344C37.7913 151.512 37.6279 151.52 37.3942 151.528C37.0613 151.455 36.7735 151.162 36.5088 150.958C36.2303 150.744 35.9492 150.534 35.664 150.328C35.6639 150.353 35.6638 150.378 35.6636 150.404C35.662 150.663 35.6593 150.923 35.6559 151.183C35.6548 151.28 35.654 151.377 35.6535 151.474C35.6526 151.613 35.6508 151.753 35.6488 151.892C35.6487 151.935 35.6487 151.979 35.6486 152.023C35.6441 152.264 35.6305 152.41 35.4687 152.594C35.3195 152.735 35.1999 152.762 35 152.77C34.8001 152.762 34.6804 152.735 34.5312 152.594C34.3403 152.377 34.3515 152.172 34.3512 151.892C34.3505 151.847 34.3499 151.803 34.3492 151.757C34.3473 151.614 34.3465 151.472 34.3457 151.329C34.3446 151.232 34.3434 151.136 34.3422 151.039C34.3393 150.802 34.3373 150.565 34.3359 150.328C34.3121 150.346 34.2883 150.365 34.2637 150.384C33.8846 150.674 33.505 150.964 33.1177 151.244C33.088 151.265 33.0583 151.287 33.0278 151.309C32.7665 151.496 32.5936 151.53 32.2656 151.5C32.0748 151.411 31.9636 151.3 31.875 151.109C31.8465 150.898 31.8355 150.717 31.9346 150.525C32.0565 150.375 32.1925 150.267 32.3462 150.152C32.3772 150.129 32.4082 150.105 32.4401 150.081C32.6877 149.892 32.938 149.708 33.1891 149.524C33.362 149.398 33.5332 149.27 33.703 149.139C33.7405 149.11 33.7781 149.081 33.8168 149.052C33.89 148.995 33.9631 148.939 34.0361 148.882C34.069 148.857 34.1019 148.831 34.1359 148.805C34.1651 148.782 34.1943 148.76 34.2245 148.736C34.2969 148.687 34.2969 148.687 34.375 148.687C34.3621 147.527 34.3492 146.367 34.3359 145.172C33.975 145.391 33.614 145.61 33.2422 145.836C33.0486 145.951 32.8551 146.066 32.661 146.181C32.5837 146.227 32.5066 146.273 32.4296 146.319C32.2141 146.448 31.999 146.576 31.777 146.694C31.7473 146.71 31.7176 146.727 31.687 146.744C31.6363 146.772 31.5849 146.798 31.5326 146.823C31.4545 146.863 31.4545 146.863 31.3672 146.969C31.3396 147.074 31.3396 147.074 31.3253 147.195C31.319 147.241 31.3127 147.287 31.3063 147.334C31.2787 147.562 31.2556 147.791 31.2343 148.021C31.2269 148.097 31.2195 148.173 31.2122 148.249C31.1942 148.434 31.1766 148.619 31.1593 148.804C31.1449 148.959 31.1298 149.113 31.1146 149.268C31.1104 149.316 31.1061 149.363 31.1017 149.412C31.0671 149.759 31.0229 150.016 30.7422 150.25C30.5812 150.341 30.4157 150.351 30.2344 150.328C30.0127 150.25 29.8708 150.109 29.7656 149.898C29.7379 149.441 29.7923 148.988 29.8437 148.534C29.8513 148.465 29.8588 148.396 29.8663 148.327C29.8845 148.161 29.9031 147.994 29.9219 147.828C29.751 147.93 29.5801 148.031 29.4093 148.132C29.3513 148.167 29.2933 148.201 29.2354 148.236C29.1791 148.269 29.1228 148.302 29.0665 148.336C29.0113 148.369 28.9562 148.401 28.901 148.434C28.7183 148.542 28.5364 148.652 28.3553 148.763C28.1981 148.851 28.068 148.858 27.8906 148.844C27.6846 148.773 27.5412 148.678 27.4219 148.492C27.3551 148.292 27.3575 148.099 27.4243 147.899C27.6447 147.579 28.0082 147.409 28.3374 147.22C28.4375 147.162 28.5375 147.105 28.6375 147.047C28.6612 147.033 28.6849 147.019 28.7094 147.005C28.8817 146.906 29.051 146.802 29.2187 146.695C29.1786 146.679 29.1384 146.662 29.0971 146.645C28.9459 146.583 28.7947 146.52 28.6437 146.458C28.5787 146.431 28.5137 146.404 28.4487 146.377C27.3566 145.928 27.3566 145.928 27.2363 145.726C27.1611 145.524 27.1389 145.325 27.2247 145.123C27.3162 144.965 27.4043 144.85 27.5781 144.781C27.9596 144.691 28.2964 144.859 28.645 145.006C28.6783 145.02 28.7117 145.034 28.746 145.049C28.8516 145.093 28.957 145.137 29.0625 145.182C29.3022 145.282 29.5421 145.383 29.7824 145.482C29.8497 145.51 29.9169 145.538 29.9841 145.566C30.0803 145.606 30.1768 145.645 30.2734 145.684C30.3021 145.696 30.3309 145.708 30.3605 145.72C30.517 145.783 30.6212 145.818 30.7812 145.758C30.8686 145.712 30.9515 145.666 31.0353 145.615C31.0598 145.6 31.0843 145.586 31.1096 145.571C31.1899 145.523 31.27 145.474 31.3501 145.426C31.406 145.392 31.4619 145.359 31.5179 145.325C31.6893 145.222 31.8603 145.119 32.0312 145.016C32.0837 144.984 32.1362 144.952 32.1887 144.921C32.4194 144.781 32.6499 144.641 32.8801 144.501C32.92 144.477 32.9599 144.453 33.001 144.428C33.0897 144.373 33.1781 144.318 33.2662 144.263C33.2895 144.249 33.3127 144.234 33.3367 144.219C33.4018 144.178 33.4667 144.138 33.5317 144.097C33.6328 144.039 33.6328 144.039 33.7109 144.039C33.7109 144.013 33.7109 143.987 33.7109 143.961C33.6839 143.951 33.6569 143.941 33.6291 143.931C33.4999 143.876 33.3816 143.808 33.2615 143.736C33.237 143.722 33.2125 143.707 33.1873 143.692C33.107 143.644 33.0269 143.596 32.9468 143.548C32.8908 143.515 32.8349 143.482 32.779 143.448C32.3642 143.201 31.9508 142.951 31.5386 142.699C31.4565 142.649 31.3743 142.599 31.292 142.55C31.2091 142.499 31.1268 142.448 31.045 142.396C31.0041 142.37 30.9631 142.345 30.921 142.318C30.8847 142.295 30.8484 142.272 30.811 142.248C30.5844 142.153 30.3766 142.273 30.1624 142.361C30.1232 142.377 30.084 142.393 30.0436 142.41C30.0026 142.427 29.9615 142.444 29.9192 142.461C29.7882 142.515 29.6573 142.569 29.5263 142.623C29.4392 142.659 29.352 142.695 29.2648 142.73C29.1031 142.797 28.9414 142.863 28.7799 142.93C28.7248 142.953 28.7248 142.953 28.6686 142.976C28.5882 143.009 28.508 143.043 28.4279 143.077C28.3865 143.095 28.345 143.112 28.3023 143.131C28.2462 143.155 28.2462 143.155 28.1889 143.179C27.9466 143.272 27.7452 143.277 27.5 143.18C27.3353 143.075 27.2534 142.973 27.1875 142.789C27.1567 142.587 27.1684 142.382 27.2745 142.204C27.5614 141.877 28.192 141.722 28.5888 141.561C28.6503 141.536 28.7118 141.511 28.7733 141.486C28.9217 141.425 29.0702 141.365 29.2187 141.305C29.1829 141.284 29.1471 141.263 29.1102 141.241C28.9754 141.162 28.8407 141.082 28.7061 141.003C28.6482 140.968 28.5902 140.934 28.5323 140.9C27.4857 140.285 27.4857 140.285 27.3828 139.977C27.3526 139.721 27.3851 139.558 27.539 139.352C27.7076 139.221 27.8608 139.136 28.0788 139.141C28.4702 139.213 28.8597 139.522 29.1968 139.73C29.2456 139.76 29.2946 139.79 29.3435 139.82C29.4328 139.874 29.5221 139.929 29.6114 139.984C29.7145 140.047 29.818 140.11 29.9219 140.172C29.9171 140.13 29.9124 140.088 29.9075 140.045C29.8897 139.887 29.8723 139.728 29.8551 139.57C29.8476 139.502 29.8401 139.434 29.8324 139.366C29.6966 138.165 29.6966 138.165 29.8828 137.906C30.0317 137.753 30.1628 137.678 30.3784 137.66C30.6145 137.664 30.7871 137.756 30.9521 137.921C31.1187 138.293 31.1116 138.759 31.1499 139.161C31.1574 139.238 31.1649 139.314 31.1724 139.391C31.1906 139.576 31.2086 139.762 31.2264 139.948C31.2364 140.053 31.2467 140.158 31.2571 140.263C31.2668 140.362 31.2763 140.46 31.2855 140.559C31.29 140.603 31.2944 140.648 31.299 140.693C31.3027 140.732 31.3065 140.771 31.3103 140.811C31.3374 140.968 31.372 141.046 31.5017 141.138C31.5418 141.161 31.5819 141.184 31.6232 141.207C31.6453 141.22 31.6673 141.233 31.6901 141.246C31.7379 141.273 31.7858 141.301 31.8337 141.328C31.9629 141.401 32.0912 141.475 32.2197 141.55C32.2594 141.572 32.2594 141.572 32.3 141.596C32.5734 141.753 32.8433 141.917 33.1128 142.081C33.1755 142.119 33.1755 142.119 33.2395 142.158C33.3706 142.238 33.5017 142.318 33.6328 142.398C33.8648 142.54 34.0969 142.682 34.3359 142.828C34.3553 141.088 34.3553 141.088 34.375 139.312C34.3234 139.287 34.2719 139.261 34.2187 139.234C34.1684 139.2 34.1188 139.165 34.07 139.129C34.0412 139.108 34.0124 139.087 33.9828 139.065C33.9519 139.042 33.921 139.019 33.8891 138.995C33.8566 138.971 33.8241 138.947 33.7907 138.922C33.5105 138.714 33.2326 138.503 32.9557 138.291C32.7953 138.168 32.6344 138.046 32.471 137.927C32.4424 137.906 32.4138 137.885 32.3843 137.864C32.3316 137.825 32.2786 137.787 32.2254 137.749C32.0401 137.614 31.896 137.478 31.8542 137.242C31.8567 137.003 31.8588 136.838 32.0312 136.656C32.2087 136.488 32.372 136.48 32.6057 136.472C32.9387 136.545 33.2265 136.838 33.4912 137.042C33.7697 137.256 34.0507 137.466 34.3359 137.672C34.3361 137.647 34.3362 137.622 34.3363 137.596C34.338 137.337 34.3407 137.077 34.344 136.817C34.3451 136.72 34.346 136.623 34.3465 136.526C34.3473 136.387 34.3492 136.247 34.3512 136.108C34.3512 136.065 34.3513 136.021 34.3513 135.977C34.3559 135.736 34.3694 135.59 34.5312 135.406C34.7371 135.211 34.9651 135.214 35.2344 135.25Z" fill="#4294FF"/>
<path d="M59.2344 135.25C59.4162 135.334 59.5462 135.455 59.625 135.641C59.6486 135.796 59.6486 135.951 59.6488 136.108C59.6494 136.153 59.6501 136.197 59.6507 136.243C59.6526 136.386 59.6535 136.528 59.6543 136.671C59.6554 136.768 59.6565 136.864 59.6578 136.961C59.6607 137.198 59.6627 137.435 59.664 137.672C59.6998 137.644 59.6998 137.644 59.7362 137.616C60.1153 137.326 60.4949 137.036 60.8823 136.756C60.912 136.735 60.9416 136.713 60.9722 136.691C61.2334 136.504 61.4063 136.47 61.7344 136.5C61.9252 136.589 62.0364 136.7 62.125 136.891C62.1534 137.102 62.1644 137.283 62.0653 137.475C61.9435 137.625 61.8074 137.732 61.6538 137.848C61.6228 137.871 61.5918 137.895 61.5598 137.919C61.3123 138.108 61.062 138.292 60.8108 138.476C60.638 138.602 60.4668 138.73 60.297 138.861C60.2594 138.89 60.2219 138.919 60.1832 138.948C60.11 139.005 60.0369 139.061 59.9639 139.118C59.931 139.143 59.898 139.169 59.8641 139.195C59.8348 139.218 59.8056 139.24 59.7755 139.264C59.7031 139.312 59.7031 139.312 59.625 139.312C59.6379 140.473 59.6508 141.633 59.664 142.828C60.025 142.609 60.3859 142.39 60.7578 142.164C60.9513 142.049 61.1449 141.934 61.339 141.819C61.4162 141.773 61.4933 141.727 61.5703 141.681C61.7859 141.552 62.001 141.424 62.2229 141.306C62.2675 141.281 62.2675 141.281 62.313 141.256C62.3637 141.228 62.4151 141.202 62.4673 141.177C62.5454 141.137 62.5454 141.137 62.6328 141.031C62.6603 140.926 62.6603 140.926 62.6747 140.805C62.681 140.759 62.6872 140.713 62.6936 140.666C62.7213 140.438 62.7444 140.209 62.7657 139.979C62.773 139.903 62.7804 139.827 62.7878 139.751C62.8057 139.566 62.8234 139.381 62.8406 139.196C62.855 139.041 62.8702 138.887 62.8853 138.732C62.8896 138.684 62.8939 138.637 62.8983 138.588C62.9554 138.015 62.9554 138.015 63.1821 137.813C63.3494 137.682 63.5168 137.652 63.7265 137.672C63.9371 137.734 64.0739 137.839 64.1953 138.023C64.3782 138.389 64.2007 139.073 64.1562 139.466C64.1487 139.535 64.1411 139.604 64.1336 139.673C64.1155 139.839 64.0969 140.006 64.0781 140.172C64.249 140.07 64.4198 139.969 64.5907 139.868C64.6487 139.833 64.7066 139.799 64.7646 139.764C64.8209 139.731 64.8772 139.698 64.9335 139.664C64.9886 139.631 65.0438 139.599 65.099 139.566C65.2817 139.458 65.4636 139.348 65.6447 139.237C65.8019 139.149 65.9319 139.142 66.1094 139.156C66.3153 139.227 66.4588 139.322 66.5781 139.508C66.6449 139.708 66.6424 139.901 66.5757 140.101C66.3553 140.421 65.9918 140.591 65.6626 140.78C65.5868 140.823 65.511 140.867 65.4353 140.911C65.3666 140.951 65.2977 140.99 65.2289 141.03C65.0774 141.118 64.9293 141.211 64.7812 141.305C64.822 141.322 64.8627 141.339 64.9047 141.356C65.0574 141.419 65.2101 141.483 65.3627 141.546C65.4285 141.574 65.4943 141.601 65.5601 141.628C65.6553 141.668 65.7504 141.708 65.8455 141.747C65.8745 141.759 65.9034 141.771 65.9332 141.784C66.0181 141.819 66.1028 141.855 66.1875 141.891C66.219 141.904 66.2505 141.917 66.2829 141.931C66.3141 141.944 66.3453 141.958 66.3775 141.972C66.4057 141.984 66.4339 141.996 66.463 142.008C66.6113 142.083 66.7031 142.189 66.7856 142.33C66.8431 142.56 66.8493 142.751 66.727 142.96C66.6005 143.138 66.4911 143.202 66.2778 143.253C65.962 143.282 65.6398 143.114 65.355 142.994C65.305 142.973 65.305 142.973 65.254 142.951C65.1484 142.907 65.0429 142.863 64.9375 142.818C64.6977 142.718 64.4579 142.617 64.2175 142.518C64.1503 142.49 64.0831 142.462 64.0159 142.434C63.9196 142.394 63.8231 142.355 63.7265 142.316C63.6834 142.298 63.6834 142.298 63.6395 142.28C63.4829 142.217 63.3787 142.182 63.2187 142.242C63.1314 142.288 63.0485 142.334 62.9647 142.385C62.9402 142.4 62.9156 142.414 62.8904 142.429C62.8101 142.477 62.73 142.526 62.6499 142.574C62.594 142.608 62.538 142.641 62.4821 142.675C62.3107 142.778 62.1397 142.881 61.9687 142.984C61.9162 143.016 61.8637 143.048 61.8112 143.079C61.5805 143.219 61.3501 143.359 61.1199 143.499C61.08 143.523 61.0401 143.547 60.999 143.572C60.9103 143.627 60.8219 143.682 60.7337 143.737C60.7105 143.751 60.6872 143.766 60.6633 143.781C60.5982 143.822 60.5332 143.862 60.4683 143.903C60.3672 143.961 60.3672 143.961 60.289 143.961C60.289 143.987 60.289 144.012 60.289 144.039C60.316 144.049 60.343 144.059 60.3708 144.069C60.5 144.124 60.6183 144.192 60.7384 144.264C60.7629 144.278 60.7874 144.293 60.8127 144.308C60.8929 144.356 60.9731 144.404 61.0532 144.452C61.1091 144.485 61.165 144.518 61.2209 144.552C61.6358 144.799 62.0491 145.049 62.4614 145.301C62.5434 145.351 62.6256 145.401 62.7079 145.45C62.7909 145.501 62.8732 145.552 62.955 145.604C63.0163 145.643 63.0163 145.643 63.079 145.682C63.1152 145.705 63.1515 145.728 63.1889 145.752C63.3846 145.834 63.5355 145.759 63.7236 145.685C63.7995 145.654 63.8752 145.623 63.9508 145.591C63.9915 145.575 64.0322 145.558 64.0741 145.541C64.2041 145.487 64.334 145.433 64.4638 145.379C65.4506 144.971 65.4506 144.971 65.8066 144.834C65.8534 144.816 65.9003 144.798 65.9485 144.78C66.1833 144.707 66.3372 144.738 66.5512 144.847C66.6988 144.974 66.7964 145.074 66.8288 145.272C66.8403 145.495 66.8086 145.656 66.6904 145.846C66.4957 146.028 66.2053 146.115 65.9607 146.212C65.9136 146.231 65.9136 146.231 65.8654 146.251C65.7661 146.291 65.6667 146.331 65.5674 146.371C65.4672 146.411 65.367 146.451 65.2668 146.492C65.2047 146.517 65.1426 146.542 65.0805 146.566C64.9291 146.627 64.9291 146.627 64.7812 146.695C64.817 146.716 64.8529 146.737 64.8898 146.759C65.0246 146.838 65.1592 146.918 65.2938 146.997C65.3518 147.032 65.4097 147.066 65.4677 147.1C66.5143 147.715 66.5143 147.715 66.6172 148.023C66.6473 148.279 66.6148 148.442 66.4609 148.648C66.2924 148.779 66.1391 148.864 65.9212 148.859C65.5298 148.787 65.1403 148.478 64.8032 148.27C64.7543 148.24 64.7054 148.21 64.6565 148.18C64.5671 148.126 64.4778 148.071 64.3886 148.016C64.2854 147.953 64.1819 147.89 64.0781 147.828C64.0828 147.87 64.0876 147.912 64.0924 147.955C64.1102 148.113 64.1276 148.272 64.1449 148.43C64.1523 148.498 64.1599 148.566 64.1676 148.634C64.3044 149.845 64.3044 149.845 64.0781 150.133C63.8971 150.289 63.7271 150.338 63.4922 150.328C63.2988 150.276 63.1572 150.189 63.0355 150.031C62.9723 149.915 62.9587 149.819 62.9422 149.688C62.936 149.64 62.9298 149.591 62.9234 149.541C62.8967 149.307 62.8724 149.073 62.8501 148.839C62.8426 148.762 62.8351 148.686 62.8276 148.609C62.8093 148.424 62.7913 148.238 62.7736 148.052C62.7635 147.947 62.7533 147.842 62.7429 147.737C62.7331 147.638 62.7236 147.54 62.7144 147.441C62.7078 147.374 62.7078 147.374 62.701 147.307C62.6954 147.248 62.6954 147.248 62.6896 147.189C62.6626 147.032 62.628 146.954 62.4982 146.862C62.4581 146.839 62.4181 146.816 62.3767 146.793C62.3437 146.773 62.3437 146.773 62.3099 146.754C62.2621 146.726 62.2142 146.699 62.1662 146.672C62.0371 146.599 61.9088 146.525 61.7803 146.45C61.7538 146.435 61.7273 146.42 61.7 146.404C61.4265 146.247 61.1566 146.083 60.8872 145.919C60.8245 145.881 60.8245 145.881 60.7605 145.842C60.6293 145.762 60.4982 145.682 60.3672 145.602C60.1351 145.46 59.9031 145.318 59.664 145.172C59.6511 146.332 59.6383 147.492 59.625 148.687C59.6765 148.713 59.7281 148.739 59.7812 148.766C59.8316 148.8 59.8811 148.835 59.93 148.871C59.9731 148.903 59.9731 148.903 60.0172 148.935C60.0635 148.97 60.0635 148.97 60.1108 149.005C60.1433 149.029 60.1758 149.053 60.2093 149.078C60.4894 149.286 60.7674 149.497 61.0443 149.709C61.2047 149.832 61.3655 149.954 61.529 150.073C61.5576 150.094 61.5862 150.115 61.6157 150.136C61.6684 150.175 61.7213 150.213 61.7745 150.251C61.9599 150.386 62.1039 150.522 62.1457 150.758C62.1432 150.997 62.1412 151.162 61.9687 151.344C61.7913 151.512 61.6279 151.52 61.3942 151.528C61.0613 151.455 60.7735 151.162 60.5088 150.958C60.2303 150.744 59.9492 150.534 59.664 150.328C59.6639 150.353 59.6638 150.378 59.6636 150.404C59.662 150.663 59.6593 150.923 59.6559 151.183C59.6548 151.28 59.654 151.377 59.6535 151.474C59.6526 151.613 59.6508 151.753 59.6488 151.892C59.6487 151.935 59.6487 151.979 59.6486 152.023C59.6441 152.264 59.6305 152.41 59.4687 152.594C59.3195 152.735 59.1999 152.762 59 152.77C58.8001 152.762 58.6804 152.735 58.5312 152.594C58.3403 152.377 58.3515 152.172 58.3512 151.892C58.3505 151.847 58.3499 151.803 58.3492 151.757C58.3473 151.614 58.3465 151.472 58.3457 151.329C58.3446 151.232 58.3434 151.136 58.3422 151.039C58.3393 150.802 58.3373 150.565 58.3359 150.328C58.3121 150.346 58.2883 150.365 58.2637 150.384C57.8846 150.674 57.505 150.964 57.1177 151.244C57.088 151.265 57.0583 151.287 57.0278 151.309C56.7665 151.496 56.5936 151.53 56.2656 151.5C56.0748 151.411 55.9636 151.3 55.875 151.109C55.8465 150.898 55.8355 150.717 55.9346 150.525C56.0565 150.375 56.1925 150.267 56.3462 150.152C56.3772 150.129 56.4082 150.105 56.4401 150.081C56.6877 149.892 56.938 149.708 57.1891 149.524C57.362 149.398 57.5332 149.27 57.703 149.139C57.7405 149.11 57.7781 149.081 57.8168 149.052C57.89 148.995 57.9631 148.939 58.0361 148.882C58.069 148.857 58.1019 148.831 58.1359 148.805C58.1651 148.782 58.1943 148.76 58.2245 148.736C58.2969 148.687 58.2969 148.687 58.375 148.687C58.3621 147.527 58.3492 146.367 58.3359 145.172C57.975 145.391 57.614 145.61 57.2422 145.836C57.0486 145.951 56.8551 146.066 56.661 146.181C56.5837 146.227 56.5066 146.273 56.4296 146.319C56.2141 146.448 55.999 146.576 55.777 146.694C55.7473 146.71 55.7176 146.727 55.687 146.744C55.6363 146.772 55.5849 146.798 55.5326 146.823C55.4545 146.863 55.4545 146.863 55.3672 146.969C55.3396 147.074 55.3396 147.074 55.3253 147.195C55.319 147.241 55.3127 147.287 55.3063 147.334C55.2787 147.562 55.2556 147.791 55.2343 148.021C55.2269 148.097 55.2195 148.173 55.2122 148.249C55.1942 148.434 55.1766 148.619 55.1593 148.804C55.1449 148.959 55.1298 149.113 55.1146 149.268C55.1104 149.316 55.1061 149.363 55.1017 149.412C55.0671 149.759 55.0229 150.016 54.7422 150.25C54.5812 150.341 54.4157 150.351 54.2344 150.328C54.0127 150.25 53.8708 150.109 53.7656 149.898C53.7379 149.441 53.7923 148.988 53.8437 148.534C53.8513 148.465 53.8588 148.396 53.8663 148.327C53.8845 148.161 53.9031 147.994 53.9219 147.828C53.751 147.93 53.5801 148.031 53.4093 148.132C53.3513 148.167 53.2933 148.201 53.2354 148.236C53.1791 148.269 53.1228 148.302 53.0665 148.336C53.0113 148.369 52.9562 148.401 52.901 148.434C52.7183 148.542 52.5364 148.652 52.3553 148.763C52.1981 148.851 52.068 148.858 51.8906 148.844C51.6846 148.773 51.5412 148.678 51.4219 148.492C51.3551 148.292 51.3575 148.099 51.4243 147.899C51.6447 147.579 52.0082 147.409 52.3374 147.22C52.4375 147.162 52.5375 147.105 52.6375 147.047C52.6612 147.033 52.6849 147.019 52.7094 147.005C52.8817 146.906 53.051 146.802 53.2187 146.695C53.1786 146.679 53.1384 146.662 53.0971 146.645C52.9459 146.583 52.7947 146.52 52.6437 146.458C52.5787 146.431 52.5137 146.404 52.4487 146.377C51.3566 145.928 51.3566 145.928 51.2363 145.726C51.1611 145.524 51.1389 145.325 51.2247 145.123C51.3162 144.965 51.4043 144.85 51.5781 144.781C51.9596 144.691 52.2964 144.859 52.645 145.006C52.6783 145.02 52.7117 145.034 52.746 145.049C52.8516 145.093 52.957 145.137 53.0625 145.182C53.3022 145.282 53.5421 145.383 53.7824 145.482C53.8497 145.51 53.9169 145.538 53.9841 145.566C54.0803 145.606 54.1768 145.645 54.2734 145.684C54.3021 145.696 54.3309 145.708 54.3605 145.72C54.517 145.783 54.6212 145.818 54.7812 145.758C54.8686 145.712 54.9515 145.666 55.0353 145.615C55.0598 145.6 55.0843 145.586 55.1096 145.571C55.1899 145.523 55.27 145.474 55.3501 145.426C55.406 145.392 55.4619 145.359 55.5179 145.325C55.6893 145.222 55.8603 145.119 56.0312 145.016C56.0837 144.984 56.1362 144.952 56.1887 144.921C56.4194 144.781 56.6499 144.641 56.8801 144.501C56.92 144.477 56.9599 144.453 57.001 144.428C57.0897 144.373 57.1781 144.318 57.2662 144.263C57.2895 144.249 57.3127 144.234 57.3367 144.219C57.4018 144.178 57.4667 144.138 57.5317 144.097C57.6328 144.039 57.6328 144.039 57.7109 144.039C57.7109 144.013 57.7109 143.987 57.7109 143.961C57.6839 143.951 57.6569 143.941 57.6291 143.931C57.4999 143.876 57.3816 143.808 57.2615 143.736C57.237 143.722 57.2125 143.707 57.1873 143.692C57.107 143.644 57.0269 143.596 56.9468 143.548C56.8908 143.515 56.8349 143.482 56.779 143.448C56.3642 143.201 55.9508 142.951 55.5386 142.699C55.4565 142.649 55.3743 142.599 55.292 142.55C55.2091 142.499 55.1268 142.448 55.045 142.396C55.0041 142.37 54.9631 142.345 54.921 142.318C54.8847 142.295 54.8484 142.272 54.811 142.248C54.5844 142.153 54.3766 142.273 54.1624 142.361C54.1232 142.377 54.084 142.393 54.0436 142.41C54.0026 142.427 53.9615 142.444 53.9192 142.461C53.7882 142.515 53.6573 142.569 53.5263 142.623C53.4392 142.659 53.352 142.695 53.2648 142.73C53.1031 142.797 52.9414 142.863 52.7799 142.93C52.7248 142.953 52.7248 142.953 52.6686 142.976C52.5882 143.009 52.508 143.043 52.4279 143.077C52.3865 143.095 52.345 143.112 52.3023 143.131C52.2462 143.155 52.2462 143.155 52.1889 143.179C51.9466 143.272 51.7452 143.277 51.5 143.18C51.3353 143.075 51.2534 142.973 51.1875 142.789C51.1567 142.587 51.1684 142.382 51.2745 142.204C51.5614 141.877 52.192 141.722 52.5888 141.561C52.6503 141.536 52.7118 141.511 52.7733 141.486C52.9217 141.425 53.0702 141.365 53.2187 141.305C53.1829 141.284 53.1471 141.263 53.1102 141.241C52.9754 141.162 52.8407 141.082 52.7061 141.003C52.6482 140.968 52.5902 140.934 52.5323 140.9C51.4857 140.285 51.4857 140.285 51.3828 139.977C51.3526 139.721 51.3851 139.558 51.539 139.352C51.7076 139.221 51.8608 139.136 52.0788 139.141C52.4702 139.213 52.8597 139.522 53.1968 139.73C53.2456 139.76 53.2946 139.79 53.3435 139.82C53.4328 139.874 53.5221 139.929 53.6114 139.984C53.7145 140.047 53.818 140.11 53.9219 140.172C53.9171 140.13 53.9124 140.088 53.9075 140.045C53.8897 139.887 53.8723 139.728 53.8551 139.57C53.8476 139.502 53.8401 139.434 53.8324 139.366C53.6966 138.165 53.6966 138.165 53.8828 137.906C54.0317 137.753 54.1628 137.678 54.3784 137.66C54.6145 137.664 54.7871 137.756 54.9521 137.921C55.1187 138.293 55.1116 138.759 55.1499 139.161C55.1574 139.238 55.1649 139.314 55.1724 139.391C55.1906 139.576 55.2086 139.762 55.2264 139.948C55.2364 140.053 55.2467 140.158 55.2571 140.263C55.2668 140.362 55.2763 140.46 55.2855 140.559C55.29 140.603 55.2944 140.648 55.299 140.693C55.3027 140.732 55.3065 140.771 55.3103 140.811C55.3374 140.968 55.372 141.046 55.5017 141.138C55.5418 141.161 55.5819 141.184 55.6232 141.207C55.6453 141.22 55.6673 141.233 55.6901 141.246C55.7379 141.273 55.7858 141.301 55.8337 141.328C55.9629 141.401 56.0912 141.475 56.2197 141.55C56.2594 141.572 56.2594 141.572 56.3 141.596C56.5734 141.753 56.8433 141.917 57.1128 142.081C57.1755 142.119 57.1755 142.119 57.2395 142.158C57.3706 142.238 57.5017 142.318 57.6328 142.398C57.8648 142.54 58.0969 142.682 58.3359 142.828C58.3553 141.088 58.3553 141.088 58.375 139.312C58.3234 139.287 58.2719 139.261 58.2187 139.234C58.1684 139.2 58.1188 139.165 58.07 139.129C58.0412 139.108 58.0124 139.087 57.9828 139.065C57.9519 139.042 57.921 139.019 57.8891 138.995C57.8566 138.971 57.8241 138.947 57.7907 138.922C57.5105 138.714 57.2326 138.503 56.9557 138.291C56.7953 138.168 56.6344 138.046 56.471 137.927C56.4424 137.906 56.4138 137.885 56.3843 137.864C56.3316 137.825 56.2786 137.787 56.2254 137.749C56.0401 137.614 55.896 137.478 55.8542 137.242C55.8567 137.003 55.8588 136.838 56.0312 136.656C56.2087 136.488 56.372 136.48 56.6057 136.472C56.9387 136.545 57.2265 136.838 57.4912 137.042C57.7697 137.256 58.0507 137.466 58.3359 137.672C58.3361 137.647 58.3362 137.622 58.3363 137.596C58.338 137.337 58.3407 137.077 58.344 136.817C58.3451 136.72 58.346 136.623 58.3465 136.526C58.3473 136.387 58.3492 136.247 58.3512 136.108C58.3512 136.065 58.3513 136.021 58.3513 135.977C58.3559 135.736 58.3694 135.59 58.5312 135.406C58.7371 135.211 58.9651 135.214 59.2344 135.25Z" fill="#4294FF"/>
<path d="M49.2344 113.25C49.4162 113.334 49.5462 113.455 49.625 113.641C49.6486 113.796 49.6486 113.951 49.6488 114.108C49.6494 114.153 49.6501 114.197 49.6507 114.243C49.6526 114.386 49.6535 114.528 49.6543 114.671C49.6554 114.768 49.6565 114.864 49.6578 114.961C49.6607 115.198 49.6627 115.435 49.664 115.672C49.6998 115.644 49.6998 115.644 49.7362 115.616C50.1153 115.326 50.4949 115.036 50.8823 114.756C50.912 114.735 50.9416 114.713 50.9722 114.691C51.2334 114.504 51.4063 114.47 51.7344 114.5C51.9252 114.589 52.0364 114.7 52.125 114.891C52.1534 115.102 52.1644 115.283 52.0653 115.475C51.9435 115.625 51.8074 115.732 51.6538 115.848C51.6228 115.871 51.5918 115.895 51.5598 115.919C51.3123 116.108 51.062 116.292 50.8108 116.476C50.638 116.602 50.4668 116.73 50.297 116.861C50.2594 116.89 50.2219 116.919 50.1832 116.948C50.11 117.005 50.0369 117.061 49.9639 117.118C49.931 117.143 49.898 117.169 49.8641 117.195C49.8348 117.218 49.8056 117.24 49.7755 117.264C49.7031 117.312 49.7031 117.312 49.625 117.312C49.6379 118.473 49.6508 119.633 49.664 120.828C50.025 120.609 50.3859 120.39 50.7578 120.164C50.9513 120.049 51.1449 119.934 51.339 119.819C51.4162 119.773 51.4933 119.727 51.5703 119.681C51.7859 119.552 52.001 119.424 52.2229 119.306C52.2675 119.281 52.2675 119.281 52.313 119.256C52.3637 119.228 52.4151 119.202 52.4673 119.177C52.5454 119.137 52.5454 119.137 52.6328 119.031C52.6603 118.926 52.6603 118.926 52.6747 118.805C52.681 118.759 52.6872 118.713 52.6936 118.666C52.7213 118.438 52.7444 118.209 52.7657 117.979C52.773 117.903 52.7804 117.827 52.7878 117.751C52.8057 117.566 52.8234 117.381 52.8406 117.196C52.855 117.041 52.8702 116.887 52.8853 116.732C52.8896 116.684 52.8939 116.637 52.8983 116.588C52.9554 116.015 52.9554 116.015 53.1821 115.813C53.3494 115.682 53.5168 115.652 53.7265 115.672C53.9371 115.734 54.0739 115.839 54.1953 116.023C54.3782 116.389 54.2007 117.073 54.1562 117.466C54.1487 117.535 54.1411 117.604 54.1336 117.673C54.1155 117.839 54.0969 118.006 54.0781 118.172C54.249 118.07 54.4198 117.969 54.5907 117.868C54.6487 117.833 54.7066 117.799 54.7646 117.764C54.8209 117.731 54.8772 117.698 54.9335 117.664C54.9886 117.631 55.0438 117.599 55.099 117.566C55.2817 117.458 55.4636 117.348 55.6447 117.237C55.8019 117.149 55.9319 117.142 56.1094 117.156C56.3153 117.227 56.4588 117.322 56.5781 117.508C56.6449 117.708 56.6424 117.901 56.5757 118.101C56.3553 118.421 55.9918 118.591 55.6626 118.78C55.5868 118.823 55.511 118.867 55.4353 118.911C55.3666 118.951 55.2977 118.99 55.2289 119.03C55.0774 119.118 54.9293 119.211 54.7812 119.305C54.822 119.322 54.8627 119.339 54.9047 119.356C55.0574 119.419 55.2101 119.483 55.3627 119.546C55.4285 119.574 55.4943 119.601 55.5601 119.628C55.6553 119.668 55.7504 119.708 55.8455 119.747C55.8745 119.759 55.9034 119.771 55.9332 119.784C56.0181 119.819 56.1028 119.855 56.1875 119.891C56.219 119.904 56.2505 119.917 56.2829 119.931C56.3141 119.944 56.3453 119.958 56.3775 119.972C56.4057 119.984 56.4339 119.996 56.463 120.008C56.6113 120.083 56.7031 120.189 56.7856 120.33C56.8431 120.56 56.8493 120.751 56.727 120.96C56.6005 121.138 56.4911 121.202 56.2778 121.253C55.962 121.282 55.6398 121.114 55.355 120.994C55.305 120.973 55.305 120.973 55.254 120.951C55.1484 120.907 55.0429 120.863 54.9375 120.818C54.6977 120.718 54.4579 120.617 54.2175 120.518C54.1503 120.49 54.0831 120.462 54.0159 120.434C53.9196 120.394 53.8231 120.355 53.7265 120.316C53.6834 120.298 53.6834 120.298 53.6395 120.28C53.4829 120.217 53.3787 120.182 53.2187 120.242C53.1314 120.288 53.0485 120.334 52.9647 120.385C52.9402 120.4 52.9156 120.414 52.8904 120.429C52.8101 120.477 52.73 120.526 52.6499 120.574C52.594 120.608 52.538 120.641 52.4821 120.675C52.3107 120.778 52.1397 120.881 51.9687 120.984C51.9162 121.016 51.8637 121.048 51.8112 121.079C51.5805 121.219 51.3501 121.359 51.1199 121.499C51.08 121.523 51.0401 121.547 50.999 121.572C50.9103 121.627 50.8219 121.682 50.7337 121.737C50.7105 121.751 50.6872 121.766 50.6633 121.781C50.5982 121.822 50.5332 121.862 50.4683 121.903C50.3672 121.961 50.3672 121.961 50.289 121.961C50.289 121.987 50.289 122.012 50.289 122.039C50.316 122.049 50.343 122.059 50.3708 122.069C50.5 122.124 50.6183 122.192 50.7384 122.264C50.7629 122.278 50.7874 122.293 50.8127 122.308C50.8929 122.356 50.9731 122.404 51.0532 122.452C51.1091 122.485 51.165 122.518 51.2209 122.552C51.6358 122.799 52.0491 123.049 52.4614 123.301C52.5434 123.351 52.6256 123.401 52.7079 123.45C52.7909 123.501 52.8732 123.552 52.955 123.604C53.0163 123.643 53.0163 123.643 53.079 123.682C53.1152 123.705 53.1515 123.728 53.1889 123.752C53.3846 123.834 53.5355 123.759 53.7236 123.685C53.7995 123.654 53.8752 123.623 53.9508 123.591C53.9915 123.575 54.0322 123.558 54.0741 123.541C54.2041 123.487 54.334 123.433 54.4638 123.379C55.4506 122.971 55.4506 122.971 55.8066 122.834C55.8534 122.816 55.9003 122.798 55.9485 122.78C56.1833 122.707 56.3372 122.738 56.5512 122.847C56.6988 122.974 56.7964 123.074 56.8288 123.272C56.8403 123.495 56.8086 123.656 56.6904 123.846C56.4957 124.028 56.2053 124.115 55.9607 124.212C55.9136 124.231 55.9136 124.231 55.8654 124.251C55.7661 124.291 55.6667 124.331 55.5674 124.371C55.4672 124.411 55.367 124.451 55.2668 124.492C55.2047 124.517 55.1426 124.542 55.0805 124.566C54.9291 124.627 54.9291 124.627 54.7812 124.695C54.817 124.716 54.8529 124.737 54.8898 124.759C55.0246 124.838 55.1592 124.918 55.2938 124.997C55.3518 125.032 55.4097 125.066 55.4677 125.1C56.5143 125.715 56.5143 125.715 56.6172 126.023C56.6473 126.279 56.6148 126.442 56.4609 126.648C56.2924 126.779 56.1391 126.864 55.9212 126.859C55.5298 126.787 55.1403 126.478 54.8032 126.27C54.7543 126.24 54.7054 126.21 54.6565 126.18C54.5671 126.126 54.4778 126.071 54.3886 126.016C54.2854 125.953 54.1819 125.89 54.0781 125.828C54.0828 125.87 54.0876 125.912 54.0924 125.955C54.1102 126.113 54.1276 126.272 54.1449 126.43C54.1523 126.498 54.1599 126.566 54.1676 126.634C54.3044 127.845 54.3044 127.845 54.0781 128.133C53.8971 128.289 53.7271 128.338 53.4922 128.328C53.2988 128.276 53.1572 128.189 53.0355 128.031C52.9723 127.915 52.9587 127.819 52.9422 127.688C52.936 127.64 52.9298 127.591 52.9234 127.541C52.8967 127.307 52.8724 127.073 52.8501 126.839C52.8426 126.762 52.8351 126.686 52.8276 126.609C52.8093 126.424 52.7913 126.238 52.7736 126.052C52.7635 125.947 52.7533 125.842 52.7429 125.737C52.7331 125.638 52.7236 125.54 52.7144 125.441C52.7078 125.374 52.7078 125.374 52.701 125.307C52.6954 125.248 52.6954 125.248 52.6896 125.189C52.6626 125.032 52.628 124.954 52.4982 124.862C52.4581 124.839 52.4181 124.816 52.3767 124.793C52.3437 124.773 52.3437 124.773 52.3099 124.754C52.2621 124.726 52.2142 124.699 52.1662 124.672C52.0371 124.599 51.9088 124.525 51.7803 124.45C51.7538 124.435 51.7273 124.42 51.7 124.404C51.4265 124.247 51.1566 124.083 50.8872 123.919C50.8245 123.881 50.8245 123.881 50.7605 123.842C50.6293 123.762 50.4982 123.682 50.3672 123.602C50.1351 123.46 49.9031 123.318 49.664 123.172C49.6511 124.332 49.6383 125.492 49.625 126.687C49.6765 126.713 49.7281 126.739 49.7812 126.766C49.8316 126.8 49.8811 126.835 49.93 126.871C49.9731 126.903 49.9731 126.903 50.0172 126.935C50.0635 126.97 50.0635 126.97 50.1108 127.005C50.1433 127.029 50.1758 127.053 50.2093 127.078C50.4894 127.286 50.7674 127.497 51.0443 127.709C51.2047 127.832 51.3655 127.954 51.529 128.073C51.5576 128.094 51.5862 128.115 51.6157 128.136C51.6684 128.175 51.7213 128.213 51.7745 128.251C51.9599 128.386 52.1039 128.522 52.1457 128.758C52.1432 128.997 52.1412 129.162 51.9687 129.344C51.7913 129.512 51.6279 129.52 51.3942 129.528C51.0613 129.455 50.7735 129.162 50.5088 128.958C50.2303 128.744 49.9492 128.534 49.664 128.328C49.6639 128.353 49.6638 128.378 49.6636 128.404C49.662 128.663 49.6593 128.923 49.6559 129.183C49.6548 129.28 49.654 129.377 49.6535 129.474C49.6526 129.613 49.6508 129.753 49.6488 129.892C49.6487 129.935 49.6487 129.979 49.6486 130.023C49.6441 130.264 49.6305 130.41 49.4687 130.594C49.3195 130.735 49.1999 130.762 49 130.77C48.8001 130.762 48.6804 130.735 48.5312 130.594C48.3403 130.377 48.3515 130.172 48.3512 129.892C48.3505 129.847 48.3499 129.803 48.3492 129.757C48.3473 129.614 48.3465 129.472 48.3457 129.329C48.3446 129.232 48.3434 129.136 48.3422 129.039C48.3393 128.802 48.3373 128.565 48.3359 128.328C48.3121 128.346 48.2883 128.365 48.2637 128.384C47.8846 128.674 47.505 128.964 47.1177 129.244C47.088 129.265 47.0583 129.287 47.0278 129.309C46.7665 129.496 46.5936 129.53 46.2656 129.5C46.0748 129.411 45.9636 129.3 45.875 129.109C45.8465 128.898 45.8355 128.717 45.9346 128.525C46.0565 128.375 46.1925 128.267 46.3462 128.152C46.3772 128.129 46.4082 128.105 46.4401 128.081C46.6877 127.892 46.938 127.708 47.1891 127.524C47.362 127.398 47.5332 127.27 47.703 127.139C47.7405 127.11 47.7781 127.081 47.8168 127.052C47.89 126.995 47.9631 126.939 48.0361 126.882C48.069 126.857 48.1019 126.831 48.1359 126.805C48.1651 126.782 48.1943 126.76 48.2245 126.736C48.2969 126.687 48.2969 126.687 48.375 126.687C48.3621 125.527 48.3492 124.367 48.3359 123.172C47.975 123.391 47.614 123.61 47.2422 123.836C47.0486 123.951 46.8551 124.066 46.661 124.181C46.5837 124.227 46.5066 124.273 46.4296 124.319C46.2141 124.448 45.999 124.576 45.777 124.694C45.7473 124.71 45.7176 124.727 45.687 124.744C45.6363 124.772 45.5849 124.798 45.5326 124.823C45.4545 124.863 45.4545 124.863 45.3672 124.969C45.3396 125.074 45.3396 125.074 45.3253 125.195C45.319 125.241 45.3127 125.287 45.3063 125.334C45.2787 125.562 45.2556 125.791 45.2343 126.021C45.2269 126.097 45.2195 126.173 45.2122 126.249C45.1942 126.434 45.1766 126.619 45.1593 126.804C45.1449 126.959 45.1298 127.113 45.1146 127.268C45.1104 127.316 45.1061 127.363 45.1017 127.412C45.0671 127.759 45.0229 128.016 44.7422 128.25C44.5812 128.341 44.4157 128.351 44.2344 128.328C44.0127 128.25 43.8708 128.109 43.7656 127.898C43.7379 127.441 43.7923 126.988 43.8437 126.534C43.8513 126.465 43.8588 126.396 43.8663 126.327C43.8845 126.161 43.9031 125.994 43.9219 125.828C43.751 125.93 43.5801 126.031 43.4093 126.132C43.3513 126.167 43.2933 126.201 43.2354 126.236C43.1791 126.269 43.1228 126.302 43.0665 126.336C43.0113 126.369 42.9562 126.401 42.901 126.434C42.7183 126.542 42.5364 126.652 42.3553 126.763C42.1981 126.851 42.068 126.858 41.8906 126.844C41.6846 126.773 41.5412 126.678 41.4219 126.492C41.3551 126.292 41.3575 126.099 41.4243 125.899C41.6447 125.579 42.0082 125.409 42.3374 125.22C42.4375 125.162 42.5375 125.105 42.6375 125.047C42.6612 125.033 42.6849 125.019 42.7094 125.005C42.8817 124.906 43.051 124.802 43.2187 124.695C43.1786 124.679 43.1384 124.662 43.0971 124.645C42.9459 124.583 42.7947 124.52 42.6437 124.458C42.5787 124.431 42.5137 124.404 42.4487 124.377C41.3566 123.928 41.3566 123.928 41.2363 123.726C41.1611 123.524 41.1389 123.325 41.2247 123.123C41.3162 122.965 41.4043 122.85 41.5781 122.781C41.9596 122.691 42.2964 122.859 42.645 123.006C42.6783 123.02 42.7117 123.034 42.746 123.049C42.8516 123.093 42.957 123.137 43.0625 123.182C43.3022 123.282 43.5421 123.383 43.7824 123.482C43.8497 123.51 43.9169 123.538 43.9841 123.566C44.0803 123.606 44.1768 123.645 44.2734 123.684C44.3021 123.696 44.3309 123.708 44.3605 123.72C44.517 123.783 44.6212 123.818 44.7812 123.758C44.8686 123.712 44.9515 123.666 45.0353 123.615C45.0598 123.6 45.0843 123.586 45.1096 123.571C45.1899 123.523 45.27 123.474 45.3501 123.426C45.406 123.392 45.4619 123.359 45.5179 123.325C45.6893 123.222 45.8603 123.119 46.0312 123.016C46.0837 122.984 46.1362 122.952 46.1887 122.921C46.4194 122.781 46.6499 122.641 46.8801 122.501C46.92 122.477 46.9599 122.453 47.001 122.428C47.0897 122.373 47.1781 122.318 47.2662 122.263C47.2895 122.249 47.3127 122.234 47.3367 122.219C47.4018 122.178 47.4667 122.138 47.5317 122.097C47.6328 122.039 47.6328 122.039 47.7109 122.039C47.7109 122.013 47.7109 121.987 47.7109 121.961C47.6839 121.951 47.6569 121.941 47.6291 121.931C47.4999 121.876 47.3816 121.808 47.2615 121.736C47.237 121.722 47.2125 121.707 47.1873 121.692C47.107 121.644 47.0269 121.596 46.9468 121.548C46.8908 121.515 46.8349 121.482 46.779 121.448C46.3642 121.201 45.9508 120.951 45.5386 120.699C45.4565 120.649 45.3743 120.599 45.292 120.55C45.2091 120.499 45.1268 120.448 45.045 120.396C45.0041 120.37 44.9631 120.345 44.921 120.318C44.8847 120.295 44.8484 120.272 44.811 120.248C44.5844 120.153 44.3766 120.273 44.1624 120.361C44.1232 120.377 44.084 120.393 44.0436 120.41C44.0026 120.427 43.9615 120.444 43.9192 120.461C43.7882 120.515 43.6573 120.569 43.5263 120.623C43.4392 120.659 43.352 120.695 43.2648 120.73C43.1031 120.797 42.9414 120.863 42.7799 120.93C42.7248 120.953 42.7248 120.953 42.6686 120.976C42.5882 121.009 42.508 121.043 42.4279 121.077C42.3865 121.095 42.345 121.112 42.3023 121.131C42.2462 121.155 42.2462 121.155 42.1889 121.179C41.9466 121.272 41.7452 121.277 41.5 121.18C41.3353 121.075 41.2534 120.973 41.1875 120.789C41.1567 120.587 41.1684 120.382 41.2745 120.204C41.5614 119.877 42.192 119.722 42.5888 119.561C42.6503 119.536 42.7118 119.511 42.7733 119.486C42.9217 119.425 43.0702 119.365 43.2187 119.305C43.1829 119.284 43.1471 119.263 43.1102 119.241C42.9754 119.162 42.8407 119.082 42.7061 119.003C42.6482 118.968 42.5902 118.934 42.5323 118.9C41.4857 118.285 41.4857 118.285 41.3828 117.977C41.3526 117.721 41.3851 117.558 41.539 117.352C41.7076 117.221 41.8608 117.136 42.0788 117.141C42.4702 117.213 42.8597 117.522 43.1968 117.73C43.2456 117.76 43.2946 117.79 43.3435 117.82C43.4328 117.874 43.5221 117.929 43.6114 117.984C43.7145 118.047 43.818 118.11 43.9219 118.172C43.9171 118.13 43.9124 118.088 43.9075 118.045C43.8897 117.887 43.8723 117.728 43.8551 117.57C43.8476 117.502 43.8401 117.434 43.8324 117.366C43.6966 116.165 43.6966 116.165 43.8828 115.906C44.0317 115.753 44.1628 115.678 44.3784 115.66C44.6145 115.664 44.7871 115.756 44.9521 115.921C45.1187 116.293 45.1116 116.759 45.1499 117.161C45.1574 117.238 45.1649 117.314 45.1724 117.391C45.1906 117.576 45.2086 117.762 45.2264 117.948C45.2364 118.053 45.2467 118.158 45.2571 118.263C45.2668 118.362 45.2763 118.46 45.2855 118.559C45.29 118.603 45.2944 118.648 45.299 118.693C45.3027 118.732 45.3065 118.771 45.3103 118.811C45.3374 118.968 45.372 119.046 45.5017 119.138C45.5418 119.161 45.5819 119.184 45.6232 119.207C45.6453 119.22 45.6673 119.233 45.6901 119.246C45.7379 119.273 45.7858 119.301 45.8337 119.328C45.9629 119.401 46.0912 119.475 46.2197 119.55C46.2594 119.572 46.2594 119.572 46.3 119.596C46.5734 119.753 46.8433 119.917 47.1128 120.081C47.1755 120.119 47.1755 120.119 47.2395 120.158C47.3706 120.238 47.5017 120.318 47.6328 120.398C47.8648 120.54 48.0969 120.682 48.3359 120.828C48.3553 119.088 48.3553 119.088 48.375 117.312C48.3234 117.287 48.2719 117.261 48.2187 117.234C48.1684 117.2 48.1188 117.165 48.07 117.129C48.0412 117.108 48.0124 117.087 47.9828 117.065C47.9519 117.042 47.921 117.019 47.8891 116.995C47.8566 116.971 47.8241 116.947 47.7907 116.922C47.5105 116.714 47.2326 116.503 46.9557 116.291C46.7953 116.168 46.6344 116.046 46.471 115.927C46.4424 115.906 46.4138 115.885 46.3843 115.864C46.3316 115.825 46.2786 115.787 46.2254 115.749C46.0401 115.614 45.896 115.478 45.8542 115.242C45.8567 115.003 45.8588 114.838 46.0312 114.656C46.2087 114.488 46.372 114.48 46.6057 114.472C46.9387 114.545 47.2265 114.838 47.4912 115.042C47.7697 115.256 48.0507 115.466 48.3359 115.672C48.3361 115.647 48.3362 115.622 48.3363 115.596C48.338 115.337 48.3407 115.077 48.344 114.817C48.3451 114.72 48.346 114.623 48.3465 114.526C48.3473 114.387 48.3492 114.247 48.3512 114.108C48.3512 114.065 48.3513 114.021 48.3513 113.977C48.3559 113.736 48.3694 113.59 48.5312 113.406C48.7371 113.211 48.9651 113.214 49.2344 113.25Z" fill="#4294FF"/>
<path d="M71.2344 113.25C71.4162 113.334 71.5462 113.455 71.625 113.641C71.6486 113.796 71.6486 113.951 71.6488 114.108C71.6494 114.153 71.6501 114.197 71.6507 114.243C71.6526 114.386 71.6535 114.528 71.6543 114.671C71.6554 114.768 71.6565 114.864 71.6578 114.961C71.6607 115.198 71.6627 115.435 71.664 115.672C71.6998 115.644 71.6998 115.644 71.7362 115.616C72.1153 115.326 72.4949 115.036 72.8823 114.756C72.912 114.735 72.9416 114.713 72.9722 114.691C73.2334 114.504 73.4063 114.47 73.7344 114.5C73.9252 114.589 74.0364 114.7 74.125 114.891C74.1534 115.102 74.1644 115.283 74.0653 115.475C73.9435 115.625 73.8074 115.732 73.6538 115.848C73.6228 115.871 73.5918 115.895 73.5598 115.919C73.3123 116.108 73.062 116.292 72.8108 116.476C72.638 116.602 72.4668 116.73 72.297 116.861C72.2594 116.89 72.2219 116.919 72.1832 116.948C72.11 117.005 72.0369 117.061 71.9639 117.118C71.931 117.143 71.898 117.169 71.8641 117.195C71.8348 117.218 71.8056 117.24 71.7755 117.264C71.7031 117.312 71.7031 117.312 71.625 117.312C71.6379 118.473 71.6508 119.633 71.664 120.828C72.025 120.609 72.3859 120.39 72.7578 120.164C72.9513 120.049 73.1449 119.934 73.339 119.819C73.4162 119.773 73.4933 119.727 73.5703 119.681C73.7859 119.552 74.001 119.424 74.2229 119.306C74.2675 119.281 74.2675 119.281 74.313 119.256C74.3637 119.228 74.4151 119.202 74.4673 119.177C74.5454 119.137 74.5454 119.137 74.6328 119.031C74.6603 118.926 74.6603 118.926 74.6747 118.805C74.681 118.759 74.6872 118.713 74.6936 118.666C74.7213 118.438 74.7444 118.209 74.7657 117.979C74.773 117.903 74.7804 117.827 74.7878 117.751C74.8057 117.566 74.8234 117.381 74.8406 117.196C74.855 117.041 74.8702 116.887 74.8853 116.732C74.8896 116.684 74.8939 116.637 74.8983 116.588C74.9554 116.015 74.9554 116.015 75.1821 115.813C75.3494 115.682 75.5168 115.652 75.7265 115.672C75.9371 115.734 76.0739 115.839 76.1953 116.023C76.3782 116.389 76.2007 117.073 76.1562 117.466C76.1487 117.535 76.1411 117.604 76.1336 117.673C76.1155 117.839 76.0969 118.006 76.0781 118.172C76.249 118.07 76.4198 117.969 76.5907 117.868C76.6487 117.833 76.7066 117.799 76.7646 117.764C76.8209 117.731 76.8772 117.698 76.9335 117.664C76.9886 117.631 77.0438 117.599 77.099 117.566C77.2817 117.458 77.4636 117.348 77.6447 117.237C77.8019 117.149 77.9319 117.142 78.1094 117.156C78.3153 117.227 78.4588 117.322 78.5781 117.508C78.6449 117.708 78.6424 117.901 78.5757 118.101C78.3553 118.421 77.9918 118.591 77.6626 118.78C77.5868 118.823 77.511 118.867 77.4353 118.911C77.3666 118.951 77.2977 118.99 77.2289 119.03C77.0774 119.118 76.9293 119.211 76.7812 119.305C76.822 119.322 76.8627 119.339 76.9047 119.356C77.0574 119.419 77.2101 119.483 77.3627 119.546C77.4285 119.574 77.4943 119.601 77.5601 119.628C77.6553 119.668 77.7504 119.708 77.8455 119.747C77.8745 119.759 77.9034 119.771 77.9332 119.784C78.0181 119.819 78.1028 119.855 78.1875 119.891C78.219 119.904 78.2505 119.917 78.2829 119.931C78.3141 119.944 78.3453 119.958 78.3775 119.972C78.4057 119.984 78.4339 119.996 78.463 120.008C78.6113 120.083 78.7031 120.189 78.7856 120.33C78.8431 120.56 78.8493 120.751 78.727 120.96C78.6005 121.138 78.4911 121.202 78.2778 121.253C77.962 121.282 77.6398 121.114 77.355 120.994C77.305 120.973 77.305 120.973 77.254 120.951C77.1484 120.907 77.0429 120.863 76.9375 120.818C76.6977 120.718 76.4579 120.617 76.2175 120.518C76.1503 120.49 76.0831 120.462 76.0159 120.434C75.9196 120.394 75.8231 120.355 75.7265 120.316C75.6834 120.298 75.6834 120.298 75.6395 120.28C75.4829 120.217 75.3787 120.182 75.2187 120.242C75.1314 120.288 75.0485 120.334 74.9647 120.385C74.9402 120.4 74.9156 120.414 74.8904 120.429C74.8101 120.477 74.73 120.526 74.6499 120.574C74.594 120.608 74.538 120.641 74.4821 120.675C74.3107 120.778 74.1397 120.881 73.9687 120.984C73.9162 121.016 73.8637 121.048 73.8112 121.079C73.5805 121.219 73.3501 121.359 73.1199 121.499C73.08 121.523 73.0401 121.547 72.999 121.572C72.9103 121.627 72.8219 121.682 72.7337 121.737C72.7105 121.751 72.6872 121.766 72.6633 121.781C72.5982 121.822 72.5332 121.862 72.4683 121.903C72.3672 121.961 72.3672 121.961 72.289 121.961C72.289 121.987 72.289 122.012 72.289 122.039C72.316 122.049 72.343 122.059 72.3708 122.069C72.5 122.124 72.6183 122.192 72.7384 122.264C72.7629 122.278 72.7874 122.293 72.8127 122.308C72.8929 122.356 72.9731 122.404 73.0532 122.452C73.1091 122.485 73.165 122.518 73.2209 122.552C73.6358 122.799 74.0491 123.049 74.4614 123.301C74.5434 123.351 74.6256 123.401 74.7079 123.45C74.7909 123.501 74.8732 123.552 74.955 123.604C75.0163 123.643 75.0163 123.643 75.079 123.682C75.1152 123.705 75.1515 123.728 75.1889 123.752C75.3846 123.834 75.5355 123.759 75.7236 123.685C75.7995 123.654 75.8752 123.623 75.9508 123.591C75.9915 123.575 76.0322 123.558 76.0741 123.541C76.2041 123.487 76.334 123.433 76.4638 123.379C77.4506 122.971 77.4506 122.971 77.8066 122.834C77.8534 122.816 77.9003 122.798 77.9485 122.78C78.1833 122.707 78.3372 122.738 78.5512 122.847C78.6988 122.974 78.7964 123.074 78.8288 123.272C78.8403 123.495 78.8086 123.656 78.6904 123.846C78.4957 124.028 78.2053 124.115 77.9607 124.212C77.9136 124.231 77.9136 124.231 77.8654 124.251C77.7661 124.291 77.6667 124.331 77.5674 124.371C77.4672 124.411 77.367 124.451 77.2668 124.492C77.2047 124.517 77.1426 124.542 77.0805 124.566C76.9291 124.627 76.9291 124.627 76.7812 124.695C76.817 124.716 76.8529 124.737 76.8898 124.759C77.0246 124.838 77.1592 124.918 77.2938 124.997C77.3518 125.032 77.4097 125.066 77.4677 125.1C78.5143 125.715 78.5143 125.715 78.6172 126.023C78.6473 126.279 78.6148 126.442 78.4609 126.648C78.2924 126.779 78.1391 126.864 77.9212 126.859C77.5298 126.787 77.1403 126.478 76.8032 126.27C76.7543 126.24 76.7054 126.21 76.6565 126.18C76.5671 126.126 76.4778 126.071 76.3886 126.016C76.2854 125.953 76.1819 125.89 76.0781 125.828C76.0828 125.87 76.0876 125.912 76.0924 125.955C76.1102 126.113 76.1276 126.272 76.1449 126.43C76.1523 126.498 76.1599 126.566 76.1676 126.634C76.3044 127.845 76.3044 127.845 76.0781 128.133C75.8971 128.289 75.7271 128.338 75.4922 128.328C75.2988 128.276 75.1572 128.189 75.0355 128.031C74.9723 127.915 74.9587 127.819 74.9422 127.688C74.936 127.64 74.9298 127.591 74.9234 127.541C74.8967 127.307 74.8724 127.073 74.8501 126.839C74.8426 126.762 74.8351 126.686 74.8276 126.609C74.8093 126.424 74.7913 126.238 74.7736 126.052C74.7635 125.947 74.7533 125.842 74.7429 125.737C74.7331 125.638 74.7236 125.54 74.7144 125.441C74.7078 125.374 74.7078 125.374 74.701 125.307C74.6954 125.248 74.6954 125.248 74.6896 125.189C74.6626 125.032 74.628 124.954 74.4982 124.862C74.4581 124.839 74.4181 124.816 74.3767 124.793C74.3437 124.773 74.3437 124.773 74.3099 124.754C74.2621 124.726 74.2142 124.699 74.1662 124.672C74.0371 124.599 73.9088 124.525 73.7803 124.45C73.7538 124.435 73.7273 124.42 73.7 124.404C73.4265 124.247 73.1566 124.083 72.8872 123.919C72.8245 123.881 72.8245 123.881 72.7605 123.842C72.6293 123.762 72.4982 123.682 72.3672 123.602C72.1351 123.46 71.9031 123.318 71.664 123.172C71.6511 124.332 71.6383 125.492 71.625 126.687C71.6765 126.713 71.7281 126.739 71.7812 126.766C71.8316 126.8 71.8811 126.835 71.93 126.871C71.9731 126.903 71.9731 126.903 72.0172 126.935C72.0635 126.97 72.0635 126.97 72.1108 127.005C72.1433 127.029 72.1758 127.053 72.2093 127.078C72.4894 127.286 72.7674 127.497 73.0443 127.709C73.2047 127.832 73.3655 127.954 73.529 128.073C73.5576 128.094 73.5862 128.115 73.6157 128.136C73.6684 128.175 73.7213 128.213 73.7745 128.251C73.9599 128.386 74.1039 128.522 74.1457 128.758C74.1432 128.997 74.1412 129.162 73.9687 129.344C73.7913 129.512 73.6279 129.52 73.3942 129.528C73.0613 129.455 72.7735 129.162 72.5088 128.958C72.2303 128.744 71.9492 128.534 71.664 128.328C71.6639 128.353 71.6638 128.378 71.6636 128.404C71.662 128.663 71.6593 128.923 71.6559 129.183C71.6548 129.28 71.654 129.377 71.6535 129.474C71.6526 129.613 71.6508 129.753 71.6488 129.892C71.6487 129.935 71.6487 129.979 71.6486 130.023C71.6441 130.264 71.6305 130.41 71.4687 130.594C71.3195 130.735 71.1999 130.762 71 130.77C70.8001 130.762 70.6804 130.735 70.5312 130.594C70.3403 130.377 70.3515 130.172 70.3512 129.892C70.3505 129.847 70.3499 129.803 70.3492 129.757C70.3473 129.614 70.3465 129.472 70.3457 129.329C70.3446 129.232 70.3434 129.136 70.3422 129.039C70.3393 128.802 70.3373 128.565 70.3359 128.328C70.3121 128.346 70.2883 128.365 70.2637 128.384C69.8846 128.674 69.505 128.964 69.1177 129.244C69.088 129.265 69.0583 129.287 69.0278 129.309C68.7665 129.496 68.5936 129.53 68.2656 129.5C68.0748 129.411 67.9636 129.3 67.875 129.109C67.8465 128.898 67.8355 128.717 67.9346 128.525C68.0565 128.375 68.1925 128.267 68.3462 128.152C68.3772 128.129 68.4082 128.105 68.4401 128.081C68.6877 127.892 68.938 127.708 69.1891 127.524C69.362 127.398 69.5332 127.27 69.703 127.139C69.7405 127.11 69.7781 127.081 69.8168 127.052C69.89 126.995 69.9631 126.939 70.0361 126.882C70.069 126.857 70.1019 126.831 70.1359 126.805C70.1651 126.782 70.1943 126.76 70.2245 126.736C70.2969 126.687 70.2969 126.687 70.375 126.687C70.3621 125.527 70.3492 124.367 70.3359 123.172C69.975 123.391 69.614 123.61 69.2422 123.836C69.0486 123.951 68.8551 124.066 68.661 124.181C68.5837 124.227 68.5066 124.273 68.4296 124.319C68.2141 124.448 67.999 124.576 67.777 124.694C67.7473 124.71 67.7176 124.727 67.687 124.744C67.6363 124.772 67.5849 124.798 67.5326 124.823C67.4545 124.863 67.4545 124.863 67.3672 124.969C67.3396 125.074 67.3396 125.074 67.3253 125.195C67.319 125.241 67.3127 125.287 67.3063 125.334C67.2787 125.562 67.2556 125.791 67.2343 126.021C67.2269 126.097 67.2195 126.173 67.2122 126.249C67.1942 126.434 67.1766 126.619 67.1593 126.804C67.1449 126.959 67.1298 127.113 67.1146 127.268C67.1104 127.316 67.1061 127.363 67.1017 127.412C67.0671 127.759 67.0229 128.016 66.7422 128.25C66.5812 128.341 66.4157 128.351 66.2344 128.328C66.0127 128.25 65.8708 128.109 65.7656 127.898C65.7379 127.441 65.7923 126.988 65.8437 126.534C65.8513 126.465 65.8588 126.396 65.8663 126.327C65.8845 126.161 65.9031 125.994 65.9219 125.828C65.751 125.93 65.5801 126.031 65.4093 126.132C65.3513 126.167 65.2933 126.201 65.2354 126.236C65.1791 126.269 65.1228 126.302 65.0665 126.336C65.0113 126.369 64.9562 126.401 64.901 126.434C64.7183 126.542 64.5364 126.652 64.3553 126.763C64.1981 126.851 64.068 126.858 63.8906 126.844C63.6846 126.773 63.5412 126.678 63.4219 126.492C63.3551 126.292 63.3575 126.099 63.4243 125.899C63.6447 125.579 64.0082 125.409 64.3374 125.22C64.4375 125.162 64.5375 125.105 64.6375 125.047C64.6612 125.033 64.6849 125.019 64.7094 125.005C64.8817 124.906 65.051 124.802 65.2187 124.695C65.1786 124.679 65.1384 124.662 65.0971 124.645C64.9459 124.583 64.7947 124.52 64.6437 124.458C64.5787 124.431 64.5137 124.404 64.4487 124.377C63.3566 123.928 63.3566 123.928 63.2363 123.726C63.1611 123.524 63.1389 123.325 63.2247 123.123C63.3162 122.965 63.4043 122.85 63.5781 122.781C63.9596 122.691 64.2964 122.859 64.645 123.006C64.6783 123.02 64.7117 123.034 64.746 123.049C64.8516 123.093 64.957 123.137 65.0625 123.182C65.3022 123.282 65.5421 123.383 65.7824 123.482C65.8497 123.51 65.9169 123.538 65.9841 123.566C66.0803 123.606 66.1768 123.645 66.2734 123.684C66.3021 123.696 66.3309 123.708 66.3605 123.72C66.517 123.783 66.6212 123.818 66.7812 123.758C66.8686 123.712 66.9515 123.666 67.0353 123.615C67.0598 123.6 67.0843 123.586 67.1096 123.571C67.1899 123.523 67.27 123.474 67.3501 123.426C67.406 123.392 67.4619 123.359 67.5179 123.325C67.6893 123.222 67.8603 123.119 68.0312 123.016C68.0837 122.984 68.1362 122.952 68.1887 122.921C68.4194 122.781 68.6499 122.641 68.8801 122.501C68.92 122.477 68.9599 122.453 69.001 122.428C69.0897 122.373 69.1781 122.318 69.2662 122.263C69.2895 122.249 69.3127 122.234 69.3367 122.219C69.4018 122.178 69.4667 122.138 69.5317 122.097C69.6328 122.039 69.6328 122.039 69.7109 122.039C69.7109 122.013 69.7109 121.987 69.7109 121.961C69.6839 121.951 69.6569 121.941 69.6291 121.931C69.4999 121.876 69.3816 121.808 69.2615 121.736C69.237 121.722 69.2125 121.707 69.1873 121.692C69.107 121.644 69.0269 121.596 68.9468 121.548C68.8908 121.515 68.8349 121.482 68.779 121.448C68.3642 121.201 67.9508 120.951 67.5386 120.699C67.4565 120.649 67.3743 120.599 67.292 120.55C67.2091 120.499 67.1268 120.448 67.045 120.396C67.0041 120.37 66.9631 120.345 66.921 120.318C66.8847 120.295 66.8484 120.272 66.811 120.248C66.5844 120.153 66.3766 120.273 66.1624 120.361C66.1232 120.377 66.084 120.393 66.0436 120.41C66.0026 120.427 65.9615 120.444 65.9192 120.461C65.7882 120.515 65.6573 120.569 65.5263 120.623C65.4392 120.659 65.352 120.695 65.2648 120.73C65.1031 120.797 64.9414 120.863 64.7799 120.93C64.7248 120.953 64.7248 120.953 64.6686 120.976C64.5882 121.009 64.508 121.043 64.4279 121.077C64.3865 121.095 64.345 121.112 64.3023 121.131C64.2462 121.155 64.2462 121.155 64.1889 121.179C63.9466 121.272 63.7452 121.277 63.5 121.18C63.3353 121.075 63.2534 120.973 63.1875 120.789C63.1567 120.587 63.1684 120.382 63.2745 120.204C63.5614 119.877 64.192 119.722 64.5888 119.561C64.6503 119.536 64.7118 119.511 64.7733 119.486C64.9217 119.425 65.0702 119.365 65.2187 119.305C65.1829 119.284 65.1471 119.263 65.1102 119.241C64.9754 119.162 64.8407 119.082 64.7061 119.003C64.6482 118.968 64.5902 118.934 64.5323 118.9C63.4857 118.285 63.4857 118.285 63.3828 117.977C63.3526 117.721 63.3851 117.558 63.539 117.352C63.7076 117.221 63.8608 117.136 64.0788 117.141C64.4702 117.213 64.8597 117.522 65.1968 117.73C65.2456 117.76 65.2946 117.79 65.3435 117.82C65.4328 117.874 65.5221 117.929 65.6114 117.984C65.7145 118.047 65.818 118.11 65.9219 118.172C65.9171 118.13 65.9124 118.088 65.9075 118.045C65.8897 117.887 65.8723 117.728 65.8551 117.57C65.8476 117.502 65.8401 117.434 65.8324 117.366C65.6966 116.165 65.6966 116.165 65.8828 115.906C66.0317 115.753 66.1628 115.678 66.3784 115.66C66.6145 115.664 66.7871 115.756 66.9521 115.921C67.1187 116.293 67.1116 116.759 67.1499 117.161C67.1574 117.238 67.1649 117.314 67.1724 117.391C67.1906 117.576 67.2086 117.762 67.2264 117.948C67.2364 118.053 67.2467 118.158 67.2571 118.263C67.2668 118.362 67.2763 118.46 67.2855 118.559C67.29 118.603 67.2944 118.648 67.299 118.693C67.3027 118.732 67.3065 118.771 67.3103 118.811C67.3374 118.968 67.372 119.046 67.5017 119.138C67.5418 119.161 67.5819 119.184 67.6232 119.207C67.6453 119.22 67.6673 119.233 67.6901 119.246C67.7379 119.273 67.7858 119.301 67.8337 119.328C67.9629 119.401 68.0912 119.475 68.2197 119.55C68.2594 119.572 68.2594 119.572 68.3 119.596C68.5734 119.753 68.8433 119.917 69.1128 120.081C69.1755 120.119 69.1755 120.119 69.2395 120.158C69.3706 120.238 69.5017 120.318 69.6328 120.398C69.8648 120.54 70.0969 120.682 70.3359 120.828C70.3553 119.088 70.3553 119.088 70.375 117.312C70.3234 117.287 70.2719 117.261 70.2187 117.234C70.1684 117.2 70.1188 117.165 70.07 117.129C70.0412 117.108 70.0124 117.087 69.9828 117.065C69.9519 117.042 69.921 117.019 69.8891 116.995C69.8566 116.971 69.8241 116.947 69.7907 116.922C69.5105 116.714 69.2326 116.503 68.9557 116.291C68.7953 116.168 68.6344 116.046 68.471 115.927C68.4424 115.906 68.4138 115.885 68.3843 115.864C68.3316 115.825 68.2786 115.787 68.2254 115.749C68.0401 115.614 67.896 115.478 67.8542 115.242C67.8567 115.003 67.8588 114.838 68.0312 114.656C68.2087 114.488 68.372 114.48 68.6057 114.472C68.9387 114.545 69.2265 114.838 69.4912 115.042C69.7697 115.256 70.0507 115.466 70.3359 115.672C70.3361 115.647 70.3362 115.622 70.3363 115.596C70.338 115.337 70.3407 115.077 70.344 114.817C70.3451 114.72 70.346 114.623 70.3465 114.526C70.3473 114.387 70.3492 114.247 70.3512 114.108C70.3512 114.065 70.3513 114.021 70.3513 113.977C70.3559 113.736 70.3694 113.59 70.5312 113.406C70.7371 113.211 70.9651 113.214 71.2344 113.25Z" fill="#4294FF"/>
<defs>
<radialGradient id="paint0_radial_220_29" cx="0" cy="0" r="1" gradientUnits="userSpaceOnUse" gradientTransform="translate(82.6599 48.0697) rotate(62.7801) scale(37.4019 28.7283)">
<stop offset="0.0001" stop-color="white"/>
<stop offset="0.50005" stop-color="#F3F4F6"/>
<stop offset="1" stop-color="#DADDE3"/>
</radialGradient>
<linearGradient id="paint1_linear_220_29" x1="68.785" y1="-21.5139" x2="89.4702" y2="65.7864" gradientUnits="userSpaceOnUse">
<stop stop-color="white"/>
<stop offset="1" stop-color="white" stop-opacity="0"/>
</linearGradient>
<linearGradient id="paint2_linear_220_29" x1="97.2556" y1="45.4244" x2="97.2556" y2="96.7028" gradientUnits="userSpaceOnUse">
<stop stop-color="#AEAEAE"/>
<stop offset="1" stop-color="white" stop-opacity="0.5"/>
</linearGradient>
<linearGradient id="paint3_linear_220_29" x1="53.854" y1="46.0052" x2="53.854" y2="118.192" gradientUnits="userSpaceOnUse">
<stop stop-color="#AEAEAE"/>
<stop offset="1" stop-color="white" stop-opacity="0.5"/>
</linearGradient>
</defs>
</svg>
