<svg width="210" height="184" viewBox="0 0 210 184" fill="none" xmlns="http://www.w3.org/2000/svg">
<foreignObject x="42" y="0" width="149" height="143"><div xmlns="http://www.w3.org/1999/xhtml" style="backdrop-filter:blur(7px);clip-path:url(#bgblur_0_6_186_clip_path);height:100%;width:100%"></div></foreignObject><g filter="url(#filter0_dd_6_186)" data-figma-bg-blur-radius="14">
<mask id="path-1-inside-1_6_186" fill="white">
<path d="M133 38C144.046 38 153 46.9543 153 58C153 69.0456 144.046 78 133 78C121.954 78 113 69.0456 113 58C113 46.9543 121.954 38 133 38Z"/>
</mask>
<path d="M133 38C144.046 38 153 46.9543 153 58C153 69.0456 144.046 78 133 78C121.954 78 113 69.0456 113 58C113 46.9543 121.954 38 133 38Z" fill="url(#paint0_radial_6_186)"/>
<path d="M133 38L133 36H133V38ZM153 58L155 58V58H153ZM133 78V80H133L133 78ZM113 58H111V58L113 58ZM133 38L133 40C142.941 40 151 48.0589 151 58H153H155C155 45.8498 145.15 36.0001 133 36L133 38ZM153 58L151 58C151 67.941 142.941 76 133 76L133 78L133 80C145.15 79.9999 155 70.1502 155 58L153 58ZM133 78V76C123.059 76 115 67.9411 115 58L113 58L111 58C111 70.1502 120.85 80 133 80V78ZM113 58H115C115 48.0589 123.059 40 133 40V38V36C120.85 36 111 45.8497 111 58H113Z" fill="url(#paint1_linear_6_186)" mask="url(#path-1-inside-1_6_186)"/>
</g>
<foreignObject x="0" y="25" width="186.118" height="158.257"><div xmlns="http://www.w3.org/1999/xhtml" style="backdrop-filter:blur(7px);clip-path:url(#bgblur_1_6_186_clip_path);height:100%;width:100%"></div></foreignObject><g filter="url(#filter1_d_6_186)" data-figma-bg-blur-radius="14">
<mask id="path-3-inside-2_6_186" fill="white">
<path d="M113.697 60C126.887 60 137.579 70.6924 137.579 83.8818C137.579 84.9867 137.502 86.0737 137.356 87.1387H141.378V87.1406C141.438 87.1399 141.499 87.1387 141.56 87.1387C150.152 87.1389 157.118 94.1044 157.118 102.697C157.118 111.29 150.152 118.257 141.56 118.257C141.499 118.257 141.438 118.255 141.378 118.254V118.257H86.7402L86.7412 118.254C86.6807 118.255 86.6202 118.257 86.5596 118.257C77.9665 118.257 71 111.29 71 102.697C71.0001 94.1042 77.9665 87.1387 86.5596 87.1387C87.7752 87.1387 88.9584 87.2773 90.0938 87.541C89.9103 86.3481 89.8154 85.126 89.8154 83.8818C89.8154 70.6924 100.508 60 113.697 60Z"/>
</mask>
<path d="M113.697 60C126.887 60 137.579 70.6924 137.579 83.8818C137.579 84.9867 137.502 86.0737 137.356 87.1387H141.378V87.1406C141.438 87.1399 141.499 87.1387 141.56 87.1387C150.152 87.1389 157.118 94.1044 157.118 102.697C157.118 111.29 150.152 118.257 141.56 118.257C141.499 118.257 141.438 118.255 141.378 118.254V118.257H86.7402L86.7412 118.254C86.6807 118.255 86.6202 118.257 86.5596 118.257C77.9665 118.257 71 111.29 71 102.697C71.0001 94.1042 77.9665 87.1387 86.5596 87.1387C87.7752 87.1387 88.9584 87.2773 90.0938 87.541C89.9103 86.3481 89.8154 85.126 89.8154 83.8818C89.8154 70.6924 100.508 60 113.697 60Z" fill="url(#paint2_linear_6_186)" shape-rendering="crispEdges"/>
<path d="M113.697 60V58H113.697L113.697 60ZM137.579 83.8818L139.579 83.8819V83.8818H137.579ZM137.356 87.1387L135.375 86.8684C135.297 87.4407 135.47 88.0187 135.85 88.4539C136.23 88.889 136.779 89.1387 137.356 89.1387V87.1387ZM141.378 87.1387H143.378C143.378 86.0341 142.482 85.1387 141.378 85.1387V87.1387ZM141.378 87.1406H139.378C139.378 87.675 139.592 88.1872 139.972 88.5629C140.352 88.9386 140.866 89.1466 141.401 89.1405L141.378 87.1406ZM141.56 87.1387L141.56 85.1387H141.56V87.1387ZM157.118 102.697H159.118V102.697L157.118 102.697ZM141.56 118.257V120.257H141.56L141.56 118.257ZM141.378 118.254L141.401 116.254C140.866 116.248 140.352 116.456 139.972 116.832C139.592 117.207 139.378 117.72 139.378 118.254H141.378ZM141.378 118.257V120.257C142.482 120.257 143.378 119.361 143.378 118.257H141.378ZM86.7402 118.257L84.8429 117.624C84.6396 118.234 84.7418 118.905 85.1178 119.426C85.4937 119.948 86.0973 120.257 86.7402 120.257V118.257ZM86.7412 118.254L88.6386 118.886C88.8432 118.273 88.7382 117.598 88.357 117.075C87.9757 116.553 87.3652 116.247 86.7183 116.254L86.7412 118.254ZM86.5596 118.257V120.257H86.5596L86.5596 118.257ZM71 102.697L69 102.697V102.697H71ZM86.5596 87.1387L86.5596 85.1387H86.5596V87.1387ZM90.0938 87.541L89.6412 89.4891C90.2878 89.6393 90.9667 89.459 91.4535 89.0077C91.9402 88.5564 92.1714 87.8931 92.0705 87.237L90.0938 87.541ZM89.8154 83.8818H87.8154V83.8819L89.8154 83.8818ZM113.697 60V62C125.782 62 135.579 71.797 135.579 83.8818H137.579H139.579C139.579 69.5878 127.991 58 113.697 58V60ZM137.579 83.8818L135.579 83.8818C135.579 84.8931 135.508 85.8898 135.375 86.8684L137.356 87.1387L139.338 87.4089C139.495 86.2576 139.579 85.0802 139.579 83.8819L137.579 83.8818ZM137.356 87.1387V89.1387H141.378V87.1387V85.1387H137.356V87.1387ZM141.378 87.1387H139.378V87.1406H141.378H143.378V87.1387H141.378ZM141.378 87.1406L141.401 89.1405C141.487 89.1395 141.514 89.1387 141.56 89.1387V87.1387V85.1387C141.485 85.1387 141.389 85.1404 141.355 85.1408L141.378 87.1406ZM141.56 87.1387L141.56 89.1387C149.048 89.1389 155.118 95.209 155.118 102.697L157.118 102.697L159.118 102.697C159.118 92.9998 151.257 85.139 141.56 85.1387L141.56 87.1387ZM157.118 102.697H155.118C155.118 110.186 149.048 116.257 141.56 116.257L141.56 118.257L141.56 120.257C151.257 120.257 159.118 112.395 159.118 102.697H157.118ZM141.56 118.257V116.257C141.491 116.257 141.552 116.256 141.401 116.254L141.378 118.254L141.355 120.254C141.372 120.254 141.388 120.254 141.426 120.255C141.458 120.256 141.507 120.257 141.56 120.257V118.257ZM141.378 118.254H139.378V118.257H141.378H143.378V118.254H141.378ZM141.378 118.257V116.257H86.7402V118.257V120.257H141.378V118.257ZM86.7402 118.257L88.6376 118.889L88.6386 118.886L86.7412 118.254L84.8438 117.621L84.8429 117.624L86.7402 118.257ZM86.7412 118.254L86.7183 116.254C86.5673 116.256 86.6276 116.257 86.5595 116.257L86.5596 118.257L86.5596 120.257C86.6126 120.257 86.6609 120.256 86.6931 120.255C86.7313 120.254 86.7468 120.254 86.7641 120.254L86.7412 118.254ZM86.5596 118.257V116.257C79.071 116.257 73 110.186 73 102.697H71H69C69 112.395 76.8619 120.257 86.5596 120.257V118.257ZM71 102.697L73 102.697C73.0001 95.2089 79.0709 89.1387 86.5596 89.1387V87.1387V85.1387C76.8621 85.1387 69.0001 92.9995 69 102.697L71 102.697ZM86.5596 87.1387L86.5595 89.1387C87.6227 89.1387 88.6541 89.2599 89.6412 89.4891L90.0938 87.541L90.5463 85.5929C89.2626 85.2947 87.9277 85.1387 86.5596 85.1387L86.5596 87.1387ZM90.0938 87.541L92.0705 87.237C91.9025 86.1447 91.8154 85.0242 91.8154 83.8818L89.8154 83.8818L87.8154 83.8819C87.8154 85.2279 87.9181 86.5516 88.117 87.845L90.0938 87.541ZM89.8154 83.8818H91.8154C91.8154 71.797 101.612 62 113.697 62L113.697 60L113.697 58C99.4033 58 87.8154 69.5878 87.8154 83.8818H89.8154Z" fill="url(#paint3_linear_6_186)" mask="url(#path-3-inside-2_6_186)"/>
</g>
<foreignObject x="47.7631" y="25" width="162.236" height="142.102"><div xmlns="http://www.w3.org/1999/xhtml" style="backdrop-filter:blur(7px);clip-path:url(#bgblur_2_6_186_clip_path);height:100%;width:100%"></div></foreignObject><g filter="url(#filter2_d_6_186)" data-figma-bg-blur-radius="14">
<mask id="path-5-inside-3_6_186" fill="white">
<path d="M149.62 60C159.151 60 166.879 67.727 166.879 77.2588C166.879 78.0571 166.824 78.8428 166.719 79.6123H169.624V79.6152C169.668 79.6147 169.712 79.6123 169.755 79.6123C175.965 79.6123 180.999 84.6465 180.999 90.8564C180.999 97.0666 175.965 102.102 169.755 102.102C169.712 102.102 169.668 102.098 169.624 102.098V102.102H130.138L130.14 102.098C130.096 102.098 130.051 102.102 130.007 102.102C123.797 102.101 118.763 97.0665 118.763 90.8564C118.763 84.6466 123.797 79.6125 130.007 79.6123C130.886 79.6123 131.742 79.7163 132.563 79.9072C132.43 79.0439 132.361 78.1593 132.361 77.2588C132.361 67.7272 140.088 60.0002 149.62 60Z"/>
</mask>
<path d="M149.62 60C159.151 60 166.879 67.727 166.879 77.2588C166.879 78.0571 166.824 78.8428 166.719 79.6123H169.624V79.6152C169.668 79.6147 169.712 79.6123 169.755 79.6123C175.965 79.6123 180.999 84.6465 180.999 90.8564C180.999 97.0666 175.965 102.102 169.755 102.102C169.712 102.102 169.668 102.098 169.624 102.098V102.102H130.138L130.14 102.098C130.096 102.098 130.051 102.102 130.007 102.102C123.797 102.101 118.763 97.0665 118.763 90.8564C118.763 84.6466 123.797 79.6125 130.007 79.6123C130.886 79.6123 131.742 79.7163 132.563 79.9072C132.43 79.0439 132.361 78.1593 132.361 77.2588C132.361 67.7272 140.088 60.0002 149.62 60Z" fill="url(#paint4_linear_6_186)" shape-rendering="crispEdges"/>
<path d="M149.62 60V58H149.619L149.62 60ZM166.879 77.2588H168.879V77.2588L166.879 77.2588ZM166.719 79.6123L164.737 79.3421C164.659 79.9144 164.833 80.4924 165.212 80.9275C165.592 81.3626 166.142 81.6123 166.719 81.6123V79.6123ZM169.624 79.6123H171.624C171.624 78.5077 170.729 77.6123 169.624 77.6123V79.6123ZM169.624 79.6152H167.624C167.624 80.1496 167.838 80.6618 168.218 81.0375C168.598 81.4132 169.113 81.6212 169.647 81.6151L169.624 79.6152ZM169.755 79.6123V77.6123H169.755L169.755 79.6123ZM180.999 90.8564H182.999V90.8564L180.999 90.8564ZM169.755 102.102L169.755 104.102H169.755V102.102ZM169.624 102.098L169.647 100.098C169.113 100.092 168.598 100.3 168.218 100.675C167.838 101.051 167.624 101.563 167.624 102.098H169.624ZM169.624 102.102V104.102C170.729 104.102 171.624 103.206 171.624 102.102H169.624ZM130.138 102.102L128.349 101.207C128.039 101.827 128.072 102.563 128.437 103.153C128.801 103.743 129.445 104.102 130.138 104.102V102.102ZM130.14 102.098L131.929 102.992C132.241 102.368 132.205 101.627 131.835 101.036C131.465 100.445 130.814 100.09 130.117 100.098L130.14 102.098ZM130.007 102.102L130.007 104.102H130.007V102.102ZM118.763 90.8564L116.763 90.8564V90.8564H118.763ZM130.007 79.6123V77.6123H130.007L130.007 79.6123ZM132.563 79.9072L132.11 81.8553C132.757 82.0056 133.436 81.8252 133.923 81.3739C134.409 80.9225 134.641 80.259 134.54 79.6028L132.563 79.9072ZM132.361 77.2588L130.361 77.2588V77.2588H132.361ZM149.62 60V62C158.047 62 164.879 68.8317 164.879 77.2588L166.879 77.2588L168.879 77.2588C168.879 66.6223 160.256 58 149.62 58V60ZM166.879 77.2588H164.879C164.879 77.9647 164.83 78.6602 164.737 79.3421L166.719 79.6123L168.701 79.8825C168.818 79.0255 168.879 78.1495 168.879 77.2588H166.879ZM166.719 79.6123V81.6123H169.624V79.6123V77.6123H166.719V79.6123ZM169.624 79.6123H167.624V79.6152H169.624H171.624V79.6123H169.624ZM169.624 79.6152L169.647 81.6151C169.672 81.6148 169.695 81.6143 169.712 81.6138C169.727 81.6134 169.744 81.6129 169.751 81.6126C169.773 81.612 169.767 81.6123 169.755 81.6123L169.755 79.6123L169.755 77.6123C169.7 77.6123 169.651 77.6138 169.628 77.6145C169.597 77.6155 169.599 77.6154 169.602 77.6154L169.624 79.6152ZM169.755 79.6123V81.6123C174.861 81.6123 178.999 85.751 178.999 90.8565L180.999 90.8564L182.999 90.8564C182.999 83.542 177.07 77.6123 169.755 77.6123V79.6123ZM180.999 90.8564H178.999C178.999 95.9623 174.861 100.102 169.755 100.102V102.102V104.102C177.07 104.102 182.999 98.1709 182.999 90.8564H180.999ZM169.755 102.102L169.755 100.102C169.77 100.102 169.78 100.102 169.782 100.102C169.784 100.102 169.784 100.102 169.774 100.102C169.767 100.101 169.747 100.1 169.729 100.1C169.708 100.099 169.68 100.098 169.647 100.098L169.624 102.098L169.602 104.098C169.591 104.097 169.584 104.097 169.586 104.097C169.589 104.097 169.591 104.097 169.606 104.098C169.626 104.099 169.687 104.102 169.755 104.102L169.755 102.102ZM169.624 102.098H167.624V102.102H169.624H171.624V102.098H169.624ZM169.624 102.102V100.102H130.138V102.102V104.102H169.624V102.102ZM130.138 102.102L131.927 102.996L131.929 102.992L130.14 102.098L128.351 101.203L128.349 101.207L130.138 102.102ZM130.14 102.098L130.117 100.098C130.085 100.098 130.057 100.099 130.036 100.1C130.018 100.1 129.998 100.101 129.991 100.101C129.981 100.102 129.98 100.102 129.982 100.102C129.984 100.102 129.993 100.102 130.007 100.102V102.102V104.102C130.075 104.102 130.135 104.099 130.156 104.098C130.171 104.097 130.174 104.097 130.177 104.097C130.179 104.097 130.173 104.097 130.163 104.098L130.14 102.098ZM130.007 102.102L130.007 100.102C124.902 100.101 120.763 95.9621 120.763 90.8564H118.763H116.763C116.763 98.1709 122.692 104.101 130.007 104.102L130.007 102.102ZM118.763 90.8564L120.763 90.8565C120.763 85.7512 124.902 81.6124 130.007 81.6123L130.007 79.6123L130.007 77.6123C122.693 77.6125 116.763 83.542 116.763 90.8564L118.763 90.8564ZM130.007 79.6123V81.6123C130.728 81.6123 131.431 81.6975 132.11 81.8553L132.563 79.9072L133.016 77.9592C132.052 77.7351 131.045 77.6123 130.007 77.6123V79.6123ZM132.563 79.9072L134.54 79.6028C134.422 78.8396 134.361 78.0567 134.361 77.2588H132.361H130.361C130.361 78.2619 130.438 79.2483 130.586 80.2116L132.563 79.9072ZM132.361 77.2588L134.361 77.2588C134.361 68.8318 141.192 62.0002 149.62 62L149.62 60L149.619 58C138.983 58.0003 130.361 66.6225 130.361 77.2588L132.361 77.2588Z" fill="url(#paint5_linear_6_186)" mask="url(#path-5-inside-3_6_186)"/>
</g>
<path d="M106.234 123.25C106.416 123.334 106.546 123.455 106.625 123.641C106.649 123.796 106.649 123.951 106.649 124.108C106.649 124.153 106.65 124.197 106.651 124.243C106.653 124.386 106.653 124.528 106.654 124.671C106.655 124.768 106.657 124.864 106.658 124.961C106.661 125.198 106.663 125.435 106.664 125.672C106.7 125.644 106.7 125.644 106.736 125.616C107.115 125.326 107.495 125.036 107.882 124.756C107.912 124.735 107.942 124.713 107.972 124.691C108.233 124.504 108.406 124.47 108.734 124.5C108.925 124.589 109.036 124.7 109.125 124.891C109.153 125.102 109.164 125.283 109.065 125.475C108.944 125.625 108.807 125.732 108.654 125.848C108.623 125.871 108.592 125.895 108.56 125.919C108.312 126.108 108.062 126.292 107.811 126.476C107.638 126.602 107.467 126.73 107.297 126.861C107.259 126.89 107.222 126.919 107.183 126.948C107.11 127.005 107.037 127.061 106.964 127.118C106.931 127.143 106.898 127.169 106.864 127.195C106.835 127.218 106.806 127.24 106.776 127.264C106.703 127.312 106.703 127.312 106.625 127.312C106.638 128.473 106.651 129.633 106.664 130.828C107.025 130.609 107.386 130.39 107.758 130.164C107.951 130.049 108.145 129.934 108.339 129.819C108.416 129.773 108.493 129.727 108.57 129.681C108.786 129.552 109.001 129.424 109.223 129.306C109.268 129.281 109.268 129.281 109.313 129.256C109.364 129.228 109.415 129.202 109.467 129.177C109.545 129.137 109.545 129.137 109.633 129.031C109.66 128.926 109.66 128.926 109.675 128.805C109.681 128.759 109.687 128.713 109.694 128.666C109.721 128.438 109.744 128.209 109.766 127.979C109.773 127.903 109.78 127.827 109.788 127.751C109.806 127.566 109.823 127.381 109.841 127.196C109.855 127.041 109.87 126.887 109.885 126.732C109.89 126.684 109.894 126.637 109.898 126.588C109.955 126.015 109.955 126.015 110.182 125.813C110.349 125.682 110.517 125.652 110.727 125.672C110.937 125.734 111.074 125.839 111.195 126.023C111.378 126.389 111.201 127.073 111.156 127.466C111.149 127.535 111.141 127.604 111.134 127.673C111.115 127.839 111.097 128.006 111.078 128.172C111.249 128.07 111.42 127.969 111.591 127.868C111.649 127.833 111.707 127.799 111.765 127.764C111.821 127.731 111.877 127.698 111.934 127.664C111.989 127.631 112.044 127.599 112.099 127.566C112.282 127.458 112.464 127.348 112.645 127.237C112.802 127.149 112.932 127.142 113.109 127.156C113.315 127.227 113.459 127.322 113.578 127.508C113.645 127.708 113.642 127.901 113.576 128.101C113.355 128.421 112.992 128.591 112.663 128.78C112.587 128.823 112.511 128.867 112.435 128.911C112.367 128.951 112.298 128.99 112.229 129.03C112.077 129.118 111.929 129.211 111.781 129.305C111.822 129.322 111.863 129.339 111.905 129.356C112.057 129.419 112.21 129.483 112.363 129.546C112.429 129.574 112.494 129.601 112.56 129.628C112.655 129.668 112.75 129.708 112.846 129.747C112.875 129.759 112.903 129.771 112.933 129.784C113.018 129.819 113.103 129.855 113.188 129.891C113.219 129.904 113.251 129.917 113.283 129.931C113.314 129.944 113.345 129.958 113.377 129.972C113.406 129.984 113.434 129.996 113.463 130.008C113.611 130.083 113.703 130.189 113.786 130.33C113.843 130.56 113.849 130.751 113.727 130.96C113.601 131.138 113.491 131.202 113.278 131.253C112.962 131.282 112.64 131.114 112.355 130.994C112.305 130.973 112.305 130.973 112.254 130.951C112.148 130.907 112.043 130.863 111.938 130.818C111.698 130.718 111.458 130.617 111.218 130.518C111.15 130.49 111.083 130.462 111.016 130.434C110.92 130.394 110.823 130.355 110.727 130.316C110.683 130.298 110.683 130.298 110.639 130.28C110.483 130.217 110.379 130.182 110.219 130.242C110.131 130.288 110.049 130.334 109.965 130.385C109.94 130.4 109.916 130.414 109.89 130.429C109.81 130.477 109.73 130.526 109.65 130.574C109.594 130.608 109.538 130.641 109.482 130.675C109.311 130.778 109.14 130.881 108.969 130.984C108.916 131.016 108.864 131.048 108.811 131.079C108.581 131.219 108.35 131.359 108.12 131.499C108.08 131.523 108.04 131.547 107.999 131.572C107.91 131.627 107.822 131.682 107.734 131.737C107.711 131.751 107.687 131.766 107.663 131.781C107.598 131.822 107.533 131.862 107.468 131.903C107.367 131.961 107.367 131.961 107.289 131.961C107.289 131.987 107.289 132.012 107.289 132.039C107.316 132.049 107.343 132.059 107.371 132.069C107.5 132.124 107.618 132.192 107.738 132.264C107.763 132.278 107.787 132.293 107.813 132.308C107.893 132.356 107.973 132.404 108.053 132.452C108.109 132.485 108.165 132.518 108.221 132.552C108.636 132.799 109.049 133.049 109.461 133.301C109.543 133.351 109.626 133.401 109.708 133.45C109.791 133.501 109.873 133.552 109.955 133.604C110.016 133.643 110.016 133.643 110.079 133.682C110.115 133.705 110.152 133.728 110.189 133.752C110.385 133.834 110.536 133.759 110.724 133.685C110.799 133.654 110.875 133.623 110.951 133.591C110.992 133.575 111.032 133.558 111.074 133.541C111.204 133.487 111.334 133.433 111.464 133.379C112.451 132.971 112.451 132.971 112.807 132.834C112.853 132.816 112.9 132.798 112.949 132.78C113.183 132.707 113.337 132.738 113.551 132.847C113.699 132.974 113.796 133.074 113.829 133.272C113.84 133.495 113.809 133.656 113.69 133.846C113.496 134.028 113.205 134.115 112.961 134.212C112.914 134.231 112.914 134.231 112.865 134.251C112.766 134.291 112.667 134.331 112.567 134.371C112.467 134.411 112.367 134.451 112.267 134.492C112.205 134.517 112.143 134.542 112.081 134.566C111.929 134.627 111.929 134.627 111.781 134.695C111.817 134.716 111.853 134.737 111.89 134.759C112.025 134.838 112.159 134.918 112.294 134.997C112.352 135.032 112.41 135.066 112.468 135.1C113.514 135.715 113.514 135.715 113.617 136.023C113.647 136.279 113.615 136.442 113.461 136.648C113.292 136.779 113.139 136.864 112.921 136.859C112.53 136.787 112.14 136.478 111.803 136.27C111.754 136.24 111.705 136.21 111.657 136.18C111.567 136.126 111.478 136.071 111.389 136.016C111.285 135.953 111.182 135.89 111.078 135.828C111.083 135.87 111.088 135.912 111.092 135.955C111.11 136.113 111.128 136.272 111.145 136.43C111.152 136.498 111.16 136.566 111.168 136.634C111.304 137.845 111.304 137.845 111.078 138.133C110.897 138.289 110.727 138.338 110.492 138.328C110.299 138.276 110.157 138.189 110.036 138.031C109.972 137.915 109.959 137.819 109.942 137.688C109.936 137.64 109.93 137.591 109.923 137.541C109.897 137.307 109.872 137.073 109.85 136.839C109.843 136.762 109.835 136.686 109.828 136.609C109.809 136.424 109.791 136.238 109.774 136.052C109.764 135.947 109.753 135.842 109.743 135.737C109.733 135.638 109.724 135.54 109.714 135.441C109.708 135.374 109.708 135.374 109.701 135.307C109.695 135.248 109.695 135.248 109.69 135.189C109.663 135.032 109.628 134.954 109.498 134.862C109.458 134.839 109.418 134.816 109.377 134.793C109.344 134.773 109.344 134.773 109.31 134.754C109.262 134.726 109.214 134.699 109.166 134.672C109.037 134.599 108.909 134.525 108.78 134.45C108.754 134.435 108.727 134.42 108.7 134.404C108.427 134.247 108.157 134.083 107.887 133.919C107.824 133.881 107.824 133.881 107.761 133.842C107.629 133.762 107.498 133.682 107.367 133.602C107.135 133.46 106.903 133.318 106.664 133.172C106.651 134.332 106.638 135.492 106.625 136.687C106.677 136.713 106.728 136.739 106.781 136.766C106.832 136.8 106.881 136.835 106.93 136.871C106.973 136.903 106.973 136.903 107.017 136.935C107.064 136.97 107.064 136.97 107.111 137.005C107.143 137.029 107.176 137.053 107.209 137.078C107.489 137.286 107.767 137.497 108.044 137.709C108.205 137.832 108.366 137.954 108.529 138.073C108.558 138.094 108.586 138.115 108.616 138.136C108.668 138.175 108.721 138.213 108.775 138.251C108.96 138.386 109.104 138.522 109.146 138.758C109.143 138.997 109.141 139.162 108.969 139.344C108.791 139.512 108.628 139.52 108.394 139.528C108.061 139.455 107.773 139.162 107.509 138.958C107.23 138.744 106.949 138.534 106.664 138.328C106.664 138.353 106.664 138.378 106.664 138.404C106.662 138.663 106.659 138.923 106.656 139.183C106.655 139.28 106.654 139.377 106.653 139.474C106.653 139.613 106.651 139.753 106.649 139.892C106.649 139.935 106.649 139.979 106.649 140.023C106.644 140.264 106.631 140.41 106.469 140.594C106.32 140.735 106.2 140.762 106 140.77C105.8 140.762 105.68 140.735 105.531 140.594C105.34 140.377 105.352 140.172 105.351 139.892C105.351 139.847 105.35 139.803 105.349 139.757C105.347 139.614 105.347 139.472 105.346 139.329C105.345 139.232 105.343 139.136 105.342 139.039C105.339 138.802 105.337 138.565 105.336 138.328C105.312 138.346 105.288 138.365 105.264 138.384C104.885 138.674 104.505 138.964 104.118 139.244C104.088 139.265 104.058 139.287 104.028 139.309C103.767 139.496 103.594 139.53 103.266 139.5C103.075 139.411 102.964 139.3 102.875 139.109C102.847 138.898 102.836 138.717 102.935 138.525C103.056 138.375 103.193 138.267 103.346 138.152C103.377 138.129 103.408 138.105 103.44 138.081C103.688 137.892 103.938 137.708 104.189 137.524C104.362 137.398 104.533 137.27 104.703 137.139C104.741 137.11 104.778 137.081 104.817 137.052C104.89 136.995 104.963 136.939 105.036 136.882C105.069 136.857 105.102 136.831 105.136 136.805C105.165 136.782 105.194 136.76 105.224 136.736C105.297 136.687 105.297 136.687 105.375 136.687C105.362 135.527 105.349 134.367 105.336 133.172C104.975 133.391 104.614 133.61 104.242 133.836C104.049 133.951 103.855 134.066 103.661 134.181C103.584 134.227 103.507 134.273 103.43 134.319C103.214 134.448 102.999 134.576 102.777 134.694C102.747 134.71 102.718 134.727 102.687 134.744C102.636 134.772 102.585 134.798 102.533 134.823C102.455 134.863 102.455 134.863 102.367 134.969C102.34 135.074 102.34 135.074 102.325 135.195C102.319 135.241 102.313 135.287 102.306 135.334C102.279 135.562 102.256 135.791 102.234 136.021C102.227 136.097 102.22 136.173 102.212 136.249C102.194 136.434 102.177 136.619 102.159 136.804C102.145 136.959 102.13 137.113 102.115 137.268C102.11 137.316 102.106 137.363 102.102 137.412C102.067 137.759 102.023 138.016 101.742 138.25C101.581 138.341 101.416 138.351 101.234 138.328C101.013 138.25 100.871 138.109 100.766 137.898C100.738 137.441 100.792 136.988 100.844 136.534C100.851 136.465 100.859 136.396 100.866 136.327C100.885 136.161 100.903 135.994 100.922 135.828C100.751 135.93 100.58 136.031 100.409 136.132C100.351 136.167 100.293 136.201 100.235 136.236C100.179 136.269 100.123 136.302 100.067 136.336C100.011 136.369 99.9562 136.401 99.901 136.434C99.7183 136.542 99.5364 136.652 99.3553 136.763C99.1981 136.851 99.0681 136.858 98.8906 136.844C98.6847 136.773 98.5412 136.678 98.4219 136.492C98.3551 136.292 98.3576 136.099 98.4243 135.899C98.6447 135.579 99.0082 135.409 99.3374 135.22C99.4375 135.162 99.5375 135.105 99.6375 135.047C99.6613 135.033 99.685 135.019 99.7094 135.005C99.8817 134.906 100.051 134.802 100.219 134.695C100.179 134.679 100.138 134.662 100.097 134.645C99.9459 134.583 99.7948 134.52 99.6437 134.458C99.5787 134.431 99.5137 134.404 99.4487 134.377C98.3567 133.928 98.3567 133.928 98.2363 133.726C98.1612 133.524 98.139 133.325 98.2247 133.123C98.3162 132.965 98.4043 132.85 98.5781 132.781C98.9596 132.691 99.2964 132.859 99.645 133.006C99.6784 133.02 99.7117 133.034 99.746 133.049C99.8516 133.093 99.9571 133.137 100.063 133.182C100.302 133.282 100.542 133.383 100.782 133.482C100.85 133.51 100.917 133.538 100.984 133.566C101.08 133.606 101.177 133.645 101.273 133.684C101.302 133.696 101.331 133.708 101.361 133.72C101.517 133.783 101.621 133.818 101.781 133.758C101.869 133.712 101.951 133.666 102.035 133.615C102.06 133.6 102.084 133.586 102.11 133.571C102.19 133.523 102.27 133.474 102.35 133.426C102.406 133.392 102.462 133.359 102.518 133.325C102.689 133.222 102.86 133.119 103.031 133.016C103.084 132.984 103.136 132.952 103.189 132.921C103.419 132.781 103.65 132.641 103.88 132.501C103.92 132.477 103.96 132.453 104.001 132.428C104.09 132.373 104.178 132.318 104.266 132.263C104.289 132.249 104.313 132.234 104.337 132.219C104.402 132.178 104.467 132.138 104.532 132.097C104.633 132.039 104.633 132.039 104.711 132.039C104.711 132.013 104.711 131.987 104.711 131.961C104.684 131.951 104.657 131.941 104.629 131.931C104.5 131.876 104.382 131.808 104.262 131.736C104.237 131.722 104.213 131.707 104.187 131.692C104.107 131.644 104.027 131.596 103.947 131.548C103.891 131.515 103.835 131.482 103.779 131.448C103.364 131.201 102.951 130.951 102.539 130.699C102.457 130.649 102.374 130.599 102.292 130.55C102.209 130.499 102.127 130.448 102.045 130.396C102.004 130.37 101.963 130.345 101.921 130.318C101.885 130.295 101.848 130.272 101.811 130.248C101.584 130.153 101.377 130.273 101.162 130.361C101.123 130.377 101.084 130.393 101.044 130.41C101.003 130.427 100.962 130.444 100.919 130.461C100.788 130.515 100.657 130.569 100.526 130.623C100.439 130.659 100.352 130.695 100.265 130.73C100.103 130.797 99.9415 130.863 99.7799 130.93C99.7248 130.953 99.7248 130.953 99.6686 130.976C99.5883 131.009 99.5081 131.043 99.428 131.077C99.3865 131.095 99.345 131.112 99.3023 131.131C99.2462 131.155 99.2462 131.155 99.1889 131.179C98.9466 131.272 98.7453 131.277 98.5 131.18C98.3353 131.075 98.2534 130.973 98.1875 130.789C98.1567 130.587 98.1685 130.382 98.2745 130.204C98.5614 129.877 99.192 129.722 99.5889 129.561C99.6504 129.536 99.7119 129.511 99.7734 129.486C99.9217 129.425 100.07 129.365 100.219 129.305C100.183 129.284 100.147 129.263 100.11 129.241C99.9754 129.162 99.8408 129.082 99.7062 129.003C99.6482 128.968 99.5903 128.934 99.5323 128.9C98.4857 128.285 98.4857 128.285 98.3828 127.977C98.3526 127.721 98.3851 127.558 98.5391 127.352C98.7076 127.221 98.8609 127.136 99.0788 127.141C99.4702 127.213 99.8597 127.522 100.197 127.73C100.246 127.76 100.295 127.79 100.343 127.82C100.433 127.874 100.522 127.929 100.611 127.984C100.715 128.047 100.818 128.11 100.922 128.172C100.917 128.13 100.912 128.088 100.908 128.045C100.89 127.887 100.872 127.728 100.855 127.57C100.848 127.502 100.84 127.434 100.832 127.366C100.697 126.165 100.697 126.165 100.883 125.906C101.032 125.753 101.163 125.678 101.378 125.66C101.615 125.664 101.787 125.756 101.952 125.921C102.119 126.293 102.112 126.759 102.15 127.161C102.157 127.238 102.165 127.314 102.172 127.391C102.191 127.576 102.209 127.762 102.226 127.948C102.236 128.053 102.247 128.158 102.257 128.263C102.267 128.362 102.276 128.46 102.286 128.559C102.29 128.603 102.294 128.648 102.299 128.693C102.303 128.732 102.306 128.771 102.31 128.811C102.337 128.968 102.372 129.046 102.502 129.138C102.542 129.161 102.582 129.184 102.623 129.207C102.645 129.22 102.667 129.233 102.69 129.246C102.738 129.273 102.786 129.301 102.834 129.328C102.963 129.401 103.091 129.475 103.22 129.55C103.259 129.572 103.259 129.572 103.3 129.596C103.573 129.753 103.843 129.917 104.113 130.081C104.176 130.119 104.176 130.119 104.24 130.158C104.371 130.238 104.502 130.318 104.633 130.398C104.865 130.54 105.097 130.682 105.336 130.828C105.355 129.088 105.355 129.088 105.375 127.312C105.323 127.287 105.272 127.261 105.219 127.234C105.168 127.2 105.119 127.165 105.07 127.129C105.041 127.108 105.012 127.087 104.983 127.065C104.952 127.042 104.921 127.019 104.889 126.995C104.857 126.971 104.824 126.947 104.791 126.922C104.511 126.714 104.233 126.503 103.956 126.291C103.795 126.168 103.634 126.046 103.471 125.927C103.442 125.906 103.414 125.885 103.384 125.864C103.332 125.825 103.279 125.787 103.225 125.749C103.04 125.614 102.896 125.478 102.854 125.242C102.857 125.003 102.859 124.838 103.031 124.656C103.209 124.488 103.372 124.48 103.606 124.472C103.939 124.545 104.227 124.838 104.491 125.042C104.77 125.256 105.051 125.466 105.336 125.672C105.336 125.647 105.336 125.622 105.336 125.596C105.338 125.337 105.341 125.077 105.344 124.817C105.345 124.72 105.346 124.623 105.347 124.526C105.347 124.387 105.349 124.247 105.351 124.108C105.351 124.065 105.351 124.021 105.351 123.977C105.356 123.736 105.369 123.59 105.531 123.406C105.737 123.211 105.965 123.214 106.234 123.25Z" fill="#4294FF"/>
<path d="M114.234 145.25C114.416 145.334 114.546 145.455 114.625 145.641C114.649 145.796 114.649 145.951 114.649 146.108C114.649 146.153 114.65 146.197 114.651 146.243C114.653 146.386 114.653 146.528 114.654 146.671C114.655 146.768 114.657 146.864 114.658 146.961C114.661 147.198 114.663 147.435 114.664 147.672C114.7 147.644 114.7 147.644 114.736 147.616C115.115 147.326 115.495 147.036 115.882 146.756C115.912 146.735 115.942 146.713 115.972 146.691C116.233 146.504 116.406 146.47 116.734 146.5C116.925 146.589 117.036 146.7 117.125 146.891C117.153 147.102 117.164 147.283 117.065 147.475C116.944 147.625 116.807 147.732 116.654 147.848C116.623 147.871 116.592 147.895 116.56 147.919C116.312 148.108 116.062 148.292 115.811 148.476C115.638 148.602 115.467 148.73 115.297 148.861C115.259 148.89 115.222 148.919 115.183 148.948C115.11 149.005 115.037 149.061 114.964 149.118C114.931 149.143 114.898 149.169 114.864 149.195C114.835 149.218 114.806 149.24 114.776 149.264C114.703 149.312 114.703 149.312 114.625 149.312C114.638 150.473 114.651 151.633 114.664 152.828C115.025 152.609 115.386 152.39 115.758 152.164C115.951 152.049 116.145 151.934 116.339 151.819C116.416 151.773 116.493 151.727 116.57 151.681C116.786 151.552 117.001 151.424 117.223 151.306C117.268 151.281 117.268 151.281 117.313 151.256C117.364 151.228 117.415 151.202 117.467 151.177C117.545 151.137 117.545 151.137 117.633 151.031C117.66 150.926 117.66 150.926 117.675 150.805C117.681 150.759 117.687 150.713 117.694 150.666C117.721 150.438 117.744 150.209 117.766 149.979C117.773 149.903 117.78 149.827 117.788 149.751C117.806 149.566 117.823 149.381 117.841 149.196C117.855 149.041 117.87 148.887 117.885 148.732C117.89 148.684 117.894 148.637 117.898 148.588C117.955 148.015 117.955 148.015 118.182 147.813C118.349 147.682 118.517 147.652 118.727 147.672C118.937 147.734 119.074 147.839 119.195 148.023C119.378 148.389 119.201 149.073 119.156 149.466C119.149 149.535 119.141 149.604 119.134 149.673C119.115 149.839 119.097 150.006 119.078 150.172C119.249 150.07 119.42 149.969 119.591 149.868C119.649 149.833 119.707 149.799 119.765 149.764C119.821 149.731 119.877 149.698 119.934 149.664C119.989 149.631 120.044 149.599 120.099 149.566C120.282 149.458 120.464 149.348 120.645 149.237C120.802 149.149 120.932 149.142 121.109 149.156C121.315 149.227 121.459 149.322 121.578 149.508C121.645 149.708 121.642 149.901 121.576 150.101C121.355 150.421 120.992 150.591 120.663 150.78C120.587 150.823 120.511 150.867 120.435 150.911C120.367 150.951 120.298 150.99 120.229 151.03C120.077 151.118 119.929 151.211 119.781 151.305C119.822 151.322 119.863 151.339 119.905 151.356C120.057 151.419 120.21 151.483 120.363 151.546C120.429 151.574 120.494 151.601 120.56 151.628C120.655 151.668 120.75 151.708 120.846 151.747C120.875 151.759 120.903 151.771 120.933 151.784C121.018 151.819 121.103 151.855 121.188 151.891C121.219 151.904 121.251 151.917 121.283 151.931C121.314 151.944 121.345 151.958 121.377 151.972C121.406 151.984 121.434 151.996 121.463 152.008C121.611 152.083 121.703 152.189 121.786 152.33C121.843 152.56 121.849 152.751 121.727 152.96C121.601 153.138 121.491 153.202 121.278 153.253C120.962 153.282 120.64 153.114 120.355 152.994C120.305 152.973 120.305 152.973 120.254 152.951C120.148 152.907 120.043 152.863 119.938 152.818C119.698 152.718 119.458 152.617 119.218 152.518C119.15 152.49 119.083 152.462 119.016 152.434C118.92 152.394 118.823 152.355 118.727 152.316C118.683 152.298 118.683 152.298 118.639 152.28C118.483 152.217 118.379 152.182 118.219 152.242C118.131 152.288 118.049 152.334 117.965 152.385C117.94 152.4 117.916 152.414 117.89 152.429C117.81 152.477 117.73 152.526 117.65 152.574C117.594 152.608 117.538 152.641 117.482 152.675C117.311 152.778 117.14 152.881 116.969 152.984C116.916 153.016 116.864 153.048 116.811 153.079C116.581 153.219 116.35 153.359 116.12 153.499C116.08 153.523 116.04 153.547 115.999 153.572C115.91 153.627 115.822 153.682 115.734 153.737C115.711 153.751 115.687 153.766 115.663 153.781C115.598 153.822 115.533 153.862 115.468 153.903C115.367 153.961 115.367 153.961 115.289 153.961C115.289 153.987 115.289 154.012 115.289 154.039C115.316 154.049 115.343 154.059 115.371 154.069C115.5 154.124 115.618 154.192 115.738 154.264C115.763 154.278 115.787 154.293 115.813 154.308C115.893 154.356 115.973 154.404 116.053 154.452C116.109 154.485 116.165 154.518 116.221 154.552C116.636 154.799 117.049 155.049 117.461 155.301C117.543 155.351 117.626 155.401 117.708 155.45C117.791 155.501 117.873 155.552 117.955 155.604C118.016 155.643 118.016 155.643 118.079 155.682C118.115 155.705 118.152 155.728 118.189 155.752C118.385 155.834 118.536 155.759 118.724 155.685C118.799 155.654 118.875 155.623 118.951 155.591C118.992 155.575 119.032 155.558 119.074 155.541C119.204 155.487 119.334 155.433 119.464 155.379C120.451 154.971 120.451 154.971 120.807 154.834C120.853 154.816 120.9 154.798 120.949 154.78C121.183 154.707 121.337 154.738 121.551 154.847C121.699 154.974 121.796 155.074 121.829 155.272C121.84 155.495 121.809 155.656 121.69 155.846C121.496 156.028 121.205 156.115 120.961 156.212C120.914 156.231 120.914 156.231 120.865 156.251C120.766 156.291 120.667 156.331 120.567 156.371C120.467 156.411 120.367 156.451 120.267 156.492C120.205 156.517 120.143 156.542 120.081 156.566C119.929 156.627 119.929 156.627 119.781 156.695C119.817 156.716 119.853 156.737 119.89 156.759C120.025 156.838 120.159 156.918 120.294 156.997C120.352 157.032 120.41 157.066 120.468 157.1C121.514 157.715 121.514 157.715 121.617 158.023C121.647 158.279 121.615 158.442 121.461 158.648C121.292 158.779 121.139 158.864 120.921 158.859C120.53 158.787 120.14 158.478 119.803 158.27C119.754 158.24 119.705 158.21 119.657 158.18C119.567 158.126 119.478 158.071 119.389 158.016C119.285 157.953 119.182 157.89 119.078 157.828C119.083 157.87 119.088 157.912 119.092 157.955C119.11 158.113 119.128 158.272 119.145 158.43C119.152 158.498 119.16 158.566 119.168 158.634C119.304 159.845 119.304 159.845 119.078 160.133C118.897 160.289 118.727 160.338 118.492 160.328C118.299 160.276 118.157 160.189 118.036 160.031C117.972 159.915 117.959 159.819 117.942 159.688C117.936 159.64 117.93 159.591 117.923 159.541C117.897 159.307 117.872 159.073 117.85 158.839C117.843 158.762 117.835 158.686 117.828 158.609C117.809 158.424 117.791 158.238 117.774 158.052C117.764 157.947 117.753 157.842 117.743 157.737C117.733 157.638 117.724 157.54 117.714 157.441C117.708 157.374 117.708 157.374 117.701 157.307C117.695 157.248 117.695 157.248 117.69 157.189C117.663 157.032 117.628 156.954 117.498 156.862C117.458 156.839 117.418 156.816 117.377 156.793C117.344 156.773 117.344 156.773 117.31 156.754C117.262 156.726 117.214 156.699 117.166 156.672C117.037 156.599 116.909 156.525 116.78 156.45C116.754 156.435 116.727 156.42 116.7 156.404C116.427 156.247 116.157 156.083 115.887 155.919C115.824 155.881 115.824 155.881 115.761 155.842C115.629 155.762 115.498 155.682 115.367 155.602C115.135 155.46 114.903 155.318 114.664 155.172C114.651 156.332 114.638 157.492 114.625 158.687C114.677 158.713 114.728 158.739 114.781 158.766C114.832 158.8 114.881 158.835 114.93 158.871C114.973 158.903 114.973 158.903 115.017 158.935C115.064 158.97 115.064 158.97 115.111 159.005C115.143 159.029 115.176 159.053 115.209 159.078C115.489 159.286 115.767 159.497 116.044 159.709C116.205 159.832 116.366 159.954 116.529 160.073C116.558 160.094 116.586 160.115 116.616 160.136C116.668 160.175 116.721 160.213 116.775 160.251C116.96 160.386 117.104 160.522 117.146 160.758C117.143 160.997 117.141 161.162 116.969 161.344C116.791 161.512 116.628 161.52 116.394 161.528C116.061 161.455 115.773 161.162 115.509 160.958C115.23 160.744 114.949 160.534 114.664 160.328C114.664 160.353 114.664 160.378 114.664 160.404C114.662 160.663 114.659 160.923 114.656 161.183C114.655 161.28 114.654 161.377 114.653 161.474C114.653 161.613 114.651 161.753 114.649 161.892C114.649 161.935 114.649 161.979 114.649 162.023C114.644 162.264 114.631 162.41 114.469 162.594C114.32 162.735 114.2 162.762 114 162.77C113.8 162.762 113.68 162.735 113.531 162.594C113.34 162.377 113.352 162.172 113.351 161.892C113.351 161.847 113.35 161.803 113.349 161.757C113.347 161.614 113.347 161.472 113.346 161.329C113.345 161.232 113.343 161.136 113.342 161.039C113.339 160.802 113.337 160.565 113.336 160.328C113.312 160.346 113.288 160.365 113.264 160.384C112.885 160.674 112.505 160.964 112.118 161.244C112.088 161.265 112.058 161.287 112.028 161.309C111.767 161.496 111.594 161.53 111.266 161.5C111.075 161.411 110.964 161.3 110.875 161.109C110.847 160.898 110.836 160.717 110.935 160.525C111.056 160.375 111.193 160.267 111.346 160.152C111.377 160.129 111.408 160.105 111.44 160.081C111.688 159.892 111.938 159.708 112.189 159.524C112.362 159.398 112.533 159.27 112.703 159.139C112.741 159.11 112.778 159.081 112.817 159.052C112.89 158.995 112.963 158.939 113.036 158.882C113.069 158.857 113.102 158.831 113.136 158.805C113.165 158.782 113.194 158.76 113.224 158.736C113.297 158.687 113.297 158.687 113.375 158.687C113.362 157.527 113.349 156.367 113.336 155.172C112.975 155.391 112.614 155.61 112.242 155.836C112.049 155.951 111.855 156.066 111.661 156.181C111.584 156.227 111.507 156.273 111.43 156.319C111.214 156.448 110.999 156.576 110.777 156.694C110.747 156.71 110.718 156.727 110.687 156.744C110.636 156.772 110.585 156.798 110.533 156.823C110.455 156.863 110.455 156.863 110.367 156.969C110.34 157.074 110.34 157.074 110.325 157.195C110.319 157.241 110.313 157.287 110.306 157.334C110.279 157.562 110.256 157.791 110.234 158.021C110.227 158.097 110.22 158.173 110.212 158.249C110.194 158.434 110.177 158.619 110.159 158.804C110.145 158.959 110.13 159.113 110.115 159.268C110.11 159.316 110.106 159.363 110.102 159.412C110.067 159.759 110.023 160.016 109.742 160.25C109.581 160.341 109.416 160.351 109.234 160.328C109.013 160.25 108.871 160.109 108.766 159.898C108.738 159.441 108.792 158.988 108.844 158.534C108.851 158.465 108.859 158.396 108.866 158.327C108.885 158.161 108.903 157.994 108.922 157.828C108.751 157.93 108.58 158.031 108.409 158.132C108.351 158.167 108.293 158.201 108.235 158.236C108.179 158.269 108.123 158.302 108.067 158.336C108.011 158.369 107.956 158.401 107.901 158.434C107.718 158.542 107.536 158.652 107.355 158.763C107.198 158.851 107.068 158.858 106.891 158.844C106.685 158.773 106.541 158.678 106.422 158.492C106.355 158.292 106.358 158.099 106.424 157.899C106.645 157.579 107.008 157.409 107.337 157.22C107.438 157.162 107.538 157.105 107.638 157.047C107.661 157.033 107.685 157.019 107.709 157.005C107.882 156.906 108.051 156.802 108.219 156.695C108.179 156.679 108.138 156.662 108.097 156.645C107.946 156.583 107.795 156.52 107.644 156.458C107.579 156.431 107.514 156.404 107.449 156.377C106.357 155.928 106.357 155.928 106.236 155.726C106.161 155.524 106.139 155.325 106.225 155.123C106.316 154.965 106.404 154.85 106.578 154.781C106.96 154.691 107.296 154.859 107.645 155.006C107.678 155.02 107.712 155.034 107.746 155.049C107.852 155.093 107.957 155.137 108.063 155.182C108.302 155.282 108.542 155.383 108.782 155.482C108.85 155.51 108.917 155.538 108.984 155.566C109.08 155.606 109.177 155.645 109.273 155.684C109.302 155.696 109.331 155.708 109.361 155.72C109.517 155.783 109.621 155.818 109.781 155.758C109.869 155.712 109.951 155.666 110.035 155.615C110.06 155.6 110.084 155.586 110.11 155.571C110.19 155.523 110.27 155.474 110.35 155.426C110.406 155.392 110.462 155.359 110.518 155.325C110.689 155.222 110.86 155.119 111.031 155.016C111.084 154.984 111.136 154.952 111.189 154.921C111.419 154.781 111.65 154.641 111.88 154.501C111.92 154.477 111.96 154.453 112.001 154.428C112.09 154.373 112.178 154.318 112.266 154.263C112.289 154.249 112.313 154.234 112.337 154.219C112.402 154.178 112.467 154.138 112.532 154.097C112.633 154.039 112.633 154.039 112.711 154.039C112.711 154.013 112.711 153.987 112.711 153.961C112.684 153.951 112.657 153.941 112.629 153.931C112.5 153.876 112.382 153.808 112.262 153.736C112.237 153.722 112.213 153.707 112.187 153.692C112.107 153.644 112.027 153.596 111.947 153.548C111.891 153.515 111.835 153.482 111.779 153.448C111.364 153.201 110.951 152.951 110.539 152.699C110.457 152.649 110.374 152.599 110.292 152.55C110.209 152.499 110.127 152.448 110.045 152.396C110.004 152.37 109.963 152.345 109.921 152.318C109.885 152.295 109.848 152.272 109.811 152.248C109.584 152.153 109.377 152.273 109.162 152.361C109.123 152.377 109.084 152.393 109.044 152.41C109.003 152.427 108.962 152.444 108.919 152.461C108.788 152.515 108.657 152.569 108.526 152.623C108.439 152.659 108.352 152.695 108.265 152.73C108.103 152.797 107.941 152.863 107.78 152.93C107.725 152.953 107.725 152.953 107.669 152.976C107.588 153.009 107.508 153.043 107.428 153.077C107.387 153.095 107.345 153.112 107.302 153.131C107.246 153.155 107.246 153.155 107.189 153.179C106.947 153.272 106.745 153.277 106.5 153.18C106.335 153.075 106.253 152.973 106.188 152.789C106.157 152.587 106.168 152.382 106.275 152.204C106.561 151.877 107.192 151.722 107.589 151.561C107.65 151.536 107.712 151.511 107.773 151.486C107.922 151.425 108.07 151.365 108.219 151.305C108.183 151.284 108.147 151.263 108.11 151.241C107.975 151.162 107.841 151.082 107.706 151.003C107.648 150.968 107.59 150.934 107.532 150.9C106.486 150.285 106.486 150.285 106.383 149.977C106.353 149.721 106.385 149.558 106.539 149.352C106.708 149.221 106.861 149.136 107.079 149.141C107.47 149.213 107.86 149.522 108.197 149.73C108.246 149.76 108.295 149.79 108.343 149.82C108.433 149.874 108.522 149.929 108.611 149.984C108.715 150.047 108.818 150.11 108.922 150.172C108.917 150.13 108.912 150.088 108.908 150.045C108.89 149.887 108.872 149.728 108.855 149.57C108.848 149.502 108.84 149.434 108.832 149.366C108.697 148.165 108.697 148.165 108.883 147.906C109.032 147.753 109.163 147.678 109.378 147.66C109.615 147.664 109.787 147.756 109.952 147.921C110.119 148.293 110.112 148.759 110.15 149.161C110.157 149.238 110.165 149.314 110.172 149.391C110.191 149.576 110.209 149.762 110.226 149.948C110.236 150.053 110.247 150.158 110.257 150.263C110.267 150.362 110.276 150.46 110.286 150.559C110.29 150.603 110.294 150.648 110.299 150.693C110.303 150.732 110.306 150.771 110.31 150.811C110.337 150.968 110.372 151.046 110.502 151.138C110.542 151.161 110.582 151.184 110.623 151.207C110.645 151.22 110.667 151.233 110.69 151.246C110.738 151.273 110.786 151.301 110.834 151.328C110.963 151.401 111.091 151.475 111.22 151.55C111.259 151.572 111.259 151.572 111.3 151.596C111.573 151.753 111.843 151.917 112.113 152.081C112.176 152.119 112.176 152.119 112.24 152.158C112.371 152.238 112.502 152.318 112.633 152.398C112.865 152.54 113.097 152.682 113.336 152.828C113.355 151.088 113.355 151.088 113.375 149.312C113.323 149.287 113.272 149.261 113.219 149.234C113.168 149.2 113.119 149.165 113.07 149.129C113.041 149.108 113.012 149.087 112.983 149.065C112.952 149.042 112.921 149.019 112.889 148.995C112.857 148.971 112.824 148.947 112.791 148.922C112.511 148.714 112.233 148.503 111.956 148.291C111.795 148.168 111.634 148.046 111.471 147.927C111.442 147.906 111.414 147.885 111.384 147.864C111.332 147.825 111.279 147.787 111.225 147.749C111.04 147.614 110.896 147.478 110.854 147.242C110.857 147.003 110.859 146.838 111.031 146.656C111.209 146.488 111.372 146.48 111.606 146.472C111.939 146.545 112.227 146.838 112.491 147.042C112.77 147.256 113.051 147.466 113.336 147.672C113.336 147.647 113.336 147.622 113.336 147.596C113.338 147.337 113.341 147.077 113.344 146.817C113.345 146.72 113.346 146.623 113.347 146.526C113.347 146.387 113.349 146.247 113.351 146.108C113.351 146.065 113.351 146.021 113.351 145.977C113.356 145.736 113.369 145.59 113.531 145.406C113.737 145.211 113.965 145.214 114.234 145.25Z" fill="#4294FF"/>
<path d="M138.234 145.25C138.416 145.334 138.546 145.455 138.625 145.641C138.649 145.796 138.649 145.951 138.649 146.108C138.649 146.153 138.65 146.197 138.651 146.243C138.653 146.386 138.653 146.528 138.654 146.671C138.655 146.768 138.657 146.864 138.658 146.961C138.661 147.198 138.663 147.435 138.664 147.672C138.7 147.644 138.7 147.644 138.736 147.616C139.115 147.326 139.495 147.036 139.882 146.756C139.912 146.735 139.942 146.713 139.972 146.691C140.233 146.504 140.406 146.47 140.734 146.5C140.925 146.589 141.036 146.7 141.125 146.891C141.153 147.102 141.164 147.283 141.065 147.475C140.944 147.625 140.807 147.732 140.654 147.848C140.623 147.871 140.592 147.895 140.56 147.919C140.312 148.108 140.062 148.292 139.811 148.476C139.638 148.602 139.467 148.73 139.297 148.861C139.259 148.89 139.222 148.919 139.183 148.948C139.11 149.005 139.037 149.061 138.964 149.118C138.931 149.143 138.898 149.169 138.864 149.195C138.835 149.218 138.806 149.24 138.776 149.264C138.703 149.312 138.703 149.312 138.625 149.312C138.638 150.473 138.651 151.633 138.664 152.828C139.025 152.609 139.386 152.39 139.758 152.164C139.951 152.049 140.145 151.934 140.339 151.819C140.416 151.773 140.493 151.727 140.57 151.681C140.786 151.552 141.001 151.424 141.223 151.306C141.268 151.281 141.268 151.281 141.313 151.256C141.364 151.228 141.415 151.202 141.467 151.177C141.545 151.137 141.545 151.137 141.633 151.031C141.66 150.926 141.66 150.926 141.675 150.805C141.681 150.759 141.687 150.713 141.694 150.666C141.721 150.438 141.744 150.209 141.766 149.979C141.773 149.903 141.78 149.827 141.788 149.751C141.806 149.566 141.823 149.381 141.841 149.196C141.855 149.041 141.87 148.887 141.885 148.732C141.89 148.684 141.894 148.637 141.898 148.588C141.955 148.015 141.955 148.015 142.182 147.813C142.349 147.682 142.517 147.652 142.727 147.672C142.937 147.734 143.074 147.839 143.195 148.023C143.378 148.389 143.201 149.073 143.156 149.466C143.149 149.535 143.141 149.604 143.134 149.673C143.115 149.839 143.097 150.006 143.078 150.172C143.249 150.07 143.42 149.969 143.591 149.868C143.649 149.833 143.707 149.799 143.765 149.764C143.821 149.731 143.877 149.698 143.934 149.664C143.989 149.631 144.044 149.599 144.099 149.566C144.282 149.458 144.464 149.348 144.645 149.237C144.802 149.149 144.932 149.142 145.109 149.156C145.315 149.227 145.459 149.322 145.578 149.508C145.645 149.708 145.642 149.901 145.576 150.101C145.355 150.421 144.992 150.591 144.663 150.78C144.587 150.823 144.511 150.867 144.435 150.911C144.367 150.951 144.298 150.99 144.229 151.03C144.077 151.118 143.929 151.211 143.781 151.305C143.822 151.322 143.863 151.339 143.905 151.356C144.057 151.419 144.21 151.483 144.363 151.546C144.429 151.574 144.494 151.601 144.56 151.628C144.655 151.668 144.75 151.708 144.846 151.747C144.875 151.759 144.903 151.771 144.933 151.784C145.018 151.819 145.103 151.855 145.188 151.891C145.219 151.904 145.251 151.917 145.283 151.931C145.314 151.944 145.345 151.958 145.377 151.972C145.406 151.984 145.434 151.996 145.463 152.008C145.611 152.083 145.703 152.189 145.786 152.33C145.843 152.56 145.849 152.751 145.727 152.96C145.601 153.138 145.491 153.202 145.278 153.253C144.962 153.282 144.64 153.114 144.355 152.994C144.305 152.973 144.305 152.973 144.254 152.951C144.148 152.907 144.043 152.863 143.938 152.818C143.698 152.718 143.458 152.617 143.218 152.518C143.15 152.49 143.083 152.462 143.016 152.434C142.92 152.394 142.823 152.355 142.727 152.316C142.683 152.298 142.683 152.298 142.639 152.28C142.483 152.217 142.379 152.182 142.219 152.242C142.131 152.288 142.049 152.334 141.965 152.385C141.94 152.4 141.916 152.414 141.89 152.429C141.81 152.477 141.73 152.526 141.65 152.574C141.594 152.608 141.538 152.641 141.482 152.675C141.311 152.778 141.14 152.881 140.969 152.984C140.916 153.016 140.864 153.048 140.811 153.079C140.581 153.219 140.35 153.359 140.12 153.499C140.08 153.523 140.04 153.547 139.999 153.572C139.91 153.627 139.822 153.682 139.734 153.737C139.711 153.751 139.687 153.766 139.663 153.781C139.598 153.822 139.533 153.862 139.468 153.903C139.367 153.961 139.367 153.961 139.289 153.961C139.289 153.987 139.289 154.012 139.289 154.039C139.316 154.049 139.343 154.059 139.371 154.069C139.5 154.124 139.618 154.192 139.738 154.264C139.763 154.278 139.787 154.293 139.813 154.308C139.893 154.356 139.973 154.404 140.053 154.452C140.109 154.485 140.165 154.518 140.221 154.552C140.636 154.799 141.049 155.049 141.461 155.301C141.543 155.351 141.626 155.401 141.708 155.45C141.791 155.501 141.873 155.552 141.955 155.604C142.016 155.643 142.016 155.643 142.079 155.682C142.115 155.705 142.152 155.728 142.189 155.752C142.385 155.834 142.536 155.759 142.724 155.685C142.799 155.654 142.875 155.623 142.951 155.591C142.992 155.575 143.032 155.558 143.074 155.541C143.204 155.487 143.334 155.433 143.464 155.379C144.451 154.971 144.451 154.971 144.807 154.834C144.853 154.816 144.9 154.798 144.949 154.78C145.183 154.707 145.337 154.738 145.551 154.847C145.699 154.974 145.796 155.074 145.829 155.272C145.84 155.495 145.809 155.656 145.69 155.846C145.496 156.028 145.205 156.115 144.961 156.212C144.914 156.231 144.914 156.231 144.865 156.251C144.766 156.291 144.667 156.331 144.567 156.371C144.467 156.411 144.367 156.451 144.267 156.492C144.205 156.517 144.143 156.542 144.081 156.566C143.929 156.627 143.929 156.627 143.781 156.695C143.817 156.716 143.853 156.737 143.89 156.759C144.025 156.838 144.159 156.918 144.294 156.997C144.352 157.032 144.41 157.066 144.468 157.1C145.514 157.715 145.514 157.715 145.617 158.023C145.647 158.279 145.615 158.442 145.461 158.648C145.292 158.779 145.139 158.864 144.921 158.859C144.53 158.787 144.14 158.478 143.803 158.27C143.754 158.24 143.705 158.21 143.657 158.18C143.567 158.126 143.478 158.071 143.389 158.016C143.285 157.953 143.182 157.89 143.078 157.828C143.083 157.87 143.088 157.912 143.092 157.955C143.11 158.113 143.128 158.272 143.145 158.43C143.152 158.498 143.16 158.566 143.168 158.634C143.304 159.845 143.304 159.845 143.078 160.133C142.897 160.289 142.727 160.338 142.492 160.328C142.299 160.276 142.157 160.189 142.036 160.031C141.972 159.915 141.959 159.819 141.942 159.688C141.936 159.64 141.93 159.591 141.923 159.541C141.897 159.307 141.872 159.073 141.85 158.839C141.843 158.762 141.835 158.686 141.828 158.609C141.809 158.424 141.791 158.238 141.774 158.052C141.764 157.947 141.753 157.842 141.743 157.737C141.733 157.638 141.724 157.54 141.714 157.441C141.708 157.374 141.708 157.374 141.701 157.307C141.695 157.248 141.695 157.248 141.69 157.189C141.663 157.032 141.628 156.954 141.498 156.862C141.458 156.839 141.418 156.816 141.377 156.793C141.344 156.773 141.344 156.773 141.31 156.754C141.262 156.726 141.214 156.699 141.166 156.672C141.037 156.599 140.909 156.525 140.78 156.45C140.754 156.435 140.727 156.42 140.7 156.404C140.427 156.247 140.157 156.083 139.887 155.919C139.824 155.881 139.824 155.881 139.761 155.842C139.629 155.762 139.498 155.682 139.367 155.602C139.135 155.46 138.903 155.318 138.664 155.172C138.651 156.332 138.638 157.492 138.625 158.687C138.677 158.713 138.728 158.739 138.781 158.766C138.832 158.8 138.881 158.835 138.93 158.871C138.973 158.903 138.973 158.903 139.017 158.935C139.064 158.97 139.064 158.97 139.111 159.005C139.143 159.029 139.176 159.053 139.209 159.078C139.489 159.286 139.767 159.497 140.044 159.709C140.205 159.832 140.366 159.954 140.529 160.073C140.558 160.094 140.586 160.115 140.616 160.136C140.668 160.175 140.721 160.213 140.775 160.251C140.96 160.386 141.104 160.522 141.146 160.758C141.143 160.997 141.141 161.162 140.969 161.344C140.791 161.512 140.628 161.52 140.394 161.528C140.061 161.455 139.773 161.162 139.509 160.958C139.23 160.744 138.949 160.534 138.664 160.328C138.664 160.353 138.664 160.378 138.664 160.404C138.662 160.663 138.659 160.923 138.656 161.183C138.655 161.28 138.654 161.377 138.653 161.474C138.653 161.613 138.651 161.753 138.649 161.892C138.649 161.935 138.649 161.979 138.649 162.023C138.644 162.264 138.631 162.41 138.469 162.594C138.32 162.735 138.2 162.762 138 162.77C137.8 162.762 137.68 162.735 137.531 162.594C137.34 162.377 137.352 162.172 137.351 161.892C137.351 161.847 137.35 161.803 137.349 161.757C137.347 161.614 137.347 161.472 137.346 161.329C137.345 161.232 137.343 161.136 137.342 161.039C137.339 160.802 137.337 160.565 137.336 160.328C137.312 160.346 137.288 160.365 137.264 160.384C136.885 160.674 136.505 160.964 136.118 161.244C136.088 161.265 136.058 161.287 136.028 161.309C135.767 161.496 135.594 161.53 135.266 161.5C135.075 161.411 134.964 161.3 134.875 161.109C134.847 160.898 134.836 160.717 134.935 160.525C135.056 160.375 135.193 160.267 135.346 160.152C135.377 160.129 135.408 160.105 135.44 160.081C135.688 159.892 135.938 159.708 136.189 159.524C136.362 159.398 136.533 159.27 136.703 159.139C136.741 159.11 136.778 159.081 136.817 159.052C136.89 158.995 136.963 158.939 137.036 158.882C137.069 158.857 137.102 158.831 137.136 158.805C137.165 158.782 137.194 158.76 137.224 158.736C137.297 158.687 137.297 158.687 137.375 158.687C137.362 157.527 137.349 156.367 137.336 155.172C136.975 155.391 136.614 155.61 136.242 155.836C136.049 155.951 135.855 156.066 135.661 156.181C135.584 156.227 135.507 156.273 135.43 156.319C135.214 156.448 134.999 156.576 134.777 156.694C134.747 156.71 134.718 156.727 134.687 156.744C134.636 156.772 134.585 156.798 134.533 156.823C134.455 156.863 134.455 156.863 134.367 156.969C134.34 157.074 134.34 157.074 134.325 157.195C134.319 157.241 134.313 157.287 134.306 157.334C134.279 157.562 134.256 157.791 134.234 158.021C134.227 158.097 134.22 158.173 134.212 158.249C134.194 158.434 134.177 158.619 134.159 158.804C134.145 158.959 134.13 159.113 134.115 159.268C134.11 159.316 134.106 159.363 134.102 159.412C134.067 159.759 134.023 160.016 133.742 160.25C133.581 160.341 133.416 160.351 133.234 160.328C133.013 160.25 132.871 160.109 132.766 159.898C132.738 159.441 132.792 158.988 132.844 158.534C132.851 158.465 132.859 158.396 132.866 158.327C132.885 158.161 132.903 157.994 132.922 157.828C132.751 157.93 132.58 158.031 132.409 158.132C132.351 158.167 132.293 158.201 132.235 158.236C132.179 158.269 132.123 158.302 132.067 158.336C132.011 158.369 131.956 158.401 131.901 158.434C131.718 158.542 131.536 158.652 131.355 158.763C131.198 158.851 131.068 158.858 130.891 158.844C130.685 158.773 130.541 158.678 130.422 158.492C130.355 158.292 130.358 158.099 130.424 157.899C130.645 157.579 131.008 157.409 131.337 157.22C131.438 157.162 131.538 157.105 131.638 157.047C131.661 157.033 131.685 157.019 131.709 157.005C131.882 156.906 132.051 156.802 132.219 156.695C132.179 156.679 132.138 156.662 132.097 156.645C131.946 156.583 131.795 156.52 131.644 156.458C131.579 156.431 131.514 156.404 131.449 156.377C130.357 155.928 130.357 155.928 130.236 155.726C130.161 155.524 130.139 155.325 130.225 155.123C130.316 154.965 130.404 154.85 130.578 154.781C130.96 154.691 131.296 154.859 131.645 155.006C131.678 155.02 131.712 155.034 131.746 155.049C131.852 155.093 131.957 155.137 132.063 155.182C132.302 155.282 132.542 155.383 132.782 155.482C132.85 155.51 132.917 155.538 132.984 155.566C133.08 155.606 133.177 155.645 133.273 155.684C133.302 155.696 133.331 155.708 133.361 155.72C133.517 155.783 133.621 155.818 133.781 155.758C133.869 155.712 133.951 155.666 134.035 155.615C134.06 155.6 134.084 155.586 134.11 155.571C134.19 155.523 134.27 155.474 134.35 155.426C134.406 155.392 134.462 155.359 134.518 155.325C134.689 155.222 134.86 155.119 135.031 155.016C135.084 154.984 135.136 154.952 135.189 154.921C135.419 154.781 135.65 154.641 135.88 154.501C135.92 154.477 135.96 154.453 136.001 154.428C136.09 154.373 136.178 154.318 136.266 154.263C136.289 154.249 136.313 154.234 136.337 154.219C136.402 154.178 136.467 154.138 136.532 154.097C136.633 154.039 136.633 154.039 136.711 154.039C136.711 154.013 136.711 153.987 136.711 153.961C136.684 153.951 136.657 153.941 136.629 153.931C136.5 153.876 136.382 153.808 136.262 153.736C136.237 153.722 136.213 153.707 136.187 153.692C136.107 153.644 136.027 153.596 135.947 153.548C135.891 153.515 135.835 153.482 135.779 153.448C135.364 153.201 134.951 152.951 134.539 152.699C134.457 152.649 134.374 152.599 134.292 152.55C134.209 152.499 134.127 152.448 134.045 152.396C134.004 152.37 133.963 152.345 133.921 152.318C133.885 152.295 133.848 152.272 133.811 152.248C133.584 152.153 133.377 152.273 133.162 152.361C133.123 152.377 133.084 152.393 133.044 152.41C133.003 152.427 132.962 152.444 132.919 152.461C132.788 152.515 132.657 152.569 132.526 152.623C132.439 152.659 132.352 152.695 132.265 152.73C132.103 152.797 131.941 152.863 131.78 152.93C131.725 152.953 131.725 152.953 131.669 152.976C131.588 153.009 131.508 153.043 131.428 153.077C131.387 153.095 131.345 153.112 131.302 153.131C131.246 153.155 131.246 153.155 131.189 153.179C130.947 153.272 130.745 153.277 130.5 153.18C130.335 153.075 130.253 152.973 130.188 152.789C130.157 152.587 130.168 152.382 130.275 152.204C130.561 151.877 131.192 151.722 131.589 151.561C131.65 151.536 131.712 151.511 131.773 151.486C131.922 151.425 132.07 151.365 132.219 151.305C132.183 151.284 132.147 151.263 132.11 151.241C131.975 151.162 131.841 151.082 131.706 151.003C131.648 150.968 131.59 150.934 131.532 150.9C130.486 150.285 130.486 150.285 130.383 149.977C130.353 149.721 130.385 149.558 130.539 149.352C130.708 149.221 130.861 149.136 131.079 149.141C131.47 149.213 131.86 149.522 132.197 149.73C132.246 149.76 132.295 149.79 132.343 149.82C132.433 149.874 132.522 149.929 132.611 149.984C132.715 150.047 132.818 150.11 132.922 150.172C132.917 150.13 132.912 150.088 132.908 150.045C132.89 149.887 132.872 149.728 132.855 149.57C132.848 149.502 132.84 149.434 132.832 149.366C132.697 148.165 132.697 148.165 132.883 147.906C133.032 147.753 133.163 147.678 133.378 147.66C133.615 147.664 133.787 147.756 133.952 147.921C134.119 148.293 134.112 148.759 134.15 149.161C134.157 149.238 134.165 149.314 134.172 149.391C134.191 149.576 134.209 149.762 134.226 149.948C134.236 150.053 134.247 150.158 134.257 150.263C134.267 150.362 134.276 150.46 134.286 150.559C134.29 150.603 134.294 150.648 134.299 150.693C134.303 150.732 134.306 150.771 134.31 150.811C134.337 150.968 134.372 151.046 134.502 151.138C134.542 151.161 134.582 151.184 134.623 151.207C134.645 151.22 134.667 151.233 134.69 151.246C134.738 151.273 134.786 151.301 134.834 151.328C134.963 151.401 135.091 151.475 135.22 151.55C135.259 151.572 135.259 151.572 135.3 151.596C135.573 151.753 135.843 151.917 136.113 152.081C136.176 152.119 136.176 152.119 136.24 152.158C136.371 152.238 136.502 152.318 136.633 152.398C136.865 152.54 137.097 152.682 137.336 152.828C137.355 151.088 137.355 151.088 137.375 149.312C137.323 149.287 137.272 149.261 137.219 149.234C137.168 149.2 137.119 149.165 137.07 149.129C137.041 149.108 137.012 149.087 136.983 149.065C136.952 149.042 136.921 149.019 136.889 148.995C136.857 148.971 136.824 148.947 136.791 148.922C136.511 148.714 136.233 148.503 135.956 148.291C135.795 148.168 135.634 148.046 135.471 147.927C135.442 147.906 135.414 147.885 135.384 147.864C135.332 147.825 135.279 147.787 135.225 147.749C135.04 147.614 134.896 147.478 134.854 147.242C134.857 147.003 134.859 146.838 135.031 146.656C135.209 146.488 135.372 146.48 135.606 146.472C135.939 146.545 136.227 146.838 136.491 147.042C136.77 147.256 137.051 147.466 137.336 147.672C137.336 147.647 137.336 147.622 137.336 147.596C137.338 147.337 137.341 147.077 137.344 146.817C137.345 146.72 137.346 146.623 137.347 146.526C137.347 146.387 137.349 146.247 137.351 146.108C137.351 146.065 137.351 146.021 137.351 145.977C137.356 145.736 137.369 145.59 137.531 145.406C137.737 145.211 137.965 145.214 138.234 145.25Z" fill="#4294FF"/>
<path d="M128.234 123.25C128.416 123.334 128.546 123.455 128.625 123.641C128.649 123.796 128.649 123.951 128.649 124.108C128.649 124.153 128.65 124.197 128.651 124.243C128.653 124.386 128.653 124.528 128.654 124.671C128.655 124.768 128.657 124.864 128.658 124.961C128.661 125.198 128.663 125.435 128.664 125.672C128.7 125.644 128.7 125.644 128.736 125.616C129.115 125.326 129.495 125.036 129.882 124.756C129.912 124.735 129.942 124.713 129.972 124.691C130.233 124.504 130.406 124.47 130.734 124.5C130.925 124.589 131.036 124.7 131.125 124.891C131.153 125.102 131.164 125.283 131.065 125.475C130.944 125.625 130.807 125.732 130.654 125.848C130.623 125.871 130.592 125.895 130.56 125.919C130.312 126.108 130.062 126.292 129.811 126.476C129.638 126.602 129.467 126.73 129.297 126.861C129.259 126.89 129.222 126.919 129.183 126.948C129.11 127.005 129.037 127.061 128.964 127.118C128.931 127.143 128.898 127.169 128.864 127.195C128.835 127.218 128.806 127.24 128.776 127.264C128.703 127.312 128.703 127.312 128.625 127.312C128.638 128.473 128.651 129.633 128.664 130.828C129.025 130.609 129.386 130.39 129.758 130.164C129.951 130.049 130.145 129.934 130.339 129.819C130.416 129.773 130.493 129.727 130.57 129.681C130.786 129.552 131.001 129.424 131.223 129.306C131.268 129.281 131.268 129.281 131.313 129.256C131.364 129.228 131.415 129.202 131.467 129.177C131.545 129.137 131.545 129.137 131.633 129.031C131.66 128.926 131.66 128.926 131.675 128.805C131.681 128.759 131.687 128.713 131.694 128.666C131.721 128.438 131.744 128.209 131.766 127.979C131.773 127.903 131.78 127.827 131.788 127.751C131.806 127.566 131.823 127.381 131.841 127.196C131.855 127.041 131.87 126.887 131.885 126.732C131.89 126.684 131.894 126.637 131.898 126.588C131.955 126.015 131.955 126.015 132.182 125.813C132.349 125.682 132.517 125.652 132.727 125.672C132.937 125.734 133.074 125.839 133.195 126.023C133.378 126.389 133.201 127.073 133.156 127.466C133.149 127.535 133.141 127.604 133.134 127.673C133.115 127.839 133.097 128.006 133.078 128.172C133.249 128.07 133.42 127.969 133.591 127.868C133.649 127.833 133.707 127.799 133.765 127.764C133.821 127.731 133.877 127.698 133.934 127.664C133.989 127.631 134.044 127.599 134.099 127.566C134.282 127.458 134.464 127.348 134.645 127.237C134.802 127.149 134.932 127.142 135.109 127.156C135.315 127.227 135.459 127.322 135.578 127.508C135.645 127.708 135.642 127.901 135.576 128.101C135.355 128.421 134.992 128.591 134.663 128.78C134.587 128.823 134.511 128.867 134.435 128.911C134.367 128.951 134.298 128.99 134.229 129.03C134.077 129.118 133.929 129.211 133.781 129.305C133.822 129.322 133.863 129.339 133.905 129.356C134.057 129.419 134.21 129.483 134.363 129.546C134.429 129.574 134.494 129.601 134.56 129.628C134.655 129.668 134.75 129.708 134.846 129.747C134.875 129.759 134.903 129.771 134.933 129.784C135.018 129.819 135.103 129.855 135.188 129.891C135.219 129.904 135.251 129.917 135.283 129.931C135.314 129.944 135.345 129.958 135.377 129.972C135.406 129.984 135.434 129.996 135.463 130.008C135.611 130.083 135.703 130.189 135.786 130.33C135.843 130.56 135.849 130.751 135.727 130.96C135.601 131.138 135.491 131.202 135.278 131.253C134.962 131.282 134.64 131.114 134.355 130.994C134.305 130.973 134.305 130.973 134.254 130.951C134.148 130.907 134.043 130.863 133.938 130.818C133.698 130.718 133.458 130.617 133.218 130.518C133.15 130.49 133.083 130.462 133.016 130.434C132.92 130.394 132.823 130.355 132.727 130.316C132.683 130.298 132.683 130.298 132.639 130.28C132.483 130.217 132.379 130.182 132.219 130.242C132.131 130.288 132.049 130.334 131.965 130.385C131.94 130.4 131.916 130.414 131.89 130.429C131.81 130.477 131.73 130.526 131.65 130.574C131.594 130.608 131.538 130.641 131.482 130.675C131.311 130.778 131.14 130.881 130.969 130.984C130.916 131.016 130.864 131.048 130.811 131.079C130.581 131.219 130.35 131.359 130.12 131.499C130.08 131.523 130.04 131.547 129.999 131.572C129.91 131.627 129.822 131.682 129.734 131.737C129.711 131.751 129.687 131.766 129.663 131.781C129.598 131.822 129.533 131.862 129.468 131.903C129.367 131.961 129.367 131.961 129.289 131.961C129.289 131.987 129.289 132.012 129.289 132.039C129.316 132.049 129.343 132.059 129.371 132.069C129.5 132.124 129.618 132.192 129.738 132.264C129.763 132.278 129.787 132.293 129.813 132.308C129.893 132.356 129.973 132.404 130.053 132.452C130.109 132.485 130.165 132.518 130.221 132.552C130.636 132.799 131.049 133.049 131.461 133.301C131.543 133.351 131.626 133.401 131.708 133.45C131.791 133.501 131.873 133.552 131.955 133.604C132.016 133.643 132.016 133.643 132.079 133.682C132.115 133.705 132.152 133.728 132.189 133.752C132.385 133.834 132.536 133.759 132.724 133.685C132.799 133.654 132.875 133.623 132.951 133.591C132.992 133.575 133.032 133.558 133.074 133.541C133.204 133.487 133.334 133.433 133.464 133.379C134.451 132.971 134.451 132.971 134.807 132.834C134.853 132.816 134.9 132.798 134.949 132.78C135.183 132.707 135.337 132.738 135.551 132.847C135.699 132.974 135.796 133.074 135.829 133.272C135.84 133.495 135.809 133.656 135.69 133.846C135.496 134.028 135.205 134.115 134.961 134.212C134.914 134.231 134.914 134.231 134.865 134.251C134.766 134.291 134.667 134.331 134.567 134.371C134.467 134.411 134.367 134.451 134.267 134.492C134.205 134.517 134.143 134.542 134.081 134.566C133.929 134.627 133.929 134.627 133.781 134.695C133.817 134.716 133.853 134.737 133.89 134.759C134.025 134.838 134.159 134.918 134.294 134.997C134.352 135.032 134.41 135.066 134.468 135.1C135.514 135.715 135.514 135.715 135.617 136.023C135.647 136.279 135.615 136.442 135.461 136.648C135.292 136.779 135.139 136.864 134.921 136.859C134.53 136.787 134.14 136.478 133.803 136.27C133.754 136.24 133.705 136.21 133.657 136.18C133.567 136.126 133.478 136.071 133.389 136.016C133.285 135.953 133.182 135.89 133.078 135.828C133.083 135.87 133.088 135.912 133.092 135.955C133.11 136.113 133.128 136.272 133.145 136.43C133.152 136.498 133.16 136.566 133.168 136.634C133.304 137.845 133.304 137.845 133.078 138.133C132.897 138.289 132.727 138.338 132.492 138.328C132.299 138.276 132.157 138.189 132.036 138.031C131.972 137.915 131.959 137.819 131.942 137.688C131.936 137.64 131.93 137.591 131.923 137.541C131.897 137.307 131.872 137.073 131.85 136.839C131.843 136.762 131.835 136.686 131.828 136.609C131.809 136.424 131.791 136.238 131.774 136.052C131.764 135.947 131.753 135.842 131.743 135.737C131.733 135.638 131.724 135.54 131.714 135.441C131.708 135.374 131.708 135.374 131.701 135.307C131.695 135.248 131.695 135.248 131.69 135.189C131.663 135.032 131.628 134.954 131.498 134.862C131.458 134.839 131.418 134.816 131.377 134.793C131.344 134.773 131.344 134.773 131.31 134.754C131.262 134.726 131.214 134.699 131.166 134.672C131.037 134.599 130.909 134.525 130.78 134.45C130.754 134.435 130.727 134.42 130.7 134.404C130.427 134.247 130.157 134.083 129.887 133.919C129.824 133.881 129.824 133.881 129.761 133.842C129.629 133.762 129.498 133.682 129.367 133.602C129.135 133.46 128.903 133.318 128.664 133.172C128.651 134.332 128.638 135.492 128.625 136.687C128.677 136.713 128.728 136.739 128.781 136.766C128.832 136.8 128.881 136.835 128.93 136.871C128.973 136.903 128.973 136.903 129.017 136.935C129.064 136.97 129.064 136.97 129.111 137.005C129.143 137.029 129.176 137.053 129.209 137.078C129.489 137.286 129.767 137.497 130.044 137.709C130.205 137.832 130.366 137.954 130.529 138.073C130.558 138.094 130.586 138.115 130.616 138.136C130.668 138.175 130.721 138.213 130.775 138.251C130.96 138.386 131.104 138.522 131.146 138.758C131.143 138.997 131.141 139.162 130.969 139.344C130.791 139.512 130.628 139.52 130.394 139.528C130.061 139.455 129.773 139.162 129.509 138.958C129.23 138.744 128.949 138.534 128.664 138.328C128.664 138.353 128.664 138.378 128.664 138.404C128.662 138.663 128.659 138.923 128.656 139.183C128.655 139.28 128.654 139.377 128.653 139.474C128.653 139.613 128.651 139.753 128.649 139.892C128.649 139.935 128.649 139.979 128.649 140.023C128.644 140.264 128.631 140.41 128.469 140.594C128.32 140.735 128.2 140.762 128 140.77C127.8 140.762 127.68 140.735 127.531 140.594C127.34 140.377 127.352 140.172 127.351 139.892C127.351 139.847 127.35 139.803 127.349 139.757C127.347 139.614 127.347 139.472 127.346 139.329C127.345 139.232 127.343 139.136 127.342 139.039C127.339 138.802 127.337 138.565 127.336 138.328C127.312 138.346 127.288 138.365 127.264 138.384C126.885 138.674 126.505 138.964 126.118 139.244C126.088 139.265 126.058 139.287 126.028 139.309C125.767 139.496 125.594 139.53 125.266 139.5C125.075 139.411 124.964 139.3 124.875 139.109C124.847 138.898 124.836 138.717 124.935 138.525C125.056 138.375 125.193 138.267 125.346 138.152C125.377 138.129 125.408 138.105 125.44 138.081C125.688 137.892 125.938 137.708 126.189 137.524C126.362 137.398 126.533 137.27 126.703 137.139C126.741 137.11 126.778 137.081 126.817 137.052C126.89 136.995 126.963 136.939 127.036 136.882C127.069 136.857 127.102 136.831 127.136 136.805C127.165 136.782 127.194 136.76 127.224 136.736C127.297 136.687 127.297 136.687 127.375 136.687C127.362 135.527 127.349 134.367 127.336 133.172C126.975 133.391 126.614 133.61 126.242 133.836C126.049 133.951 125.855 134.066 125.661 134.181C125.584 134.227 125.507 134.273 125.43 134.319C125.214 134.448 124.999 134.576 124.777 134.694C124.747 134.71 124.718 134.727 124.687 134.744C124.636 134.772 124.585 134.798 124.533 134.823C124.455 134.863 124.455 134.863 124.367 134.969C124.34 135.074 124.34 135.074 124.325 135.195C124.319 135.241 124.313 135.287 124.306 135.334C124.279 135.562 124.256 135.791 124.234 136.021C124.227 136.097 124.22 136.173 124.212 136.249C124.194 136.434 124.177 136.619 124.159 136.804C124.145 136.959 124.13 137.113 124.115 137.268C124.11 137.316 124.106 137.363 124.102 137.412C124.067 137.759 124.023 138.016 123.742 138.25C123.581 138.341 123.416 138.351 123.234 138.328C123.013 138.25 122.871 138.109 122.766 137.898C122.738 137.441 122.792 136.988 122.844 136.534C122.851 136.465 122.859 136.396 122.866 136.327C122.885 136.161 122.903 135.994 122.922 135.828C122.751 135.93 122.58 136.031 122.409 136.132C122.351 136.167 122.293 136.201 122.235 136.236C122.179 136.269 122.123 136.302 122.067 136.336C122.011 136.369 121.956 136.401 121.901 136.434C121.718 136.542 121.536 136.652 121.355 136.763C121.198 136.851 121.068 136.858 120.891 136.844C120.685 136.773 120.541 136.678 120.422 136.492C120.355 136.292 120.358 136.099 120.424 135.899C120.645 135.579 121.008 135.409 121.337 135.22C121.438 135.162 121.538 135.105 121.638 135.047C121.661 135.033 121.685 135.019 121.709 135.005C121.882 134.906 122.051 134.802 122.219 134.695C122.179 134.679 122.138 134.662 122.097 134.645C121.946 134.583 121.795 134.52 121.644 134.458C121.579 134.431 121.514 134.404 121.449 134.377C120.357 133.928 120.357 133.928 120.236 133.726C120.161 133.524 120.139 133.325 120.225 133.123C120.316 132.965 120.404 132.85 120.578 132.781C120.96 132.691 121.296 132.859 121.645 133.006C121.678 133.02 121.712 133.034 121.746 133.049C121.852 133.093 121.957 133.137 122.063 133.182C122.302 133.282 122.542 133.383 122.782 133.482C122.85 133.51 122.917 133.538 122.984 133.566C123.08 133.606 123.177 133.645 123.273 133.684C123.302 133.696 123.331 133.708 123.361 133.72C123.517 133.783 123.621 133.818 123.781 133.758C123.869 133.712 123.951 133.666 124.035 133.615C124.06 133.6 124.084 133.586 124.11 133.571C124.19 133.523 124.27 133.474 124.35 133.426C124.406 133.392 124.462 133.359 124.518 133.325C124.689 133.222 124.86 133.119 125.031 133.016C125.084 132.984 125.136 132.952 125.189 132.921C125.419 132.781 125.65 132.641 125.88 132.501C125.92 132.477 125.96 132.453 126.001 132.428C126.09 132.373 126.178 132.318 126.266 132.263C126.289 132.249 126.313 132.234 126.337 132.219C126.402 132.178 126.467 132.138 126.532 132.097C126.633 132.039 126.633 132.039 126.711 132.039C126.711 132.013 126.711 131.987 126.711 131.961C126.684 131.951 126.657 131.941 126.629 131.931C126.5 131.876 126.382 131.808 126.262 131.736C126.237 131.722 126.213 131.707 126.187 131.692C126.107 131.644 126.027 131.596 125.947 131.548C125.891 131.515 125.835 131.482 125.779 131.448C125.364 131.201 124.951 130.951 124.539 130.699C124.457 130.649 124.374 130.599 124.292 130.55C124.209 130.499 124.127 130.448 124.045 130.396C124.004 130.37 123.963 130.345 123.921 130.318C123.885 130.295 123.848 130.272 123.811 130.248C123.584 130.153 123.377 130.273 123.162 130.361C123.123 130.377 123.084 130.393 123.044 130.41C123.003 130.427 122.962 130.444 122.919 130.461C122.788 130.515 122.657 130.569 122.526 130.623C122.439 130.659 122.352 130.695 122.265 130.73C122.103 130.797 121.941 130.863 121.78 130.93C121.725 130.953 121.725 130.953 121.669 130.976C121.588 131.009 121.508 131.043 121.428 131.077C121.387 131.095 121.345 131.112 121.302 131.131C121.246 131.155 121.246 131.155 121.189 131.179C120.947 131.272 120.745 131.277 120.5 131.18C120.335 131.075 120.253 130.973 120.188 130.789C120.157 130.587 120.168 130.382 120.275 130.204C120.561 129.877 121.192 129.722 121.589 129.561C121.65 129.536 121.712 129.511 121.773 129.486C121.922 129.425 122.07 129.365 122.219 129.305C122.183 129.284 122.147 129.263 122.11 129.241C121.975 129.162 121.841 129.082 121.706 129.003C121.648 128.968 121.59 128.934 121.532 128.9C120.486 128.285 120.486 128.285 120.383 127.977C120.353 127.721 120.385 127.558 120.539 127.352C120.708 127.221 120.861 127.136 121.079 127.141C121.47 127.213 121.86 127.522 122.197 127.73C122.246 127.76 122.295 127.79 122.343 127.82C122.433 127.874 122.522 127.929 122.611 127.984C122.715 128.047 122.818 128.11 122.922 128.172C122.917 128.13 122.912 128.088 122.908 128.045C122.89 127.887 122.872 127.728 122.855 127.57C122.848 127.502 122.84 127.434 122.832 127.366C122.697 126.165 122.697 126.165 122.883 125.906C123.032 125.753 123.163 125.678 123.378 125.66C123.615 125.664 123.787 125.756 123.952 125.921C124.119 126.293 124.112 126.759 124.15 127.161C124.157 127.238 124.165 127.314 124.172 127.391C124.191 127.576 124.209 127.762 124.226 127.948C124.236 128.053 124.247 128.158 124.257 128.263C124.267 128.362 124.276 128.46 124.286 128.559C124.29 128.603 124.294 128.648 124.299 128.693C124.303 128.732 124.306 128.771 124.31 128.811C124.337 128.968 124.372 129.046 124.502 129.138C124.542 129.161 124.582 129.184 124.623 129.207C124.645 129.22 124.667 129.233 124.69 129.246C124.738 129.273 124.786 129.301 124.834 129.328C124.963 129.401 125.091 129.475 125.22 129.55C125.259 129.572 125.259 129.572 125.3 129.596C125.573 129.753 125.843 129.917 126.113 130.081C126.176 130.119 126.176 130.119 126.24 130.158C126.371 130.238 126.502 130.318 126.633 130.398C126.865 130.54 127.097 130.682 127.336 130.828C127.355 129.088 127.355 129.088 127.375 127.312C127.323 127.287 127.272 127.261 127.219 127.234C127.168 127.2 127.119 127.165 127.07 127.129C127.041 127.108 127.012 127.087 126.983 127.065C126.952 127.042 126.921 127.019 126.889 126.995C126.857 126.971 126.824 126.947 126.791 126.922C126.511 126.714 126.233 126.503 125.956 126.291C125.795 126.168 125.634 126.046 125.471 125.927C125.442 125.906 125.414 125.885 125.384 125.864C125.332 125.825 125.279 125.787 125.225 125.749C125.04 125.614 124.896 125.478 124.854 125.242C124.857 125.003 124.859 124.838 125.031 124.656C125.209 124.488 125.372 124.48 125.606 124.472C125.939 124.545 126.227 124.838 126.491 125.042C126.77 125.256 127.051 125.466 127.336 125.672C127.336 125.647 127.336 125.622 127.336 125.596C127.338 125.337 127.341 125.077 127.344 124.817C127.345 124.72 127.346 124.623 127.347 124.526C127.347 124.387 127.349 124.247 127.351 124.108C127.351 124.065 127.351 124.021 127.351 123.977C127.356 123.736 127.369 123.59 127.531 123.406C127.737 123.211 127.965 123.214 128.234 123.25Z" fill="#4294FF"/>
<path d="M150.234 123.25C150.416 123.334 150.546 123.455 150.625 123.641C150.649 123.796 150.649 123.951 150.649 124.108C150.649 124.153 150.65 124.197 150.651 124.243C150.653 124.386 150.653 124.528 150.654 124.671C150.655 124.768 150.657 124.864 150.658 124.961C150.661 125.198 150.663 125.435 150.664 125.672C150.7 125.644 150.7 125.644 150.736 125.616C151.115 125.326 151.495 125.036 151.882 124.756C151.912 124.735 151.942 124.713 151.972 124.691C152.233 124.504 152.406 124.47 152.734 124.5C152.925 124.589 153.036 124.7 153.125 124.891C153.153 125.102 153.164 125.283 153.065 125.475C152.944 125.625 152.807 125.732 152.654 125.848C152.623 125.871 152.592 125.895 152.56 125.919C152.312 126.108 152.062 126.292 151.811 126.476C151.638 126.602 151.467 126.73 151.297 126.861C151.259 126.89 151.222 126.919 151.183 126.948C151.11 127.005 151.037 127.061 150.964 127.118C150.931 127.143 150.898 127.169 150.864 127.195C150.835 127.218 150.806 127.24 150.776 127.264C150.703 127.312 150.703 127.312 150.625 127.312C150.638 128.473 150.651 129.633 150.664 130.828C151.025 130.609 151.386 130.39 151.758 130.164C151.951 130.049 152.145 129.934 152.339 129.819C152.416 129.773 152.493 129.727 152.57 129.681C152.786 129.552 153.001 129.424 153.223 129.306C153.268 129.281 153.268 129.281 153.313 129.256C153.364 129.228 153.415 129.202 153.467 129.177C153.545 129.137 153.545 129.137 153.633 129.031C153.66 128.926 153.66 128.926 153.675 128.805C153.681 128.759 153.687 128.713 153.694 128.666C153.721 128.438 153.744 128.209 153.766 127.979C153.773 127.903 153.78 127.827 153.788 127.751C153.806 127.566 153.823 127.381 153.841 127.196C153.855 127.041 153.87 126.887 153.885 126.732C153.89 126.684 153.894 126.637 153.898 126.588C153.955 126.015 153.955 126.015 154.182 125.813C154.349 125.682 154.517 125.652 154.727 125.672C154.937 125.734 155.074 125.839 155.195 126.023C155.378 126.389 155.201 127.073 155.156 127.466C155.149 127.535 155.141 127.604 155.134 127.673C155.115 127.839 155.097 128.006 155.078 128.172C155.249 128.07 155.42 127.969 155.591 127.868C155.649 127.833 155.707 127.799 155.765 127.764C155.821 127.731 155.877 127.698 155.934 127.664C155.989 127.631 156.044 127.599 156.099 127.566C156.282 127.458 156.464 127.348 156.645 127.237C156.802 127.149 156.932 127.142 157.109 127.156C157.315 127.227 157.459 127.322 157.578 127.508C157.645 127.708 157.642 127.901 157.576 128.101C157.355 128.421 156.992 128.591 156.663 128.78C156.587 128.823 156.511 128.867 156.435 128.911C156.367 128.951 156.298 128.99 156.229 129.03C156.077 129.118 155.929 129.211 155.781 129.305C155.822 129.322 155.863 129.339 155.905 129.356C156.057 129.419 156.21 129.483 156.363 129.546C156.429 129.574 156.494 129.601 156.56 129.628C156.655 129.668 156.75 129.708 156.846 129.747C156.875 129.759 156.903 129.771 156.933 129.784C157.018 129.819 157.103 129.855 157.188 129.891C157.219 129.904 157.251 129.917 157.283 129.931C157.314 129.944 157.345 129.958 157.377 129.972C157.406 129.984 157.434 129.996 157.463 130.008C157.611 130.083 157.703 130.189 157.786 130.33C157.843 130.56 157.849 130.751 157.727 130.96C157.601 131.138 157.491 131.202 157.278 131.253C156.962 131.282 156.64 131.114 156.355 130.994C156.305 130.973 156.305 130.973 156.254 130.951C156.148 130.907 156.043 130.863 155.938 130.818C155.698 130.718 155.458 130.617 155.218 130.518C155.15 130.49 155.083 130.462 155.016 130.434C154.92 130.394 154.823 130.355 154.727 130.316C154.683 130.298 154.683 130.298 154.639 130.28C154.483 130.217 154.379 130.182 154.219 130.242C154.131 130.288 154.049 130.334 153.965 130.385C153.94 130.4 153.916 130.414 153.89 130.429C153.81 130.477 153.73 130.526 153.65 130.574C153.594 130.608 153.538 130.641 153.482 130.675C153.311 130.778 153.14 130.881 152.969 130.984C152.916 131.016 152.864 131.048 152.811 131.079C152.581 131.219 152.35 131.359 152.12 131.499C152.08 131.523 152.04 131.547 151.999 131.572C151.91 131.627 151.822 131.682 151.734 131.737C151.711 131.751 151.687 131.766 151.663 131.781C151.598 131.822 151.533 131.862 151.468 131.903C151.367 131.961 151.367 131.961 151.289 131.961C151.289 131.987 151.289 132.012 151.289 132.039C151.316 132.049 151.343 132.059 151.371 132.069C151.5 132.124 151.618 132.192 151.738 132.264C151.763 132.278 151.787 132.293 151.813 132.308C151.893 132.356 151.973 132.404 152.053 132.452C152.109 132.485 152.165 132.518 152.221 132.552C152.636 132.799 153.049 133.049 153.461 133.301C153.543 133.351 153.626 133.401 153.708 133.45C153.791 133.501 153.873 133.552 153.955 133.604C154.016 133.643 154.016 133.643 154.079 133.682C154.115 133.705 154.152 133.728 154.189 133.752C154.385 133.834 154.536 133.759 154.724 133.685C154.799 133.654 154.875 133.623 154.951 133.591C154.992 133.575 155.032 133.558 155.074 133.541C155.204 133.487 155.334 133.433 155.464 133.379C156.451 132.971 156.451 132.971 156.807 132.834C156.853 132.816 156.9 132.798 156.949 132.78C157.183 132.707 157.337 132.738 157.551 132.847C157.699 132.974 157.796 133.074 157.829 133.272C157.84 133.495 157.809 133.656 157.69 133.846C157.496 134.028 157.205 134.115 156.961 134.212C156.914 134.231 156.914 134.231 156.865 134.251C156.766 134.291 156.667 134.331 156.567 134.371C156.467 134.411 156.367 134.451 156.267 134.492C156.205 134.517 156.143 134.542 156.081 134.566C155.929 134.627 155.929 134.627 155.781 134.695C155.817 134.716 155.853 134.737 155.89 134.759C156.025 134.838 156.159 134.918 156.294 134.997C156.352 135.032 156.41 135.066 156.468 135.1C157.514 135.715 157.514 135.715 157.617 136.023C157.647 136.279 157.615 136.442 157.461 136.648C157.292 136.779 157.139 136.864 156.921 136.859C156.53 136.787 156.14 136.478 155.803 136.27C155.754 136.24 155.705 136.21 155.657 136.18C155.567 136.126 155.478 136.071 155.389 136.016C155.285 135.953 155.182 135.89 155.078 135.828C155.083 135.87 155.088 135.912 155.092 135.955C155.11 136.113 155.128 136.272 155.145 136.43C155.152 136.498 155.16 136.566 155.168 136.634C155.304 137.845 155.304 137.845 155.078 138.133C154.897 138.289 154.727 138.338 154.492 138.328C154.299 138.276 154.157 138.189 154.036 138.031C153.972 137.915 153.959 137.819 153.942 137.688C153.936 137.64 153.93 137.591 153.923 137.541C153.897 137.307 153.872 137.073 153.85 136.839C153.843 136.762 153.835 136.686 153.828 136.609C153.809 136.424 153.791 136.238 153.774 136.052C153.764 135.947 153.753 135.842 153.743 135.737C153.733 135.638 153.724 135.54 153.714 135.441C153.708 135.374 153.708 135.374 153.701 135.307C153.695 135.248 153.695 135.248 153.69 135.189C153.663 135.032 153.628 134.954 153.498 134.862C153.458 134.839 153.418 134.816 153.377 134.793C153.344 134.773 153.344 134.773 153.31 134.754C153.262 134.726 153.214 134.699 153.166 134.672C153.037 134.599 152.909 134.525 152.78 134.45C152.754 134.435 152.727 134.42 152.7 134.404C152.427 134.247 152.157 134.083 151.887 133.919C151.824 133.881 151.824 133.881 151.761 133.842C151.629 133.762 151.498 133.682 151.367 133.602C151.135 133.46 150.903 133.318 150.664 133.172C150.651 134.332 150.638 135.492 150.625 136.687C150.677 136.713 150.728 136.739 150.781 136.766C150.832 136.8 150.881 136.835 150.93 136.871C150.973 136.903 150.973 136.903 151.017 136.935C151.064 136.97 151.064 136.97 151.111 137.005C151.143 137.029 151.176 137.053 151.209 137.078C151.489 137.286 151.767 137.497 152.044 137.709C152.205 137.832 152.366 137.954 152.529 138.073C152.558 138.094 152.586 138.115 152.616 138.136C152.668 138.175 152.721 138.213 152.775 138.251C152.96 138.386 153.104 138.522 153.146 138.758C153.143 138.997 153.141 139.162 152.969 139.344C152.791 139.512 152.628 139.52 152.394 139.528C152.061 139.455 151.773 139.162 151.509 138.958C151.23 138.744 150.949 138.534 150.664 138.328C150.664 138.353 150.664 138.378 150.664 138.404C150.662 138.663 150.659 138.923 150.656 139.183C150.655 139.28 150.654 139.377 150.653 139.474C150.653 139.613 150.651 139.753 150.649 139.892C150.649 139.935 150.649 139.979 150.649 140.023C150.644 140.264 150.631 140.41 150.469 140.594C150.32 140.735 150.2 140.762 150 140.77C149.8 140.762 149.68 140.735 149.531 140.594C149.34 140.377 149.352 140.172 149.351 139.892C149.351 139.847 149.35 139.803 149.349 139.757C149.347 139.614 149.347 139.472 149.346 139.329C149.345 139.232 149.343 139.136 149.342 139.039C149.339 138.802 149.337 138.565 149.336 138.328C149.312 138.346 149.288 138.365 149.264 138.384C148.885 138.674 148.505 138.964 148.118 139.244C148.088 139.265 148.058 139.287 148.028 139.309C147.767 139.496 147.594 139.53 147.266 139.5C147.075 139.411 146.964 139.3 146.875 139.109C146.847 138.898 146.836 138.717 146.935 138.525C147.056 138.375 147.193 138.267 147.346 138.152C147.377 138.129 147.408 138.105 147.44 138.081C147.688 137.892 147.938 137.708 148.189 137.524C148.362 137.398 148.533 137.27 148.703 137.139C148.741 137.11 148.778 137.081 148.817 137.052C148.89 136.995 148.963 136.939 149.036 136.882C149.069 136.857 149.102 136.831 149.136 136.805C149.165 136.782 149.194 136.76 149.224 136.736C149.297 136.687 149.297 136.687 149.375 136.687C149.362 135.527 149.349 134.367 149.336 133.172C148.975 133.391 148.614 133.61 148.242 133.836C148.049 133.951 147.855 134.066 147.661 134.181C147.584 134.227 147.507 134.273 147.43 134.319C147.214 134.448 146.999 134.576 146.777 134.694C146.747 134.71 146.718 134.727 146.687 134.744C146.636 134.772 146.585 134.798 146.533 134.823C146.455 134.863 146.455 134.863 146.367 134.969C146.34 135.074 146.34 135.074 146.325 135.195C146.319 135.241 146.313 135.287 146.306 135.334C146.279 135.562 146.256 135.791 146.234 136.021C146.227 136.097 146.22 136.173 146.212 136.249C146.194 136.434 146.177 136.619 146.159 136.804C146.145 136.959 146.13 137.113 146.115 137.268C146.11 137.316 146.106 137.363 146.102 137.412C146.067 137.759 146.023 138.016 145.742 138.25C145.581 138.341 145.416 138.351 145.234 138.328C145.013 138.25 144.871 138.109 144.766 137.898C144.738 137.441 144.792 136.988 144.844 136.534C144.851 136.465 144.859 136.396 144.866 136.327C144.885 136.161 144.903 135.994 144.922 135.828C144.751 135.93 144.58 136.031 144.409 136.132C144.351 136.167 144.293 136.201 144.235 136.236C144.179 136.269 144.123 136.302 144.067 136.336C144.011 136.369 143.956 136.401 143.901 136.434C143.718 136.542 143.536 136.652 143.355 136.763C143.198 136.851 143.068 136.858 142.891 136.844C142.685 136.773 142.541 136.678 142.422 136.492C142.355 136.292 142.358 136.099 142.424 135.899C142.645 135.579 143.008 135.409 143.337 135.22C143.438 135.162 143.538 135.105 143.638 135.047C143.661 135.033 143.685 135.019 143.709 135.005C143.882 134.906 144.051 134.802 144.219 134.695C144.179 134.679 144.138 134.662 144.097 134.645C143.946 134.583 143.795 134.52 143.644 134.458C143.579 134.431 143.514 134.404 143.449 134.377C142.357 133.928 142.357 133.928 142.236 133.726C142.161 133.524 142.139 133.325 142.225 133.123C142.316 132.965 142.404 132.85 142.578 132.781C142.96 132.691 143.296 132.859 143.645 133.006C143.678 133.02 143.712 133.034 143.746 133.049C143.852 133.093 143.957 133.137 144.063 133.182C144.302 133.282 144.542 133.383 144.782 133.482C144.85 133.51 144.917 133.538 144.984 133.566C145.08 133.606 145.177 133.645 145.273 133.684C145.302 133.696 145.331 133.708 145.361 133.72C145.517 133.783 145.621 133.818 145.781 133.758C145.869 133.712 145.951 133.666 146.035 133.615C146.06 133.6 146.084 133.586 146.11 133.571C146.19 133.523 146.27 133.474 146.35 133.426C146.406 133.392 146.462 133.359 146.518 133.325C146.689 133.222 146.86 133.119 147.031 133.016C147.084 132.984 147.136 132.952 147.189 132.921C147.419 132.781 147.65 132.641 147.88 132.501C147.92 132.477 147.96 132.453 148.001 132.428C148.09 132.373 148.178 132.318 148.266 132.263C148.289 132.249 148.313 132.234 148.337 132.219C148.402 132.178 148.467 132.138 148.532 132.097C148.633 132.039 148.633 132.039 148.711 132.039C148.711 132.013 148.711 131.987 148.711 131.961C148.684 131.951 148.657 131.941 148.629 131.931C148.5 131.876 148.382 131.808 148.262 131.736C148.237 131.722 148.213 131.707 148.187 131.692C148.107 131.644 148.027 131.596 147.947 131.548C147.891 131.515 147.835 131.482 147.779 131.448C147.364 131.201 146.951 130.951 146.539 130.699C146.457 130.649 146.374 130.599 146.292 130.55C146.209 130.499 146.127 130.448 146.045 130.396C146.004 130.37 145.963 130.345 145.921 130.318C145.885 130.295 145.848 130.272 145.811 130.248C145.584 130.153 145.377 130.273 145.162 130.361C145.123 130.377 145.084 130.393 145.044 130.41C145.003 130.427 144.962 130.444 144.919 130.461C144.788 130.515 144.657 130.569 144.526 130.623C144.439 130.659 144.352 130.695 144.265 130.73C144.103 130.797 143.941 130.863 143.78 130.93C143.725 130.953 143.725 130.953 143.669 130.976C143.588 131.009 143.508 131.043 143.428 131.077C143.387 131.095 143.345 131.112 143.302 131.131C143.246 131.155 143.246 131.155 143.189 131.179C142.947 131.272 142.745 131.277 142.5 131.18C142.335 131.075 142.253 130.973 142.188 130.789C142.157 130.587 142.168 130.382 142.275 130.204C142.561 129.877 143.192 129.722 143.589 129.561C143.65 129.536 143.712 129.511 143.773 129.486C143.922 129.425 144.07 129.365 144.219 129.305C144.183 129.284 144.147 129.263 144.11 129.241C143.975 129.162 143.841 129.082 143.706 129.003C143.648 128.968 143.59 128.934 143.532 128.9C142.486 128.285 142.486 128.285 142.383 127.977C142.353 127.721 142.385 127.558 142.539 127.352C142.708 127.221 142.861 127.136 143.079 127.141C143.47 127.213 143.86 127.522 144.197 127.73C144.246 127.76 144.295 127.79 144.343 127.82C144.433 127.874 144.522 127.929 144.611 127.984C144.715 128.047 144.818 128.11 144.922 128.172C144.917 128.13 144.912 128.088 144.908 128.045C144.89 127.887 144.872 127.728 144.855 127.57C144.848 127.502 144.84 127.434 144.832 127.366C144.697 126.165 144.697 126.165 144.883 125.906C145.032 125.753 145.163 125.678 145.378 125.66C145.615 125.664 145.787 125.756 145.952 125.921C146.119 126.293 146.112 126.759 146.15 127.161C146.157 127.238 146.165 127.314 146.172 127.391C146.191 127.576 146.209 127.762 146.226 127.948C146.236 128.053 146.247 128.158 146.257 128.263C146.267 128.362 146.276 128.46 146.286 128.559C146.29 128.603 146.294 128.648 146.299 128.693C146.303 128.732 146.306 128.771 146.31 128.811C146.337 128.968 146.372 129.046 146.502 129.138C146.542 129.161 146.582 129.184 146.623 129.207C146.645 129.22 146.667 129.233 146.69 129.246C146.738 129.273 146.786 129.301 146.834 129.328C146.963 129.401 147.091 129.475 147.22 129.55C147.259 129.572 147.259 129.572 147.3 129.596C147.573 129.753 147.843 129.917 148.113 130.081C148.176 130.119 148.176 130.119 148.24 130.158C148.371 130.238 148.502 130.318 148.633 130.398C148.865 130.54 149.097 130.682 149.336 130.828C149.355 129.088 149.355 129.088 149.375 127.312C149.323 127.287 149.272 127.261 149.219 127.234C149.168 127.2 149.119 127.165 149.07 127.129C149.041 127.108 149.012 127.087 148.983 127.065C148.952 127.042 148.921 127.019 148.889 126.995C148.857 126.971 148.824 126.947 148.791 126.922C148.511 126.714 148.233 126.503 147.956 126.291C147.795 126.168 147.634 126.046 147.471 125.927C147.442 125.906 147.414 125.885 147.384 125.864C147.332 125.825 147.279 125.787 147.225 125.749C147.04 125.614 146.896 125.478 146.854 125.242C146.857 125.003 146.859 124.838 147.031 124.656C147.209 124.488 147.372 124.48 147.606 124.472C147.939 124.545 148.227 124.838 148.491 125.042C148.77 125.256 149.051 125.466 149.336 125.672C149.336 125.647 149.336 125.622 149.336 125.596C149.338 125.337 149.341 125.077 149.344 124.817C149.345 124.72 149.346 124.623 149.347 124.526C149.347 124.387 149.349 124.247 149.351 124.108C149.351 124.065 149.351 124.021 149.351 123.977C149.356 123.736 149.369 123.59 149.531 123.406C149.737 123.211 149.965 123.214 150.234 123.25Z" fill="#4294FF"/>
<defs>
<filter id="filter0_dd_6_186" x="42" y="0" width="149" height="143" filterUnits="userSpaceOnUse" color-interpolation-filters="sRGB">
<feFlood flood-opacity="0" result="BackgroundImageFix"/>
<feColorMatrix in="SourceAlpha" type="matrix" values="0 0 0 0 0 0 0 0 0 0 0 0 0 0 0 0 0 0 127 0" result="hardAlpha"/>
<feOffset dx="-21" dy="15"/>
<feGaussianBlur stdDeviation="25"/>
<feComposite in2="hardAlpha" operator="out"/>
<feColorMatrix type="matrix" values="0 0 0 0 0.113438 0 0 0 0 0.148981 0 0 0 0 0.275 0 0 0 0.25 0"/>
<feBlend mode="normal" in2="BackgroundImageFix" result="effect1_dropShadow_6_186"/>
<feColorMatrix in="SourceAlpha" type="matrix" values="0 0 0 0 0 0 0 0 0 0 0 0 0 0 0 0 0 0 127 0" result="hardAlpha"/>
<feOffset/>
<feGaussianBlur stdDeviation="19"/>
<feComposite in2="hardAlpha" operator="out"/>
<feColorMatrix type="matrix" values="0 0 0 0 0.980392 0 0 0 0 0.980392 0 0 0 0 0.980392 0 0 0 0.4 0"/>
<feBlend mode="normal" in2="effect1_dropShadow_6_186" result="effect2_dropShadow_6_186"/>
<feBlend mode="normal" in="SourceGraphic" in2="effect2_dropShadow_6_186" result="shape"/>
</filter>
<clipPath id="bgblur_0_6_186_clip_path" transform="translate(-42 0)"><path d="M133 38C144.046 38 153 46.9543 153 58C153 69.0456 144.046 78 133 78C121.954 78 113 69.0456 113 58C113 46.9543 121.954 38 133 38Z"/>
</clipPath><filter id="filter1_d_6_186" x="0" y="25" width="186.118" height="158.257" filterUnits="userSpaceOnUse" color-interpolation-filters="sRGB">
<feFlood flood-opacity="0" result="BackgroundImageFix"/>
<feColorMatrix in="SourceAlpha" type="matrix" values="0 0 0 0 0 0 0 0 0 0 0 0 0 0 0 0 0 0 127 0" result="hardAlpha"/>
<feOffset dx="-21" dy="15"/>
<feGaussianBlur stdDeviation="25"/>
<feComposite in2="hardAlpha" operator="out"/>
<feColorMatrix type="matrix" values="0 0 0 0 0.113725 0 0 0 0 0.14902 0 0 0 0 0.27451 0 0 0 0.25 0"/>
<feBlend mode="normal" in2="BackgroundImageFix" result="effect1_dropShadow_6_186"/>
<feBlend mode="normal" in="SourceGraphic" in2="effect1_dropShadow_6_186" result="shape"/>
</filter>
<clipPath id="bgblur_1_6_186_clip_path" transform="translate(0 -25)"><path d="M113.697 60C126.887 60 137.579 70.6924 137.579 83.8818C137.579 84.9867 137.502 86.0737 137.356 87.1387H141.378V87.1406C141.438 87.1399 141.499 87.1387 141.56 87.1387C150.152 87.1389 157.118 94.1044 157.118 102.697C157.118 111.29 150.152 118.257 141.56 118.257C141.499 118.257 141.438 118.255 141.378 118.254V118.257H86.7402L86.7412 118.254C86.6807 118.255 86.6202 118.257 86.5596 118.257C77.9665 118.257 71 111.29 71 102.697C71.0001 94.1042 77.9665 87.1387 86.5596 87.1387C87.7752 87.1387 88.9584 87.2773 90.0938 87.541C89.9103 86.3481 89.8154 85.126 89.8154 83.8818C89.8154 70.6924 100.508 60 113.697 60Z"/>
</clipPath><filter id="filter2_d_6_186" x="47.7631" y="25" width="162.236" height="142.102" filterUnits="userSpaceOnUse" color-interpolation-filters="sRGB">
<feFlood flood-opacity="0" result="BackgroundImageFix"/>
<feColorMatrix in="SourceAlpha" type="matrix" values="0 0 0 0 0 0 0 0 0 0 0 0 0 0 0 0 0 0 127 0" result="hardAlpha"/>
<feOffset dx="-21" dy="15"/>
<feGaussianBlur stdDeviation="25"/>
<feComposite in2="hardAlpha" operator="out"/>
<feColorMatrix type="matrix" values="0 0 0 0 0.113438 0 0 0 0 0.148981 0 0 0 0 0.275 0 0 0 0.25 0"/>
<feBlend mode="normal" in2="BackgroundImageFix" result="effect1_dropShadow_6_186"/>
<feBlend mode="normal" in="SourceGraphic" in2="effect1_dropShadow_6_186" result="shape"/>
</filter>
<clipPath id="bgblur_2_6_186_clip_path" transform="translate(-47.7631 -25)"><path d="M149.62 60C159.151 60 166.879 67.727 166.879 77.2588C166.879 78.0571 166.824 78.8428 166.719 79.6123H169.624V79.6152C169.668 79.6147 169.712 79.6123 169.755 79.6123C175.965 79.6123 180.999 84.6465 180.999 90.8564C180.999 97.0666 175.965 102.102 169.755 102.102C169.712 102.102 169.668 102.098 169.624 102.098V102.102H130.138L130.14 102.098C130.096 102.098 130.051 102.102 130.007 102.102C123.797 102.101 118.763 97.0665 118.763 90.8564C118.763 84.6466 123.797 79.6125 130.007 79.6123C130.886 79.6123 131.742 79.7163 132.563 79.9072C132.43 79.0439 132.361 78.1593 132.361 77.2588C132.361 67.7272 140.088 60.0002 149.62 60Z"/>
</clipPath><radialGradient id="paint0_radial_6_186" cx="0" cy="0" r="1" gradientUnits="userSpaceOnUse" gradientTransform="translate(133 58) rotate(90) scale(20)">
<stop stop-color="white"/>
<stop offset="0.5" stop-color="#F3F4F6"/>
<stop offset="1" stop-color="#DADDE3"/>
</radialGradient>
<linearGradient id="paint1_linear_6_186" x1="145.196" y1="21.8706" x2="135.838" y2="69.4503" gradientUnits="userSpaceOnUse">
<stop stop-color="white"/>
<stop offset="1" stop-color="white" stop-opacity="0"/>
</linearGradient>
<linearGradient id="paint2_linear_6_186" x1="114.059" y1="41.365" x2="114.059" y2="126.398" gradientUnits="userSpaceOnUse">
<stop stop-color="white"/>
<stop offset="1" stop-color="white" stop-opacity="0"/>
</linearGradient>
<linearGradient id="paint3_linear_6_186" x1="114.059" y1="60" x2="114.059" y2="118.257" gradientUnits="userSpaceOnUse">
<stop stop-color="white"/>
<stop offset="1" stop-color="white" stop-opacity="0"/>
</linearGradient>
<linearGradient id="paint4_linear_6_186" x1="152.776" y1="61.2665" x2="152.776" y2="106.859" gradientUnits="userSpaceOnUse">
<stop stop-color="white"/>
<stop offset="1" stop-color="white" stop-opacity="0"/>
</linearGradient>
<linearGradient id="paint5_linear_6_186" x1="149.881" y1="60" x2="149.881" y2="102.102" gradientUnits="userSpaceOnUse">
<stop stop-color="white"/>
<stop offset="1" stop-color="white" stop-opacity="0"/>
</linearGradient>
</defs>
</svg>
