<svg width="129" height="115" viewBox="0 0 129 115" fill="none" xmlns="http://www.w3.org/2000/svg">
<path d="M48.2783 48H62.4219C63.1732 48.0003 63.6561 48.7982 63.3076 49.4639L54.4336 66.4043C53.3877 68.4018 54.837 70.7959 57.0918 70.7959H65.415C66.2793 70.796 66.7365 71.8188 66.1602 72.4629L36.2412 105.902C35.5041 106.726 34.1721 105.921 34.5586 104.886L42.6777 83.1582C43.4101 81.1976 41.9602 79.1084 39.8672 79.1084H32.3721C31.6127 79.1084 31.13 78.2953 31.4941 77.6289L47.4004 48.5205C47.5757 48.1997 47.9127 48 48.2783 48Z" fill="url(#paint0_linear_220_29)" stroke="url(#paint1_linear_220_29)" stroke-width="2"/>
<path d="M93.7052 0C104.426 0 113.117 8.69072 113.118 19.4112C113.118 20.3091 113.055 21.1928 112.937 22.0587H116.205V22.0601C116.254 22.0594 116.304 22.0587 116.353 22.0587C123.338 22.0587 129 27.721 129 34.7052C129 41.6901 123.338 47.3524 116.353 47.3524C116.304 47.3524 116.254 47.351 116.205 47.3503V47.3524H71.794L71.7947 47.3503C71.7456 47.351 71.6963 47.3524 71.647 47.3524C64.6623 47.3524 59 41.6901 59 34.7052C59.0001 27.721 64.6623 22.0587 71.647 22.0587C72.6353 22.0587 73.5973 22.1724 74.5203 22.3869C74.3712 21.4166 74.2942 20.4228 74.2942 19.4112C74.2943 8.69079 82.9852 0.000142071 93.7052 0Z" fill="url(#paint2_linear_220_29)"/>
<path d="M48.856 0C63.948 0 76.183 12.2343 76.184 27.326C76.184 28.59 76.096 29.834 75.93 31.053H80.53V31.055C80.599 31.054 80.669 31.053 80.738 31.053C90.571 31.053 98.542 39.024 98.542 48.856C98.542 58.689 90.571 66.66 80.738 66.66C80.669 66.66 80.599 66.658 80.53 66.657V66.66H18.0107L18.0117 66.657C17.9425 66.658 17.8731 66.66 17.8037 66.66C7.971 66.66 0 58.689 0 48.856C0.0002 39.024 7.9711 31.053 17.8037 31.053C19.195 31.053 20.5492 31.213 21.8486 31.515C21.6387 30.149 21.5303 28.75 21.5303 27.326C21.5305 12.2344 33.765 0.0002 48.856 0Z" fill="url(#paint3_linear_220_29)"/>
<defs>
<linearGradient id="paint0_linear_220_29" x1="53.4243" y1="50.9803" x2="44.3782" y2="90.2402" gradientUnits="userSpaceOnUse">
<stop stop-color="#FF4D00"/>
<stop offset="1" stop-color="#FFB800"/>
</linearGradient>
<linearGradient id="paint1_linear_220_29" x1="41.3026" y1="89.6974" x2="57.7664" y2="54.4178" gradientUnits="userSpaceOnUse">
<stop stop-color="white"/>
<stop offset="1" stop-color="white" stop-opacity="0"/>
</linearGradient>
<linearGradient id="paint2_linear_220_29" x1="97.2556" y1="1.42441" x2="97.2556" y2="52.7028" gradientUnits="userSpaceOnUse">
<stop stop-color="#AEAEAE"/>
<stop offset="1" stop-color="white" stop-opacity="0.5"/>
</linearGradient>
<linearGradient id="paint3_linear_220_29" x1="53.854" y1="2.0052" x2="53.854" y2="74.192" gradientUnits="userSpaceOnUse">
<stop stop-color="#AEAEAE"/>
<stop offset="1" stop-color="white" stop-opacity="0.5"/>
</linearGradient>
</defs>
</svg>
