<svg width="132" height="158" viewBox="0 0 132 158" fill="none" xmlns="http://www.w3.org/2000/svg">
<mask id="path-1-inside-1_220_29" fill="white">
<path d="M78.074 9.68537C80.3402 8.51976 82.6658 7.59718 85.0201 6.90776C88.4026 5.91728 90.6281 10.0171 89.1536 13.2183C85.2547 21.6834 85.1124 31.6805 89.6394 40.4815C95.9117 52.6756 109.264 58.913 122.383 56.9476C125.863 56.4263 129.153 59.7012 127.251 62.6611C123.683 68.2117 118.622 72.9479 112.29 76.2051C93.4715 85.8847 70.5566 78.8412 61.1081 60.4723C51.6596 42.1033 59.2557 19.3649 78.074 9.68537Z"/>
</mask>
<path d="M78.074 9.68537C80.3402 8.51976 82.6658 7.59718 85.0201 6.90776C88.4026 5.91728 90.6281 10.0171 89.1536 13.2183C85.2547 21.6834 85.1124 31.6805 89.6394 40.4815C95.9117 52.6756 109.264 58.913 122.383 56.9476C125.863 56.4263 129.153 59.7012 127.251 62.6611C123.683 68.2117 118.622 72.9479 112.29 76.2051C93.4715 85.8847 70.5566 78.8412 61.1081 60.4723C51.6596 42.1033 59.2557 19.3649 78.074 9.68537Z" fill="url(#paint0_radial_220_29)"/>
<path d="M78.074 9.68537L77.1592 7.90684L77.1592 7.90686L78.074 9.68537ZM89.6394 40.4815L87.8609 41.3963V41.3963L89.6394 40.4815ZM112.29 76.2051L113.205 77.9836L113.205 77.9836L112.29 76.2051ZM61.1081 60.4723L59.3296 61.3871L59.3296 61.3871L61.1081 60.4723ZM122.383 56.9476L122.679 58.9255L122.383 56.9476ZM127.251 62.6611L125.568 61.5796L127.251 62.6611ZM78.074 9.68537L78.9888 11.4639C81.1415 10.3566 83.349 9.4811 85.5822 8.82716L85.0201 6.90776L84.4581 4.98836C81.9826 5.71325 79.5388 6.68289 77.1592 7.90684L78.074 9.68537ZM89.1536 13.2183L87.3371 12.3816C83.1965 21.3712 83.0358 32.0158 87.8609 41.3963L89.6394 40.4815L91.4179 39.5667C87.189 31.3452 87.3128 21.9956 90.9702 14.055L89.1536 13.2183ZM89.6394 40.4815L87.8609 41.3963C94.5489 54.3987 108.764 61.0101 122.679 58.9255L122.383 56.9476L122.087 54.9697C109.764 56.8158 97.2745 50.9526 91.4179 39.5667L89.6394 40.4815ZM127.251 62.6611L125.568 61.5796C122.186 66.8407 117.388 71.3336 111.375 74.4266L112.29 76.2051L113.205 77.9836C119.856 74.5622 125.179 69.5827 128.933 63.7426L127.251 62.6611ZM112.29 76.2051L111.375 74.4266C93.4981 83.6219 71.8092 76.9038 62.8866 59.5575L61.1081 60.4723L59.3296 61.3871C69.3041 80.7786 93.4449 88.1474 113.205 77.9836L112.29 76.2051ZM61.1081 60.4723L62.8866 59.5575C53.9641 42.211 61.112 20.6592 78.9888 11.4639L78.074 9.68537L77.1592 7.90686C57.3994 18.0707 49.3551 41.9956 59.3296 61.3871L61.1081 60.4723ZM122.383 56.9476L122.679 58.9255C123.737 58.767 124.77 59.1988 125.354 59.8431C125.882 60.4241 125.943 60.9963 125.568 61.5796L127.251 62.6611L128.933 63.7426C130.461 61.3659 129.828 58.8207 128.316 57.1547C126.861 55.5519 124.508 54.6069 122.087 54.9697L122.383 56.9476ZM85.0201 6.90776L85.5822 8.82716C86.2472 8.63242 86.7857 8.85302 87.2015 9.53371C87.6609 10.2859 87.7858 11.4074 87.3371 12.3816L89.1536 13.2183L90.9702 14.055C91.996 11.828 91.7453 9.29897 90.615 7.44859C89.441 5.52668 87.1755 4.19262 84.4581 4.98836L85.0201 6.90776Z" fill="url(#paint1_linear_220_29)" mask="url(#path-1-inside-1_220_29)"/>
<path d="M48.2783 91H62.4219C63.1732 91.0003 63.6561 91.7982 63.3076 92.4639L54.4336 109.404C53.3877 111.402 54.837 113.796 57.0918 113.796H65.415C66.2793 113.796 66.7365 114.819 66.1602 115.463L36.2412 148.902C35.5041 149.726 34.1721 148.921 34.5586 147.886L42.6777 126.158C43.4101 124.198 41.9602 122.108 39.8672 122.108H32.3721C31.6127 122.108 31.13 121.295 31.4941 120.629L47.4004 91.5205C47.5757 91.1996 47.9127 91 48.2783 91Z" fill="url(#paint2_linear_220_29)" stroke="url(#paint3_linear_220_29)" stroke-width="2"/>
<path d="M93.7052 43C104.426 43 113.117 51.6907 113.118 62.4112C113.118 63.3091 113.055 64.1928 112.937 65.0587H116.205V65.0601C116.254 65.0594 116.304 65.0587 116.353 65.0587C123.338 65.0587 129 70.7209 129 77.7052C129 84.6901 123.338 90.3524 116.353 90.3524C116.304 90.3524 116.254 90.3509 116.205 90.3502V90.3524H71.794L71.7947 90.3502C71.7456 90.3509 71.6963 90.3524 71.647 90.3524C64.6623 90.3524 59 84.6901 59 77.7052C59.0001 70.7209 64.6623 65.0587 71.647 65.0587C72.6353 65.0587 73.5973 65.1723 74.5203 65.3869C74.3712 64.4165 74.2942 63.4227 74.2942 62.4112C74.2943 51.6908 82.9852 43.0001 93.7052 43Z" fill="url(#paint4_linear_220_29)"/>
<path d="M48.856 43C63.948 43 76.183 55.2343 76.184 70.326C76.184 71.59 76.096 72.834 75.93 74.053H80.53V74.055C80.599 74.054 80.669 74.053 80.738 74.053C90.571 74.053 98.542 82.024 98.542 91.856C98.542 101.689 90.571 109.66 80.738 109.66C80.669 109.66 80.599 109.658 80.53 109.657V109.66H18.0107L18.0117 109.657C17.9425 109.658 17.8731 109.66 17.8037 109.66C7.971 109.66 0 101.689 0 91.856C0.0002 82.024 7.9711 74.053 17.8037 74.053C19.195 74.053 20.5492 74.213 21.8486 74.515C21.6387 73.149 21.5303 71.75 21.5303 70.326C21.5305 55.2344 33.765 43.0002 48.856 43Z" fill="url(#paint5_linear_220_29)"/>
<defs>
<radialGradient id="paint0_radial_220_29" cx="0" cy="0" r="1" gradientUnits="userSpaceOnUse" gradientTransform="translate(86.6599 48.0697) rotate(62.7801) scale(37.4019 28.7283)">
<stop offset="0.0001" stop-color="white"/>
<stop offset="0.50005" stop-color="#F3F4F6"/>
<stop offset="1" stop-color="#DADDE3"/>
</radialGradient>
<linearGradient id="paint1_linear_220_29" x1="72.785" y1="-21.5139" x2="93.4702" y2="65.7864" gradientUnits="userSpaceOnUse">
<stop stop-color="white"/>
<stop offset="1" stop-color="white" stop-opacity="0"/>
</linearGradient>
<linearGradient id="paint2_linear_220_29" x1="53.4243" y1="93.9803" x2="44.3782" y2="133.24" gradientUnits="userSpaceOnUse">
<stop stop-color="#FF4D00"/>
<stop offset="1" stop-color="#FFB800"/>
</linearGradient>
<linearGradient id="paint3_linear_220_29" x1="41.3026" y1="132.697" x2="57.7664" y2="97.4178" gradientUnits="userSpaceOnUse">
<stop stop-color="white"/>
<stop offset="1" stop-color="white" stop-opacity="0"/>
</linearGradient>
<linearGradient id="paint4_linear_220_29" x1="97.2556" y1="44.4244" x2="97.2556" y2="95.7028" gradientUnits="userSpaceOnUse">
<stop stop-color="#AEAEAE"/>
<stop offset="1" stop-color="white" stop-opacity="0.5"/>
</linearGradient>
<linearGradient id="paint5_linear_220_29" x1="53.854" y1="45.0052" x2="53.854" y2="117.192" gradientUnits="userSpaceOnUse">
<stop stop-color="#AEAEAE"/>
<stop offset="1" stop-color="white" stop-opacity="0.5"/>
</linearGradient>
</defs>
</svg>
