<svg width="25" height="25" viewBox="0 0 25 25" fill="none" xmlns="http://www.w3.org/2000/svg">
<path d="M12.4999 22.9167C17.0937 22.9167 20.8333 19.1771 20.8333 14.5834C20.8333 6.78127 13.3333 2.40627 13.0208 2.21877C12.8643 2.12723 12.6864 2.07898 12.5051 2.07898C12.3239 2.07898 12.1459 2.12723 11.9895 2.21877C11.6666 2.39586 4.177 6.77086 4.177 14.5834C4.177 19.1771 7.91659 22.9167 12.5103 22.9167H12.4999ZM12.4999 4.36461C14.0833 5.43752 18.7499 9.07294 18.7499 14.5834C18.7499 18.0313 15.9478 20.8334 12.4999 20.8334C9.052 20.8334 6.24992 18.0313 6.24992 14.5834C6.24992 9.08336 10.9166 5.43752 12.4999 4.36461Z" fill="#FAFAFA"/>
</svg>
