<svg width="40" height="40" viewBox="0 0 40 40" fill="none" xmlns="http://www.w3.org/2000/svg">
<path d="M21.6666 9.16659C21.6666 5.94992 19.0499 3.33325 15.8333 3.33325C12.4499 3.33325 10.4166 5.88325 10.4166 8.33325H13.7499C13.7499 7.63325 14.3999 6.66659 15.8333 6.66659C17.2666 6.66659 18.3333 7.78325 18.3333 9.16659C18.3333 10.5499 17.2166 11.6666 15.8333 11.6666H3.33325V14.9999H15.8333C19.0499 14.9999 21.6666 12.3833 21.6666 9.16659ZM25.8333 24.9999H13.3333V28.3333H25.8333C27.2166 28.3333 28.3333 29.4499 28.3333 30.8333C28.3333 32.2166 27.2166 33.3333 25.8333 33.3333C24.4499 33.3333 23.7499 32.3666 23.7499 31.6666H20.4166C20.4166 34.1166 22.4499 36.6666 25.8333 36.6666C29.0499 36.6666 31.6666 34.0499 31.6666 30.8333C31.6666 27.6166 29.0499 24.9999 25.8333 24.9999Z" fill="#FAFAFA"/>
<path d="M29.9999 8.33325C26.3166 8.33325 23.3333 11.3166 23.3333 14.9999H26.6666C26.6666 13.1666 28.1666 11.6666 29.9999 11.6666C31.8333 11.6666 33.3333 13.1666 33.3333 14.9999C33.3333 16.8333 31.8333 18.3333 29.9999 18.3333H3.33325V21.6666H29.9999C33.6833 21.6666 36.6666 18.6833 36.6666 14.9999C36.6666 11.3166 33.6833 8.33325 29.9999 8.33325ZM3.33325 24.9999H9.99992V28.3333H3.33325V24.9999Z" fill="#FAFAFA"/>
</svg>
